<?xml version="1.0" standalone="no"?>
 <!DOCTYPE svg PUBLIC "-//W3C//DTD SVG 1.1//EN" 
 "http://www.w3.org/Graphics/SVG/1.1/DTD/svg11.dtd"> 
<svg
  xmlns:svg="http://www.w3.org/2000/svg"
  xmlns="http://www.w3.org/2000/svg"
  xmlns:xlink="http://www.w3.org/1999/xlink"
  version="1.1"
  width="0.2540mm" height="0.2540mm" viewBox="0.0000 0.0000 0.2540 0.2540">
<title>SVG Image created as bottomplate_l-F_Mask.svg date 2023/04/23 21:15:01 </title>
  <desc>Image generated by PCBNEW </desc>
<g style="fill:#000000; fill-opacity:1.0000;stroke:#000000; stroke-opacity:1.0000;
stroke-linecap:round; stroke-linejoin:round;"
 transform="translate(0 0) scale(1 1)">
</g>
<g style="fill:#000000; fill-opacity:0.0; 
stroke:#000000; stroke-width:0.0000; stroke-opacity:1; 
stroke-linecap:round; stroke-linejoin:round;">
<g >
</g>
<g style="fill:#D864FF; fill-opacity:0.0; 
stroke:#D864FF; stroke-width:0.0000; stroke-opacity:1; 
stroke-linecap:round; stroke-linejoin:round;">
</g>
<g style="fill:#D864FF; fill-opacity:0.4000; 
stroke:#D864FF; stroke-width:0.0000; stroke-opacity:1; 
stroke-linecap:round; stroke-linejoin:round;">
<circle cx="147.6375" cy="108.3469" r="2.1500" /> 
</g>
<g style="fill:#D864FF; fill-opacity:0.4000; 
stroke:#D864FF; stroke-width:0.0212; stroke-opacity:1; 
stroke-linecap:round; stroke-linejoin:round;">
</g>
<g >
</g>
<g style="fill:#D864FF; fill-opacity:0.4000; 
stroke:#D864FF; stroke-width:0.0212; stroke-opacity:1; 
stroke-linecap:round; stroke-linejoin:round;">
</g>
<g style="fill:#D864FF; fill-opacity:0.4000; 
stroke:#D864FF; stroke-width:0.0000; stroke-opacity:1; 
stroke-linecap:round; stroke-linejoin:round;">
<circle cx="76.2000" cy="45.2437" r="2.1500" /> 
</g>
<g style="fill:#D864FF; fill-opacity:0.4000; 
stroke:#D864FF; stroke-width:0.0212; stroke-opacity:1; 
stroke-linecap:round; stroke-linejoin:round;">
</g>
<g >
</g>
<g style="fill:#D864FF; fill-opacity:0.4000; 
stroke:#D864FF; stroke-width:0.0212; stroke-opacity:1; 
stroke-linecap:round; stroke-linejoin:round;">
</g>
<g style="fill:#D864FF; fill-opacity:0.4000; 
stroke:#D864FF; stroke-width:0.0000; stroke-opacity:1; 
stroke-linecap:round; stroke-linejoin:round;">
<circle cx="147.6375" cy="59.5312" r="2.1500" /> 
</g>
<g style="fill:#D864FF; fill-opacity:0.4000; 
stroke:#D864FF; stroke-width:0.0212; stroke-opacity:1; 
stroke-linecap:round; stroke-linejoin:round;">
</g>
<g >
</g>
<g style="fill:#D864FF; fill-opacity:0.4000; 
stroke:#D864FF; stroke-width:0.0212; stroke-opacity:1; 
stroke-linecap:round; stroke-linejoin:round;">
</g>
<g style="fill:#D864FF; fill-opacity:0.4000; 
stroke:#D864FF; stroke-width:0.0000; stroke-opacity:1; 
stroke-linecap:round; stroke-linejoin:round;">
<circle cx="128.5875" cy="59.5312" r="2.1500" /> 
</g>
<g style="fill:#D864FF; fill-opacity:0.4000; 
stroke:#D864FF; stroke-width:0.0212; stroke-opacity:1; 
stroke-linecap:round; stroke-linejoin:round;">
</g>
<g >
</g>
<g style="fill:#D864FF; fill-opacity:0.4000; 
stroke:#D864FF; stroke-width:0.0212; stroke-opacity:1; 
stroke-linecap:round; stroke-linejoin:round;">
</g>
<g style="fill:#D864FF; fill-opacity:0.4000; 
stroke:#D864FF; stroke-width:0.0000; stroke-opacity:1; 
stroke-linecap:round; stroke-linejoin:round;">
<circle cx="38.1000" cy="59.5312" r="2.1500" /> 
</g>
<g style="fill:#D864FF; fill-opacity:0.4000; 
stroke:#D864FF; stroke-width:0.0212; stroke-opacity:1; 
stroke-linecap:round; stroke-linejoin:round;">
</g>
<g >
</g>
<g style="fill:#D864FF; fill-opacity:0.4000; 
stroke:#D864FF; stroke-width:0.0212; stroke-opacity:1; 
stroke-linecap:round; stroke-linejoin:round;">
</g>
<g style="fill:#D864FF; fill-opacity:0.4000; 
stroke:#D864FF; stroke-width:0.0000; stroke-opacity:1; 
stroke-linecap:round; stroke-linejoin:round;">
<circle cx="38.1000" cy="40.4812" r="2.1500" /> 
</g>
<g style="fill:#D864FF; fill-opacity:0.4000; 
stroke:#D864FF; stroke-width:0.0212; stroke-opacity:1; 
stroke-linecap:round; stroke-linejoin:round;">
</g>
<g >
</g>
<g style="fill:#D864FF; fill-opacity:0.4000; 
stroke:#D864FF; stroke-width:0.0212; stroke-opacity:1; 
stroke-linecap:round; stroke-linejoin:round;">
</g>
<g style="fill:#D864FF; fill-opacity:0.4000; 
stroke:#D864FF; stroke-width:0.0000; stroke-opacity:1; 
stroke-linecap:round; stroke-linejoin:round;">
<circle cx="128.5875" cy="108.3469" r="2.1500" /> 
</g>
<g style="fill:#D864FF; fill-opacity:0.4000; 
stroke:#D864FF; stroke-width:0.0212; stroke-opacity:1; 
stroke-linecap:round; stroke-linejoin:round;">
</g>
<g >
</g>
<g style="fill:#D864FF; fill-opacity:0.4000; 
stroke:#D864FF; stroke-width:0.0212; stroke-opacity:1; 
stroke-linecap:round; stroke-linejoin:round;">
</g>
<g style="fill:#D864FF; fill-opacity:0.4000; 
stroke:#D864FF; stroke-width:0.0000; stroke-opacity:1; 
stroke-linecap:round; stroke-linejoin:round;">
<circle cx="76.2000" cy="83.3438" r="2.1500" /> 
</g>
<g style="fill:#D864FF; fill-opacity:0.4000; 
stroke:#D864FF; stroke-width:0.0212; stroke-opacity:1; 
stroke-linecap:round; stroke-linejoin:round;">
</g>
<g >
</g>
<g >
</g>
<g >
</g>
</g>
<g style="fill:#000000; fill-opacity:1.0000; 
stroke:#000000; stroke-width:0.0212; stroke-opacity:1; 
stroke-linecap:round; stroke-linejoin:round;">
</g>
<g style="fill:#D0D2CD; fill-opacity:1.0000; 
stroke:#D0D2CD; stroke-width:0.0212; stroke-opacity:1; 
stroke-linecap:round; stroke-linejoin:round;">
</g>
<g style="fill:#D0D2CD; fill-opacity:0.0; 
stroke:#D0D2CD; stroke-width:0.1000; stroke-opacity:1; 
stroke-linecap:round; stroke-linejoin:round;">
<path d="M19.0501 77.5813 A1.0000 1.0000 0.0 0 0 20.0500 78.5812" />
<path d="M38.1000 79.5812
L38.1000 82.3438
" />
<path d="M109.5376 115.6813 A1.0000 1.0000 0.0 0 0 110.5375 116.6812" />
<path d="M38.1000 22.4312
L38.1000 25.1937
" />
<path d="M114.3000 31.9562
L114.3000 39.4812
" />
<path d="M90.4875 103.3937
L90.4875 106.1562
" />
<path d="M71.4375 101.3938 A1.0000 1.0000 0.0 0 0 72.4375 102.3937" />
<path d="M38.0999 79.5812 A1.0000 1.0000 0.0 0 0 37.1000 78.5812" />
<path d="M109.5375 108.1562 A1.0000 1.0000 0.0 0 0 108.5375 107.1562" />
<path d="M20.0500 78.5812
L37.1000 78.5812
" />
<path d="M39.1000 26.1937
L94.2500 26.1937
" />
<path d="M37.1000 21.4312
L20.0500 21.4312
" />
<path d="M109.5375 108.1562
L109.5375 115.6812
" />
<path d="M91.4875 107.1562
L108.5375 107.1562
" />
<path d="M38.1000 22.4312 A1.0000 1.0000 0.0 0 0 37.1000 21.4312" />
<path d="M95.2500 27.1937
L95.2500 29.9562
" />
<path d="M151.4000 126.2062 A0.9999 0.9999 0.0 0 0 152.4000 125.2063" />
<path d="M39.1000 83.3438
L70.4375 83.3438
" />
<path d="M128.5875 117.6812
L128.5875 125.2062
" />
<path d="M152.4000 41.4812 A1.0000 1.0000 0.0 0 0 151.4000 40.4812" />
<path d="M96.2500 30.9562
L113.3000 30.9562
" />
<path d="M128.5874 117.6812 A1.0000 1.0000 0.0 0 0 127.5875 116.6812" />
<path d="M72.4375 102.3937
L89.4875 102.3937
" />
<path d="M38.1001 82.3438 A1.0000 1.0000 0.0 0 0 39.1000 83.3438" />
<path d="M128.5876 125.2063 A1.0000 1.0000 0.0 0 0 129.5875 126.2062" />
<path d="M115.3000 40.4812
L151.4000 40.4812
" />
<path d="M95.2501 29.9563 A1.0000 1.0000 0.0 0 0 96.2500 30.9562" />
<path d="M90.4874 103.3937 A1.0000 1.0000 0.0 0 0 89.4875 102.3937" />
<path d="M110.5375 116.6812
L127.5875 116.6812
" />
<path d="M90.4876 106.1563 A1.0000 1.0000 0.0 0 0 91.4875 107.1562" />
<path d="M38.1001 25.1938 A1.0000 1.0000 0.0 0 0 39.1000 26.1937" />
<path d="M71.4375 84.3438
L71.4375 101.3937
" />
<path d="M20.0500 21.4313 A0.9999 0.9999 0.0 0 0 19.0500 22.4312" />
<path d="M114.3000 39.4813 A1.0000 1.0000 0.0 0 0 115.3000 40.4813" />
<path d="M129.5875 126.2062
L151.4000 126.2062
" />
<path d="M19.0500 22.4312
L19.0500 77.5812
" />
<path d="M71.4374 84.3437 A1.0000 1.0000 0.0 0 0 70.4375 83.3438" />
<path d="M114.3000 31.9562 A1.0000 1.0000 0.0 0 0 113.3000 30.9562" />
<path d="M95.2499 27.1937 A1.0000 1.0000 0.0 0 0 94.2500 26.1938" />
<path d="M152.4000 125.2062
L152.4000 41.4812
" />
<g >
</g>
<g >
</g>
<g >
</g>
<g >
</g>
<g >
</g>
<g >
</g>
<g >
</g>
<g >
</g>
<g >
</g>
<g >
</g>
<g >
</g>
</g> 
</svg>
