%TF.GenerationSoftware,KiCad,Pcbnew,(7.0.0)*%
%TF.CreationDate,2023-04-23T19:00:17+09:00*%
%TF.ProjectId,pcb_r,7063625f-722e-46b6-9963-61645f706362,rev?*%
%TF.SameCoordinates,Original*%
%TF.FileFunction,Profile,NP*%
%FSLAX46Y46*%
G04 Gerber Fmt 4.6, Leading zero omitted, Abs format (unit mm)*
G04 Created by KiCad (PCBNEW (7.0.0)) date 2023-04-23 19:00:17*
%MOMM*%
%LPD*%
G01*
G04 APERTURE LIST*
%TA.AperFunction,Profile*%
%ADD10C,0.100000*%
%TD*%
G04 APERTURE END LIST*
D10*
X279988085Y-78581185D02*
G75*
G03*
X280988085Y-77581250I115J999885D01*
G01*
X261938085Y-79581250D02*
X261938085Y-82343750D01*
X189500585Y-116681185D02*
G75*
G03*
X190500585Y-115681250I115J999885D01*
G01*
X185738085Y-31956250D02*
X185738085Y-39481250D01*
X208550585Y-107156250D02*
X191500585Y-107156250D01*
X227600585Y-102393785D02*
G75*
G03*
X228600585Y-101393750I-85J1000085D01*
G01*
X209550585Y-103393750D02*
X209550585Y-106156250D01*
X279988085Y-78581250D02*
X262938085Y-78581250D01*
X260938085Y-26193750D02*
X205788085Y-26193750D01*
X262938085Y-21431250D02*
X279988085Y-21431250D01*
X191500585Y-107156285D02*
G75*
G03*
X190500585Y-108156250I-85J-999915D01*
G01*
X190500585Y-108156250D02*
X190500585Y-115681250D01*
X261938085Y-22431250D02*
X261938085Y-25193750D01*
X262938085Y-21431185D02*
G75*
G03*
X261938085Y-22431250I115J-1000115D01*
G01*
X204788085Y-27193750D02*
X204788085Y-29956250D01*
X147638050Y-125206250D02*
G75*
G03*
X148638085Y-126206250I999850J-150D01*
G01*
X260938085Y-83343750D02*
X229600585Y-83343750D01*
X171450585Y-117681250D02*
X171450585Y-125206250D01*
X208550585Y-107156185D02*
G75*
G03*
X209550585Y-106156250I115J999885D01*
G01*
X203788085Y-30956250D02*
X186738085Y-30956250D01*
X172450585Y-116681285D02*
G75*
G03*
X171450585Y-117681250I-85J-999915D01*
G01*
X227600585Y-102393750D02*
X210550585Y-102393750D01*
X260938085Y-83343685D02*
G75*
G03*
X261938085Y-82343750I115J999885D01*
G01*
X170450585Y-126206185D02*
G75*
G03*
X171450585Y-125206250I115J999885D01*
G01*
X210550585Y-102393785D02*
G75*
G03*
X209550585Y-103393750I-85J-999915D01*
G01*
X184738085Y-40481250D02*
X148638085Y-40481250D01*
X203788085Y-30956185D02*
G75*
G03*
X204788085Y-29956250I115J999885D01*
G01*
X189500585Y-116681250D02*
X172450585Y-116681250D01*
X148638085Y-40481285D02*
G75*
G03*
X147638085Y-41481250I-85J-999915D01*
G01*
X260938085Y-26193685D02*
G75*
G03*
X261938085Y-25193750I115J999885D01*
G01*
X228600585Y-84343750D02*
X228600585Y-101393750D01*
X280988150Y-22431250D02*
G75*
G03*
X279988085Y-21431250I-999950J50D01*
G01*
X184738085Y-40481285D02*
G75*
G03*
X185738085Y-39481250I-85J1000085D01*
G01*
X170450585Y-126206250D02*
X148638085Y-126206250D01*
X280988085Y-22431250D02*
X280988085Y-77581250D01*
X229600585Y-83343785D02*
G75*
G03*
X228600585Y-84343750I-85J-999915D01*
G01*
X262938085Y-78581185D02*
G75*
G03*
X261938085Y-79581250I115J-1000115D01*
G01*
X186738085Y-30956185D02*
G75*
G03*
X185738085Y-31956250I115J-1000115D01*
G01*
X205788085Y-26193785D02*
G75*
G03*
X204788085Y-27193750I-85J-999915D01*
G01*
X147638085Y-125206250D02*
X147638085Y-41481250D01*
M02*
