%TF.GenerationSoftware,KiCad,Pcbnew,(7.0.0)*%
%TF.CreationDate,2023-04-23T19:00:17+09:00*%
%TF.ProjectId,pcb_r,7063625f-722e-46b6-9963-61645f706362,rev?*%
%TF.SameCoordinates,Original*%
%TF.FileFunction,Soldermask,Bot*%
%TF.FilePolarity,Negative*%
%FSLAX46Y46*%
G04 Gerber Fmt 4.6, Leading zero omitted, Abs format (unit mm)*
G04 Created by KiCad (PCBNEW (7.0.0)) date 2023-04-23 19:00:17*
%MOMM*%
%LPD*%
G01*
G04 APERTURE LIST*
%ADD10C,1.900000*%
%ADD11C,3.000000*%
%ADD12C,4.100000*%
%ADD13R,2.550000X2.500000*%
%ADD14C,4.300000*%
%ADD15C,1.524000*%
%ADD16C,2.000000*%
%ADD17C,1.200000*%
%ADD18O,2.500000X1.700000*%
%ADD19R,1.400000X1.300000*%
G04 APERTURE END LIST*
D10*
%TO.C,SW28*%
X266382500Y-30956250D03*
D11*
X267652500Y-28416250D03*
D12*
X271462500Y-30956250D03*
D11*
X274002500Y-25876250D03*
D10*
X276542500Y-30956250D03*
D13*
X264377499Y-28416249D03*
X277304499Y-25876249D03*
%TD*%
D10*
%TO.C,SW30*%
X190182500Y-59531250D03*
D11*
X191452500Y-56991250D03*
D12*
X195262500Y-59531250D03*
D11*
X197802500Y-54451250D03*
D10*
X200342500Y-59531250D03*
D13*
X188177499Y-56991249D03*
X201104499Y-54451249D03*
%TD*%
D14*
%TO.C,Ref\u002A\u002A*%
X171450000Y-59531250D03*
%TD*%
D10*
%TO.C,SW40*%
X266382500Y-69056250D03*
D11*
X267652500Y-66516250D03*
D12*
X271462500Y-69056250D03*
D11*
X274002500Y-63976250D03*
D10*
X276542500Y-69056250D03*
D13*
X264377499Y-66516249D03*
X277304499Y-63976249D03*
%TD*%
D10*
%TO.C,SW43*%
X194945000Y-97631250D03*
D11*
X196215000Y-95091250D03*
D12*
X200025000Y-97631250D03*
D11*
X202565000Y-92551250D03*
D10*
X205105000Y-97631250D03*
D13*
X192939999Y-95091249D03*
X205866999Y-92551249D03*
%TD*%
D15*
%TO.C,U1*%
X164773900Y-47434500D03*
X164773900Y-49974500D03*
X164773900Y-52514500D03*
X164773900Y-55054500D03*
X164773900Y-57594500D03*
X164773900Y-60134500D03*
X164773900Y-62674500D03*
X164773900Y-65214500D03*
X164773900Y-67754500D03*
X164773900Y-70294500D03*
X164773900Y-72834500D03*
X164773900Y-75374500D03*
X149553900Y-75374500D03*
X149553900Y-72834500D03*
X149553900Y-70294500D03*
X149553900Y-67754500D03*
X149553900Y-65214500D03*
X149553900Y-62674500D03*
X149553900Y-60134500D03*
X149553900Y-57594500D03*
X149553900Y-55054500D03*
X149553900Y-52514500D03*
X149553900Y-49974500D03*
X149553900Y-47434500D03*
%TD*%
D10*
%TO.C,SW44*%
X213995000Y-92868750D03*
D11*
X215265000Y-90328750D03*
D12*
X219075000Y-92868750D03*
D11*
X221615000Y-87788750D03*
D10*
X224155000Y-92868750D03*
D13*
X211989999Y-90328749D03*
X224916999Y-87788749D03*
%TD*%
D10*
%TO.C,SW39*%
X247332500Y-73818750D03*
D11*
X248602500Y-71278750D03*
D12*
X252412500Y-73818750D03*
D11*
X254952500Y-68738750D03*
D10*
X257492500Y-73818750D03*
D13*
X245327499Y-71278749D03*
X258254499Y-68738749D03*
%TD*%
D10*
%TO.C,SW41*%
X156845000Y-116681250D03*
D11*
X158115000Y-114141250D03*
D12*
X161925000Y-116681250D03*
D11*
X164465000Y-111601250D03*
D10*
X167005000Y-116681250D03*
D13*
X154839999Y-114141249D03*
X167766999Y-111601249D03*
%TD*%
D14*
%TO.C,Ref\u002A\u002A*%
X261937500Y-59531250D03*
%TD*%
D10*
%TO.C,SW23*%
X171132500Y-50006250D03*
D11*
X172402500Y-47466250D03*
D12*
X176212500Y-50006250D03*
D11*
X178752500Y-44926250D03*
D10*
X181292500Y-50006250D03*
D13*
X169127499Y-47466249D03*
X182054499Y-44926249D03*
%TD*%
D10*
%TO.C,SW25*%
X209232500Y-35718750D03*
D11*
X210502500Y-33178750D03*
D12*
X214312500Y-35718750D03*
D11*
X216852500Y-30638750D03*
D10*
X219392500Y-35718750D03*
D13*
X207227499Y-33178749D03*
X220154499Y-30638749D03*
%TD*%
D10*
%TO.C,SW36*%
X190182500Y-78581250D03*
D11*
X191452500Y-76041250D03*
D12*
X195262500Y-78581250D03*
D11*
X197802500Y-73501250D03*
D10*
X200342500Y-78581250D03*
D13*
X188177499Y-76041249D03*
X201104499Y-73501249D03*
%TD*%
D10*
%TO.C,SW32*%
X228282500Y-54768750D03*
D11*
X229552500Y-52228750D03*
D12*
X233362500Y-54768750D03*
D11*
X235902500Y-49688750D03*
D10*
X238442500Y-54768750D03*
D13*
X226277499Y-52228749D03*
X239204499Y-49688749D03*
%TD*%
D16*
%TO.C,RESW1*%
X150018750Y-78903125D03*
X150018750Y-85403125D03*
%TD*%
D10*
%TO.C,SW38*%
X228282500Y-73818750D03*
D11*
X229552500Y-71278750D03*
D12*
X233362500Y-73818750D03*
D11*
X235902500Y-68738750D03*
D10*
X238442500Y-73818750D03*
D13*
X226277499Y-71278749D03*
X239204499Y-68738749D03*
%TD*%
D10*
%TO.C,SW27*%
X247332500Y-35718750D03*
D11*
X248602500Y-33178750D03*
D12*
X252412500Y-35718750D03*
D11*
X254952500Y-30638750D03*
D10*
X257492500Y-35718750D03*
D13*
X245327499Y-33178749D03*
X258254499Y-30638749D03*
%TD*%
D10*
%TO.C,SW42*%
X175895000Y-107156250D03*
D11*
X177165000Y-104616250D03*
D12*
X180975000Y-107156250D03*
D11*
X183515000Y-102076250D03*
D10*
X186055000Y-107156250D03*
D13*
X173889999Y-104616249D03*
X186816999Y-102076249D03*
%TD*%
D10*
%TO.C,SW33*%
X247332500Y-54768750D03*
D11*
X248602500Y-52228750D03*
D12*
X252412500Y-54768750D03*
D11*
X254952500Y-49688750D03*
D10*
X257492500Y-54768750D03*
D13*
X245327499Y-52228749D03*
X258254499Y-49688749D03*
%TD*%
D17*
%TO.C,J1*%
X149575000Y-90487500D03*
X156575000Y-90487500D03*
D18*
X159874999Y-92587499D03*
X151374999Y-88387499D03*
X154374999Y-88387499D03*
X158374999Y-88387499D03*
%TD*%
D14*
%TO.C,Ref\u002A\u002A*%
X223837500Y-45243750D03*
%TD*%
D10*
%TO.C,SW31*%
X209232500Y-54768750D03*
D11*
X210502500Y-52228750D03*
D12*
X214312500Y-54768750D03*
D11*
X216852500Y-49688750D03*
D10*
X219392500Y-54768750D03*
D13*
X207227499Y-52228749D03*
X220154499Y-49688749D03*
%TD*%
D14*
%TO.C,Ref\u002A\u002A*%
X261937500Y-40481250D03*
%TD*%
D10*
%TO.C,SW34*%
X266382500Y-50006250D03*
D11*
X267652500Y-47466250D03*
D12*
X271462500Y-50006250D03*
D11*
X274002500Y-44926250D03*
D10*
X276542500Y-50006250D03*
D13*
X264377499Y-47466249D03*
X277304499Y-44926249D03*
%TD*%
D10*
%TO.C,SW26*%
X228282500Y-35718750D03*
D11*
X229552500Y-33178750D03*
D12*
X233362500Y-35718750D03*
D11*
X235902500Y-30638750D03*
D10*
X238442500Y-35718750D03*
D13*
X226277499Y-33178749D03*
X239204499Y-30638749D03*
%TD*%
D10*
%TO.C,SW35*%
X171132500Y-88106250D03*
D11*
X172402500Y-85566250D03*
D12*
X176212500Y-88106250D03*
D11*
X178752500Y-83026250D03*
D10*
X181292500Y-88106250D03*
D13*
X169127499Y-85566249D03*
X182054499Y-83026249D03*
%TD*%
D10*
%TO.C,SW37*%
X209232500Y-73818750D03*
D11*
X210502500Y-71278750D03*
D12*
X214312500Y-73818750D03*
D11*
X216852500Y-68738750D03*
D10*
X219392500Y-73818750D03*
D13*
X207227499Y-71278749D03*
X220154499Y-68738749D03*
%TD*%
D10*
%TO.C,SW29*%
X171132500Y-69056250D03*
D11*
X172402500Y-66516250D03*
D12*
X176212500Y-69056250D03*
D11*
X178752500Y-63976250D03*
D10*
X181292500Y-69056250D03*
D13*
X169127499Y-66516249D03*
X182054499Y-63976249D03*
%TD*%
D14*
%TO.C,Ref\u002A\u002A*%
X171450000Y-108346875D03*
%TD*%
D10*
%TO.C,SW24*%
X190182500Y-40481250D03*
D11*
X191452500Y-37941250D03*
D12*
X195262500Y-40481250D03*
D11*
X197802500Y-35401250D03*
D10*
X200342500Y-40481250D03*
D13*
X188177499Y-37941249D03*
X201104499Y-35401249D03*
%TD*%
D14*
%TO.C,Ref\u002A\u002A*%
X223837500Y-83343750D03*
%TD*%
D19*
%TO.C,D29*%
X174437499Y-73818749D03*
X177987499Y-73818749D03*
%TD*%
%TO.C,D31*%
X212537499Y-59531249D03*
X216087499Y-59531249D03*
%TD*%
%TO.C,D26*%
X231587499Y-40481249D03*
X235137499Y-40481249D03*
%TD*%
%TO.C,D40*%
X269687499Y-73818749D03*
X273237499Y-73818749D03*
%TD*%
%TO.C,D25*%
X212537499Y-40481249D03*
X216087499Y-40481249D03*
%TD*%
%TO.C,D37*%
X212537499Y-78581249D03*
X216087499Y-78581249D03*
%TD*%
%TO.C,D38*%
X231587499Y-78581249D03*
X235137499Y-78581249D03*
%TD*%
%TO.C,D41*%
X160149999Y-121443749D03*
X163699999Y-121443749D03*
%TD*%
%TO.C,D36*%
X193487499Y-83343749D03*
X197037499Y-83343749D03*
%TD*%
%TO.C,D34*%
X269687499Y-54768749D03*
X273237499Y-54768749D03*
%TD*%
%TO.C,D39*%
X250637499Y-78581249D03*
X254187499Y-78581249D03*
%TD*%
%TO.C,D35*%
X174437499Y-92868749D03*
X177987499Y-92868749D03*
%TD*%
%TO.C,D28*%
X269687499Y-35718749D03*
X273237499Y-35718749D03*
%TD*%
%TO.C,D24*%
X193487499Y-45243749D03*
X197037499Y-45243749D03*
%TD*%
%TO.C,D42*%
X179199999Y-111918749D03*
X182749999Y-111918749D03*
%TD*%
%TO.C,D32*%
X231587499Y-59531249D03*
X235137499Y-59531249D03*
%TD*%
%TO.C,D33*%
X250637499Y-59531249D03*
X254187499Y-59531249D03*
%TD*%
%TO.C,D27*%
X250637499Y-40481249D03*
X254187499Y-40481249D03*
%TD*%
%TO.C,D30*%
X193487499Y-64293749D03*
X197037499Y-64293749D03*
%TD*%
%TO.C,D43*%
X198249999Y-102393749D03*
X201799999Y-102393749D03*
%TD*%
%TO.C,D23*%
X174437499Y-54768749D03*
X177987499Y-54768749D03*
%TD*%
%TO.C,D44*%
X217299999Y-97631249D03*
X220849999Y-97631249D03*
%TD*%
M02*
