%TF.GenerationSoftware,KiCad,Pcbnew,(7.0.0)*%
%TF.CreationDate,2023-04-23T19:00:17+09:00*%
%TF.ProjectId,pcb_r,7063625f-722e-46b6-9963-61645f706362,rev?*%
%TF.SameCoordinates,Original*%
%TF.FileFunction,Legend,Top*%
%TF.FilePolarity,Positive*%
%FSLAX46Y46*%
G04 Gerber Fmt 4.6, Leading zero omitted, Abs format (unit mm)*
G04 Created by KiCad (PCBNEW (7.0.0)) date 2023-04-23 19:00:17*
%MOMM*%
%LPD*%
G01*
G04 APERTURE LIST*
%ADD10C,0.125000*%
%ADD11C,0.120000*%
%ADD12C,0.150000*%
G04 APERTURE END LIST*
D10*
%TO.C,U1*%
X151634881Y-70588035D02*
X151252024Y-70588035D01*
X151443452Y-70588035D02*
X151443452Y-69838035D01*
X151443452Y-69838035D02*
X151379643Y-69945178D01*
X151379643Y-69945178D02*
X151315833Y-70016607D01*
X151315833Y-70016607D02*
X151252024Y-70052321D01*
X152209166Y-70088035D02*
X152209166Y-70588035D01*
X152049642Y-69802321D02*
X151890119Y-70338035D01*
X151890119Y-70338035D02*
X152304880Y-70338035D01*
X153038690Y-69802321D02*
X152464404Y-70766607D01*
X153485357Y-70195178D02*
X153581071Y-70230892D01*
X153581071Y-70230892D02*
X153612976Y-70266607D01*
X153612976Y-70266607D02*
X153644880Y-70338035D01*
X153644880Y-70338035D02*
X153644880Y-70445178D01*
X153644880Y-70445178D02*
X153612976Y-70516607D01*
X153612976Y-70516607D02*
X153581071Y-70552321D01*
X153581071Y-70552321D02*
X153517261Y-70588035D01*
X153517261Y-70588035D02*
X153262023Y-70588035D01*
X153262023Y-70588035D02*
X153262023Y-69838035D01*
X153262023Y-69838035D02*
X153485357Y-69838035D01*
X153485357Y-69838035D02*
X153549166Y-69873750D01*
X153549166Y-69873750D02*
X153581071Y-69909464D01*
X153581071Y-69909464D02*
X153612976Y-69980892D01*
X153612976Y-69980892D02*
X153612976Y-70052321D01*
X153612976Y-70052321D02*
X153581071Y-70123750D01*
X153581071Y-70123750D02*
X153549166Y-70159464D01*
X153549166Y-70159464D02*
X153485357Y-70195178D01*
X153485357Y-70195178D02*
X153262023Y-70195178D01*
X153868214Y-69838035D02*
X154282976Y-69838035D01*
X154282976Y-69838035D02*
X154059642Y-70123750D01*
X154059642Y-70123750D02*
X154155357Y-70123750D01*
X154155357Y-70123750D02*
X154219166Y-70159464D01*
X154219166Y-70159464D02*
X154251071Y-70195178D01*
X154251071Y-70195178D02*
X154282976Y-70266607D01*
X154282976Y-70266607D02*
X154282976Y-70445178D01*
X154282976Y-70445178D02*
X154251071Y-70516607D01*
X154251071Y-70516607D02*
X154219166Y-70552321D01*
X154219166Y-70552321D02*
X154155357Y-70588035D01*
X154155357Y-70588035D02*
X153963928Y-70588035D01*
X153963928Y-70588035D02*
X153900119Y-70552321D01*
X153900119Y-70552321D02*
X153868214Y-70516607D01*
X159498928Y-50288035D02*
X159498928Y-49538035D01*
X159498928Y-49538035D02*
X159658452Y-49538035D01*
X159658452Y-49538035D02*
X159754166Y-49573750D01*
X159754166Y-49573750D02*
X159817976Y-49645178D01*
X159817976Y-49645178D02*
X159849881Y-49716607D01*
X159849881Y-49716607D02*
X159881785Y-49859464D01*
X159881785Y-49859464D02*
X159881785Y-49966607D01*
X159881785Y-49966607D02*
X159849881Y-50109464D01*
X159849881Y-50109464D02*
X159817976Y-50180892D01*
X159817976Y-50180892D02*
X159754166Y-50252321D01*
X159754166Y-50252321D02*
X159658452Y-50288035D01*
X159658452Y-50288035D02*
X159498928Y-50288035D01*
X160137024Y-49609464D02*
X160168928Y-49573750D01*
X160168928Y-49573750D02*
X160232738Y-49538035D01*
X160232738Y-49538035D02*
X160392262Y-49538035D01*
X160392262Y-49538035D02*
X160456071Y-49573750D01*
X160456071Y-49573750D02*
X160487976Y-49609464D01*
X160487976Y-49609464D02*
X160519881Y-49680892D01*
X160519881Y-49680892D02*
X160519881Y-49752321D01*
X160519881Y-49752321D02*
X160487976Y-49859464D01*
X160487976Y-49859464D02*
X160105119Y-50288035D01*
X160105119Y-50288035D02*
X160519881Y-50288035D01*
X161285595Y-49502321D02*
X160711309Y-50466607D01*
X161891785Y-50288035D02*
X161668452Y-49930892D01*
X161508928Y-50288035D02*
X161508928Y-49538035D01*
X161508928Y-49538035D02*
X161764166Y-49538035D01*
X161764166Y-49538035D02*
X161827976Y-49573750D01*
X161827976Y-49573750D02*
X161859881Y-49609464D01*
X161859881Y-49609464D02*
X161891785Y-49680892D01*
X161891785Y-49680892D02*
X161891785Y-49788035D01*
X161891785Y-49788035D02*
X161859881Y-49859464D01*
X161859881Y-49859464D02*
X161827976Y-49895178D01*
X161827976Y-49895178D02*
X161764166Y-49930892D01*
X161764166Y-49930892D02*
X161508928Y-49930892D01*
X162115119Y-49538035D02*
X162561785Y-50288035D01*
X162561785Y-49538035D02*
X162115119Y-50288035D01*
X163167976Y-50288035D02*
X162785119Y-50288035D01*
X162976547Y-50288035D02*
X162976547Y-49538035D01*
X162976547Y-49538035D02*
X162912738Y-49645178D01*
X162912738Y-49645178D02*
X162848928Y-49716607D01*
X162848928Y-49716607D02*
X162785119Y-49752321D01*
X161085833Y-65266607D02*
X161053929Y-65302321D01*
X161053929Y-65302321D02*
X160958214Y-65338035D01*
X160958214Y-65338035D02*
X160894405Y-65338035D01*
X160894405Y-65338035D02*
X160798691Y-65302321D01*
X160798691Y-65302321D02*
X160734881Y-65230892D01*
X160734881Y-65230892D02*
X160702976Y-65159464D01*
X160702976Y-65159464D02*
X160671072Y-65016607D01*
X160671072Y-65016607D02*
X160671072Y-64909464D01*
X160671072Y-64909464D02*
X160702976Y-64766607D01*
X160702976Y-64766607D02*
X160734881Y-64695178D01*
X160734881Y-64695178D02*
X160798691Y-64623750D01*
X160798691Y-64623750D02*
X160894405Y-64588035D01*
X160894405Y-64588035D02*
X160958214Y-64588035D01*
X160958214Y-64588035D02*
X161053929Y-64623750D01*
X161053929Y-64623750D02*
X161085833Y-64659464D01*
X161660119Y-64588035D02*
X161532500Y-64588035D01*
X161532500Y-64588035D02*
X161468691Y-64623750D01*
X161468691Y-64623750D02*
X161436786Y-64659464D01*
X161436786Y-64659464D02*
X161372976Y-64766607D01*
X161372976Y-64766607D02*
X161341072Y-64909464D01*
X161341072Y-64909464D02*
X161341072Y-65195178D01*
X161341072Y-65195178D02*
X161372976Y-65266607D01*
X161372976Y-65266607D02*
X161404881Y-65302321D01*
X161404881Y-65302321D02*
X161468691Y-65338035D01*
X161468691Y-65338035D02*
X161596310Y-65338035D01*
X161596310Y-65338035D02*
X161660119Y-65302321D01*
X161660119Y-65302321D02*
X161692024Y-65266607D01*
X161692024Y-65266607D02*
X161723929Y-65195178D01*
X161723929Y-65195178D02*
X161723929Y-65016607D01*
X161723929Y-65016607D02*
X161692024Y-64945178D01*
X161692024Y-64945178D02*
X161660119Y-64909464D01*
X161660119Y-64909464D02*
X161596310Y-64873750D01*
X161596310Y-64873750D02*
X161468691Y-64873750D01*
X161468691Y-64873750D02*
X161404881Y-64909464D01*
X161404881Y-64909464D02*
X161372976Y-64945178D01*
X161372976Y-64945178D02*
X161341072Y-65016607D01*
X162489643Y-64552321D02*
X161915357Y-65516607D01*
X163032024Y-64588035D02*
X162712976Y-64588035D01*
X162712976Y-64588035D02*
X162681072Y-64945178D01*
X162681072Y-64945178D02*
X162712976Y-64909464D01*
X162712976Y-64909464D02*
X162776786Y-64873750D01*
X162776786Y-64873750D02*
X162936310Y-64873750D01*
X162936310Y-64873750D02*
X163000119Y-64909464D01*
X163000119Y-64909464D02*
X163032024Y-64945178D01*
X163032024Y-64945178D02*
X163063929Y-65016607D01*
X163063929Y-65016607D02*
X163063929Y-65195178D01*
X163063929Y-65195178D02*
X163032024Y-65266607D01*
X163032024Y-65266607D02*
X163000119Y-65302321D01*
X163000119Y-65302321D02*
X162936310Y-65338035D01*
X162936310Y-65338035D02*
X162776786Y-65338035D01*
X162776786Y-65338035D02*
X162712976Y-65302321D01*
X162712976Y-65302321D02*
X162681072Y-65266607D01*
X160702976Y-62788035D02*
X160702976Y-62038035D01*
X160702976Y-62038035D02*
X160862500Y-62038035D01*
X160862500Y-62038035D02*
X160958214Y-62073750D01*
X160958214Y-62073750D02*
X161022024Y-62145178D01*
X161022024Y-62145178D02*
X161053929Y-62216607D01*
X161053929Y-62216607D02*
X161085833Y-62359464D01*
X161085833Y-62359464D02*
X161085833Y-62466607D01*
X161085833Y-62466607D02*
X161053929Y-62609464D01*
X161053929Y-62609464D02*
X161022024Y-62680892D01*
X161022024Y-62680892D02*
X160958214Y-62752321D01*
X160958214Y-62752321D02*
X160862500Y-62788035D01*
X160862500Y-62788035D02*
X160702976Y-62788035D01*
X161660119Y-62288035D02*
X161660119Y-62788035D01*
X161500595Y-62002321D02*
X161341072Y-62538035D01*
X161341072Y-62538035D02*
X161755833Y-62538035D01*
X162489643Y-62002321D02*
X161915357Y-62966607D01*
X163000119Y-62288035D02*
X163000119Y-62788035D01*
X162840595Y-62002321D02*
X162681072Y-62538035D01*
X162681072Y-62538035D02*
X163095833Y-62538035D01*
X151634881Y-68038035D02*
X151252024Y-68038035D01*
X151443452Y-68038035D02*
X151443452Y-67288035D01*
X151443452Y-67288035D02*
X151379643Y-67395178D01*
X151379643Y-67395178D02*
X151315833Y-67466607D01*
X151315833Y-67466607D02*
X151252024Y-67502321D01*
X152241071Y-67288035D02*
X151922023Y-67288035D01*
X151922023Y-67288035D02*
X151890119Y-67645178D01*
X151890119Y-67645178D02*
X151922023Y-67609464D01*
X151922023Y-67609464D02*
X151985833Y-67573750D01*
X151985833Y-67573750D02*
X152145357Y-67573750D01*
X152145357Y-67573750D02*
X152209166Y-67609464D01*
X152209166Y-67609464D02*
X152241071Y-67645178D01*
X152241071Y-67645178D02*
X152272976Y-67716607D01*
X152272976Y-67716607D02*
X152272976Y-67895178D01*
X152272976Y-67895178D02*
X152241071Y-67966607D01*
X152241071Y-67966607D02*
X152209166Y-68002321D01*
X152209166Y-68002321D02*
X152145357Y-68038035D01*
X152145357Y-68038035D02*
X151985833Y-68038035D01*
X151985833Y-68038035D02*
X151922023Y-68002321D01*
X151922023Y-68002321D02*
X151890119Y-67966607D01*
X153038690Y-67252321D02*
X152464404Y-68216607D01*
X153485357Y-67645178D02*
X153581071Y-67680892D01*
X153581071Y-67680892D02*
X153612976Y-67716607D01*
X153612976Y-67716607D02*
X153644880Y-67788035D01*
X153644880Y-67788035D02*
X153644880Y-67895178D01*
X153644880Y-67895178D02*
X153612976Y-67966607D01*
X153612976Y-67966607D02*
X153581071Y-68002321D01*
X153581071Y-68002321D02*
X153517261Y-68038035D01*
X153517261Y-68038035D02*
X153262023Y-68038035D01*
X153262023Y-68038035D02*
X153262023Y-67288035D01*
X153262023Y-67288035D02*
X153485357Y-67288035D01*
X153485357Y-67288035D02*
X153549166Y-67323750D01*
X153549166Y-67323750D02*
X153581071Y-67359464D01*
X153581071Y-67359464D02*
X153612976Y-67430892D01*
X153612976Y-67430892D02*
X153612976Y-67502321D01*
X153612976Y-67502321D02*
X153581071Y-67573750D01*
X153581071Y-67573750D02*
X153549166Y-67609464D01*
X153549166Y-67609464D02*
X153485357Y-67645178D01*
X153485357Y-67645178D02*
X153262023Y-67645178D01*
X154282976Y-68038035D02*
X153900119Y-68038035D01*
X154091547Y-68038035D02*
X154091547Y-67288035D01*
X154091547Y-67288035D02*
X154027738Y-67395178D01*
X154027738Y-67395178D02*
X153963928Y-67466607D01*
X153963928Y-67466607D02*
X153900119Y-67502321D01*
X151634881Y-73138035D02*
X151252024Y-73138035D01*
X151443452Y-73138035D02*
X151443452Y-72388035D01*
X151443452Y-72388035D02*
X151379643Y-72495178D01*
X151379643Y-72495178D02*
X151315833Y-72566607D01*
X151315833Y-72566607D02*
X151252024Y-72602321D01*
X152209166Y-72388035D02*
X152081547Y-72388035D01*
X152081547Y-72388035D02*
X152017738Y-72423750D01*
X152017738Y-72423750D02*
X151985833Y-72459464D01*
X151985833Y-72459464D02*
X151922023Y-72566607D01*
X151922023Y-72566607D02*
X151890119Y-72709464D01*
X151890119Y-72709464D02*
X151890119Y-72995178D01*
X151890119Y-72995178D02*
X151922023Y-73066607D01*
X151922023Y-73066607D02*
X151953928Y-73102321D01*
X151953928Y-73102321D02*
X152017738Y-73138035D01*
X152017738Y-73138035D02*
X152145357Y-73138035D01*
X152145357Y-73138035D02*
X152209166Y-73102321D01*
X152209166Y-73102321D02*
X152241071Y-73066607D01*
X152241071Y-73066607D02*
X152272976Y-72995178D01*
X152272976Y-72995178D02*
X152272976Y-72816607D01*
X152272976Y-72816607D02*
X152241071Y-72745178D01*
X152241071Y-72745178D02*
X152209166Y-72709464D01*
X152209166Y-72709464D02*
X152145357Y-72673750D01*
X152145357Y-72673750D02*
X152017738Y-72673750D01*
X152017738Y-72673750D02*
X151953928Y-72709464D01*
X151953928Y-72709464D02*
X151922023Y-72745178D01*
X151922023Y-72745178D02*
X151890119Y-72816607D01*
X153038690Y-72352321D02*
X152464404Y-73316607D01*
X153485357Y-72745178D02*
X153581071Y-72780892D01*
X153581071Y-72780892D02*
X153612976Y-72816607D01*
X153612976Y-72816607D02*
X153644880Y-72888035D01*
X153644880Y-72888035D02*
X153644880Y-72995178D01*
X153644880Y-72995178D02*
X153612976Y-73066607D01*
X153612976Y-73066607D02*
X153581071Y-73102321D01*
X153581071Y-73102321D02*
X153517261Y-73138035D01*
X153517261Y-73138035D02*
X153262023Y-73138035D01*
X153262023Y-73138035D02*
X153262023Y-72388035D01*
X153262023Y-72388035D02*
X153485357Y-72388035D01*
X153485357Y-72388035D02*
X153549166Y-72423750D01*
X153549166Y-72423750D02*
X153581071Y-72459464D01*
X153581071Y-72459464D02*
X153612976Y-72530892D01*
X153612976Y-72530892D02*
X153612976Y-72602321D01*
X153612976Y-72602321D02*
X153581071Y-72673750D01*
X153581071Y-72673750D02*
X153549166Y-72709464D01*
X153549166Y-72709464D02*
X153485357Y-72745178D01*
X153485357Y-72745178D02*
X153262023Y-72745178D01*
X153900119Y-72459464D02*
X153932023Y-72423750D01*
X153932023Y-72423750D02*
X153995833Y-72388035D01*
X153995833Y-72388035D02*
X154155357Y-72388035D01*
X154155357Y-72388035D02*
X154219166Y-72423750D01*
X154219166Y-72423750D02*
X154251071Y-72459464D01*
X154251071Y-72459464D02*
X154282976Y-72530892D01*
X154282976Y-72530892D02*
X154282976Y-72602321D01*
X154282976Y-72602321D02*
X154251071Y-72709464D01*
X154251071Y-72709464D02*
X153868214Y-73138035D01*
X153868214Y-73138035D02*
X154282976Y-73138035D01*
X151657024Y-49523750D02*
X151593214Y-49488035D01*
X151593214Y-49488035D02*
X151497500Y-49488035D01*
X151497500Y-49488035D02*
X151401786Y-49523750D01*
X151401786Y-49523750D02*
X151337976Y-49595178D01*
X151337976Y-49595178D02*
X151306071Y-49666607D01*
X151306071Y-49666607D02*
X151274167Y-49809464D01*
X151274167Y-49809464D02*
X151274167Y-49916607D01*
X151274167Y-49916607D02*
X151306071Y-50059464D01*
X151306071Y-50059464D02*
X151337976Y-50130892D01*
X151337976Y-50130892D02*
X151401786Y-50202321D01*
X151401786Y-50202321D02*
X151497500Y-50238035D01*
X151497500Y-50238035D02*
X151561309Y-50238035D01*
X151561309Y-50238035D02*
X151657024Y-50202321D01*
X151657024Y-50202321D02*
X151688928Y-50166607D01*
X151688928Y-50166607D02*
X151688928Y-49916607D01*
X151688928Y-49916607D02*
X151561309Y-49916607D01*
X151976071Y-50238035D02*
X151976071Y-49488035D01*
X151976071Y-49488035D02*
X152358928Y-50238035D01*
X152358928Y-50238035D02*
X152358928Y-49488035D01*
X152677976Y-50238035D02*
X152677976Y-49488035D01*
X152677976Y-49488035D02*
X152837500Y-49488035D01*
X152837500Y-49488035D02*
X152933214Y-49523750D01*
X152933214Y-49523750D02*
X152997024Y-49595178D01*
X152997024Y-49595178D02*
X153028929Y-49666607D01*
X153028929Y-49666607D02*
X153060833Y-49809464D01*
X153060833Y-49809464D02*
X153060833Y-49916607D01*
X153060833Y-49916607D02*
X153028929Y-50059464D01*
X153028929Y-50059464D02*
X152997024Y-50130892D01*
X152997024Y-50130892D02*
X152933214Y-50202321D01*
X152933214Y-50202321D02*
X152837500Y-50238035D01*
X152837500Y-50238035D02*
X152677976Y-50238035D01*
X151331786Y-65273750D02*
X151650833Y-65273750D01*
X151267976Y-65488035D02*
X151491309Y-64738035D01*
X151491309Y-64738035D02*
X151714643Y-65488035D01*
X152065595Y-64738035D02*
X152129405Y-64738035D01*
X152129405Y-64738035D02*
X152193214Y-64773750D01*
X152193214Y-64773750D02*
X152225119Y-64809464D01*
X152225119Y-64809464D02*
X152257024Y-64880892D01*
X152257024Y-64880892D02*
X152288929Y-65023750D01*
X152288929Y-65023750D02*
X152288929Y-65202321D01*
X152288929Y-65202321D02*
X152257024Y-65345178D01*
X152257024Y-65345178D02*
X152225119Y-65416607D01*
X152225119Y-65416607D02*
X152193214Y-65452321D01*
X152193214Y-65452321D02*
X152129405Y-65488035D01*
X152129405Y-65488035D02*
X152065595Y-65488035D01*
X152065595Y-65488035D02*
X152001786Y-65452321D01*
X152001786Y-65452321D02*
X151969881Y-65416607D01*
X151969881Y-65416607D02*
X151937976Y-65345178D01*
X151937976Y-65345178D02*
X151906072Y-65202321D01*
X151906072Y-65202321D02*
X151906072Y-65023750D01*
X151906072Y-65023750D02*
X151937976Y-64880892D01*
X151937976Y-64880892D02*
X151969881Y-64809464D01*
X151969881Y-64809464D02*
X152001786Y-64773750D01*
X152001786Y-64773750D02*
X152065595Y-64738035D01*
X153054643Y-64702321D02*
X152480357Y-65666607D01*
X153501310Y-65095178D02*
X153277976Y-65095178D01*
X153277976Y-65488035D02*
X153277976Y-64738035D01*
X153277976Y-64738035D02*
X153597024Y-64738035D01*
X153788453Y-64738035D02*
X154235119Y-64738035D01*
X154235119Y-64738035D02*
X153947977Y-65488035D01*
X151704880Y-47688035D02*
X151481547Y-47330892D01*
X151322023Y-47688035D02*
X151322023Y-46938035D01*
X151322023Y-46938035D02*
X151577261Y-46938035D01*
X151577261Y-46938035D02*
X151641071Y-46973750D01*
X151641071Y-46973750D02*
X151672976Y-47009464D01*
X151672976Y-47009464D02*
X151704880Y-47080892D01*
X151704880Y-47080892D02*
X151704880Y-47188035D01*
X151704880Y-47188035D02*
X151672976Y-47259464D01*
X151672976Y-47259464D02*
X151641071Y-47295178D01*
X151641071Y-47295178D02*
X151577261Y-47330892D01*
X151577261Y-47330892D02*
X151322023Y-47330892D01*
X151960119Y-47473750D02*
X152279166Y-47473750D01*
X151896309Y-47688035D02*
X152119642Y-46938035D01*
X152119642Y-46938035D02*
X152342976Y-47688035D01*
X152502500Y-46938035D02*
X152662024Y-47688035D01*
X152662024Y-47688035D02*
X152789643Y-47152321D01*
X152789643Y-47152321D02*
X152917262Y-47688035D01*
X152917262Y-47688035D02*
X153076786Y-46938035D01*
X151331786Y-62723750D02*
X151650833Y-62723750D01*
X151267976Y-62938035D02*
X151491309Y-62188035D01*
X151491309Y-62188035D02*
X151714643Y-62938035D01*
X152288929Y-62938035D02*
X151906072Y-62938035D01*
X152097500Y-62938035D02*
X152097500Y-62188035D01*
X152097500Y-62188035D02*
X152033691Y-62295178D01*
X152033691Y-62295178D02*
X151969881Y-62366607D01*
X151969881Y-62366607D02*
X151906072Y-62402321D01*
X153054643Y-62152321D02*
X152480357Y-63116607D01*
X153501310Y-62545178D02*
X153277976Y-62545178D01*
X153277976Y-62938035D02*
X153277976Y-62188035D01*
X153277976Y-62188035D02*
X153597024Y-62188035D01*
X154139405Y-62188035D02*
X154011786Y-62188035D01*
X154011786Y-62188035D02*
X153947977Y-62223750D01*
X153947977Y-62223750D02*
X153916072Y-62259464D01*
X153916072Y-62259464D02*
X153852262Y-62366607D01*
X153852262Y-62366607D02*
X153820358Y-62509464D01*
X153820358Y-62509464D02*
X153820358Y-62795178D01*
X153820358Y-62795178D02*
X153852262Y-62866607D01*
X153852262Y-62866607D02*
X153884167Y-62902321D01*
X153884167Y-62902321D02*
X153947977Y-62938035D01*
X153947977Y-62938035D02*
X154075596Y-62938035D01*
X154075596Y-62938035D02*
X154139405Y-62902321D01*
X154139405Y-62902321D02*
X154171310Y-62866607D01*
X154171310Y-62866607D02*
X154203215Y-62795178D01*
X154203215Y-62795178D02*
X154203215Y-62616607D01*
X154203215Y-62616607D02*
X154171310Y-62545178D01*
X154171310Y-62545178D02*
X154139405Y-62509464D01*
X154139405Y-62509464D02*
X154075596Y-62473750D01*
X154075596Y-62473750D02*
X153947977Y-62473750D01*
X153947977Y-62473750D02*
X153884167Y-62509464D01*
X153884167Y-62509464D02*
X153852262Y-62545178D01*
X153852262Y-62545178D02*
X153820358Y-62616607D01*
X151331786Y-57723750D02*
X151650833Y-57723750D01*
X151267976Y-57938035D02*
X151491309Y-57188035D01*
X151491309Y-57188035D02*
X151714643Y-57938035D01*
X151874167Y-57188035D02*
X152288929Y-57188035D01*
X152288929Y-57188035D02*
X152065595Y-57473750D01*
X152065595Y-57473750D02*
X152161310Y-57473750D01*
X152161310Y-57473750D02*
X152225119Y-57509464D01*
X152225119Y-57509464D02*
X152257024Y-57545178D01*
X152257024Y-57545178D02*
X152288929Y-57616607D01*
X152288929Y-57616607D02*
X152288929Y-57795178D01*
X152288929Y-57795178D02*
X152257024Y-57866607D01*
X152257024Y-57866607D02*
X152225119Y-57902321D01*
X152225119Y-57902321D02*
X152161310Y-57938035D01*
X152161310Y-57938035D02*
X151969881Y-57938035D01*
X151969881Y-57938035D02*
X151906072Y-57902321D01*
X151906072Y-57902321D02*
X151874167Y-57866607D01*
X153054643Y-57152321D02*
X152480357Y-58116607D01*
X153501310Y-57545178D02*
X153277976Y-57545178D01*
X153277976Y-57938035D02*
X153277976Y-57188035D01*
X153277976Y-57188035D02*
X153597024Y-57188035D01*
X154139405Y-57438035D02*
X154139405Y-57938035D01*
X153979881Y-57152321D02*
X153820358Y-57688035D01*
X153820358Y-57688035D02*
X154235119Y-57688035D01*
D11*
X154666071Y-43238035D02*
X154666071Y-42488035D01*
X154666071Y-42488035D02*
X154916071Y-43023750D01*
X154916071Y-43023750D02*
X155166071Y-42488035D01*
X155166071Y-42488035D02*
X155166071Y-43238035D01*
X155523214Y-43238035D02*
X155523214Y-42738035D01*
X155523214Y-42488035D02*
X155487500Y-42523750D01*
X155487500Y-42523750D02*
X155523214Y-42559464D01*
X155523214Y-42559464D02*
X155558928Y-42523750D01*
X155558928Y-42523750D02*
X155523214Y-42488035D01*
X155523214Y-42488035D02*
X155523214Y-42559464D01*
X156201786Y-43202321D02*
X156130357Y-43238035D01*
X156130357Y-43238035D02*
X155987500Y-43238035D01*
X155987500Y-43238035D02*
X155916071Y-43202321D01*
X155916071Y-43202321D02*
X155880357Y-43166607D01*
X155880357Y-43166607D02*
X155844643Y-43095178D01*
X155844643Y-43095178D02*
X155844643Y-42880892D01*
X155844643Y-42880892D02*
X155880357Y-42809464D01*
X155880357Y-42809464D02*
X155916071Y-42773750D01*
X155916071Y-42773750D02*
X155987500Y-42738035D01*
X155987500Y-42738035D02*
X156130357Y-42738035D01*
X156130357Y-42738035D02*
X156201786Y-42773750D01*
X156523214Y-43238035D02*
X156523214Y-42738035D01*
X156523214Y-42880892D02*
X156558928Y-42809464D01*
X156558928Y-42809464D02*
X156594643Y-42773750D01*
X156594643Y-42773750D02*
X156666071Y-42738035D01*
X156666071Y-42738035D02*
X156737500Y-42738035D01*
X157094643Y-43238035D02*
X157023214Y-43202321D01*
X157023214Y-43202321D02*
X156987500Y-43166607D01*
X156987500Y-43166607D02*
X156951786Y-43095178D01*
X156951786Y-43095178D02*
X156951786Y-42880892D01*
X156951786Y-42880892D02*
X156987500Y-42809464D01*
X156987500Y-42809464D02*
X157023214Y-42773750D01*
X157023214Y-42773750D02*
X157094643Y-42738035D01*
X157094643Y-42738035D02*
X157201786Y-42738035D01*
X157201786Y-42738035D02*
X157273214Y-42773750D01*
X157273214Y-42773750D02*
X157308929Y-42809464D01*
X157308929Y-42809464D02*
X157344643Y-42880892D01*
X157344643Y-42880892D02*
X157344643Y-43095178D01*
X157344643Y-43095178D02*
X157308929Y-43166607D01*
X157308929Y-43166607D02*
X157273214Y-43202321D01*
X157273214Y-43202321D02*
X157201786Y-43238035D01*
X157201786Y-43238035D02*
X157094643Y-43238035D01*
X157666071Y-42488035D02*
X157666071Y-43095178D01*
X157666071Y-43095178D02*
X157701785Y-43166607D01*
X157701785Y-43166607D02*
X157737500Y-43202321D01*
X157737500Y-43202321D02*
X157808928Y-43238035D01*
X157808928Y-43238035D02*
X157951785Y-43238035D01*
X157951785Y-43238035D02*
X158023214Y-43202321D01*
X158023214Y-43202321D02*
X158058928Y-43166607D01*
X158058928Y-43166607D02*
X158094642Y-43095178D01*
X158094642Y-43095178D02*
X158094642Y-42488035D01*
X158416071Y-43202321D02*
X158523214Y-43238035D01*
X158523214Y-43238035D02*
X158701785Y-43238035D01*
X158701785Y-43238035D02*
X158773214Y-43202321D01*
X158773214Y-43202321D02*
X158808928Y-43166607D01*
X158808928Y-43166607D02*
X158844642Y-43095178D01*
X158844642Y-43095178D02*
X158844642Y-43023750D01*
X158844642Y-43023750D02*
X158808928Y-42952321D01*
X158808928Y-42952321D02*
X158773214Y-42916607D01*
X158773214Y-42916607D02*
X158701785Y-42880892D01*
X158701785Y-42880892D02*
X158558928Y-42845178D01*
X158558928Y-42845178D02*
X158487499Y-42809464D01*
X158487499Y-42809464D02*
X158451785Y-42773750D01*
X158451785Y-42773750D02*
X158416071Y-42702321D01*
X158416071Y-42702321D02*
X158416071Y-42630892D01*
X158416071Y-42630892D02*
X158451785Y-42559464D01*
X158451785Y-42559464D02*
X158487499Y-42523750D01*
X158487499Y-42523750D02*
X158558928Y-42488035D01*
X158558928Y-42488035D02*
X158737499Y-42488035D01*
X158737499Y-42488035D02*
X158844642Y-42523750D01*
X159416071Y-42845178D02*
X159523214Y-42880892D01*
X159523214Y-42880892D02*
X159558928Y-42916607D01*
X159558928Y-42916607D02*
X159594642Y-42988035D01*
X159594642Y-42988035D02*
X159594642Y-43095178D01*
X159594642Y-43095178D02*
X159558928Y-43166607D01*
X159558928Y-43166607D02*
X159523214Y-43202321D01*
X159523214Y-43202321D02*
X159451785Y-43238035D01*
X159451785Y-43238035D02*
X159166071Y-43238035D01*
X159166071Y-43238035D02*
X159166071Y-42488035D01*
X159166071Y-42488035D02*
X159416071Y-42488035D01*
X159416071Y-42488035D02*
X159487500Y-42523750D01*
X159487500Y-42523750D02*
X159523214Y-42559464D01*
X159523214Y-42559464D02*
X159558928Y-42630892D01*
X159558928Y-42630892D02*
X159558928Y-42702321D01*
X159558928Y-42702321D02*
X159523214Y-42773750D01*
X159523214Y-42773750D02*
X159487500Y-42809464D01*
X159487500Y-42809464D02*
X159416071Y-42845178D01*
X159416071Y-42845178D02*
X159166071Y-42845178D01*
D10*
X151331786Y-60223750D02*
X151650833Y-60223750D01*
X151267976Y-60438035D02*
X151491309Y-59688035D01*
X151491309Y-59688035D02*
X151714643Y-60438035D01*
X151906072Y-59759464D02*
X151937976Y-59723750D01*
X151937976Y-59723750D02*
X152001786Y-59688035D01*
X152001786Y-59688035D02*
X152161310Y-59688035D01*
X152161310Y-59688035D02*
X152225119Y-59723750D01*
X152225119Y-59723750D02*
X152257024Y-59759464D01*
X152257024Y-59759464D02*
X152288929Y-59830892D01*
X152288929Y-59830892D02*
X152288929Y-59902321D01*
X152288929Y-59902321D02*
X152257024Y-60009464D01*
X152257024Y-60009464D02*
X151874167Y-60438035D01*
X151874167Y-60438035D02*
X152288929Y-60438035D01*
X153054643Y-59652321D02*
X152480357Y-60616607D01*
X153501310Y-60045178D02*
X153277976Y-60045178D01*
X153277976Y-60438035D02*
X153277976Y-59688035D01*
X153277976Y-59688035D02*
X153597024Y-59688035D01*
X154171310Y-59688035D02*
X153852262Y-59688035D01*
X153852262Y-59688035D02*
X153820358Y-60045178D01*
X153820358Y-60045178D02*
X153852262Y-60009464D01*
X153852262Y-60009464D02*
X153916072Y-59973750D01*
X153916072Y-59973750D02*
X154075596Y-59973750D01*
X154075596Y-59973750D02*
X154139405Y-60009464D01*
X154139405Y-60009464D02*
X154171310Y-60045178D01*
X154171310Y-60045178D02*
X154203215Y-60116607D01*
X154203215Y-60116607D02*
X154203215Y-60295178D01*
X154203215Y-60295178D02*
X154171310Y-60366607D01*
X154171310Y-60366607D02*
X154139405Y-60402321D01*
X154139405Y-60402321D02*
X154075596Y-60438035D01*
X154075596Y-60438035D02*
X153916072Y-60438035D01*
X153916072Y-60438035D02*
X153852262Y-60402321D01*
X153852262Y-60402321D02*
X153820358Y-60366607D01*
X158128929Y-57752321D02*
X158224643Y-57788035D01*
X158224643Y-57788035D02*
X158384167Y-57788035D01*
X158384167Y-57788035D02*
X158447976Y-57752321D01*
X158447976Y-57752321D02*
X158479881Y-57716607D01*
X158479881Y-57716607D02*
X158511786Y-57645178D01*
X158511786Y-57645178D02*
X158511786Y-57573750D01*
X158511786Y-57573750D02*
X158479881Y-57502321D01*
X158479881Y-57502321D02*
X158447976Y-57466607D01*
X158447976Y-57466607D02*
X158384167Y-57430892D01*
X158384167Y-57430892D02*
X158256548Y-57395178D01*
X158256548Y-57395178D02*
X158192738Y-57359464D01*
X158192738Y-57359464D02*
X158160833Y-57323750D01*
X158160833Y-57323750D02*
X158128929Y-57252321D01*
X158128929Y-57252321D02*
X158128929Y-57180892D01*
X158128929Y-57180892D02*
X158160833Y-57109464D01*
X158160833Y-57109464D02*
X158192738Y-57073750D01*
X158192738Y-57073750D02*
X158256548Y-57038035D01*
X158256548Y-57038035D02*
X158416071Y-57038035D01*
X158416071Y-57038035D02*
X158511786Y-57073750D01*
X158798928Y-57788035D02*
X158798928Y-57038035D01*
X158798928Y-57038035D02*
X158958452Y-57038035D01*
X158958452Y-57038035D02*
X159054166Y-57073750D01*
X159054166Y-57073750D02*
X159117976Y-57145178D01*
X159117976Y-57145178D02*
X159149881Y-57216607D01*
X159149881Y-57216607D02*
X159181785Y-57359464D01*
X159181785Y-57359464D02*
X159181785Y-57466607D01*
X159181785Y-57466607D02*
X159149881Y-57609464D01*
X159149881Y-57609464D02*
X159117976Y-57680892D01*
X159117976Y-57680892D02*
X159054166Y-57752321D01*
X159054166Y-57752321D02*
X158958452Y-57788035D01*
X158958452Y-57788035D02*
X158798928Y-57788035D01*
X159437024Y-57573750D02*
X159756071Y-57573750D01*
X159373214Y-57788035D02*
X159596547Y-57038035D01*
X159596547Y-57038035D02*
X159819881Y-57788035D01*
X160521786Y-57002321D02*
X159947500Y-57966607D01*
X160745119Y-57788035D02*
X160745119Y-57038035D01*
X160745119Y-57038035D02*
X160904643Y-57038035D01*
X160904643Y-57038035D02*
X161000357Y-57073750D01*
X161000357Y-57073750D02*
X161064167Y-57145178D01*
X161064167Y-57145178D02*
X161096072Y-57216607D01*
X161096072Y-57216607D02*
X161127976Y-57359464D01*
X161127976Y-57359464D02*
X161127976Y-57466607D01*
X161127976Y-57466607D02*
X161096072Y-57609464D01*
X161096072Y-57609464D02*
X161064167Y-57680892D01*
X161064167Y-57680892D02*
X161000357Y-57752321D01*
X161000357Y-57752321D02*
X160904643Y-57788035D01*
X160904643Y-57788035D02*
X160745119Y-57788035D01*
X161766072Y-57788035D02*
X161383215Y-57788035D01*
X161574643Y-57788035D02*
X161574643Y-57038035D01*
X161574643Y-57038035D02*
X161510834Y-57145178D01*
X161510834Y-57145178D02*
X161447024Y-57216607D01*
X161447024Y-57216607D02*
X161383215Y-57252321D01*
X162531786Y-57002321D02*
X161957500Y-57966607D01*
X162723215Y-57109464D02*
X162755119Y-57073750D01*
X162755119Y-57073750D02*
X162818929Y-57038035D01*
X162818929Y-57038035D02*
X162978453Y-57038035D01*
X162978453Y-57038035D02*
X163042262Y-57073750D01*
X163042262Y-57073750D02*
X163074167Y-57109464D01*
X163074167Y-57109464D02*
X163106072Y-57180892D01*
X163106072Y-57180892D02*
X163106072Y-57252321D01*
X163106072Y-57252321D02*
X163074167Y-57359464D01*
X163074167Y-57359464D02*
X162691310Y-57788035D01*
X162691310Y-57788035D02*
X163106072Y-57788035D01*
X161607024Y-52123750D02*
X161543214Y-52088035D01*
X161543214Y-52088035D02*
X161447500Y-52088035D01*
X161447500Y-52088035D02*
X161351786Y-52123750D01*
X161351786Y-52123750D02*
X161287976Y-52195178D01*
X161287976Y-52195178D02*
X161256071Y-52266607D01*
X161256071Y-52266607D02*
X161224167Y-52409464D01*
X161224167Y-52409464D02*
X161224167Y-52516607D01*
X161224167Y-52516607D02*
X161256071Y-52659464D01*
X161256071Y-52659464D02*
X161287976Y-52730892D01*
X161287976Y-52730892D02*
X161351786Y-52802321D01*
X161351786Y-52802321D02*
X161447500Y-52838035D01*
X161447500Y-52838035D02*
X161511309Y-52838035D01*
X161511309Y-52838035D02*
X161607024Y-52802321D01*
X161607024Y-52802321D02*
X161638928Y-52766607D01*
X161638928Y-52766607D02*
X161638928Y-52516607D01*
X161638928Y-52516607D02*
X161511309Y-52516607D01*
X161926071Y-52838035D02*
X161926071Y-52088035D01*
X161926071Y-52088035D02*
X162308928Y-52838035D01*
X162308928Y-52838035D02*
X162308928Y-52088035D01*
X162627976Y-52838035D02*
X162627976Y-52088035D01*
X162627976Y-52088035D02*
X162787500Y-52088035D01*
X162787500Y-52088035D02*
X162883214Y-52123750D01*
X162883214Y-52123750D02*
X162947024Y-52195178D01*
X162947024Y-52195178D02*
X162978929Y-52266607D01*
X162978929Y-52266607D02*
X163010833Y-52409464D01*
X163010833Y-52409464D02*
X163010833Y-52516607D01*
X163010833Y-52516607D02*
X162978929Y-52659464D01*
X162978929Y-52659464D02*
X162947024Y-52730892D01*
X162947024Y-52730892D02*
X162883214Y-52802321D01*
X162883214Y-52802321D02*
X162787500Y-52838035D01*
X162787500Y-52838035D02*
X162627976Y-52838035D01*
X160926310Y-75095178D02*
X161022024Y-75130892D01*
X161022024Y-75130892D02*
X161053929Y-75166607D01*
X161053929Y-75166607D02*
X161085833Y-75238035D01*
X161085833Y-75238035D02*
X161085833Y-75345178D01*
X161085833Y-75345178D02*
X161053929Y-75416607D01*
X161053929Y-75416607D02*
X161022024Y-75452321D01*
X161022024Y-75452321D02*
X160958214Y-75488035D01*
X160958214Y-75488035D02*
X160702976Y-75488035D01*
X160702976Y-75488035D02*
X160702976Y-74738035D01*
X160702976Y-74738035D02*
X160926310Y-74738035D01*
X160926310Y-74738035D02*
X160990119Y-74773750D01*
X160990119Y-74773750D02*
X161022024Y-74809464D01*
X161022024Y-74809464D02*
X161053929Y-74880892D01*
X161053929Y-74880892D02*
X161053929Y-74952321D01*
X161053929Y-74952321D02*
X161022024Y-75023750D01*
X161022024Y-75023750D02*
X160990119Y-75059464D01*
X160990119Y-75059464D02*
X160926310Y-75095178D01*
X160926310Y-75095178D02*
X160702976Y-75095178D01*
X161692024Y-74738035D02*
X161372976Y-74738035D01*
X161372976Y-74738035D02*
X161341072Y-75095178D01*
X161341072Y-75095178D02*
X161372976Y-75059464D01*
X161372976Y-75059464D02*
X161436786Y-75023750D01*
X161436786Y-75023750D02*
X161596310Y-75023750D01*
X161596310Y-75023750D02*
X161660119Y-75059464D01*
X161660119Y-75059464D02*
X161692024Y-75095178D01*
X161692024Y-75095178D02*
X161723929Y-75166607D01*
X161723929Y-75166607D02*
X161723929Y-75345178D01*
X161723929Y-75345178D02*
X161692024Y-75416607D01*
X161692024Y-75416607D02*
X161660119Y-75452321D01*
X161660119Y-75452321D02*
X161596310Y-75488035D01*
X161596310Y-75488035D02*
X161436786Y-75488035D01*
X161436786Y-75488035D02*
X161372976Y-75452321D01*
X161372976Y-75452321D02*
X161341072Y-75416607D01*
X162489643Y-74702321D02*
X161915357Y-75666607D01*
X162744881Y-75488035D02*
X162872500Y-75488035D01*
X162872500Y-75488035D02*
X162936310Y-75452321D01*
X162936310Y-75452321D02*
X162968214Y-75416607D01*
X162968214Y-75416607D02*
X163032024Y-75309464D01*
X163032024Y-75309464D02*
X163063929Y-75166607D01*
X163063929Y-75166607D02*
X163063929Y-74880892D01*
X163063929Y-74880892D02*
X163032024Y-74809464D01*
X163032024Y-74809464D02*
X163000119Y-74773750D01*
X163000119Y-74773750D02*
X162936310Y-74738035D01*
X162936310Y-74738035D02*
X162808691Y-74738035D01*
X162808691Y-74738035D02*
X162744881Y-74773750D01*
X162744881Y-74773750D02*
X162712976Y-74809464D01*
X162712976Y-74809464D02*
X162681072Y-74880892D01*
X162681072Y-74880892D02*
X162681072Y-75059464D01*
X162681072Y-75059464D02*
X162712976Y-75130892D01*
X162712976Y-75130892D02*
X162744881Y-75166607D01*
X162744881Y-75166607D02*
X162808691Y-75202321D01*
X162808691Y-75202321D02*
X162936310Y-75202321D01*
X162936310Y-75202321D02*
X163000119Y-75166607D01*
X163000119Y-75166607D02*
X163032024Y-75130892D01*
X163032024Y-75130892D02*
X163063929Y-75059464D01*
X160702976Y-67888035D02*
X160702976Y-67138035D01*
X160702976Y-67138035D02*
X160862500Y-67138035D01*
X160862500Y-67138035D02*
X160958214Y-67173750D01*
X160958214Y-67173750D02*
X161022024Y-67245178D01*
X161022024Y-67245178D02*
X161053929Y-67316607D01*
X161053929Y-67316607D02*
X161085833Y-67459464D01*
X161085833Y-67459464D02*
X161085833Y-67566607D01*
X161085833Y-67566607D02*
X161053929Y-67709464D01*
X161053929Y-67709464D02*
X161022024Y-67780892D01*
X161022024Y-67780892D02*
X160958214Y-67852321D01*
X160958214Y-67852321D02*
X160862500Y-67888035D01*
X160862500Y-67888035D02*
X160702976Y-67888035D01*
X161309167Y-67138035D02*
X161755833Y-67138035D01*
X161755833Y-67138035D02*
X161468691Y-67888035D01*
X162489643Y-67102321D02*
X161915357Y-68066607D01*
X163000119Y-67138035D02*
X162872500Y-67138035D01*
X162872500Y-67138035D02*
X162808691Y-67173750D01*
X162808691Y-67173750D02*
X162776786Y-67209464D01*
X162776786Y-67209464D02*
X162712976Y-67316607D01*
X162712976Y-67316607D02*
X162681072Y-67459464D01*
X162681072Y-67459464D02*
X162681072Y-67745178D01*
X162681072Y-67745178D02*
X162712976Y-67816607D01*
X162712976Y-67816607D02*
X162744881Y-67852321D01*
X162744881Y-67852321D02*
X162808691Y-67888035D01*
X162808691Y-67888035D02*
X162936310Y-67888035D01*
X162936310Y-67888035D02*
X163000119Y-67852321D01*
X163000119Y-67852321D02*
X163032024Y-67816607D01*
X163032024Y-67816607D02*
X163063929Y-67745178D01*
X163063929Y-67745178D02*
X163063929Y-67566607D01*
X163063929Y-67566607D02*
X163032024Y-67495178D01*
X163032024Y-67495178D02*
X163000119Y-67459464D01*
X163000119Y-67459464D02*
X162936310Y-67423750D01*
X162936310Y-67423750D02*
X162808691Y-67423750D01*
X162808691Y-67423750D02*
X162744881Y-67459464D01*
X162744881Y-67459464D02*
X162712976Y-67495178D01*
X162712976Y-67495178D02*
X162681072Y-67566607D01*
X151634881Y-75638035D02*
X151252024Y-75638035D01*
X151443452Y-75638035D02*
X151443452Y-74888035D01*
X151443452Y-74888035D02*
X151379643Y-74995178D01*
X151379643Y-74995178D02*
X151315833Y-75066607D01*
X151315833Y-75066607D02*
X151252024Y-75102321D01*
X152049642Y-74888035D02*
X152113452Y-74888035D01*
X152113452Y-74888035D02*
X152177261Y-74923750D01*
X152177261Y-74923750D02*
X152209166Y-74959464D01*
X152209166Y-74959464D02*
X152241071Y-75030892D01*
X152241071Y-75030892D02*
X152272976Y-75173750D01*
X152272976Y-75173750D02*
X152272976Y-75352321D01*
X152272976Y-75352321D02*
X152241071Y-75495178D01*
X152241071Y-75495178D02*
X152209166Y-75566607D01*
X152209166Y-75566607D02*
X152177261Y-75602321D01*
X152177261Y-75602321D02*
X152113452Y-75638035D01*
X152113452Y-75638035D02*
X152049642Y-75638035D01*
X152049642Y-75638035D02*
X151985833Y-75602321D01*
X151985833Y-75602321D02*
X151953928Y-75566607D01*
X151953928Y-75566607D02*
X151922023Y-75495178D01*
X151922023Y-75495178D02*
X151890119Y-75352321D01*
X151890119Y-75352321D02*
X151890119Y-75173750D01*
X151890119Y-75173750D02*
X151922023Y-75030892D01*
X151922023Y-75030892D02*
X151953928Y-74959464D01*
X151953928Y-74959464D02*
X151985833Y-74923750D01*
X151985833Y-74923750D02*
X152049642Y-74888035D01*
X153038690Y-74852321D02*
X152464404Y-75816607D01*
X153485357Y-75245178D02*
X153581071Y-75280892D01*
X153581071Y-75280892D02*
X153612976Y-75316607D01*
X153612976Y-75316607D02*
X153644880Y-75388035D01*
X153644880Y-75388035D02*
X153644880Y-75495178D01*
X153644880Y-75495178D02*
X153612976Y-75566607D01*
X153612976Y-75566607D02*
X153581071Y-75602321D01*
X153581071Y-75602321D02*
X153517261Y-75638035D01*
X153517261Y-75638035D02*
X153262023Y-75638035D01*
X153262023Y-75638035D02*
X153262023Y-74888035D01*
X153262023Y-74888035D02*
X153485357Y-74888035D01*
X153485357Y-74888035D02*
X153549166Y-74923750D01*
X153549166Y-74923750D02*
X153581071Y-74959464D01*
X153581071Y-74959464D02*
X153612976Y-75030892D01*
X153612976Y-75030892D02*
X153612976Y-75102321D01*
X153612976Y-75102321D02*
X153581071Y-75173750D01*
X153581071Y-75173750D02*
X153549166Y-75209464D01*
X153549166Y-75209464D02*
X153485357Y-75245178D01*
X153485357Y-75245178D02*
X153262023Y-75245178D01*
X154219166Y-74888035D02*
X154091547Y-74888035D01*
X154091547Y-74888035D02*
X154027738Y-74923750D01*
X154027738Y-74923750D02*
X153995833Y-74959464D01*
X153995833Y-74959464D02*
X153932023Y-75066607D01*
X153932023Y-75066607D02*
X153900119Y-75209464D01*
X153900119Y-75209464D02*
X153900119Y-75495178D01*
X153900119Y-75495178D02*
X153932023Y-75566607D01*
X153932023Y-75566607D02*
X153963928Y-75602321D01*
X153963928Y-75602321D02*
X154027738Y-75638035D01*
X154027738Y-75638035D02*
X154155357Y-75638035D01*
X154155357Y-75638035D02*
X154219166Y-75602321D01*
X154219166Y-75602321D02*
X154251071Y-75566607D01*
X154251071Y-75566607D02*
X154282976Y-75495178D01*
X154282976Y-75495178D02*
X154282976Y-75316607D01*
X154282976Y-75316607D02*
X154251071Y-75245178D01*
X154251071Y-75245178D02*
X154219166Y-75209464D01*
X154219166Y-75209464D02*
X154155357Y-75173750D01*
X154155357Y-75173750D02*
X154027738Y-75173750D01*
X154027738Y-75173750D02*
X153963928Y-75209464D01*
X153963928Y-75209464D02*
X153932023Y-75245178D01*
X153932023Y-75245178D02*
X153900119Y-75316607D01*
X151800595Y-52788035D02*
X151577262Y-52430892D01*
X151417738Y-52788035D02*
X151417738Y-52038035D01*
X151417738Y-52038035D02*
X151672976Y-52038035D01*
X151672976Y-52038035D02*
X151736786Y-52073750D01*
X151736786Y-52073750D02*
X151768691Y-52109464D01*
X151768691Y-52109464D02*
X151800595Y-52180892D01*
X151800595Y-52180892D02*
X151800595Y-52288035D01*
X151800595Y-52288035D02*
X151768691Y-52359464D01*
X151768691Y-52359464D02*
X151736786Y-52395178D01*
X151736786Y-52395178D02*
X151672976Y-52430892D01*
X151672976Y-52430892D02*
X151417738Y-52430892D01*
X152055834Y-52752321D02*
X152151548Y-52788035D01*
X152151548Y-52788035D02*
X152311072Y-52788035D01*
X152311072Y-52788035D02*
X152374881Y-52752321D01*
X152374881Y-52752321D02*
X152406786Y-52716607D01*
X152406786Y-52716607D02*
X152438691Y-52645178D01*
X152438691Y-52645178D02*
X152438691Y-52573750D01*
X152438691Y-52573750D02*
X152406786Y-52502321D01*
X152406786Y-52502321D02*
X152374881Y-52466607D01*
X152374881Y-52466607D02*
X152311072Y-52430892D01*
X152311072Y-52430892D02*
X152183453Y-52395178D01*
X152183453Y-52395178D02*
X152119643Y-52359464D01*
X152119643Y-52359464D02*
X152087738Y-52323750D01*
X152087738Y-52323750D02*
X152055834Y-52252321D01*
X152055834Y-52252321D02*
X152055834Y-52180892D01*
X152055834Y-52180892D02*
X152087738Y-52109464D01*
X152087738Y-52109464D02*
X152119643Y-52073750D01*
X152119643Y-52073750D02*
X152183453Y-52038035D01*
X152183453Y-52038035D02*
X152342976Y-52038035D01*
X152342976Y-52038035D02*
X152438691Y-52073750D01*
X152630119Y-52038035D02*
X153012976Y-52038035D01*
X152821548Y-52788035D02*
X152821548Y-52038035D01*
X158144881Y-60252321D02*
X158240595Y-60288035D01*
X158240595Y-60288035D02*
X158400119Y-60288035D01*
X158400119Y-60288035D02*
X158463928Y-60252321D01*
X158463928Y-60252321D02*
X158495833Y-60216607D01*
X158495833Y-60216607D02*
X158527738Y-60145178D01*
X158527738Y-60145178D02*
X158527738Y-60073750D01*
X158527738Y-60073750D02*
X158495833Y-60002321D01*
X158495833Y-60002321D02*
X158463928Y-59966607D01*
X158463928Y-59966607D02*
X158400119Y-59930892D01*
X158400119Y-59930892D02*
X158272500Y-59895178D01*
X158272500Y-59895178D02*
X158208690Y-59859464D01*
X158208690Y-59859464D02*
X158176785Y-59823750D01*
X158176785Y-59823750D02*
X158144881Y-59752321D01*
X158144881Y-59752321D02*
X158144881Y-59680892D01*
X158144881Y-59680892D02*
X158176785Y-59609464D01*
X158176785Y-59609464D02*
X158208690Y-59573750D01*
X158208690Y-59573750D02*
X158272500Y-59538035D01*
X158272500Y-59538035D02*
X158432023Y-59538035D01*
X158432023Y-59538035D02*
X158527738Y-59573750D01*
X159197737Y-60216607D02*
X159165833Y-60252321D01*
X159165833Y-60252321D02*
X159070118Y-60288035D01*
X159070118Y-60288035D02*
X159006309Y-60288035D01*
X159006309Y-60288035D02*
X158910595Y-60252321D01*
X158910595Y-60252321D02*
X158846785Y-60180892D01*
X158846785Y-60180892D02*
X158814880Y-60109464D01*
X158814880Y-60109464D02*
X158782976Y-59966607D01*
X158782976Y-59966607D02*
X158782976Y-59859464D01*
X158782976Y-59859464D02*
X158814880Y-59716607D01*
X158814880Y-59716607D02*
X158846785Y-59645178D01*
X158846785Y-59645178D02*
X158910595Y-59573750D01*
X158910595Y-59573750D02*
X159006309Y-59538035D01*
X159006309Y-59538035D02*
X159070118Y-59538035D01*
X159070118Y-59538035D02*
X159165833Y-59573750D01*
X159165833Y-59573750D02*
X159197737Y-59609464D01*
X159803928Y-60288035D02*
X159484880Y-60288035D01*
X159484880Y-60288035D02*
X159484880Y-59538035D01*
X160505833Y-59502321D02*
X159931547Y-60466607D01*
X160729166Y-60288035D02*
X160729166Y-59538035D01*
X160729166Y-59538035D02*
X160888690Y-59538035D01*
X160888690Y-59538035D02*
X160984404Y-59573750D01*
X160984404Y-59573750D02*
X161048214Y-59645178D01*
X161048214Y-59645178D02*
X161080119Y-59716607D01*
X161080119Y-59716607D02*
X161112023Y-59859464D01*
X161112023Y-59859464D02*
X161112023Y-59966607D01*
X161112023Y-59966607D02*
X161080119Y-60109464D01*
X161080119Y-60109464D02*
X161048214Y-60180892D01*
X161048214Y-60180892D02*
X160984404Y-60252321D01*
X160984404Y-60252321D02*
X160888690Y-60288035D01*
X160888690Y-60288035D02*
X160729166Y-60288035D01*
X161526785Y-59538035D02*
X161590595Y-59538035D01*
X161590595Y-59538035D02*
X161654404Y-59573750D01*
X161654404Y-59573750D02*
X161686309Y-59609464D01*
X161686309Y-59609464D02*
X161718214Y-59680892D01*
X161718214Y-59680892D02*
X161750119Y-59823750D01*
X161750119Y-59823750D02*
X161750119Y-60002321D01*
X161750119Y-60002321D02*
X161718214Y-60145178D01*
X161718214Y-60145178D02*
X161686309Y-60216607D01*
X161686309Y-60216607D02*
X161654404Y-60252321D01*
X161654404Y-60252321D02*
X161590595Y-60288035D01*
X161590595Y-60288035D02*
X161526785Y-60288035D01*
X161526785Y-60288035D02*
X161462976Y-60252321D01*
X161462976Y-60252321D02*
X161431071Y-60216607D01*
X161431071Y-60216607D02*
X161399166Y-60145178D01*
X161399166Y-60145178D02*
X161367262Y-60002321D01*
X161367262Y-60002321D02*
X161367262Y-59823750D01*
X161367262Y-59823750D02*
X161399166Y-59680892D01*
X161399166Y-59680892D02*
X161431071Y-59609464D01*
X161431071Y-59609464D02*
X161462976Y-59573750D01*
X161462976Y-59573750D02*
X161526785Y-59538035D01*
X162515833Y-59502321D02*
X161941547Y-60466607D01*
X162675357Y-59538035D02*
X163090119Y-59538035D01*
X163090119Y-59538035D02*
X162866785Y-59823750D01*
X162866785Y-59823750D02*
X162962500Y-59823750D01*
X162962500Y-59823750D02*
X163026309Y-59859464D01*
X163026309Y-59859464D02*
X163058214Y-59895178D01*
X163058214Y-59895178D02*
X163090119Y-59966607D01*
X163090119Y-59966607D02*
X163090119Y-60145178D01*
X163090119Y-60145178D02*
X163058214Y-60216607D01*
X163058214Y-60216607D02*
X163026309Y-60252321D01*
X163026309Y-60252321D02*
X162962500Y-60288035D01*
X162962500Y-60288035D02*
X162771071Y-60288035D01*
X162771071Y-60288035D02*
X162707262Y-60252321D01*
X162707262Y-60252321D02*
X162675357Y-60216607D01*
X160926310Y-72595178D02*
X161022024Y-72630892D01*
X161022024Y-72630892D02*
X161053929Y-72666607D01*
X161053929Y-72666607D02*
X161085833Y-72738035D01*
X161085833Y-72738035D02*
X161085833Y-72845178D01*
X161085833Y-72845178D02*
X161053929Y-72916607D01*
X161053929Y-72916607D02*
X161022024Y-72952321D01*
X161022024Y-72952321D02*
X160958214Y-72988035D01*
X160958214Y-72988035D02*
X160702976Y-72988035D01*
X160702976Y-72988035D02*
X160702976Y-72238035D01*
X160702976Y-72238035D02*
X160926310Y-72238035D01*
X160926310Y-72238035D02*
X160990119Y-72273750D01*
X160990119Y-72273750D02*
X161022024Y-72309464D01*
X161022024Y-72309464D02*
X161053929Y-72380892D01*
X161053929Y-72380892D02*
X161053929Y-72452321D01*
X161053929Y-72452321D02*
X161022024Y-72523750D01*
X161022024Y-72523750D02*
X160990119Y-72559464D01*
X160990119Y-72559464D02*
X160926310Y-72595178D01*
X160926310Y-72595178D02*
X160702976Y-72595178D01*
X161660119Y-72488035D02*
X161660119Y-72988035D01*
X161500595Y-72202321D02*
X161341072Y-72738035D01*
X161341072Y-72738035D02*
X161755833Y-72738035D01*
X162489643Y-72202321D02*
X161915357Y-73166607D01*
X162808691Y-72559464D02*
X162744881Y-72523750D01*
X162744881Y-72523750D02*
X162712976Y-72488035D01*
X162712976Y-72488035D02*
X162681072Y-72416607D01*
X162681072Y-72416607D02*
X162681072Y-72380892D01*
X162681072Y-72380892D02*
X162712976Y-72309464D01*
X162712976Y-72309464D02*
X162744881Y-72273750D01*
X162744881Y-72273750D02*
X162808691Y-72238035D01*
X162808691Y-72238035D02*
X162936310Y-72238035D01*
X162936310Y-72238035D02*
X163000119Y-72273750D01*
X163000119Y-72273750D02*
X163032024Y-72309464D01*
X163032024Y-72309464D02*
X163063929Y-72380892D01*
X163063929Y-72380892D02*
X163063929Y-72416607D01*
X163063929Y-72416607D02*
X163032024Y-72488035D01*
X163032024Y-72488035D02*
X163000119Y-72523750D01*
X163000119Y-72523750D02*
X162936310Y-72559464D01*
X162936310Y-72559464D02*
X162808691Y-72559464D01*
X162808691Y-72559464D02*
X162744881Y-72595178D01*
X162744881Y-72595178D02*
X162712976Y-72630892D01*
X162712976Y-72630892D02*
X162681072Y-72702321D01*
X162681072Y-72702321D02*
X162681072Y-72845178D01*
X162681072Y-72845178D02*
X162712976Y-72916607D01*
X162712976Y-72916607D02*
X162744881Y-72952321D01*
X162744881Y-72952321D02*
X162808691Y-72988035D01*
X162808691Y-72988035D02*
X162936310Y-72988035D01*
X162936310Y-72988035D02*
X163000119Y-72952321D01*
X163000119Y-72952321D02*
X163032024Y-72916607D01*
X163032024Y-72916607D02*
X163063929Y-72845178D01*
X163063929Y-72845178D02*
X163063929Y-72702321D01*
X163063929Y-72702321D02*
X163032024Y-72630892D01*
X163032024Y-72630892D02*
X163000119Y-72595178D01*
X163000119Y-72595178D02*
X162936310Y-72559464D01*
X160734881Y-70045178D02*
X160958215Y-70045178D01*
X161053929Y-70438035D02*
X160734881Y-70438035D01*
X160734881Y-70438035D02*
X160734881Y-69688035D01*
X160734881Y-69688035D02*
X161053929Y-69688035D01*
X161628214Y-69688035D02*
X161500595Y-69688035D01*
X161500595Y-69688035D02*
X161436786Y-69723750D01*
X161436786Y-69723750D02*
X161404881Y-69759464D01*
X161404881Y-69759464D02*
X161341071Y-69866607D01*
X161341071Y-69866607D02*
X161309167Y-70009464D01*
X161309167Y-70009464D02*
X161309167Y-70295178D01*
X161309167Y-70295178D02*
X161341071Y-70366607D01*
X161341071Y-70366607D02*
X161372976Y-70402321D01*
X161372976Y-70402321D02*
X161436786Y-70438035D01*
X161436786Y-70438035D02*
X161564405Y-70438035D01*
X161564405Y-70438035D02*
X161628214Y-70402321D01*
X161628214Y-70402321D02*
X161660119Y-70366607D01*
X161660119Y-70366607D02*
X161692024Y-70295178D01*
X161692024Y-70295178D02*
X161692024Y-70116607D01*
X161692024Y-70116607D02*
X161660119Y-70045178D01*
X161660119Y-70045178D02*
X161628214Y-70009464D01*
X161628214Y-70009464D02*
X161564405Y-69973750D01*
X161564405Y-69973750D02*
X161436786Y-69973750D01*
X161436786Y-69973750D02*
X161372976Y-70009464D01*
X161372976Y-70009464D02*
X161341071Y-70045178D01*
X161341071Y-70045178D02*
X161309167Y-70116607D01*
X162457738Y-69652321D02*
X161883452Y-70616607D01*
X162617262Y-69688035D02*
X163063928Y-69688035D01*
X163063928Y-69688035D02*
X162776786Y-70438035D01*
X151274166Y-54488035D02*
X151497499Y-55238035D01*
X151497499Y-55238035D02*
X151720833Y-54488035D01*
X152327023Y-55166607D02*
X152295119Y-55202321D01*
X152295119Y-55202321D02*
X152199404Y-55238035D01*
X152199404Y-55238035D02*
X152135595Y-55238035D01*
X152135595Y-55238035D02*
X152039881Y-55202321D01*
X152039881Y-55202321D02*
X151976071Y-55130892D01*
X151976071Y-55130892D02*
X151944166Y-55059464D01*
X151944166Y-55059464D02*
X151912262Y-54916607D01*
X151912262Y-54916607D02*
X151912262Y-54809464D01*
X151912262Y-54809464D02*
X151944166Y-54666607D01*
X151944166Y-54666607D02*
X151976071Y-54595178D01*
X151976071Y-54595178D02*
X152039881Y-54523750D01*
X152039881Y-54523750D02*
X152135595Y-54488035D01*
X152135595Y-54488035D02*
X152199404Y-54488035D01*
X152199404Y-54488035D02*
X152295119Y-54523750D01*
X152295119Y-54523750D02*
X152327023Y-54559464D01*
X152997023Y-55166607D02*
X152965119Y-55202321D01*
X152965119Y-55202321D02*
X152869404Y-55238035D01*
X152869404Y-55238035D02*
X152805595Y-55238035D01*
X152805595Y-55238035D02*
X152709881Y-55202321D01*
X152709881Y-55202321D02*
X152646071Y-55130892D01*
X152646071Y-55130892D02*
X152614166Y-55059464D01*
X152614166Y-55059464D02*
X152582262Y-54916607D01*
X152582262Y-54916607D02*
X152582262Y-54809464D01*
X152582262Y-54809464D02*
X152614166Y-54666607D01*
X152614166Y-54666607D02*
X152646071Y-54595178D01*
X152646071Y-54595178D02*
X152709881Y-54523750D01*
X152709881Y-54523750D02*
X152805595Y-54488035D01*
X152805595Y-54488035D02*
X152869404Y-54488035D01*
X152869404Y-54488035D02*
X152965119Y-54523750D01*
X152965119Y-54523750D02*
X152997023Y-54559464D01*
X161607024Y-54573750D02*
X161543214Y-54538035D01*
X161543214Y-54538035D02*
X161447500Y-54538035D01*
X161447500Y-54538035D02*
X161351786Y-54573750D01*
X161351786Y-54573750D02*
X161287976Y-54645178D01*
X161287976Y-54645178D02*
X161256071Y-54716607D01*
X161256071Y-54716607D02*
X161224167Y-54859464D01*
X161224167Y-54859464D02*
X161224167Y-54966607D01*
X161224167Y-54966607D02*
X161256071Y-55109464D01*
X161256071Y-55109464D02*
X161287976Y-55180892D01*
X161287976Y-55180892D02*
X161351786Y-55252321D01*
X161351786Y-55252321D02*
X161447500Y-55288035D01*
X161447500Y-55288035D02*
X161511309Y-55288035D01*
X161511309Y-55288035D02*
X161607024Y-55252321D01*
X161607024Y-55252321D02*
X161638928Y-55216607D01*
X161638928Y-55216607D02*
X161638928Y-54966607D01*
X161638928Y-54966607D02*
X161511309Y-54966607D01*
X161926071Y-55288035D02*
X161926071Y-54538035D01*
X161926071Y-54538035D02*
X162308928Y-55288035D01*
X162308928Y-55288035D02*
X162308928Y-54538035D01*
X162627976Y-55288035D02*
X162627976Y-54538035D01*
X162627976Y-54538035D02*
X162787500Y-54538035D01*
X162787500Y-54538035D02*
X162883214Y-54573750D01*
X162883214Y-54573750D02*
X162947024Y-54645178D01*
X162947024Y-54645178D02*
X162978929Y-54716607D01*
X162978929Y-54716607D02*
X163010833Y-54859464D01*
X163010833Y-54859464D02*
X163010833Y-54966607D01*
X163010833Y-54966607D02*
X162978929Y-55109464D01*
X162978929Y-55109464D02*
X162947024Y-55180892D01*
X162947024Y-55180892D02*
X162883214Y-55252321D01*
X162883214Y-55252321D02*
X162787500Y-55288035D01*
X162787500Y-55288035D02*
X162627976Y-55288035D01*
X159578690Y-47738035D02*
X159578690Y-46988035D01*
X159578690Y-46988035D02*
X159738214Y-46988035D01*
X159738214Y-46988035D02*
X159833928Y-47023750D01*
X159833928Y-47023750D02*
X159897738Y-47095178D01*
X159897738Y-47095178D02*
X159929643Y-47166607D01*
X159929643Y-47166607D02*
X159961547Y-47309464D01*
X159961547Y-47309464D02*
X159961547Y-47416607D01*
X159961547Y-47416607D02*
X159929643Y-47559464D01*
X159929643Y-47559464D02*
X159897738Y-47630892D01*
X159897738Y-47630892D02*
X159833928Y-47702321D01*
X159833928Y-47702321D02*
X159738214Y-47738035D01*
X159738214Y-47738035D02*
X159578690Y-47738035D01*
X160184881Y-46988035D02*
X160599643Y-46988035D01*
X160599643Y-46988035D02*
X160376309Y-47273750D01*
X160376309Y-47273750D02*
X160472024Y-47273750D01*
X160472024Y-47273750D02*
X160535833Y-47309464D01*
X160535833Y-47309464D02*
X160567738Y-47345178D01*
X160567738Y-47345178D02*
X160599643Y-47416607D01*
X160599643Y-47416607D02*
X160599643Y-47595178D01*
X160599643Y-47595178D02*
X160567738Y-47666607D01*
X160567738Y-47666607D02*
X160535833Y-47702321D01*
X160535833Y-47702321D02*
X160472024Y-47738035D01*
X160472024Y-47738035D02*
X160280595Y-47738035D01*
X160280595Y-47738035D02*
X160216786Y-47702321D01*
X160216786Y-47702321D02*
X160184881Y-47666607D01*
X161365357Y-46952321D02*
X160791071Y-47916607D01*
X161492976Y-46988035D02*
X161875833Y-46988035D01*
X161684405Y-47738035D02*
X161684405Y-46988035D01*
X162035357Y-46988035D02*
X162482023Y-47738035D01*
X162482023Y-46988035D02*
X162035357Y-47738035D01*
X162864880Y-46988035D02*
X162928690Y-46988035D01*
X162928690Y-46988035D02*
X162992499Y-47023750D01*
X162992499Y-47023750D02*
X163024404Y-47059464D01*
X163024404Y-47059464D02*
X163056309Y-47130892D01*
X163056309Y-47130892D02*
X163088214Y-47273750D01*
X163088214Y-47273750D02*
X163088214Y-47452321D01*
X163088214Y-47452321D02*
X163056309Y-47595178D01*
X163056309Y-47595178D02*
X163024404Y-47666607D01*
X163024404Y-47666607D02*
X162992499Y-47702321D01*
X162992499Y-47702321D02*
X162928690Y-47738035D01*
X162928690Y-47738035D02*
X162864880Y-47738035D01*
X162864880Y-47738035D02*
X162801071Y-47702321D01*
X162801071Y-47702321D02*
X162769166Y-47666607D01*
X162769166Y-47666607D02*
X162737261Y-47595178D01*
X162737261Y-47595178D02*
X162705357Y-47452321D01*
X162705357Y-47452321D02*
X162705357Y-47273750D01*
X162705357Y-47273750D02*
X162737261Y-47130892D01*
X162737261Y-47130892D02*
X162769166Y-47059464D01*
X162769166Y-47059464D02*
X162801071Y-47023750D01*
X162801071Y-47023750D02*
X162864880Y-46988035D01*
D12*
%TO.C,RESW1*%
X150386130Y-83605506D02*
X149909940Y-83938839D01*
X150386130Y-84176934D02*
X149386130Y-84176934D01*
X149386130Y-84176934D02*
X149386130Y-83795982D01*
X149386130Y-83795982D02*
X149433750Y-83700744D01*
X149433750Y-83700744D02*
X149481369Y-83653125D01*
X149481369Y-83653125D02*
X149576607Y-83605506D01*
X149576607Y-83605506D02*
X149719464Y-83605506D01*
X149719464Y-83605506D02*
X149814702Y-83653125D01*
X149814702Y-83653125D02*
X149862321Y-83700744D01*
X149862321Y-83700744D02*
X149909940Y-83795982D01*
X149909940Y-83795982D02*
X149909940Y-84176934D01*
X149862321Y-83176934D02*
X149862321Y-82843601D01*
X150386130Y-82700744D02*
X150386130Y-83176934D01*
X150386130Y-83176934D02*
X149386130Y-83176934D01*
X149386130Y-83176934D02*
X149386130Y-82700744D01*
X150338511Y-82319791D02*
X150386130Y-82176934D01*
X150386130Y-82176934D02*
X150386130Y-81938839D01*
X150386130Y-81938839D02*
X150338511Y-81843601D01*
X150338511Y-81843601D02*
X150290892Y-81795982D01*
X150290892Y-81795982D02*
X150195654Y-81748363D01*
X150195654Y-81748363D02*
X150100416Y-81748363D01*
X150100416Y-81748363D02*
X150005178Y-81795982D01*
X150005178Y-81795982D02*
X149957559Y-81843601D01*
X149957559Y-81843601D02*
X149909940Y-81938839D01*
X149909940Y-81938839D02*
X149862321Y-82129315D01*
X149862321Y-82129315D02*
X149814702Y-82224553D01*
X149814702Y-82224553D02*
X149767083Y-82272172D01*
X149767083Y-82272172D02*
X149671845Y-82319791D01*
X149671845Y-82319791D02*
X149576607Y-82319791D01*
X149576607Y-82319791D02*
X149481369Y-82272172D01*
X149481369Y-82272172D02*
X149433750Y-82224553D01*
X149433750Y-82224553D02*
X149386130Y-82129315D01*
X149386130Y-82129315D02*
X149386130Y-81891220D01*
X149386130Y-81891220D02*
X149433750Y-81748363D01*
X149862321Y-81319791D02*
X149862321Y-80986458D01*
X150386130Y-80843601D02*
X150386130Y-81319791D01*
X150386130Y-81319791D02*
X149386130Y-81319791D01*
X149386130Y-81319791D02*
X149386130Y-80843601D01*
X149386130Y-80557886D02*
X149386130Y-79986458D01*
X150386130Y-80272172D02*
X149386130Y-80272172D01*
%TO.C,J1*%
X153892380Y-92999404D02*
X153892380Y-92427976D01*
X154892380Y-92713690D02*
X153892380Y-92713690D01*
X154892380Y-91523214D02*
X154416190Y-91856547D01*
X154892380Y-92094642D02*
X153892380Y-92094642D01*
X153892380Y-92094642D02*
X153892380Y-91713690D01*
X153892380Y-91713690D02*
X153940000Y-91618452D01*
X153940000Y-91618452D02*
X153987619Y-91570833D01*
X153987619Y-91570833D02*
X154082857Y-91523214D01*
X154082857Y-91523214D02*
X154225714Y-91523214D01*
X154225714Y-91523214D02*
X154320952Y-91570833D01*
X154320952Y-91570833D02*
X154368571Y-91618452D01*
X154368571Y-91618452D02*
X154416190Y-91713690D01*
X154416190Y-91713690D02*
X154416190Y-92094642D01*
X154892380Y-90523214D02*
X154416190Y-90856547D01*
X154892380Y-91094642D02*
X153892380Y-91094642D01*
X153892380Y-91094642D02*
X153892380Y-90713690D01*
X153892380Y-90713690D02*
X153940000Y-90618452D01*
X153940000Y-90618452D02*
X153987619Y-90570833D01*
X153987619Y-90570833D02*
X154082857Y-90523214D01*
X154082857Y-90523214D02*
X154225714Y-90523214D01*
X154225714Y-90523214D02*
X154320952Y-90570833D01*
X154320952Y-90570833D02*
X154368571Y-90618452D01*
X154368571Y-90618452D02*
X154416190Y-90713690D01*
X154416190Y-90713690D02*
X154416190Y-91094642D01*
X154844761Y-90142261D02*
X154892380Y-89999404D01*
X154892380Y-89999404D02*
X154892380Y-89761309D01*
X154892380Y-89761309D02*
X154844761Y-89666071D01*
X154844761Y-89666071D02*
X154797142Y-89618452D01*
X154797142Y-89618452D02*
X154701904Y-89570833D01*
X154701904Y-89570833D02*
X154606666Y-89570833D01*
X154606666Y-89570833D02*
X154511428Y-89618452D01*
X154511428Y-89618452D02*
X154463809Y-89666071D01*
X154463809Y-89666071D02*
X154416190Y-89761309D01*
X154416190Y-89761309D02*
X154368571Y-89951785D01*
X154368571Y-89951785D02*
X154320952Y-90047023D01*
X154320952Y-90047023D02*
X154273333Y-90094642D01*
X154273333Y-90094642D02*
X154178095Y-90142261D01*
X154178095Y-90142261D02*
X154082857Y-90142261D01*
X154082857Y-90142261D02*
X153987619Y-90094642D01*
X153987619Y-90094642D02*
X153940000Y-90047023D01*
X153940000Y-90047023D02*
X153892380Y-89951785D01*
X153892380Y-89951785D02*
X153892380Y-89713690D01*
X153892380Y-89713690D02*
X153940000Y-89570833D01*
%TO.C,U1*%
X148412500Y-46312500D02*
X148412500Y-47162500D01*
X148412500Y-46312500D02*
X149262500Y-46312500D01*
X148412500Y-75612500D02*
X148412500Y-76512500D01*
X148412500Y-76512500D02*
X149262500Y-76512500D01*
X153412500Y-40712500D02*
X153412500Y-42012500D01*
X153412500Y-42012500D02*
X160912500Y-42012500D01*
X156662500Y-41062500D02*
X157662500Y-41062500D01*
X156812500Y-41212500D02*
X157512500Y-41212500D01*
X156912500Y-41362500D02*
X157412500Y-41362500D01*
X157012500Y-41512500D02*
X157312500Y-41512500D01*
X157162500Y-41712500D02*
X156662500Y-41062500D01*
X157662500Y-41062500D02*
X157162500Y-41712500D01*
X160912500Y-40712500D02*
X153412500Y-40712500D01*
X160912500Y-42012500D02*
X160912500Y-40712500D01*
X165912500Y-46312500D02*
X165112500Y-46312500D01*
X165912500Y-46312500D02*
X165912500Y-47162500D01*
X165912500Y-75662500D02*
X165912500Y-76512500D01*
X165912500Y-76512500D02*
X165052500Y-76512500D01*
%TO.C,RESW1*%
X148418750Y-85003125D02*
X148668750Y-85003125D01*
X148418750Y-85003125D02*
X148418750Y-79303125D01*
X151618750Y-85003125D02*
X151368750Y-85003125D01*
X151618750Y-85003125D02*
X151618750Y-79303125D01*
X148418750Y-79303125D02*
X148668750Y-79303125D01*
X151618750Y-79303125D02*
X151368750Y-79303125D01*
%TO.C,J1*%
X148225000Y-93387500D02*
X148225000Y-87587500D01*
X159975000Y-93387500D02*
X148225000Y-93387500D01*
X148225000Y-87587500D02*
X159975000Y-87587500D01*
X159975000Y-87587500D02*
X159975000Y-93387500D01*
%TD*%
M02*
