%TF.GenerationSoftware,KiCad,Pcbnew,(7.0.0)*%
%TF.CreationDate,2023-04-23T19:00:17+09:00*%
%TF.ProjectId,pcb_r,7063625f-722e-46b6-9963-61645f706362,rev?*%
%TF.SameCoordinates,Original*%
%TF.FileFunction,Soldermask,Top*%
%TF.FilePolarity,Negative*%
%FSLAX46Y46*%
G04 Gerber Fmt 4.6, Leading zero omitted, Abs format (unit mm)*
G04 Created by KiCad (PCBNEW (7.0.0)) date 2023-04-23 19:00:17*
%MOMM*%
%LPD*%
G01*
G04 APERTURE LIST*
%ADD10C,0.150000*%
%ADD11C,1.900000*%
%ADD12C,3.000000*%
%ADD13C,4.100000*%
%ADD14C,4.300000*%
%ADD15C,1.200000*%
%ADD16R,1.778000X1.300000*%
%ADD17O,1.778000X1.300000*%
G04 APERTURE END LIST*
D10*
X138520505Y-78261760D02*
X138520505Y-78833188D01*
X138520505Y-78547474D02*
X137520505Y-78547474D01*
X137520505Y-78547474D02*
X137663363Y-78642712D01*
X137663363Y-78642712D02*
X137758601Y-78737950D01*
X137758601Y-78737950D02*
X137806220Y-78833188D01*
X137520505Y-77642712D02*
X137520505Y-77547474D01*
X137520505Y-77547474D02*
X137568125Y-77452236D01*
X137568125Y-77452236D02*
X137615744Y-77404617D01*
X137615744Y-77404617D02*
X137710982Y-77356998D01*
X137710982Y-77356998D02*
X137901458Y-77309379D01*
X137901458Y-77309379D02*
X138139553Y-77309379D01*
X138139553Y-77309379D02*
X138330029Y-77356998D01*
X138330029Y-77356998D02*
X138425267Y-77404617D01*
X138425267Y-77404617D02*
X138472886Y-77452236D01*
X138472886Y-77452236D02*
X138520505Y-77547474D01*
X138520505Y-77547474D02*
X138520505Y-77642712D01*
X138520505Y-77642712D02*
X138472886Y-77737950D01*
X138472886Y-77737950D02*
X138425267Y-77785569D01*
X138425267Y-77785569D02*
X138330029Y-77833188D01*
X138330029Y-77833188D02*
X138139553Y-77880807D01*
X138139553Y-77880807D02*
X137901458Y-77880807D01*
X137901458Y-77880807D02*
X137710982Y-77833188D01*
X137710982Y-77833188D02*
X137615744Y-77785569D01*
X137615744Y-77785569D02*
X137568125Y-77737950D01*
X137568125Y-77737950D02*
X137520505Y-77642712D01*
X137853839Y-76452236D02*
X138520505Y-76452236D01*
X137472886Y-76690331D02*
X138187172Y-76928426D01*
X138187172Y-76928426D02*
X138187172Y-76309379D01*
X138425267Y-75928426D02*
X138472886Y-75880807D01*
X138472886Y-75880807D02*
X138520505Y-75928426D01*
X138520505Y-75928426D02*
X138472886Y-75976045D01*
X138472886Y-75976045D02*
X138425267Y-75928426D01*
X138425267Y-75928426D02*
X138520505Y-75928426D01*
X137520505Y-75547474D02*
X137520505Y-74880808D01*
X137520505Y-74880808D02*
X138520505Y-75309379D01*
X137520505Y-74595093D02*
X137520505Y-73928427D01*
X137520505Y-73928427D02*
X138520505Y-74356998D01*
X137520505Y-73071284D02*
X137520505Y-73547474D01*
X137520505Y-73547474D02*
X137996696Y-73595093D01*
X137996696Y-73595093D02*
X137949077Y-73547474D01*
X137949077Y-73547474D02*
X137901458Y-73452236D01*
X137901458Y-73452236D02*
X137901458Y-73214141D01*
X137901458Y-73214141D02*
X137949077Y-73118903D01*
X137949077Y-73118903D02*
X137996696Y-73071284D01*
X137996696Y-73071284D02*
X138091934Y-73023665D01*
X138091934Y-73023665D02*
X138330029Y-73023665D01*
X138330029Y-73023665D02*
X138425267Y-73071284D01*
X138425267Y-73071284D02*
X138472886Y-73118903D01*
X138472886Y-73118903D02*
X138520505Y-73214141D01*
X138520505Y-73214141D02*
X138520505Y-73452236D01*
X138520505Y-73452236D02*
X138472886Y-73547474D01*
X138472886Y-73547474D02*
X138425267Y-73595093D01*
X137520505Y-72690331D02*
X137520505Y-72071284D01*
X137520505Y-72071284D02*
X137901458Y-72404617D01*
X137901458Y-72404617D02*
X137901458Y-72261760D01*
X137901458Y-72261760D02*
X137949077Y-72166522D01*
X137949077Y-72166522D02*
X137996696Y-72118903D01*
X137996696Y-72118903D02*
X138091934Y-72071284D01*
X138091934Y-72071284D02*
X138330029Y-72071284D01*
X138330029Y-72071284D02*
X138425267Y-72118903D01*
X138425267Y-72118903D02*
X138472886Y-72166522D01*
X138472886Y-72166522D02*
X138520505Y-72261760D01*
X138520505Y-72261760D02*
X138520505Y-72547474D01*
X138520505Y-72547474D02*
X138472886Y-72642712D01*
X138472886Y-72642712D02*
X138425267Y-72690331D01*
X138520505Y-71042712D02*
X137853839Y-71042712D01*
X137949077Y-71042712D02*
X137901458Y-70995093D01*
X137901458Y-70995093D02*
X137853839Y-70899855D01*
X137853839Y-70899855D02*
X137853839Y-70756998D01*
X137853839Y-70756998D02*
X137901458Y-70661760D01*
X137901458Y-70661760D02*
X137996696Y-70614141D01*
X137996696Y-70614141D02*
X138520505Y-70614141D01*
X137996696Y-70614141D02*
X137901458Y-70566522D01*
X137901458Y-70566522D02*
X137853839Y-70471284D01*
X137853839Y-70471284D02*
X137853839Y-70328427D01*
X137853839Y-70328427D02*
X137901458Y-70233188D01*
X137901458Y-70233188D02*
X137996696Y-70185569D01*
X137996696Y-70185569D02*
X138520505Y-70185569D01*
X138520505Y-69709379D02*
X137853839Y-69709379D01*
X137949077Y-69709379D02*
X137901458Y-69661760D01*
X137901458Y-69661760D02*
X137853839Y-69566522D01*
X137853839Y-69566522D02*
X137853839Y-69423665D01*
X137853839Y-69423665D02*
X137901458Y-69328427D01*
X137901458Y-69328427D02*
X137996696Y-69280808D01*
X137996696Y-69280808D02*
X138520505Y-69280808D01*
X137996696Y-69280808D02*
X137901458Y-69233189D01*
X137901458Y-69233189D02*
X137853839Y-69137951D01*
X137853839Y-69137951D02*
X137853839Y-68995094D01*
X137853839Y-68995094D02*
X137901458Y-68899855D01*
X137901458Y-68899855D02*
X137996696Y-68852236D01*
X137996696Y-68852236D02*
X138520505Y-68852236D01*
X147138043Y-21431250D02*
X138716705Y-21431250D01*
X147138043Y-126206557D02*
X138716705Y-126206557D01*
X139303125Y-21431250D02*
X139303125Y-126206557D01*
X139303125Y-21431250D02*
X139303125Y-126206557D01*
X139303125Y-21431250D02*
X139889546Y-22557754D01*
X139303125Y-21431250D02*
X138716704Y-22557754D01*
X139303125Y-126206557D02*
X138716704Y-125080053D01*
X139303125Y-126206557D02*
X139889546Y-125080053D01*
X209738818Y-14737081D02*
X209167391Y-14735824D01*
X209453105Y-14736453D02*
X209455306Y-13736455D01*
X209455306Y-13736455D02*
X209359754Y-13879102D01*
X209359754Y-13879102D02*
X209264306Y-13974130D01*
X209264306Y-13974130D02*
X209168963Y-14021540D01*
X210074352Y-13737818D02*
X210693398Y-13739180D01*
X210693398Y-13739180D02*
X210359227Y-14119398D01*
X210359227Y-14119398D02*
X210502084Y-14119712D01*
X210502084Y-14119712D02*
X210597217Y-14167541D01*
X210597217Y-14167541D02*
X210644731Y-14215265D01*
X210644731Y-14215265D02*
X210692140Y-14310607D01*
X210692140Y-14310607D02*
X210691616Y-14548702D01*
X210691616Y-14548702D02*
X210643788Y-14643835D01*
X210643788Y-14643835D02*
X210596064Y-14691349D01*
X210596064Y-14691349D02*
X210500721Y-14738758D01*
X210500721Y-14738758D02*
X210215008Y-14738130D01*
X210215008Y-14738130D02*
X210119875Y-14690301D01*
X210119875Y-14690301D02*
X210072361Y-14642577D01*
X211026731Y-13739914D02*
X211645777Y-13741276D01*
X211645777Y-13741276D02*
X211311606Y-14121494D01*
X211311606Y-14121494D02*
X211454463Y-14121809D01*
X211454463Y-14121809D02*
X211549596Y-14169637D01*
X211549596Y-14169637D02*
X211597110Y-14217361D01*
X211597110Y-14217361D02*
X211644519Y-14312704D01*
X211644519Y-14312704D02*
X211643995Y-14550798D01*
X211643995Y-14550798D02*
X211596166Y-14645931D01*
X211596166Y-14645931D02*
X211548443Y-14693445D01*
X211548443Y-14693445D02*
X211453100Y-14740855D01*
X211453100Y-14740855D02*
X211167386Y-14740226D01*
X211167386Y-14740226D02*
X211072253Y-14692397D01*
X211072253Y-14692397D02*
X211024739Y-14644674D01*
X212072356Y-14646979D02*
X212119870Y-14694703D01*
X212119870Y-14694703D02*
X212072146Y-14742217D01*
X212072146Y-14742217D02*
X212024632Y-14694494D01*
X212024632Y-14694494D02*
X212072356Y-14646979D01*
X212072356Y-14646979D02*
X212072146Y-14742217D01*
X212741012Y-13743687D02*
X212836250Y-13743897D01*
X212836250Y-13743897D02*
X212931383Y-13791725D01*
X212931383Y-13791725D02*
X212978897Y-13839449D01*
X212978897Y-13839449D02*
X213026306Y-13934792D01*
X213026306Y-13934792D02*
X213073506Y-14125372D01*
X213073506Y-14125372D02*
X213072982Y-14363467D01*
X213072982Y-14363467D02*
X213024944Y-14553838D01*
X213024944Y-14553838D02*
X212977115Y-14648971D01*
X212977115Y-14648971D02*
X212929391Y-14696485D01*
X212929391Y-14696485D02*
X212834049Y-14743894D01*
X212834049Y-14743894D02*
X212738811Y-14743685D01*
X212738811Y-14743685D02*
X212643678Y-14695856D01*
X212643678Y-14695856D02*
X212596164Y-14648132D01*
X212596164Y-14648132D02*
X212548754Y-14552790D01*
X212548754Y-14552790D02*
X212501555Y-14362209D01*
X212501555Y-14362209D02*
X212502079Y-14124115D01*
X212502079Y-14124115D02*
X212550117Y-13933744D01*
X212550117Y-13933744D02*
X212597945Y-13838611D01*
X212597945Y-13838611D02*
X212645669Y-13791096D01*
X212645669Y-13791096D02*
X212741012Y-13743687D01*
X213979104Y-13746412D02*
X213502915Y-13745364D01*
X213502915Y-13745364D02*
X213454248Y-14221449D01*
X213454248Y-14221449D02*
X213501972Y-14173935D01*
X213501972Y-14173935D02*
X213597314Y-14126525D01*
X213597314Y-14126525D02*
X213835409Y-14127049D01*
X213835409Y-14127049D02*
X213930542Y-14174878D01*
X213930542Y-14174878D02*
X213978056Y-14222602D01*
X213978056Y-14222602D02*
X214025465Y-14317944D01*
X214025465Y-14317944D02*
X214024941Y-14556039D01*
X214024941Y-14556039D02*
X213977113Y-14651172D01*
X213977113Y-14651172D02*
X213929389Y-14698686D01*
X213929389Y-14698686D02*
X213834046Y-14746095D01*
X213834046Y-14746095D02*
X213595952Y-14745571D01*
X213595952Y-14745571D02*
X213500819Y-14697743D01*
X213500819Y-14697743D02*
X213453304Y-14650019D01*
X214360056Y-13747251D02*
X215026721Y-13748718D01*
X215026721Y-13748718D02*
X214595949Y-14747772D01*
X215883862Y-13750605D02*
X215407672Y-13749557D01*
X215407672Y-13749557D02*
X215359005Y-14225641D01*
X215359005Y-14225641D02*
X215406729Y-14178127D01*
X215406729Y-14178127D02*
X215502072Y-14130718D01*
X215502072Y-14130718D02*
X215740166Y-14131242D01*
X215740166Y-14131242D02*
X215835299Y-14179070D01*
X215835299Y-14179070D02*
X215882813Y-14226794D01*
X215882813Y-14226794D02*
X215930223Y-14322137D01*
X215930223Y-14322137D02*
X215929699Y-14560231D01*
X215929699Y-14560231D02*
X215881870Y-14655365D01*
X215881870Y-14655365D02*
X215834146Y-14702879D01*
X215834146Y-14702879D02*
X215738804Y-14750288D01*
X215738804Y-14750288D02*
X215500709Y-14749764D01*
X215500709Y-14749764D02*
X215405576Y-14701935D01*
X215405576Y-14701935D02*
X215358062Y-14654212D01*
X216957848Y-14752971D02*
X216959316Y-14086306D01*
X216959106Y-14181544D02*
X217006830Y-14134030D01*
X217006830Y-14134030D02*
X217102173Y-14086621D01*
X217102173Y-14086621D02*
X217245029Y-14086935D01*
X217245029Y-14086935D02*
X217340162Y-14134764D01*
X217340162Y-14134764D02*
X217387572Y-14230106D01*
X217387572Y-14230106D02*
X217386419Y-14753914D01*
X217387572Y-14230106D02*
X217435400Y-14134973D01*
X217435400Y-14134973D02*
X217530743Y-14087564D01*
X217530743Y-14087564D02*
X217673600Y-14087878D01*
X217673600Y-14087878D02*
X217768733Y-14135707D01*
X217768733Y-14135707D02*
X217816142Y-14231050D01*
X217816142Y-14231050D02*
X217814989Y-14754858D01*
X218291178Y-14755906D02*
X218292646Y-14089241D01*
X218292436Y-14184479D02*
X218340160Y-14136965D01*
X218340160Y-14136965D02*
X218435502Y-14089555D01*
X218435502Y-14089555D02*
X218578359Y-14089870D01*
X218578359Y-14089870D02*
X218673492Y-14137698D01*
X218673492Y-14137698D02*
X218720901Y-14233041D01*
X218720901Y-14233041D02*
X218719749Y-14756849D01*
X218720901Y-14233041D02*
X218768730Y-14137908D01*
X218768730Y-14137908D02*
X218864073Y-14090499D01*
X218864073Y-14090499D02*
X219006930Y-14090813D01*
X219006930Y-14090813D02*
X219102063Y-14138642D01*
X219102063Y-14138642D02*
X219149472Y-14233984D01*
X219149472Y-14233984D02*
X219148319Y-14757793D01*
X147639144Y-20931251D02*
X147652647Y-14796624D01*
X280696316Y-21224121D02*
X280709819Y-15089494D01*
X147651356Y-15383043D02*
X280708528Y-15675913D01*
X147651356Y-15383043D02*
X280708528Y-15675913D01*
X147651356Y-15383043D02*
X148779148Y-14799103D01*
X147651356Y-15383043D02*
X148776566Y-15971942D01*
X280708528Y-15675913D02*
X279580736Y-16259853D01*
X280708528Y-15675913D02*
X279583318Y-15087014D01*
X150256845Y-104128005D02*
X150256845Y-103128005D01*
X150256845Y-103128005D02*
X150590178Y-103842291D01*
X150590178Y-103842291D02*
X150923511Y-103128005D01*
X150923511Y-103128005D02*
X150923511Y-104128005D01*
X151828273Y-104128005D02*
X151828273Y-103604196D01*
X151828273Y-103604196D02*
X151780654Y-103508958D01*
X151780654Y-103508958D02*
X151685416Y-103461339D01*
X151685416Y-103461339D02*
X151494940Y-103461339D01*
X151494940Y-103461339D02*
X151399702Y-103508958D01*
X151828273Y-104080386D02*
X151733035Y-104128005D01*
X151733035Y-104128005D02*
X151494940Y-104128005D01*
X151494940Y-104128005D02*
X151399702Y-104080386D01*
X151399702Y-104080386D02*
X151352083Y-103985148D01*
X151352083Y-103985148D02*
X151352083Y-103889910D01*
X151352083Y-103889910D02*
X151399702Y-103794672D01*
X151399702Y-103794672D02*
X151494940Y-103747053D01*
X151494940Y-103747053D02*
X151733035Y-103747053D01*
X151733035Y-103747053D02*
X151828273Y-103699434D01*
X152733035Y-103461339D02*
X152733035Y-104270863D01*
X152733035Y-104270863D02*
X152685416Y-104366101D01*
X152685416Y-104366101D02*
X152637797Y-104413720D01*
X152637797Y-104413720D02*
X152542559Y-104461339D01*
X152542559Y-104461339D02*
X152399702Y-104461339D01*
X152399702Y-104461339D02*
X152304464Y-104413720D01*
X152733035Y-104080386D02*
X152637797Y-104128005D01*
X152637797Y-104128005D02*
X152447321Y-104128005D01*
X152447321Y-104128005D02*
X152352083Y-104080386D01*
X152352083Y-104080386D02*
X152304464Y-104032767D01*
X152304464Y-104032767D02*
X152256845Y-103937529D01*
X152256845Y-103937529D02*
X152256845Y-103651815D01*
X152256845Y-103651815D02*
X152304464Y-103556577D01*
X152304464Y-103556577D02*
X152352083Y-103508958D01*
X152352083Y-103508958D02*
X152447321Y-103461339D01*
X152447321Y-103461339D02*
X152637797Y-103461339D01*
X152637797Y-103461339D02*
X152733035Y-103508958D01*
X153637797Y-103461339D02*
X153637797Y-104270863D01*
X153637797Y-104270863D02*
X153590178Y-104366101D01*
X153590178Y-104366101D02*
X153542559Y-104413720D01*
X153542559Y-104413720D02*
X153447321Y-104461339D01*
X153447321Y-104461339D02*
X153304464Y-104461339D01*
X153304464Y-104461339D02*
X153209226Y-104413720D01*
X153637797Y-104080386D02*
X153542559Y-104128005D01*
X153542559Y-104128005D02*
X153352083Y-104128005D01*
X153352083Y-104128005D02*
X153256845Y-104080386D01*
X153256845Y-104080386D02*
X153209226Y-104032767D01*
X153209226Y-104032767D02*
X153161607Y-103937529D01*
X153161607Y-103937529D02*
X153161607Y-103651815D01*
X153161607Y-103651815D02*
X153209226Y-103556577D01*
X153209226Y-103556577D02*
X153256845Y-103508958D01*
X153256845Y-103508958D02*
X153352083Y-103461339D01*
X153352083Y-103461339D02*
X153542559Y-103461339D01*
X153542559Y-103461339D02*
X153637797Y-103508958D01*
X154113988Y-104128005D02*
X154113988Y-103461339D01*
X154113988Y-103128005D02*
X154066369Y-103175625D01*
X154066369Y-103175625D02*
X154113988Y-103223244D01*
X154113988Y-103223244D02*
X154161607Y-103175625D01*
X154161607Y-103175625D02*
X154113988Y-103128005D01*
X154113988Y-103128005D02*
X154113988Y-103223244D01*
X154971130Y-104080386D02*
X154875892Y-104128005D01*
X154875892Y-104128005D02*
X154685416Y-104128005D01*
X154685416Y-104128005D02*
X154590178Y-104080386D01*
X154590178Y-104080386D02*
X154542559Y-103985148D01*
X154542559Y-103985148D02*
X154542559Y-103604196D01*
X154542559Y-103604196D02*
X154590178Y-103508958D01*
X154590178Y-103508958D02*
X154685416Y-103461339D01*
X154685416Y-103461339D02*
X154875892Y-103461339D01*
X154875892Y-103461339D02*
X154971130Y-103508958D01*
X154971130Y-103508958D02*
X155018749Y-103604196D01*
X155018749Y-103604196D02*
X155018749Y-103699434D01*
X155018749Y-103699434D02*
X154542559Y-103794672D01*
X155875892Y-103461339D02*
X155875892Y-104128005D01*
X155637797Y-103080386D02*
X155399702Y-103794672D01*
X155399702Y-103794672D02*
X156018749Y-103794672D01*
X156828273Y-103461339D02*
X156828273Y-104128005D01*
X156590178Y-103080386D02*
X156352083Y-103794672D01*
X156352083Y-103794672D02*
X156971130Y-103794672D01*
X157952083Y-104128005D02*
X157952083Y-103128005D01*
X157952083Y-103508958D02*
X158047321Y-103461339D01*
X158047321Y-103461339D02*
X158237797Y-103461339D01*
X158237797Y-103461339D02*
X158333035Y-103508958D01*
X158333035Y-103508958D02*
X158380654Y-103556577D01*
X158380654Y-103556577D02*
X158428273Y-103651815D01*
X158428273Y-103651815D02*
X158428273Y-103937529D01*
X158428273Y-103937529D02*
X158380654Y-104032767D01*
X158380654Y-104032767D02*
X158333035Y-104080386D01*
X158333035Y-104080386D02*
X158237797Y-104128005D01*
X158237797Y-104128005D02*
X158047321Y-104128005D01*
X158047321Y-104128005D02*
X157952083Y-104080386D01*
X158761607Y-103461339D02*
X158999702Y-104128005D01*
X159237797Y-103461339D02*
X158999702Y-104128005D01*
X158999702Y-104128005D02*
X158904464Y-104366101D01*
X158904464Y-104366101D02*
X158856845Y-104413720D01*
X158856845Y-104413720D02*
X158761607Y-104461339D01*
X160075893Y-103128005D02*
X160647321Y-103128005D01*
X160361607Y-104128005D02*
X160361607Y-103128005D01*
X161409226Y-104128005D02*
X161409226Y-103604196D01*
X161409226Y-103604196D02*
X161361607Y-103508958D01*
X161361607Y-103508958D02*
X161266369Y-103461339D01*
X161266369Y-103461339D02*
X161075893Y-103461339D01*
X161075893Y-103461339D02*
X160980655Y-103508958D01*
X161409226Y-104080386D02*
X161313988Y-104128005D01*
X161313988Y-104128005D02*
X161075893Y-104128005D01*
X161075893Y-104128005D02*
X160980655Y-104080386D01*
X160980655Y-104080386D02*
X160933036Y-103985148D01*
X160933036Y-103985148D02*
X160933036Y-103889910D01*
X160933036Y-103889910D02*
X160980655Y-103794672D01*
X160980655Y-103794672D02*
X161075893Y-103747053D01*
X161075893Y-103747053D02*
X161313988Y-103747053D01*
X161313988Y-103747053D02*
X161409226Y-103699434D01*
X161885417Y-104128005D02*
X161885417Y-103461339D01*
X161885417Y-103556577D02*
X161933036Y-103508958D01*
X161933036Y-103508958D02*
X162028274Y-103461339D01*
X162028274Y-103461339D02*
X162171131Y-103461339D01*
X162171131Y-103461339D02*
X162266369Y-103508958D01*
X162266369Y-103508958D02*
X162313988Y-103604196D01*
X162313988Y-103604196D02*
X162313988Y-104128005D01*
X162313988Y-103604196D02*
X162361607Y-103508958D01*
X162361607Y-103508958D02*
X162456845Y-103461339D01*
X162456845Y-103461339D02*
X162599702Y-103461339D01*
X162599702Y-103461339D02*
X162694941Y-103508958D01*
X162694941Y-103508958D02*
X162742560Y-103604196D01*
X162742560Y-103604196D02*
X162742560Y-104128005D01*
X163647321Y-104128005D02*
X163647321Y-103604196D01*
X163647321Y-103604196D02*
X163599702Y-103508958D01*
X163599702Y-103508958D02*
X163504464Y-103461339D01*
X163504464Y-103461339D02*
X163313988Y-103461339D01*
X163313988Y-103461339D02*
X163218750Y-103508958D01*
X163647321Y-104080386D02*
X163552083Y-104128005D01*
X163552083Y-104128005D02*
X163313988Y-104128005D01*
X163313988Y-104128005D02*
X163218750Y-104080386D01*
X163218750Y-104080386D02*
X163171131Y-103985148D01*
X163171131Y-103985148D02*
X163171131Y-103889910D01*
X163171131Y-103889910D02*
X163218750Y-103794672D01*
X163218750Y-103794672D02*
X163313988Y-103747053D01*
X163313988Y-103747053D02*
X163552083Y-103747053D01*
X163552083Y-103747053D02*
X163647321Y-103699434D01*
X164123512Y-104128005D02*
X164123512Y-103461339D01*
X164123512Y-103651815D02*
X164171131Y-103556577D01*
X164171131Y-103556577D02*
X164218750Y-103508958D01*
X164218750Y-103508958D02*
X164313988Y-103461339D01*
X164313988Y-103461339D02*
X164409226Y-103461339D01*
X164885417Y-104128005D02*
X164790179Y-104080386D01*
X164790179Y-104080386D02*
X164742560Y-104032767D01*
X164742560Y-104032767D02*
X164694941Y-103937529D01*
X164694941Y-103937529D02*
X164694941Y-103651815D01*
X164694941Y-103651815D02*
X164742560Y-103556577D01*
X164742560Y-103556577D02*
X164790179Y-103508958D01*
X164790179Y-103508958D02*
X164885417Y-103461339D01*
X164885417Y-103461339D02*
X165028274Y-103461339D01*
X165028274Y-103461339D02*
X165123512Y-103508958D01*
X165123512Y-103508958D02*
X165171131Y-103556577D01*
X165171131Y-103556577D02*
X165218750Y-103651815D01*
X165218750Y-103651815D02*
X165218750Y-103937529D01*
X165218750Y-103937529D02*
X165171131Y-104032767D01*
X165171131Y-104032767D02*
X165123512Y-104080386D01*
X165123512Y-104080386D02*
X165028274Y-104128005D01*
X165028274Y-104128005D02*
X164885417Y-104128005D01*
X165647322Y-104128005D02*
X165647322Y-103128005D01*
X166075893Y-104128005D02*
X166075893Y-103604196D01*
X166075893Y-103604196D02*
X166028274Y-103508958D01*
X166028274Y-103508958D02*
X165933036Y-103461339D01*
X165933036Y-103461339D02*
X165790179Y-103461339D01*
X165790179Y-103461339D02*
X165694941Y-103508958D01*
X165694941Y-103508958D02*
X165647322Y-103556577D01*
X150113988Y-104748005D02*
X150447321Y-105748005D01*
X150447321Y-105748005D02*
X150780654Y-104748005D01*
X151494940Y-105700386D02*
X151399702Y-105748005D01*
X151399702Y-105748005D02*
X151209226Y-105748005D01*
X151209226Y-105748005D02*
X151113988Y-105700386D01*
X151113988Y-105700386D02*
X151066369Y-105605148D01*
X151066369Y-105605148D02*
X151066369Y-105224196D01*
X151066369Y-105224196D02*
X151113988Y-105128958D01*
X151113988Y-105128958D02*
X151209226Y-105081339D01*
X151209226Y-105081339D02*
X151399702Y-105081339D01*
X151399702Y-105081339D02*
X151494940Y-105128958D01*
X151494940Y-105128958D02*
X151542559Y-105224196D01*
X151542559Y-105224196D02*
X151542559Y-105319434D01*
X151542559Y-105319434D02*
X151066369Y-105414672D01*
X151971131Y-105748005D02*
X151971131Y-105081339D01*
X151971131Y-105271815D02*
X152018750Y-105176577D01*
X152018750Y-105176577D02*
X152066369Y-105128958D01*
X152066369Y-105128958D02*
X152161607Y-105081339D01*
X152161607Y-105081339D02*
X152256845Y-105081339D01*
X153713988Y-105748005D02*
X153142560Y-105748005D01*
X153428274Y-105748005D02*
X153428274Y-104748005D01*
X153428274Y-104748005D02*
X153333036Y-104890863D01*
X153333036Y-104890863D02*
X153237798Y-104986101D01*
X153237798Y-104986101D02*
X153142560Y-105033720D01*
X154142560Y-105652767D02*
X154190179Y-105700386D01*
X154190179Y-105700386D02*
X154142560Y-105748005D01*
X154142560Y-105748005D02*
X154094941Y-105700386D01*
X154094941Y-105700386D02*
X154142560Y-105652767D01*
X154142560Y-105652767D02*
X154142560Y-105748005D01*
X154809226Y-104748005D02*
X154904464Y-104748005D01*
X154904464Y-104748005D02*
X154999702Y-104795625D01*
X154999702Y-104795625D02*
X155047321Y-104843244D01*
X155047321Y-104843244D02*
X155094940Y-104938482D01*
X155094940Y-104938482D02*
X155142559Y-105128958D01*
X155142559Y-105128958D02*
X155142559Y-105367053D01*
X155142559Y-105367053D02*
X155094940Y-105557529D01*
X155094940Y-105557529D02*
X155047321Y-105652767D01*
X155047321Y-105652767D02*
X154999702Y-105700386D01*
X154999702Y-105700386D02*
X154904464Y-105748005D01*
X154904464Y-105748005D02*
X154809226Y-105748005D01*
X154809226Y-105748005D02*
X154713988Y-105700386D01*
X154713988Y-105700386D02*
X154666369Y-105652767D01*
X154666369Y-105652767D02*
X154618750Y-105557529D01*
X154618750Y-105557529D02*
X154571131Y-105367053D01*
X154571131Y-105367053D02*
X154571131Y-105128958D01*
X154571131Y-105128958D02*
X154618750Y-104938482D01*
X154618750Y-104938482D02*
X154666369Y-104843244D01*
X154666369Y-104843244D02*
X154713988Y-104795625D01*
X154713988Y-104795625D02*
X154809226Y-104748005D01*
D11*
%TO.C,SW28*%
X266382500Y-30956250D03*
D12*
X267652500Y-28416250D03*
D13*
X271462500Y-30956250D03*
D12*
X274002500Y-25876250D03*
D11*
X276542500Y-30956250D03*
%TD*%
%TO.C,SW30*%
X190182500Y-59531250D03*
D12*
X191452500Y-56991250D03*
D13*
X195262500Y-59531250D03*
D12*
X197802500Y-54451250D03*
D11*
X200342500Y-59531250D03*
%TD*%
D14*
%TO.C,Ref\u002A\u002A*%
X171450000Y-59531250D03*
%TD*%
D11*
%TO.C,SW40*%
X266382500Y-69056250D03*
D12*
X267652500Y-66516250D03*
D13*
X271462500Y-69056250D03*
D12*
X274002500Y-63976250D03*
D11*
X276542500Y-69056250D03*
%TD*%
%TO.C,SW43*%
X194945000Y-97631250D03*
D12*
X196215000Y-95091250D03*
D13*
X200025000Y-97631250D03*
D12*
X202565000Y-92551250D03*
D11*
X205105000Y-97631250D03*
%TD*%
%TO.C,SW44*%
X213995000Y-92868750D03*
D12*
X215265000Y-90328750D03*
D13*
X219075000Y-92868750D03*
D12*
X221615000Y-87788750D03*
D11*
X224155000Y-92868750D03*
%TD*%
%TO.C,SW39*%
X247332500Y-73818750D03*
D12*
X248602500Y-71278750D03*
D13*
X252412500Y-73818750D03*
D12*
X254952500Y-68738750D03*
D11*
X257492500Y-73818750D03*
%TD*%
%TO.C,SW41*%
X156845000Y-116681250D03*
D12*
X158115000Y-114141250D03*
D13*
X161925000Y-116681250D03*
D12*
X164465000Y-111601250D03*
D11*
X167005000Y-116681250D03*
%TD*%
D14*
%TO.C,Ref\u002A\u002A*%
X261937500Y-59531250D03*
%TD*%
D11*
%TO.C,SW23*%
X171132500Y-50006250D03*
D12*
X172402500Y-47466250D03*
D13*
X176212500Y-50006250D03*
D12*
X178752500Y-44926250D03*
D11*
X181292500Y-50006250D03*
%TD*%
%TO.C,SW25*%
X209232500Y-35718750D03*
D12*
X210502500Y-33178750D03*
D13*
X214312500Y-35718750D03*
D12*
X216852500Y-30638750D03*
D11*
X219392500Y-35718750D03*
%TD*%
%TO.C,SW36*%
X190182500Y-78581250D03*
D12*
X191452500Y-76041250D03*
D13*
X195262500Y-78581250D03*
D12*
X197802500Y-73501250D03*
D11*
X200342500Y-78581250D03*
%TD*%
%TO.C,SW32*%
X228282500Y-54768750D03*
D12*
X229552500Y-52228750D03*
D13*
X233362500Y-54768750D03*
D12*
X235902500Y-49688750D03*
D11*
X238442500Y-54768750D03*
%TD*%
%TO.C,SW38*%
X228282500Y-73818750D03*
D12*
X229552500Y-71278750D03*
D13*
X233362500Y-73818750D03*
D12*
X235902500Y-68738750D03*
D11*
X238442500Y-73818750D03*
%TD*%
%TO.C,SW27*%
X247332500Y-35718750D03*
D12*
X248602500Y-33178750D03*
D13*
X252412500Y-35718750D03*
D12*
X254952500Y-30638750D03*
D11*
X257492500Y-35718750D03*
%TD*%
%TO.C,SW42*%
X175895000Y-107156250D03*
D12*
X177165000Y-104616250D03*
D13*
X180975000Y-107156250D03*
D12*
X183515000Y-102076250D03*
D11*
X186055000Y-107156250D03*
%TD*%
%TO.C,SW33*%
X247332500Y-54768750D03*
D12*
X248602500Y-52228750D03*
D13*
X252412500Y-54768750D03*
D12*
X254952500Y-49688750D03*
D11*
X257492500Y-54768750D03*
%TD*%
D15*
%TO.C,J1*%
X149575000Y-90487500D03*
X156575000Y-90487500D03*
%TD*%
D14*
%TO.C,Ref\u002A\u002A*%
X223837500Y-45243750D03*
%TD*%
D11*
%TO.C,SW31*%
X209232500Y-54768750D03*
D12*
X210502500Y-52228750D03*
D13*
X214312500Y-54768750D03*
D12*
X216852500Y-49688750D03*
D11*
X219392500Y-54768750D03*
%TD*%
D14*
%TO.C,Ref\u002A\u002A*%
X261937500Y-40481250D03*
%TD*%
D11*
%TO.C,SW34*%
X266382500Y-50006250D03*
D12*
X267652500Y-47466250D03*
D13*
X271462500Y-50006250D03*
D12*
X274002500Y-44926250D03*
D11*
X276542500Y-50006250D03*
%TD*%
%TO.C,SW26*%
X228282500Y-35718750D03*
D12*
X229552500Y-33178750D03*
D13*
X233362500Y-35718750D03*
D12*
X235902500Y-30638750D03*
D11*
X238442500Y-35718750D03*
%TD*%
%TO.C,SW35*%
X171132500Y-88106250D03*
D12*
X172402500Y-85566250D03*
D13*
X176212500Y-88106250D03*
D12*
X178752500Y-83026250D03*
D11*
X181292500Y-88106250D03*
%TD*%
%TO.C,SW37*%
X209232500Y-73818750D03*
D12*
X210502500Y-71278750D03*
D13*
X214312500Y-73818750D03*
D12*
X216852500Y-68738750D03*
D11*
X219392500Y-73818750D03*
%TD*%
%TO.C,SW29*%
X171132500Y-69056250D03*
D12*
X172402500Y-66516250D03*
D13*
X176212500Y-69056250D03*
D12*
X178752500Y-63976250D03*
D11*
X181292500Y-69056250D03*
%TD*%
D14*
%TO.C,Ref\u002A\u002A*%
X171450000Y-108346875D03*
%TD*%
D11*
%TO.C,SW24*%
X190182500Y-40481250D03*
D12*
X191452500Y-37941250D03*
D13*
X195262500Y-40481250D03*
D12*
X197802500Y-35401250D03*
D11*
X200342500Y-40481250D03*
%TD*%
D14*
%TO.C,Ref\u002A\u002A*%
X223837500Y-83343750D03*
%TD*%
D16*
%TO.C,D29*%
X173212499Y-73818749D03*
D17*
X179212499Y-73818749D03*
%TD*%
D16*
%TO.C,D31*%
X211312499Y-59531249D03*
D17*
X217312499Y-59531249D03*
%TD*%
D16*
%TO.C,D26*%
X230362499Y-40481249D03*
D17*
X236362499Y-40481249D03*
%TD*%
D16*
%TO.C,D40*%
X268462499Y-73818749D03*
D17*
X274462499Y-73818749D03*
%TD*%
D16*
%TO.C,D25*%
X211312499Y-40481249D03*
D17*
X217312499Y-40481249D03*
%TD*%
D16*
%TO.C,D37*%
X211312499Y-78581249D03*
D17*
X217312499Y-78581249D03*
%TD*%
D16*
%TO.C,D38*%
X230362499Y-78581249D03*
D17*
X236362499Y-78581249D03*
%TD*%
D16*
%TO.C,D41*%
X158924999Y-121443749D03*
D17*
X164924999Y-121443749D03*
%TD*%
D16*
%TO.C,D36*%
X192262499Y-83343749D03*
D17*
X198262499Y-83343749D03*
%TD*%
D16*
%TO.C,D34*%
X268462499Y-54768749D03*
D17*
X274462499Y-54768749D03*
%TD*%
D16*
%TO.C,D39*%
X249412499Y-78581249D03*
D17*
X255412499Y-78581249D03*
%TD*%
D16*
%TO.C,D35*%
X173212499Y-92868749D03*
D17*
X179212499Y-92868749D03*
%TD*%
D16*
%TO.C,D28*%
X268462499Y-35718749D03*
D17*
X274462499Y-35718749D03*
%TD*%
D16*
%TO.C,D24*%
X192262499Y-45243749D03*
D17*
X198262499Y-45243749D03*
%TD*%
D16*
%TO.C,D42*%
X177974999Y-111918749D03*
D17*
X183974999Y-111918749D03*
%TD*%
D16*
%TO.C,D32*%
X230362499Y-59531249D03*
D17*
X236362499Y-59531249D03*
%TD*%
D16*
%TO.C,D33*%
X249412499Y-59531249D03*
D17*
X255412499Y-59531249D03*
%TD*%
D16*
%TO.C,D27*%
X249412499Y-40481249D03*
D17*
X255412499Y-40481249D03*
%TD*%
D16*
%TO.C,D30*%
X192262499Y-64293749D03*
D17*
X198262499Y-64293749D03*
%TD*%
D16*
%TO.C,D43*%
X197024999Y-102393749D03*
D17*
X203024999Y-102393749D03*
%TD*%
D16*
%TO.C,D23*%
X173212499Y-54768749D03*
D17*
X179212499Y-54768749D03*
%TD*%
D16*
%TO.C,D44*%
X216074999Y-97631249D03*
D17*
X222074999Y-97631249D03*
%TD*%
M02*
