M48
; DRILL file {KiCad (7.0.0)} date Sun Apr 23 19:00:24 2023
; FORMAT={-:-/ absolute / inch / decimal}
; #@! TF.CreationDate,2023-04-23T19:00:24+09:00
; #@! TF.GenerationSoftware,Kicad,Pcbnew,(7.0.0)
; #@! TF.FileFunction,NonPlated,1,2,NPTH
FMAT,2
INCH
; #@! TA.AperFunction,NonPlated,NPTH,ComponentDrill
T1C0.0472
; #@! TA.AperFunction,NonPlated,NPTH,ComponentDrill
T2C0.0748
; #@! TA.AperFunction,NonPlated,NPTH,ComponentDrill
T3C0.1181
; #@! TA.AperFunction,NonPlated,NPTH,ComponentDrill
T4C0.1614
; #@! TA.AperFunction,NonPlated,NPTH,ComponentDrill
T5C0.1693
%
G90
G05
T1
X5.8888Y-3.5625
X6.1644Y-3.5625
T2
X6.175Y-4.5938
X6.575Y-4.5938
X6.7375Y-1.9688
X6.7375Y-2.7188
X6.7375Y-3.4688
X6.925Y-4.2188
X7.1375Y-1.9688
X7.1375Y-2.7188
X7.1375Y-3.4688
X7.325Y-4.2188
X7.4875Y-1.5938
X7.4875Y-2.3438
X7.4875Y-3.0938
X7.675Y-3.8438
X7.8875Y-1.5938
X7.8875Y-2.3438
X7.8875Y-3.0938
X8.075Y-3.8438
X8.2375Y-1.4062
X8.2375Y-2.1562
X8.2375Y-2.9062
X8.425Y-3.6562
X8.6375Y-1.4062
X8.6375Y-2.1562
X8.6375Y-2.9062
X8.825Y-3.6562
X8.9875Y-1.4062
X8.9875Y-2.1562
X8.9875Y-2.9062
X9.3875Y-1.4062
X9.3875Y-2.1562
X9.3875Y-2.9062
X9.7375Y-1.4062
X9.7375Y-2.1562
X9.7375Y-2.9062
X10.1375Y-1.4062
X10.1375Y-2.1562
X10.1375Y-2.9062
X10.4875Y-1.2188
X10.4875Y-1.9688
X10.4875Y-2.7188
X10.8875Y-1.2188
X10.8875Y-1.9688
X10.8875Y-2.7188
T3
X6.225Y-4.4937
X6.475Y-4.3937
X6.7875Y-1.8687
X6.7875Y-2.6187
X6.7875Y-3.3687
X6.975Y-4.1187
X7.0375Y-1.7688
X7.0375Y-2.5187
X7.0375Y-3.2687
X7.225Y-4.0187
X7.5375Y-1.4937
X7.5375Y-2.2437
X7.5375Y-2.9937
X7.725Y-3.7437
X7.7875Y-1.3938
X7.7875Y-2.1437
X7.7875Y-2.8937
X7.975Y-3.6437
X8.2875Y-1.3062
X8.2875Y-2.0562
X8.2875Y-2.8062
X8.475Y-3.5562
X8.5375Y-1.2063
X8.5375Y-1.9563
X8.5375Y-2.7062
X8.725Y-3.4562
X9.0375Y-1.3062
X9.0375Y-2.0562
X9.0375Y-2.8062
X9.2875Y-1.2063
X9.2875Y-1.9563
X9.2875Y-2.7062
X9.7875Y-1.3062
X9.7875Y-2.0562
X9.7875Y-2.8062
X10.0375Y-1.2063
X10.0375Y-1.9563
X10.0375Y-2.7062
X10.5375Y-1.1187
X10.5375Y-1.8687
X10.5375Y-2.6187
X10.7875Y-1.0188
X10.7875Y-1.7688
X10.7875Y-2.5187
T4
X6.375Y-4.5938
X6.9375Y-1.9688
X6.9375Y-2.7188
X6.9375Y-3.4688
X7.125Y-4.2188
X7.6875Y-1.5938
X7.6875Y-2.3438
X7.6875Y-3.0938
X7.875Y-3.8438
X8.4375Y-1.4062
X8.4375Y-2.1562
X8.4375Y-2.9062
X8.625Y-3.6562
X9.1875Y-1.4062
X9.1875Y-2.1562
X9.1875Y-2.9062
X9.9375Y-1.4062
X9.9375Y-2.1562
X9.9375Y-2.9062
X10.6875Y-1.2188
X10.6875Y-1.9688
X10.6875Y-2.7188
T5
X6.75Y-2.3438
X6.75Y-4.2656
X8.8125Y-1.7812
X8.8125Y-3.2812
X10.3125Y-1.5938
X10.3125Y-2.3438
T0
M30
