%TF.GenerationSoftware,KiCad,Pcbnew,(7.0.0)*%
%TF.CreationDate,2023-04-23T19:00:17+09:00*%
%TF.ProjectId,pcb_r,7063625f-722e-46b6-9963-61645f706362,rev?*%
%TF.SameCoordinates,Original*%
%TF.FileFunction,Paste,Bot*%
%TF.FilePolarity,Positive*%
%FSLAX46Y46*%
G04 Gerber Fmt 4.6, Leading zero omitted, Abs format (unit mm)*
G04 Created by KiCad (PCBNEW (7.0.0)) date 2023-04-23 19:00:17*
%MOMM*%
%LPD*%
G01*
G04 APERTURE LIST*
%ADD10R,2.550000X2.500000*%
%ADD11R,1.400000X1.300000*%
G04 APERTURE END LIST*
D10*
%TO.C,SW28*%
X264377499Y-28416249D03*
X277304499Y-25876249D03*
%TD*%
%TO.C,SW30*%
X188177499Y-56991249D03*
X201104499Y-54451249D03*
%TD*%
%TO.C,SW40*%
X264377499Y-66516249D03*
X277304499Y-63976249D03*
%TD*%
%TO.C,SW43*%
X192939999Y-95091249D03*
X205866999Y-92551249D03*
%TD*%
%TO.C,SW44*%
X211989999Y-90328749D03*
X224916999Y-87788749D03*
%TD*%
%TO.C,SW39*%
X245327499Y-71278749D03*
X258254499Y-68738749D03*
%TD*%
%TO.C,SW41*%
X154839999Y-114141249D03*
X167766999Y-111601249D03*
%TD*%
%TO.C,SW23*%
X169127499Y-47466249D03*
X182054499Y-44926249D03*
%TD*%
%TO.C,SW25*%
X207227499Y-33178749D03*
X220154499Y-30638749D03*
%TD*%
%TO.C,SW36*%
X188177499Y-76041249D03*
X201104499Y-73501249D03*
%TD*%
%TO.C,SW32*%
X226277499Y-52228749D03*
X239204499Y-49688749D03*
%TD*%
%TO.C,SW38*%
X226277499Y-71278749D03*
X239204499Y-68738749D03*
%TD*%
%TO.C,SW27*%
X245327499Y-33178749D03*
X258254499Y-30638749D03*
%TD*%
%TO.C,SW42*%
X173889999Y-104616249D03*
X186816999Y-102076249D03*
%TD*%
%TO.C,SW33*%
X245327499Y-52228749D03*
X258254499Y-49688749D03*
%TD*%
%TO.C,SW31*%
X207227499Y-52228749D03*
X220154499Y-49688749D03*
%TD*%
%TO.C,SW34*%
X264377499Y-47466249D03*
X277304499Y-44926249D03*
%TD*%
%TO.C,SW26*%
X226277499Y-33178749D03*
X239204499Y-30638749D03*
%TD*%
%TO.C,SW35*%
X169127499Y-85566249D03*
X182054499Y-83026249D03*
%TD*%
%TO.C,SW37*%
X207227499Y-71278749D03*
X220154499Y-68738749D03*
%TD*%
%TO.C,SW29*%
X169127499Y-66516249D03*
X182054499Y-63976249D03*
%TD*%
%TO.C,SW24*%
X188177499Y-37941249D03*
X201104499Y-35401249D03*
%TD*%
D11*
%TO.C,D29*%
X174437499Y-73818749D03*
X177987499Y-73818749D03*
%TD*%
%TO.C,D31*%
X212537499Y-59531249D03*
X216087499Y-59531249D03*
%TD*%
%TO.C,D26*%
X231587499Y-40481249D03*
X235137499Y-40481249D03*
%TD*%
%TO.C,D40*%
X269687499Y-73818749D03*
X273237499Y-73818749D03*
%TD*%
%TO.C,D25*%
X212537499Y-40481249D03*
X216087499Y-40481249D03*
%TD*%
%TO.C,D37*%
X212537499Y-78581249D03*
X216087499Y-78581249D03*
%TD*%
%TO.C,D38*%
X231587499Y-78581249D03*
X235137499Y-78581249D03*
%TD*%
%TO.C,D41*%
X160149999Y-121443749D03*
X163699999Y-121443749D03*
%TD*%
%TO.C,D36*%
X193487499Y-83343749D03*
X197037499Y-83343749D03*
%TD*%
%TO.C,D34*%
X269687499Y-54768749D03*
X273237499Y-54768749D03*
%TD*%
%TO.C,D39*%
X250637499Y-78581249D03*
X254187499Y-78581249D03*
%TD*%
%TO.C,D35*%
X174437499Y-92868749D03*
X177987499Y-92868749D03*
%TD*%
%TO.C,D28*%
X269687499Y-35718749D03*
X273237499Y-35718749D03*
%TD*%
%TO.C,D24*%
X193487499Y-45243749D03*
X197037499Y-45243749D03*
%TD*%
%TO.C,D42*%
X179199999Y-111918749D03*
X182749999Y-111918749D03*
%TD*%
%TO.C,D32*%
X231587499Y-59531249D03*
X235137499Y-59531249D03*
%TD*%
%TO.C,D33*%
X250637499Y-59531249D03*
X254187499Y-59531249D03*
%TD*%
%TO.C,D27*%
X250637499Y-40481249D03*
X254187499Y-40481249D03*
%TD*%
%TO.C,D30*%
X193487499Y-64293749D03*
X197037499Y-64293749D03*
%TD*%
%TO.C,D43*%
X198249999Y-102393749D03*
X201799999Y-102393749D03*
%TD*%
%TO.C,D23*%
X174437499Y-54768749D03*
X177987499Y-54768749D03*
%TD*%
%TO.C,D44*%
X217299999Y-97631249D03*
X220849999Y-97631249D03*
%TD*%
M02*
