M48
; DRILL file {KiCad (7.0.0)} date Sun Apr 23 19:00:24 2023
; FORMAT={-:-/ absolute / inch / decimal}
; #@! TF.CreationDate,2023-04-23T19:00:24+09:00
; #@! TF.GenerationSoftware,Kicad,Pcbnew,(7.0.0)
; #@! TF.FileFunction,Plated,1,2,PTH
FMAT,2
INCH
; #@! TA.AperFunction,Plated,PTH,ViaDrill
T1C0.0157
; #@! TA.AperFunction,Plated,PTH,ComponentDrill
T2C0.0320
; #@! TA.AperFunction,Plated,PTH,ComponentDrill
T3C0.0394
; #@! TA.AperFunction,Plated,PTH,ComponentDrill
T4C0.0512
%
G90
G05
T1
X6.0069Y-1.9675
X6.0659Y-2.1636
X6.1644Y-3.1676
X6.1654Y-2.577
X6.1851Y-2.4688
X6.1939Y-3.0987
X6.2136Y-2.3802
X6.2333Y-3.0593
X6.2726Y-3.4038
X6.4158Y-2.4844
X6.4158Y-3.0938
X6.5482Y-2.2424
X6.5974Y-4.4766
X6.6094Y-4.3125
X6.6562Y-1.9688
X6.6562Y-2.5312
X6.6562Y-2.7188
X6.6562Y-3.2812
X6.6562Y-3.4688
X6.7844Y-3.8073
X7.1191Y-1.888
X7.1585Y-2.6164
X7.1585Y-3.3546
X7.3455Y-4.1026
X7.4062Y-1.5938
X7.4062Y-1.8388
X7.4062Y-2.1562
X7.4062Y-2.3438
X7.4062Y-2.9062
X7.4062Y-3.0938
X7.4062Y-3.8906
X7.9065Y-2.9707
X7.9163Y-1.4747
X7.9163Y-2.2227
X8.1033Y-3.7188
X8.1562Y-2.1562
X8.1562Y-2.7188
X8.1562Y-2.9062
X8.1562Y-3.5156
X8.6545Y-2.8132
X8.6644Y-1.2876
X8.6644Y-2.0357
X8.8514Y-3.5416
X8.9062Y-1.4062
X8.9062Y-1.6518
X8.9062Y-1.9688
X8.9062Y-2.1562
X8.9062Y-2.7188
X8.9062Y-2.9062
X8.9104Y-3.1676
X9.4124Y-2.0357
X9.4124Y-2.7837
X9.4173Y-1.2926
X9.6562Y-1.4062
X9.6562Y-1.6617
X9.6562Y-1.9688
X9.6562Y-2.1562
X9.6562Y-2.7188
X10.1604Y-1.3073
X10.1604Y-2.0455
X10.1604Y-2.7837
X10.4062Y-1.2188
X10.4062Y-1.7812
X10.4062Y-1.9688
X10.4062Y-2.5312
X10.9085Y-1.8585
X10.9085Y-2.6065
X10.9183Y-1.0908
T2
X5.8879Y-1.8675
X5.8879Y-1.9675
X5.8879Y-2.0675
X5.8879Y-2.1675
X5.8879Y-2.2675
X5.8879Y-2.3675
X5.8879Y-2.4675
X5.8879Y-2.5675
X5.8879Y-2.6675
X5.8879Y-2.7675
X5.8879Y-2.8675
X5.8879Y-2.9675
X6.2569Y-4.7812
X6.4872Y-1.8675
X6.4872Y-1.9675
X6.4872Y-2.0675
X6.4872Y-2.1675
X6.4872Y-2.2675
X6.4872Y-2.3675
X6.4872Y-2.4675
X6.4872Y-2.5675
X6.4872Y-2.6675
X6.4872Y-2.7675
X6.4872Y-2.8675
X6.4872Y-2.9675
X6.4931Y-4.7812
X6.8194Y-2.1562
X6.8194Y-2.9062
X6.8194Y-3.6562
X7.0069Y-4.4062
X7.0556Y-2.1562
X7.0556Y-2.9062
X7.0556Y-3.6562
X7.2431Y-4.4062
X7.5694Y-1.7812
X7.5694Y-2.5312
X7.5694Y-3.2812
X7.7569Y-4.0312
X7.8056Y-1.7812
X7.8056Y-2.5312
X7.8056Y-3.2812
X7.9931Y-4.0312
X8.3194Y-1.5938
X8.3194Y-2.3438
X8.3194Y-3.0938
X8.5069Y-3.8438
X8.5556Y-1.5938
X8.5556Y-2.3438
X8.5556Y-3.0938
X8.7431Y-3.8438
X9.0694Y-1.5938
X9.0694Y-2.3438
X9.0694Y-3.0938
X9.3056Y-1.5938
X9.3056Y-2.3438
X9.3056Y-3.0938
X9.8194Y-1.5938
X9.8194Y-2.3438
X9.8194Y-3.0938
X10.0556Y-1.5938
X10.0556Y-2.3438
X10.0556Y-3.0938
X10.5694Y-1.4062
X10.5694Y-2.1562
X10.5694Y-2.9062
X10.8056Y-1.4062
X10.8056Y-2.1562
X10.8056Y-2.9062
T4
X5.9062Y-3.1064
X5.9062Y-3.3623
T3
G00X5.9498Y-3.4798
M15
G01X5.9695Y-3.4798
M16
G05
G00X6.0679Y-3.4798
M15
G01X6.0876Y-3.4798
M16
G05
G00X6.2254Y-3.4798
M15
G01X6.2451Y-3.4798
M16
G05
G00X6.2844Y-3.6452
M15
G01X6.3041Y-3.6452
M16
G05
T0
M30
