  0
SECTION
  2
HEADER
  9
$ACADVER
  1
AC1009
  9
$FILLMODE
 70
 0
  9
$SPLFRAME
 70
 1
  9
$EXTMIN
 10
0
 20
0
 30
0.0
  9
$EXTMAX
 10
1058.33
 20
1058.33
 30
0.0
  0
ENDSEC
  0
SECTION
  2
TABLES
  0
TABLE
  2
LAYER
 70
1
  0
LAYER
  2
0
 70
     0
 62
     7
  6
CONTINUOUS
  0
ENDTAB
  0
ENDSEC
  0
SECTION
  2
ENTITIES
  0
LINE
  8
0
 62
     0
 10
0.0950846
 20
105.033
 30
0.0
 11
266.795
 21
105.033
 31
0.0
  0
LINE
  8
0
 62
     0
 10
266.795
 20
105.033
 30
0.0
 11
266.795
 21
0.257693
 31
0.0
  0
LINE
  8
0
 62
     0
 10
266.795
 20
0.257693
 30
0.0
 11
0.0950846
 21
0.257693
 31
0.0
  0
LINE
  8
0
 62
     0
 10
0.0950846
 20
0.257693
 30
0.0
 11
0.0950846
 21
105.033
 31
0.0
  0
LINE
  8
0
 62
     0
 10
112.157
 20
16.7831
 30
0.0
 11
126.157
 21
16.7831
 31
0.0
  0
LINE
  8
0
 62
     0
 10
126.157
 20
16.7831
 30
0.0
 11
126.157
 21
2.78364
 31
0.0
  0
LINE
  8
0
 62
     0
 10
126.157
 20
2.78364
 30
0.0
 11
112.157
 21
2.78364
 31
0.0
  0
LINE
  8
0
 62
     0
 10
112.157
 20
2.78364
 30
0.0
 11
112.157
 21
16.7831
 31
0.0
  0
LINE
  8
0
 62
     0
 10
140.732
 20
16.7831
 30
0.0
 11
154.732
 21
16.7831
 31
0.0
  0
LINE
  8
0
 62
     0
 10
154.732
 20
16.7831
 30
0.0
 11
154.732
 21
2.78364
 31
0.0
  0
LINE
  8
0
 62
     0
 10
154.732
 20
2.78364
 30
0.0
 11
140.732
 21
2.78364
 31
0.0
  0
LINE
  8
0
 62
     0
 10
140.732
 20
2.78364
 30
0.0
 11
140.732
 21
16.7831
 31
0.0
  0
LINE
  8
0
 62
     0
 10
93.1072
 20
26.3081
 30
0.0
 11
107.107
 21
26.3081
 31
0.0
  0
LINE
  8
0
 62
     0
 10
107.107
 20
26.3081
 30
0.0
 11
107.107
 21
12.3086
 31
0.0
  0
LINE
  8
0
 62
     0
 10
107.107
 20
12.3086
 30
0.0
 11
93.1072
 21
12.3086
 31
0.0
  0
LINE
  8
0
 62
     0
 10
93.1072
 20
12.3086
 30
0.0
 11
93.1072
 21
26.3081
 31
0.0
  0
LINE
  8
0
 62
     0
 10
159.782
 20
26.3081
 30
0.0
 11
173.782
 21
26.3081
 31
0.0
  0
LINE
  8
0
 62
     0
 10
173.782
 20
26.3081
 30
0.0
 11
173.782
 21
12.3086
 31
0.0
  0
LINE
  8
0
 62
     0
 10
173.782
 20
12.3086
 30
0.0
 11
159.782
 21
12.3086
 31
0.0
  0
LINE
  8
0
 62
     0
 10
159.782
 20
12.3086
 30
0.0
 11
159.782
 21
26.3081
 31
0.0
  0
LINE
  8
0
 62
     0
 10
74.0572
 20
35.833
 30
0.0
 11
88.0565
 21
35.833
 31
0.0
  0
LINE
  8
0
 62
     0
 10
88.0565
 20
35.833
 30
0.0
 11
88.0565
 21
21.8336
 31
0.0
  0
LINE
  8
0
 62
     0
 10
88.0565
 20
21.8336
 30
0.0
 11
74.0572
 21
21.8336
 31
0.0
  0
LINE
  8
0
 62
     0
 10
74.0572
 20
21.8336
 30
0.0
 11
74.0572
 21
35.833
 31
0.0
  0
LINE
  8
0
 62
     0
 10
178.832
 20
35.833
 30
0.0
 11
192.832
 21
35.833
 31
0.0
  0
LINE
  8
0
 62
     0
 10
192.832
 20
35.833
 30
0.0
 11
192.832
 21
21.8336
 31
0.0
  0
LINE
  8
0
 62
     0
 10
192.832
 20
21.8336
 30
0.0
 11
178.832
 21
21.8336
 31
0.0
  0
LINE
  8
0
 62
     0
 10
178.832
 20
21.8336
 30
0.0
 11
178.832
 21
35.833
 31
0.0
  0
LINE
  8
0
 62
     0
 10
55.0072
 20
40.5955
 30
0.0
 11
69.0065
 21
40.5955
 31
0.0
  0
LINE
  8
0
 62
     0
 10
69.0065
 20
40.5955
 30
0.0
 11
69.0065
 21
26.5961
 31
0.0
  0
LINE
  8
0
 62
     0
 10
69.0065
 20
26.5961
 30
0.0
 11
55.0072
 21
26.5961
 31
0.0
  0
LINE
  8
0
 62
     0
 10
55.0072
 20
26.5961
 30
0.0
 11
55.0072
 21
40.5955
 31
0.0
  0
LINE
  8
0
 62
     0
 10
197.882
 20
40.5955
 30
0.0
 11
211.882
 21
40.5955
 31
0.0
  0
LINE
  8
0
 62
     0
 10
211.882
 20
40.5955
 30
0.0
 11
211.882
 21
26.5961
 31
0.0
  0
LINE
  8
0
 62
     0
 10
211.882
 20
26.5961
 30
0.0
 11
197.882
 21
26.5961
 31
0.0
  0
LINE
  8
0
 62
     0
 10
197.882
 20
26.5961
 30
0.0
 11
197.882
 21
40.5955
 31
0.0
  0
LINE
  8
0
 62
     0
 10
97.8697
 20
45.3581
 30
0.0
 11
111.869
 21
45.3581
 31
0.0
  0
LINE
  8
0
 62
     0
 10
111.869
 20
45.3581
 30
0.0
 11
111.869
 21
31.3586
 31
0.0
  0
LINE
  8
0
 62
     0
 10
111.869
 20
31.3586
 30
0.0
 11
97.8697
 21
31.3586
 31
0.0
  0
LINE
  8
0
 62
     0
 10
97.8697
 20
31.3586
 30
0.0
 11
97.8697
 21
45.3581
 31
0.0
  0
LINE
  8
0
 62
     0
 10
155.02
 20
45.3581
 30
0.0
 11
169.019
 21
45.3581
 31
0.0
  0
LINE
  8
0
 62
     0
 10
169.019
 20
45.3581
 30
0.0
 11
169.019
 21
31.3586
 31
0.0
  0
LINE
  8
0
 62
     0
 10
169.019
 20
31.3586
 30
0.0
 11
155.02
 21
31.3586
 31
0.0
  0
LINE
  8
0
 62
     0
 10
155.02
 20
31.3586
 30
0.0
 11
155.02
 21
45.3581
 31
0.0
  0
LINE
  8
0
 62
     0
 10
78.8197
 20
54.8831
 30
0.0
 11
92.819
 21
54.8831
 31
0.0
  0
LINE
  8
0
 62
     0
 10
92.819
 20
54.8831
 30
0.0
 11
92.819
 21
40.8838
 31
0.0
  0
LINE
  8
0
 62
     0
 10
92.819
 20
40.8838
 30
0.0
 11
78.8197
 21
40.8838
 31
0.0
  0
LINE
  8
0
 62
     0
 10
78.8197
 20
40.8838
 30
0.0
 11
78.8197
 21
54.8831
 31
0.0
  0
LINE
  8
0
 62
     0
 10
174.07
 20
54.8831
 30
0.0
 11
188.069
 21
54.8831
 31
0.0
  0
LINE
  8
0
 62
     0
 10
188.069
 20
54.8831
 30
0.0
 11
188.069
 21
40.8838
 31
0.0
  0
LINE
  8
0
 62
     0
 10
188.069
 20
40.8838
 30
0.0
 11
174.07
 21
40.8838
 31
0.0
  0
LINE
  8
0
 62
     0
 10
174.07
 20
40.8838
 30
0.0
 11
174.07
 21
54.8831
 31
0.0
  0
LINE
  8
0
 62
     0
 10
21.6697
 20
59.6456
 30
0.0
 11
35.669
 21
59.6456
 31
0.0
  0
LINE
  8
0
 62
     0
 10
35.669
 20
59.6456
 30
0.0
 11
35.669
 21
45.6463
 31
0.0
  0
LINE
  8
0
 62
     0
 10
35.669
 20
45.6463
 30
0.0
 11
21.6697
 21
45.6463
 31
0.0
  0
LINE
  8
0
 62
     0
 10
21.6697
 20
45.6463
 30
0.0
 11
21.6697
 21
59.6456
 31
0.0
  0
LINE
  8
0
 62
     0
 10
40.7197
 20
59.6456
 30
0.0
 11
54.719
 21
59.6456
 31
0.0
  0
LINE
  8
0
 62
     0
 10
54.719
 20
59.6456
 30
0.0
 11
54.719
 21
45.6463
 31
0.0
  0
LINE
  8
0
 62
     0
 10
54.719
 20
45.6463
 30
0.0
 11
40.7197
 21
45.6463
 31
0.0
  0
LINE
  8
0
 62
     0
 10
40.7197
 20
45.6463
 30
0.0
 11
40.7197
 21
59.6456
 31
0.0
  0
LINE
  8
0
 62
     0
 10
59.7697
 20
59.6456
 30
0.0
 11
73.769
 21
59.6456
 31
0.0
  0
LINE
  8
0
 62
     0
 10
73.769
 20
59.6456
 30
0.0
 11
73.769
 21
45.6463
 31
0.0
  0
LINE
  8
0
 62
     0
 10
73.769
 20
45.6463
 30
0.0
 11
59.7697
 21
45.6463
 31
0.0
  0
LINE
  8
0
 62
     0
 10
59.7697
 20
45.6463
 30
0.0
 11
59.7697
 21
59.6456
 31
0.0
  0
LINE
  8
0
 62
     0
 10
193.12
 20
59.6456
 30
0.0
 11
207.119
 21
59.6456
 31
0.0
  0
LINE
  8
0
 62
     0
 10
207.119
 20
59.6456
 30
0.0
 11
207.119
 21
45.6463
 31
0.0
  0
LINE
  8
0
 62
     0
 10
207.119
 20
45.6463
 30
0.0
 11
193.12
 21
45.6463
 31
0.0
  0
LINE
  8
0
 62
     0
 10
193.12
 20
45.6463
 30
0.0
 11
193.12
 21
59.6456
 31
0.0
  0
LINE
  8
0
 62
     0
 10
212.17
 20
59.6456
 30
0.0
 11
226.169
 21
59.6456
 31
0.0
  0
LINE
  8
0
 62
     0
 10
226.169
 20
59.6456
 30
0.0
 11
226.169
 21
45.6463
 31
0.0
  0
LINE
  8
0
 62
     0
 10
226.169
 20
45.6463
 30
0.0
 11
212.17
 21
45.6463
 31
0.0
  0
LINE
  8
0
 62
     0
 10
212.17
 20
45.6463
 30
0.0
 11
212.17
 21
59.6456
 31
0.0
  0
LINE
  8
0
 62
     0
 10
231.22
 20
59.6456
 30
0.0
 11
245.219
 21
59.6456
 31
0.0
  0
LINE
  8
0
 62
     0
 10
245.219
 20
59.6456
 30
0.0
 11
245.219
 21
45.6463
 31
0.0
  0
LINE
  8
0
 62
     0
 10
245.219
 20
45.6463
 30
0.0
 11
231.22
 21
45.6463
 31
0.0
  0
LINE
  8
0
 62
     0
 10
231.22
 20
45.6463
 30
0.0
 11
231.22
 21
59.6456
 31
0.0
  0
LINE
  8
0
 62
     0
 10
2.61965
 20
64.4081
 30
0.0
 11
16.6192
 21
64.4081
 31
0.0
  0
LINE
  8
0
 62
     0
 10
16.6192
 20
64.4081
 30
0.0
 11
16.6192
 21
50.4088
 31
0.0
  0
LINE
  8
0
 62
     0
 10
16.6192
 20
50.4088
 30
0.0
 11
2.61965
 21
50.4088
 31
0.0
  0
LINE
  8
0
 62
     0
 10
2.61965
 20
50.4088
 30
0.0
 11
2.61965
 21
64.4081
 31
0.0
  0
LINE
  8
0
 62
     0
 10
97.8697
 20
64.4081
 30
0.0
 11
111.869
 21
64.4081
 31
0.0
  0
LINE
  8
0
 62
     0
 10
111.869
 20
64.4081
 30
0.0
 11
111.869
 21
50.4088
 31
0.0
  0
LINE
  8
0
 62
     0
 10
111.869
 20
50.4088
 30
0.0
 11
97.8697
 21
50.4088
 31
0.0
  0
LINE
  8
0
 62
     0
 10
97.8697
 20
50.4088
 30
0.0
 11
97.8697
 21
64.4081
 31
0.0
  0
LINE
  8
0
 62
     0
 10
155.02
 20
64.4081
 30
0.0
 11
169.019
 21
64.4081
 31
0.0
  0
LINE
  8
0
 62
     0
 10
169.019
 20
64.4081
 30
0.0
 11
169.019
 21
50.4088
 31
0.0
  0
LINE
  8
0
 62
     0
 10
169.019
 20
50.4088
 30
0.0
 11
155.02
 21
50.4088
 31
0.0
  0
LINE
  8
0
 62
     0
 10
155.02
 20
50.4088
 30
0.0
 11
155.02
 21
64.4081
 31
0.0
  0
LINE
  8
0
 62
     0
 10
250.27
 20
64.4081
 30
0.0
 11
264.269
 21
64.4081
 31
0.0
  0
LINE
  8
0
 62
     0
 10
264.269
 20
64.4081
 30
0.0
 11
264.269
 21
50.4088
 31
0.0
  0
LINE
  8
0
 62
     0
 10
264.269
 20
50.4088
 30
0.0
 11
250.27
 21
50.4088
 31
0.0
  0
LINE
  8
0
 62
     0
 10
250.27
 20
50.4088
 30
0.0
 11
250.27
 21
64.4081
 31
0.0
  0
LINE
  8
0
 62
     0
 10
78.8197
 20
73.9331
 30
0.0
 11
92.819
 21
73.9331
 31
0.0
  0
LINE
  8
0
 62
     0
 10
92.819
 20
73.9331
 30
0.0
 11
92.819
 21
59.9338
 31
0.0
  0
LINE
  8
0
 62
     0
 10
92.819
 20
59.9338
 30
0.0
 11
78.8197
 21
59.9338
 31
0.0
  0
LINE
  8
0
 62
     0
 10
78.8197
 20
59.9338
 30
0.0
 11
78.8197
 21
73.9331
 31
0.0
  0
LINE
  8
0
 62
     0
 10
174.07
 20
73.9331
 30
0.0
 11
188.069
 21
73.9331
 31
0.0
  0
LINE
  8
0
 62
     0
 10
188.069
 20
73.9331
 30
0.0
 11
188.069
 21
59.9338
 31
0.0
  0
LINE
  8
0
 62
     0
 10
188.069
 20
59.9338
 30
0.0
 11
174.07
 21
59.9338
 31
0.0
  0
LINE
  8
0
 62
     0
 10
174.07
 20
59.9338
 30
0.0
 11
174.07
 21
73.9331
 31
0.0
  0
LINE
  8
0
 62
     0
 10
21.6697
 20
78.6956
 30
0.0
 11
35.669
 21
78.6956
 31
0.0
  0
LINE
  8
0
 62
     0
 10
35.669
 20
78.6956
 30
0.0
 11
35.669
 21
64.6963
 31
0.0
  0
LINE
  8
0
 62
     0
 10
35.669
 20
64.6963
 30
0.0
 11
21.6697
 21
64.6963
 31
0.0
  0
LINE
  8
0
 62
     0
 10
21.6697
 20
64.6963
 30
0.0
 11
21.6697
 21
78.6956
 31
0.0
  0
LINE
  8
0
 62
     0
 10
40.7197
 20
78.6956
 30
0.0
 11
54.719
 21
78.6956
 31
0.0
  0
LINE
  8
0
 62
     0
 10
54.719
 20
78.6956
 30
0.0
 11
54.719
 21
64.6963
 31
0.0
  0
LINE
  8
0
 62
     0
 10
54.719
 20
64.6963
 30
0.0
 11
40.7197
 21
64.6963
 31
0.0
  0
LINE
  8
0
 62
     0
 10
40.7197
 20
64.6963
 30
0.0
 11
40.7197
 21
78.6956
 31
0.0
  0
LINE
  8
0
 62
     0
 10
59.7697
 20
78.6956
 30
0.0
 11
73.769
 21
78.6956
 31
0.0
  0
LINE
  8
0
 62
     0
 10
73.769
 20
78.6956
 30
0.0
 11
73.769
 21
64.6963
 31
0.0
  0
LINE
  8
0
 62
     0
 10
73.769
 20
64.6963
 30
0.0
 11
59.7697
 21
64.6963
 31
0.0
  0
LINE
  8
0
 62
     0
 10
59.7697
 20
64.6963
 30
0.0
 11
59.7697
 21
78.6956
 31
0.0
  0
LINE
  8
0
 62
     0
 10
193.12
 20
78.6956
 30
0.0
 11
207.119
 21
78.6956
 31
0.0
  0
LINE
  8
0
 62
     0
 10
207.119
 20
78.6956
 30
0.0
 11
207.119
 21
64.6963
 31
0.0
  0
LINE
  8
0
 62
     0
 10
207.119
 20
64.6963
 30
0.0
 11
193.12
 21
64.6963
 31
0.0
  0
LINE
  8
0
 62
     0
 10
193.12
 20
64.6963
 30
0.0
 11
193.12
 21
78.6956
 31
0.0
  0
LINE
  8
0
 62
     0
 10
212.17
 20
78.6956
 30
0.0
 11
226.169
 21
78.6956
 31
0.0
  0
LINE
  8
0
 62
     0
 10
226.169
 20
78.6956
 30
0.0
 11
226.169
 21
64.6963
 31
0.0
  0
LINE
  8
0
 62
     0
 10
226.169
 20
64.6963
 30
0.0
 11
212.17
 21
64.6963
 31
0.0
  0
LINE
  8
0
 62
     0
 10
212.17
 20
64.6963
 30
0.0
 11
212.17
 21
78.6956
 31
0.0
  0
LINE
  8
0
 62
     0
 10
231.22
 20
78.6956
 30
0.0
 11
245.219
 21
78.6956
 31
0.0
  0
LINE
  8
0
 62
     0
 10
245.219
 20
78.6956
 30
0.0
 11
245.219
 21
64.6963
 31
0.0
  0
LINE
  8
0
 62
     0
 10
245.219
 20
64.6963
 30
0.0
 11
231.22
 21
64.6963
 31
0.0
  0
LINE
  8
0
 62
     0
 10
231.22
 20
64.6963
 30
0.0
 11
231.22
 21
78.6956
 31
0.0
  0
LINE
  8
0
 62
     0
 10
2.61965
 20
83.4581
 30
0.0
 11
16.6192
 21
83.4581
 31
0.0
  0
LINE
  8
0
 62
     0
 10
16.6192
 20
83.4581
 30
0.0
 11
16.6192
 21
69.4588
 31
0.0
  0
LINE
  8
0
 62
     0
 10
16.6192
 20
69.4588
 30
0.0
 11
2.61965
 21
69.4588
 31
0.0
  0
LINE
  8
0
 62
     0
 10
2.61965
 20
69.4588
 30
0.0
 11
2.61965
 21
83.4581
 31
0.0
  0
LINE
  8
0
 62
     0
 10
97.8697
 20
83.4581
 30
0.0
 11
111.869
 21
83.4581
 31
0.0
  0
LINE
  8
0
 62
     0
 10
111.869
 20
83.4581
 30
0.0
 11
111.869
 21
69.4588
 31
0.0
  0
LINE
  8
0
 62
     0
 10
111.869
 20
69.4588
 30
0.0
 11
97.8697
 21
69.4588
 31
0.0
  0
LINE
  8
0
 62
     0
 10
97.8697
 20
69.4588
 30
0.0
 11
97.8697
 21
83.4581
 31
0.0
  0
LINE
  8
0
 62
     0
 10
155.02
 20
83.4581
 30
0.0
 11
169.019
 21
83.4581
 31
0.0
  0
LINE
  8
0
 62
     0
 10
169.019
 20
83.4581
 30
0.0
 11
169.019
 21
69.4588
 31
0.0
  0
LINE
  8
0
 62
     0
 10
169.019
 20
69.4588
 30
0.0
 11
155.02
 21
69.4588
 31
0.0
  0
LINE
  8
0
 62
     0
 10
155.02
 20
69.4588
 30
0.0
 11
155.02
 21
83.4581
 31
0.0
  0
LINE
  8
0
 62
     0
 10
250.27
 20
83.4581
 30
0.0
 11
264.269
 21
83.4581
 31
0.0
  0
LINE
  8
0
 62
     0
 10
264.269
 20
83.4581
 30
0.0
 11
264.269
 21
69.4588
 31
0.0
  0
LINE
  8
0
 62
     0
 10
264.269
 20
69.4588
 30
0.0
 11
250.27
 21
69.4588
 31
0.0
  0
LINE
  8
0
 62
     0
 10
250.27
 20
69.4588
 30
0.0
 11
250.27
 21
83.4581
 31
0.0
  0
LINE
  8
0
 62
     0
 10
78.8197
 20
92.9831
 30
0.0
 11
92.819
 21
92.9831
 31
0.0
  0
LINE
  8
0
 62
     0
 10
92.819
 20
92.9831
 30
0.0
 11
92.819
 21
78.9838
 31
0.0
  0
LINE
  8
0
 62
     0
 10
92.819
 20
78.9838
 30
0.0
 11
78.8197
 21
78.9838
 31
0.0
  0
LINE
  8
0
 62
     0
 10
78.8197
 20
78.9838
 30
0.0
 11
78.8197
 21
92.9831
 31
0.0
  0
LINE
  8
0
 62
     0
 10
174.07
 20
92.9831
 30
0.0
 11
188.069
 21
92.9831
 31
0.0
  0
LINE
  8
0
 62
     0
 10
188.069
 20
92.9831
 30
0.0
 11
188.069
 21
78.9838
 31
0.0
  0
LINE
  8
0
 62
     0
 10
188.069
 20
78.9838
 30
0.0
 11
174.07
 21
78.9838
 31
0.0
  0
LINE
  8
0
 62
     0
 10
174.07
 20
78.9838
 30
0.0
 11
174.07
 21
92.9831
 31
0.0
  0
LINE
  8
0
 62
     0
 10
21.6697
 20
97.7456
 30
0.0
 11
35.669
 21
97.7456
 31
0.0
  0
LINE
  8
0
 62
     0
 10
35.669
 20
97.7456
 30
0.0
 11
35.669
 21
83.7463
 31
0.0
  0
LINE
  8
0
 62
     0
 10
35.669
 20
83.7463
 30
0.0
 11
21.6697
 21
83.7463
 31
0.0
  0
LINE
  8
0
 62
     0
 10
21.6697
 20
83.7463
 30
0.0
 11
21.6697
 21
97.7456
 31
0.0
  0
LINE
  8
0
 62
     0
 10
40.7197
 20
97.7456
 30
0.0
 11
54.719
 21
97.7456
 31
0.0
  0
LINE
  8
0
 62
     0
 10
54.719
 20
97.7456
 30
0.0
 11
54.719
 21
83.7463
 31
0.0
  0
LINE
  8
0
 62
     0
 10
54.719
 20
83.7463
 30
0.0
 11
40.7197
 21
83.7463
 31
0.0
  0
LINE
  8
0
 62
     0
 10
40.7197
 20
83.7463
 30
0.0
 11
40.7197
 21
97.7456
 31
0.0
  0
LINE
  8
0
 62
     0
 10
59.7697
 20
97.7456
 30
0.0
 11
73.769
 21
97.7456
 31
0.0
  0
LINE
  8
0
 62
     0
 10
73.769
 20
97.7456
 30
0.0
 11
73.769
 21
83.7463
 31
0.0
  0
LINE
  8
0
 62
     0
 10
73.769
 20
83.7463
 30
0.0
 11
59.7697
 21
83.7463
 31
0.0
  0
LINE
  8
0
 62
     0
 10
59.7697
 20
83.7463
 30
0.0
 11
59.7697
 21
97.7456
 31
0.0
  0
LINE
  8
0
 62
     0
 10
193.12
 20
97.7456
 30
0.0
 11
207.119
 21
97.7456
 31
0.0
  0
LINE
  8
0
 62
     0
 10
207.119
 20
97.7456
 30
0.0
 11
207.119
 21
83.7463
 31
0.0
  0
LINE
  8
0
 62
     0
 10
207.119
 20
83.7463
 30
0.0
 11
193.12
 21
83.7463
 31
0.0
  0
LINE
  8
0
 62
     0
 10
193.12
 20
83.7463
 30
0.0
 11
193.12
 21
97.7456
 31
0.0
  0
LINE
  8
0
 62
     0
 10
212.17
 20
97.7456
 30
0.0
 11
226.169
 21
97.7456
 31
0.0
  0
LINE
  8
0
 62
     0
 10
226.169
 20
97.7456
 30
0.0
 11
226.169
 21
83.7463
 31
0.0
  0
LINE
  8
0
 62
     0
 10
226.169
 20
83.7463
 30
0.0
 11
212.17
 21
83.7463
 31
0.0
  0
LINE
  8
0
 62
     0
 10
212.17
 20
83.7463
 30
0.0
 11
212.17
 21
97.7456
 31
0.0
  0
LINE
  8
0
 62
     0
 10
231.22
 20
97.7456
 30
0.0
 11
245.219
 21
97.7456
 31
0.0
  0
LINE
  8
0
 62
     0
 10
245.219
 20
97.7456
 30
0.0
 11
245.219
 21
83.7463
 31
0.0
  0
LINE
  8
0
 62
     0
 10
245.219
 20
83.7463
 30
0.0
 11
231.22
 21
83.7463
 31
0.0
  0
LINE
  8
0
 62
     0
 10
231.22
 20
83.7463
 30
0.0
 11
231.22
 21
97.7456
 31
0.0
  0
LINE
  8
0
 62
     0
 10
2.61965
 20
102.508
 30
0.0
 11
16.6192
 21
102.508
 31
0.0
  0
LINE
  8
0
 62
     0
 10
16.6192
 20
102.508
 30
0.0
 11
16.6192
 21
88.5088
 31
0.0
  0
LINE
  8
0
 62
     0
 10
16.6192
 20
88.5088
 30
0.0
 11
2.61965
 21
88.5088
 31
0.0
  0
LINE
  8
0
 62
     0
 10
2.61965
 20
88.5088
 30
0.0
 11
2.61965
 21
102.508
 31
0.0
  0
LINE
  8
0
 62
     0
 10
250.27
 20
102.508
 30
0.0
 11
264.269
 21
102.508
 31
0.0
  0
LINE
  8
0
 62
     0
 10
264.269
 20
102.508
 30
0.0
 11
264.269
 21
88.5088
 31
0.0
  0
LINE
  8
0
 62
     0
 10
264.269
 20
88.5088
 30
0.0
 11
250.27
 21
88.5088
 31
0.0
  0
LINE
  8
0
 62
     0
 10
250.27
 20
88.5088
 30
0.0
 11
250.27
 21
102.508
 31
0.0
  0
ENDSEC
  0
EOF
