%TF.GenerationSoftware,KiCad,Pcbnew,(7.0.0)*%
%TF.CreationDate,2023-04-23T18:47:40+09:00*%
%TF.ProjectId,mysplit44_pcb_l,6d797370-6c69-4743-9434-5f7063625f6c,rev?*%
%TF.SameCoordinates,Original*%
%TF.FileFunction,Drillmap*%
%TF.FilePolarity,Positive*%
%FSLAX45Y45*%
G04 Gerber Fmt 4.5, Leading zero omitted, Abs format (unit mm)*
G04 Created by KiCad (PCBNEW (7.0.0)) date 2023-04-23 18:47:40*
%MOMM*%
%LPD*%
G01*
G04 APERTURE LIST*
%ADD10C,0.100000*%
%ADD11C,0.200000*%
%ADD12C,0.120000*%
%ADD13C,0.190000*%
%ADD14C,0.300000*%
%ADD15C,0.410000*%
%ADD16C,0.430000*%
G04 APERTURE END LIST*
D10*
X1905005Y-7758125D02*
G75*
G03*
X2005000Y-7858125I99995J-5D01*
G01*
X3810000Y-7958125D02*
X3810000Y-8234375D01*
X10953755Y-11568125D02*
G75*
G03*
X11053750Y-11668125I99995J-5D01*
G01*
X11430000Y-3195625D02*
X11430000Y-3948125D01*
X9148750Y-10715625D02*
X10853750Y-10715625D01*
X7143745Y-10139375D02*
G75*
G03*
X7243750Y-10239375I100005J5D01*
G01*
X9048750Y-10339375D02*
X9048750Y-10615625D01*
X2005000Y-7858125D02*
X3710000Y-7858125D01*
X3910000Y-2619375D02*
X9425000Y-2619375D01*
X3710000Y-2143125D02*
X2005000Y-2143125D01*
X10953745Y-10815625D02*
G75*
G03*
X10853750Y-10715625I-99995J5D01*
G01*
X10953750Y-10815625D02*
X10953750Y-11568125D01*
X3810000Y-2243125D02*
X3810000Y-2519375D01*
X3810005Y-2243125D02*
G75*
G03*
X3710000Y-2143125I-100005J-5D01*
G01*
X9525000Y-2719375D02*
X9525000Y-2995625D01*
X15140000Y-12620620D02*
G75*
G03*
X15240000Y-12520625I10J99990D01*
G01*
X3910000Y-8334375D02*
X7043750Y-8334375D01*
X12858750Y-11768125D02*
X12858750Y-12520625D01*
X9048755Y-10615625D02*
G75*
G03*
X9148750Y-10715625I99995J-5D01*
G01*
X9625000Y-3095625D02*
X11330000Y-3095625D01*
X12858745Y-11768125D02*
G75*
G03*
X12758750Y-11668125I-99995J5D01*
G01*
X7243750Y-10239375D02*
X8948750Y-10239375D01*
X3810005Y-8234375D02*
G75*
G03*
X3910000Y-8334375I99995J-5D01*
G01*
X12858755Y-12520625D02*
G75*
G03*
X12958750Y-12620625I99995J-5D01*
G01*
X9048745Y-10339375D02*
G75*
G03*
X8948750Y-10239375I-99995J5D01*
G01*
X11530000Y-4048125D02*
X15140000Y-4048125D01*
X9525005Y-2995625D02*
G75*
G03*
X9625000Y-3095625I99995J-5D01*
G01*
X11053750Y-11668125D02*
X12758750Y-11668125D01*
X15239995Y-4148125D02*
G75*
G03*
X15140000Y-4048125I-99995J5D01*
G01*
X3810005Y-2519375D02*
G75*
G03*
X3910000Y-2619375I99995J-5D01*
G01*
X7143750Y-8434375D02*
X7143750Y-10139375D01*
X2005000Y-2143125D02*
G75*
G03*
X1905000Y-2243125I-8J-99992D01*
G01*
X11429995Y-3948125D02*
G75*
G03*
X11530000Y-4048125I100005J5D01*
G01*
X12958750Y-12620625D02*
X15140000Y-12620625D01*
X1905000Y-2243125D02*
X1905000Y-7758125D01*
X7143745Y-8434375D02*
G75*
G03*
X7043750Y-8334375I-99995J5D01*
G01*
X3810005Y-7958125D02*
G75*
G03*
X3710000Y-7858125I-100005J-5D01*
G01*
X11430005Y-3195625D02*
G75*
G03*
X11330000Y-3095625I-100005J-5D01*
G01*
X9524995Y-2719375D02*
G75*
G03*
X9425000Y-2619375I-99995J5D01*
G01*
X15240000Y-12520625D02*
X15240000Y-4148125D01*
D11*
D12*
X14255625Y-8988750D02*
X14375625Y-9108750D01*
X14375625Y-8988750D02*
X14255625Y-9108750D01*
X14955625Y-8988750D02*
X15075625Y-9108750D01*
X15075625Y-8988750D02*
X14955625Y-9108750D01*
D13*
X2444500Y-3095625D02*
G75*
G03*
X2444500Y-3095625I-95000J0D01*
G01*
X2444500Y-5000625D02*
G75*
G03*
X2444500Y-5000625I-95000J0D01*
G01*
X2444500Y-6905625D02*
G75*
G03*
X2444500Y-6905625I-95000J0D01*
G01*
X3460500Y-3095625D02*
G75*
G03*
X3460500Y-3095625I-95000J0D01*
G01*
X3460500Y-5000625D02*
G75*
G03*
X3460500Y-5000625I-95000J0D01*
G01*
X3460500Y-6905625D02*
G75*
G03*
X3460500Y-6905625I-95000J0D01*
G01*
X4349500Y-3571875D02*
G75*
G03*
X4349500Y-3571875I-95000J0D01*
G01*
X4349500Y-5476875D02*
G75*
G03*
X4349500Y-5476875I-95000J0D01*
G01*
X4349500Y-7381875D02*
G75*
G03*
X4349500Y-7381875I-95000J0D01*
G01*
X5365500Y-3571875D02*
G75*
G03*
X5365500Y-3571875I-95000J0D01*
G01*
X5365500Y-5476875D02*
G75*
G03*
X5365500Y-5476875I-95000J0D01*
G01*
X5365500Y-7381875D02*
G75*
G03*
X5365500Y-7381875I-95000J0D01*
G01*
X6254500Y-3571875D02*
G75*
G03*
X6254500Y-3571875I-95000J0D01*
G01*
X6254500Y-5476875D02*
G75*
G03*
X6254500Y-5476875I-95000J0D01*
G01*
X6254500Y-7381875D02*
G75*
G03*
X6254500Y-7381875I-95000J0D01*
G01*
X7270500Y-3571875D02*
G75*
G03*
X7270500Y-3571875I-95000J0D01*
G01*
X7270500Y-5476875D02*
G75*
G03*
X7270500Y-5476875I-95000J0D01*
G01*
X7270500Y-7381875D02*
G75*
G03*
X7270500Y-7381875I-95000J0D01*
G01*
X7683250Y-9286875D02*
G75*
G03*
X7683250Y-9286875I-95000J0D01*
G01*
X8159500Y-3571875D02*
G75*
G03*
X8159500Y-3571875I-95000J0D01*
G01*
X8159500Y-5476875D02*
G75*
G03*
X8159500Y-5476875I-95000J0D01*
G01*
X8159500Y-7381875D02*
G75*
G03*
X8159500Y-7381875I-95000J0D01*
G01*
X8699250Y-9286875D02*
G75*
G03*
X8699250Y-9286875I-95000J0D01*
G01*
X9175500Y-3571875D02*
G75*
G03*
X9175500Y-3571875I-95000J0D01*
G01*
X9175500Y-5476875D02*
G75*
G03*
X9175500Y-5476875I-95000J0D01*
G01*
X9175500Y-7381875D02*
G75*
G03*
X9175500Y-7381875I-95000J0D01*
G01*
X9588250Y-9763125D02*
G75*
G03*
X9588250Y-9763125I-95000J0D01*
G01*
X10064500Y-4048125D02*
G75*
G03*
X10064500Y-4048125I-95000J0D01*
G01*
X10064500Y-5953125D02*
G75*
G03*
X10064500Y-5953125I-95000J0D01*
G01*
X10064500Y-7858125D02*
G75*
G03*
X10064500Y-7858125I-95000J0D01*
G01*
X10604250Y-9763125D02*
G75*
G03*
X10604250Y-9763125I-95000J0D01*
G01*
X11080500Y-4048125D02*
G75*
G03*
X11080500Y-4048125I-95000J0D01*
G01*
X11080500Y-5953125D02*
G75*
G03*
X11080500Y-5953125I-95000J0D01*
G01*
X11080500Y-7858125D02*
G75*
G03*
X11080500Y-7858125I-95000J0D01*
G01*
X11493250Y-10715625D02*
G75*
G03*
X11493250Y-10715625I-95000J0D01*
G01*
X11969500Y-5000625D02*
G75*
G03*
X11969500Y-5000625I-95000J0D01*
G01*
X11969500Y-6905625D02*
G75*
G03*
X11969500Y-6905625I-95000J0D01*
G01*
X11969500Y-8810625D02*
G75*
G03*
X11969500Y-8810625I-95000J0D01*
G01*
X12509250Y-10715625D02*
G75*
G03*
X12509250Y-10715625I-95000J0D01*
G01*
X12985500Y-5000625D02*
G75*
G03*
X12985500Y-5000625I-95000J0D01*
G01*
X12985500Y-6905625D02*
G75*
G03*
X12985500Y-6905625I-95000J0D01*
G01*
X12985500Y-8810625D02*
G75*
G03*
X12985500Y-8810625I-95000J0D01*
G01*
X13398250Y-11668125D02*
G75*
G03*
X13398250Y-11668125I-95000J0D01*
G01*
X14414250Y-11668125D02*
G75*
G03*
X14414250Y-11668125I-95000J0D01*
G01*
D14*
X2476500Y-2691625D02*
X2476500Y-2991625D01*
X2326500Y-2841625D02*
X2626500Y-2841625D01*
X2476500Y-4596625D02*
X2476500Y-4896625D01*
X2326500Y-4746625D02*
X2626500Y-4746625D01*
X2476500Y-6501625D02*
X2476500Y-6801625D01*
X2326500Y-6651625D02*
X2626500Y-6651625D01*
X3111500Y-2437625D02*
X3111500Y-2737625D01*
X2961500Y-2587625D02*
X3261500Y-2587625D01*
X3111500Y-4342625D02*
X3111500Y-4642625D01*
X2961500Y-4492625D02*
X3261500Y-4492625D01*
X3111500Y-6247625D02*
X3111500Y-6547625D01*
X2961500Y-6397625D02*
X3261500Y-6397625D01*
X4381500Y-3167875D02*
X4381500Y-3467875D01*
X4231500Y-3317875D02*
X4531500Y-3317875D01*
X4381500Y-5072875D02*
X4381500Y-5372875D01*
X4231500Y-5222875D02*
X4531500Y-5222875D01*
X4381500Y-6977875D02*
X4381500Y-7277875D01*
X4231500Y-7127875D02*
X4531500Y-7127875D01*
X5016500Y-2913875D02*
X5016500Y-3213875D01*
X4866500Y-3063875D02*
X5166500Y-3063875D01*
X5016500Y-4818875D02*
X5016500Y-5118875D01*
X4866500Y-4968875D02*
X5166500Y-4968875D01*
X5016500Y-6723875D02*
X5016500Y-7023875D01*
X4866500Y-6873875D02*
X5166500Y-6873875D01*
X6286500Y-3167875D02*
X6286500Y-3467875D01*
X6136500Y-3317875D02*
X6436500Y-3317875D01*
X6286500Y-5072875D02*
X6286500Y-5372875D01*
X6136500Y-5222875D02*
X6436500Y-5222875D01*
X6286500Y-6977875D02*
X6286500Y-7277875D01*
X6136500Y-7127875D02*
X6436500Y-7127875D01*
X6921500Y-2913875D02*
X6921500Y-3213875D01*
X6771500Y-3063875D02*
X7071500Y-3063875D01*
X6921500Y-4818875D02*
X6921500Y-5118875D01*
X6771500Y-4968875D02*
X7071500Y-4968875D01*
X6921500Y-6723875D02*
X6921500Y-7023875D01*
X6771500Y-6873875D02*
X7071500Y-6873875D01*
X7715250Y-8882875D02*
X7715250Y-9182875D01*
X7565250Y-9032875D02*
X7865250Y-9032875D01*
X8191500Y-3167875D02*
X8191500Y-3467875D01*
X8041500Y-3317875D02*
X8341500Y-3317875D01*
X8191500Y-5072875D02*
X8191500Y-5372875D01*
X8041500Y-5222875D02*
X8341500Y-5222875D01*
X8191500Y-6977875D02*
X8191500Y-7277875D01*
X8041500Y-7127875D02*
X8341500Y-7127875D01*
X8350250Y-8628875D02*
X8350250Y-8928875D01*
X8200250Y-8778875D02*
X8500250Y-8778875D01*
X8826500Y-2913875D02*
X8826500Y-3213875D01*
X8676500Y-3063875D02*
X8976500Y-3063875D01*
X8826500Y-4818875D02*
X8826500Y-5118875D01*
X8676500Y-4968875D02*
X8976500Y-4968875D01*
X8826500Y-6723875D02*
X8826500Y-7023875D01*
X8676500Y-6873875D02*
X8976500Y-6873875D01*
X9620250Y-9359125D02*
X9620250Y-9659125D01*
X9470250Y-9509125D02*
X9770250Y-9509125D01*
X10096500Y-3644125D02*
X10096500Y-3944125D01*
X9946500Y-3794125D02*
X10246500Y-3794125D01*
X10096500Y-5549125D02*
X10096500Y-5849125D01*
X9946500Y-5699125D02*
X10246500Y-5699125D01*
X10096500Y-7454125D02*
X10096500Y-7754125D01*
X9946500Y-7604125D02*
X10246500Y-7604125D01*
X10255250Y-9105125D02*
X10255250Y-9405125D01*
X10105250Y-9255125D02*
X10405250Y-9255125D01*
X10731500Y-3390125D02*
X10731500Y-3690125D01*
X10581500Y-3540125D02*
X10881500Y-3540125D01*
X10731500Y-5295125D02*
X10731500Y-5595125D01*
X10581500Y-5445125D02*
X10881500Y-5445125D01*
X10731500Y-7200125D02*
X10731500Y-7500125D01*
X10581500Y-7350125D02*
X10881500Y-7350125D01*
X11525250Y-10311625D02*
X11525250Y-10611625D01*
X11375250Y-10461625D02*
X11675250Y-10461625D01*
X12001500Y-4596625D02*
X12001500Y-4896625D01*
X11851500Y-4746625D02*
X12151500Y-4746625D01*
X12001500Y-6501625D02*
X12001500Y-6801625D01*
X11851500Y-6651625D02*
X12151500Y-6651625D01*
X12001500Y-8406625D02*
X12001500Y-8706625D01*
X11851500Y-8556625D02*
X12151500Y-8556625D01*
X12160250Y-10057625D02*
X12160250Y-10357625D01*
X12010250Y-10207625D02*
X12310250Y-10207625D01*
X12636500Y-4342625D02*
X12636500Y-4642625D01*
X12486500Y-4492625D02*
X12786500Y-4492625D01*
X12636500Y-6247625D02*
X12636500Y-6547625D01*
X12486500Y-6397625D02*
X12786500Y-6397625D01*
X12636500Y-8152625D02*
X12636500Y-8452625D01*
X12486500Y-8302625D02*
X12786500Y-8302625D01*
X13430250Y-11264125D02*
X13430250Y-11564125D01*
X13280250Y-11414125D02*
X13580250Y-11414125D01*
X14065250Y-11010125D02*
X14065250Y-11310125D01*
X13915250Y-11160125D02*
X14215250Y-11160125D01*
D15*
X3002458Y-3240583D02*
X3002458Y-2950667D01*
X2712542Y-2950667D01*
X2712542Y-3240583D01*
X3002458Y-3240583D01*
X3002458Y-5145583D02*
X3002458Y-4855667D01*
X2712542Y-4855667D01*
X2712542Y-5145583D01*
X3002458Y-5145583D01*
X3002458Y-7050583D02*
X3002458Y-6760667D01*
X2712542Y-6760667D01*
X2712542Y-7050583D01*
X3002458Y-7050583D01*
X4907458Y-3716833D02*
X4907458Y-3426917D01*
X4617542Y-3426917D01*
X4617542Y-3716833D01*
X4907458Y-3716833D01*
X4907458Y-5621833D02*
X4907458Y-5331917D01*
X4617542Y-5331917D01*
X4617542Y-5621833D01*
X4907458Y-5621833D01*
X4907458Y-7526833D02*
X4907458Y-7236917D01*
X4617542Y-7236917D01*
X4617542Y-7526833D01*
X4907458Y-7526833D01*
X6812458Y-3716833D02*
X6812458Y-3426917D01*
X6522542Y-3426917D01*
X6522542Y-3716833D01*
X6812458Y-3716833D01*
X6812458Y-5621833D02*
X6812458Y-5331917D01*
X6522542Y-5331917D01*
X6522542Y-5621833D01*
X6812458Y-5621833D01*
X6812458Y-7526833D02*
X6812458Y-7236917D01*
X6522542Y-7236917D01*
X6522542Y-7526833D01*
X6812458Y-7526833D01*
X8241208Y-9431833D02*
X8241208Y-9141917D01*
X7951292Y-9141917D01*
X7951292Y-9431833D01*
X8241208Y-9431833D01*
X8717458Y-3716833D02*
X8717458Y-3426917D01*
X8427542Y-3426917D01*
X8427542Y-3716833D01*
X8717458Y-3716833D01*
X8717458Y-5621833D02*
X8717458Y-5331917D01*
X8427542Y-5331917D01*
X8427542Y-5621833D01*
X8717458Y-5621833D01*
X8717458Y-7526833D02*
X8717458Y-7236917D01*
X8427542Y-7236917D01*
X8427542Y-7526833D01*
X8717458Y-7526833D01*
X10146208Y-9908083D02*
X10146208Y-9618167D01*
X9856292Y-9618167D01*
X9856292Y-9908083D01*
X10146208Y-9908083D01*
X10622458Y-4193083D02*
X10622458Y-3903167D01*
X10332542Y-3903167D01*
X10332542Y-4193083D01*
X10622458Y-4193083D01*
X10622458Y-6098083D02*
X10622458Y-5808167D01*
X10332542Y-5808167D01*
X10332542Y-6098083D01*
X10622458Y-6098083D01*
X10622458Y-8003083D02*
X10622458Y-7713167D01*
X10332542Y-7713167D01*
X10332542Y-8003083D01*
X10622458Y-8003083D01*
X12051208Y-10860583D02*
X12051208Y-10570667D01*
X11761292Y-10570667D01*
X11761292Y-10860583D01*
X12051208Y-10860583D01*
X12527458Y-5145583D02*
X12527458Y-4855667D01*
X12237542Y-4855667D01*
X12237542Y-5145583D01*
X12527458Y-5145583D01*
X12527458Y-7050583D02*
X12527458Y-6760667D01*
X12237542Y-6760667D01*
X12237542Y-7050583D01*
X12527458Y-7050583D01*
X12527458Y-8955583D02*
X12527458Y-8665667D01*
X12237542Y-8665667D01*
X12237542Y-8955583D01*
X12527458Y-8955583D01*
X13956208Y-11813083D02*
X13956208Y-11523167D01*
X13666292Y-11523167D01*
X13666292Y-11813083D01*
X13956208Y-11813083D01*
D16*
X3810000Y-4263125D02*
X4025000Y-4048125D01*
X3810000Y-3833125D01*
X3595000Y-4048125D01*
X3810000Y-4263125D01*
X3810000Y-6168125D02*
X4025000Y-5953125D01*
X3810000Y-5738125D01*
X3595000Y-5953125D01*
X3810000Y-6168125D01*
X7620000Y-4739375D02*
X7835000Y-4524375D01*
X7620000Y-4309375D01*
X7405000Y-4524375D01*
X7620000Y-4739375D01*
X7620000Y-8549375D02*
X7835000Y-8334375D01*
X7620000Y-8119375D01*
X7405000Y-8334375D01*
X7620000Y-8549375D01*
X12858750Y-6168125D02*
X13073750Y-5953125D01*
X12858750Y-5738125D01*
X12643750Y-5953125D01*
X12858750Y-6168125D01*
X12858750Y-11049688D02*
X13073750Y-10834688D01*
X12858750Y-10619688D01*
X12643750Y-10834688D01*
X12858750Y-11049688D01*
D11*
X2147619Y-12919101D02*
X2147619Y-12719101D01*
X2147619Y-12719101D02*
X2195238Y-12719101D01*
X2195238Y-12719101D02*
X2223810Y-12728625D01*
X2223810Y-12728625D02*
X2242857Y-12747673D01*
X2242857Y-12747673D02*
X2252381Y-12766720D01*
X2252381Y-12766720D02*
X2261905Y-12804815D01*
X2261905Y-12804815D02*
X2261905Y-12833387D01*
X2261905Y-12833387D02*
X2252381Y-12871482D01*
X2252381Y-12871482D02*
X2242857Y-12890530D01*
X2242857Y-12890530D02*
X2223810Y-12909577D01*
X2223810Y-12909577D02*
X2195238Y-12919101D01*
X2195238Y-12919101D02*
X2147619Y-12919101D01*
X2347619Y-12919101D02*
X2347619Y-12785768D01*
X2347619Y-12823863D02*
X2357143Y-12804815D01*
X2357143Y-12804815D02*
X2366667Y-12795292D01*
X2366667Y-12795292D02*
X2385714Y-12785768D01*
X2385714Y-12785768D02*
X2404762Y-12785768D01*
X2471429Y-12919101D02*
X2471429Y-12785768D01*
X2471429Y-12719101D02*
X2461905Y-12728625D01*
X2461905Y-12728625D02*
X2471429Y-12738149D01*
X2471429Y-12738149D02*
X2480952Y-12728625D01*
X2480952Y-12728625D02*
X2471429Y-12719101D01*
X2471429Y-12719101D02*
X2471429Y-12738149D01*
X2595238Y-12919101D02*
X2576190Y-12909577D01*
X2576190Y-12909577D02*
X2566667Y-12890530D01*
X2566667Y-12890530D02*
X2566667Y-12719101D01*
X2700000Y-12919101D02*
X2680952Y-12909577D01*
X2680952Y-12909577D02*
X2671429Y-12890530D01*
X2671429Y-12890530D02*
X2671429Y-12719101D01*
X2896190Y-12919101D02*
X2896190Y-12719101D01*
X2896190Y-12719101D02*
X2962857Y-12861958D01*
X2962857Y-12861958D02*
X3029524Y-12719101D01*
X3029524Y-12719101D02*
X3029524Y-12919101D01*
X3210476Y-12919101D02*
X3210476Y-12814339D01*
X3210476Y-12814339D02*
X3200952Y-12795292D01*
X3200952Y-12795292D02*
X3181905Y-12785768D01*
X3181905Y-12785768D02*
X3143809Y-12785768D01*
X3143809Y-12785768D02*
X3124762Y-12795292D01*
X3210476Y-12909577D02*
X3191428Y-12919101D01*
X3191428Y-12919101D02*
X3143809Y-12919101D01*
X3143809Y-12919101D02*
X3124762Y-12909577D01*
X3124762Y-12909577D02*
X3115238Y-12890530D01*
X3115238Y-12890530D02*
X3115238Y-12871482D01*
X3115238Y-12871482D02*
X3124762Y-12852434D01*
X3124762Y-12852434D02*
X3143809Y-12842911D01*
X3143809Y-12842911D02*
X3191428Y-12842911D01*
X3191428Y-12842911D02*
X3210476Y-12833387D01*
X3305714Y-12785768D02*
X3305714Y-12985768D01*
X3305714Y-12795292D02*
X3324762Y-12785768D01*
X3324762Y-12785768D02*
X3362857Y-12785768D01*
X3362857Y-12785768D02*
X3381905Y-12795292D01*
X3381905Y-12795292D02*
X3391428Y-12804815D01*
X3391428Y-12804815D02*
X3400952Y-12823863D01*
X3400952Y-12823863D02*
X3400952Y-12881006D01*
X3400952Y-12881006D02*
X3391428Y-12900053D01*
X3391428Y-12900053D02*
X3381905Y-12909577D01*
X3381905Y-12909577D02*
X3362857Y-12919101D01*
X3362857Y-12919101D02*
X3324762Y-12919101D01*
X3324762Y-12919101D02*
X3305714Y-12909577D01*
X3486667Y-12900053D02*
X3496190Y-12909577D01*
X3496190Y-12909577D02*
X3486667Y-12919101D01*
X3486667Y-12919101D02*
X3477143Y-12909577D01*
X3477143Y-12909577D02*
X3486667Y-12900053D01*
X3486667Y-12900053D02*
X3486667Y-12919101D01*
X3486667Y-12795292D02*
X3496190Y-12804815D01*
X3496190Y-12804815D02*
X3486667Y-12814339D01*
X3486667Y-12814339D02*
X3477143Y-12804815D01*
X3477143Y-12804815D02*
X3486667Y-12795292D01*
X3486667Y-12795292D02*
X3486667Y-12814339D01*
D12*
X1780000Y-13205625D02*
X1900000Y-13325625D01*
X1900000Y-13205625D02*
X1780000Y-13325625D01*
D11*
X2252381Y-13339101D02*
X2138095Y-13339101D01*
X2195238Y-13339101D02*
X2195238Y-13139101D01*
X2195238Y-13139101D02*
X2176190Y-13167673D01*
X2176190Y-13167673D02*
X2157143Y-13186720D01*
X2157143Y-13186720D02*
X2138095Y-13196244D01*
X2338095Y-13320053D02*
X2347619Y-13329577D01*
X2347619Y-13329577D02*
X2338095Y-13339101D01*
X2338095Y-13339101D02*
X2328571Y-13329577D01*
X2328571Y-13329577D02*
X2338095Y-13320053D01*
X2338095Y-13320053D02*
X2338095Y-13339101D01*
X2423810Y-13158149D02*
X2433333Y-13148625D01*
X2433333Y-13148625D02*
X2452381Y-13139101D01*
X2452381Y-13139101D02*
X2500000Y-13139101D01*
X2500000Y-13139101D02*
X2519048Y-13148625D01*
X2519048Y-13148625D02*
X2528571Y-13158149D01*
X2528571Y-13158149D02*
X2538095Y-13177196D01*
X2538095Y-13177196D02*
X2538095Y-13196244D01*
X2538095Y-13196244D02*
X2528571Y-13224815D01*
X2528571Y-13224815D02*
X2414286Y-13339101D01*
X2414286Y-13339101D02*
X2538095Y-13339101D01*
X2661905Y-13139101D02*
X2680952Y-13139101D01*
X2680952Y-13139101D02*
X2700000Y-13148625D01*
X2700000Y-13148625D02*
X2709524Y-13158149D01*
X2709524Y-13158149D02*
X2719048Y-13177196D01*
X2719048Y-13177196D02*
X2728571Y-13215292D01*
X2728571Y-13215292D02*
X2728571Y-13262911D01*
X2728571Y-13262911D02*
X2719048Y-13301006D01*
X2719048Y-13301006D02*
X2709524Y-13320053D01*
X2709524Y-13320053D02*
X2700000Y-13329577D01*
X2700000Y-13329577D02*
X2680952Y-13339101D01*
X2680952Y-13339101D02*
X2661905Y-13339101D01*
X2661905Y-13339101D02*
X2642857Y-13329577D01*
X2642857Y-13329577D02*
X2633333Y-13320053D01*
X2633333Y-13320053D02*
X2623810Y-13301006D01*
X2623810Y-13301006D02*
X2614286Y-13262911D01*
X2614286Y-13262911D02*
X2614286Y-13215292D01*
X2614286Y-13215292D02*
X2623810Y-13177196D01*
X2623810Y-13177196D02*
X2633333Y-13158149D01*
X2633333Y-13158149D02*
X2642857Y-13148625D01*
X2642857Y-13148625D02*
X2661905Y-13139101D01*
X2852381Y-13139101D02*
X2871429Y-13139101D01*
X2871429Y-13139101D02*
X2890476Y-13148625D01*
X2890476Y-13148625D02*
X2900000Y-13158149D01*
X2900000Y-13158149D02*
X2909524Y-13177196D01*
X2909524Y-13177196D02*
X2919048Y-13215292D01*
X2919048Y-13215292D02*
X2919048Y-13262911D01*
X2919048Y-13262911D02*
X2909524Y-13301006D01*
X2909524Y-13301006D02*
X2900000Y-13320053D01*
X2900000Y-13320053D02*
X2890476Y-13329577D01*
X2890476Y-13329577D02*
X2871429Y-13339101D01*
X2871429Y-13339101D02*
X2852381Y-13339101D01*
X2852381Y-13339101D02*
X2833333Y-13329577D01*
X2833333Y-13329577D02*
X2823809Y-13320053D01*
X2823809Y-13320053D02*
X2814286Y-13301006D01*
X2814286Y-13301006D02*
X2804762Y-13262911D01*
X2804762Y-13262911D02*
X2804762Y-13215292D01*
X2804762Y-13215292D02*
X2814286Y-13177196D01*
X2814286Y-13177196D02*
X2823809Y-13158149D01*
X2823809Y-13158149D02*
X2833333Y-13148625D01*
X2833333Y-13148625D02*
X2852381Y-13139101D01*
X3004762Y-13339101D02*
X3004762Y-13205768D01*
X3004762Y-13224815D02*
X3014286Y-13215292D01*
X3014286Y-13215292D02*
X3033333Y-13205768D01*
X3033333Y-13205768D02*
X3061905Y-13205768D01*
X3061905Y-13205768D02*
X3080952Y-13215292D01*
X3080952Y-13215292D02*
X3090476Y-13234339D01*
X3090476Y-13234339D02*
X3090476Y-13339101D01*
X3090476Y-13234339D02*
X3100000Y-13215292D01*
X3100000Y-13215292D02*
X3119048Y-13205768D01*
X3119048Y-13205768D02*
X3147619Y-13205768D01*
X3147619Y-13205768D02*
X3166667Y-13215292D01*
X3166667Y-13215292D02*
X3176190Y-13234339D01*
X3176190Y-13234339D02*
X3176190Y-13339101D01*
X3271429Y-13339101D02*
X3271429Y-13205768D01*
X3271429Y-13224815D02*
X3280952Y-13215292D01*
X3280952Y-13215292D02*
X3300000Y-13205768D01*
X3300000Y-13205768D02*
X3328571Y-13205768D01*
X3328571Y-13205768D02*
X3347619Y-13215292D01*
X3347619Y-13215292D02*
X3357143Y-13234339D01*
X3357143Y-13234339D02*
X3357143Y-13339101D01*
X3357143Y-13234339D02*
X3366667Y-13215292D01*
X3366667Y-13215292D02*
X3385714Y-13205768D01*
X3385714Y-13205768D02*
X3414286Y-13205768D01*
X3414286Y-13205768D02*
X3433333Y-13215292D01*
X3433333Y-13215292D02*
X3442857Y-13234339D01*
X3442857Y-13234339D02*
X3442857Y-13339101D01*
X3800952Y-13129577D02*
X3629524Y-13386720D01*
X4025714Y-13139101D02*
X4044762Y-13139101D01*
X4044762Y-13139101D02*
X4063810Y-13148625D01*
X4063810Y-13148625D02*
X4073333Y-13158149D01*
X4073333Y-13158149D02*
X4082857Y-13177196D01*
X4082857Y-13177196D02*
X4092381Y-13215292D01*
X4092381Y-13215292D02*
X4092381Y-13262911D01*
X4092381Y-13262911D02*
X4082857Y-13301006D01*
X4082857Y-13301006D02*
X4073333Y-13320053D01*
X4073333Y-13320053D02*
X4063810Y-13329577D01*
X4063810Y-13329577D02*
X4044762Y-13339101D01*
X4044762Y-13339101D02*
X4025714Y-13339101D01*
X4025714Y-13339101D02*
X4006667Y-13329577D01*
X4006667Y-13329577D02*
X3997143Y-13320053D01*
X3997143Y-13320053D02*
X3987619Y-13301006D01*
X3987619Y-13301006D02*
X3978095Y-13262911D01*
X3978095Y-13262911D02*
X3978095Y-13215292D01*
X3978095Y-13215292D02*
X3987619Y-13177196D01*
X3987619Y-13177196D02*
X3997143Y-13158149D01*
X3997143Y-13158149D02*
X4006667Y-13148625D01*
X4006667Y-13148625D02*
X4025714Y-13139101D01*
X4178095Y-13320053D02*
X4187619Y-13329577D01*
X4187619Y-13329577D02*
X4178095Y-13339101D01*
X4178095Y-13339101D02*
X4168571Y-13329577D01*
X4168571Y-13329577D02*
X4178095Y-13320053D01*
X4178095Y-13320053D02*
X4178095Y-13339101D01*
X4311429Y-13139101D02*
X4330476Y-13139101D01*
X4330476Y-13139101D02*
X4349524Y-13148625D01*
X4349524Y-13148625D02*
X4359048Y-13158149D01*
X4359048Y-13158149D02*
X4368572Y-13177196D01*
X4368572Y-13177196D02*
X4378095Y-13215292D01*
X4378095Y-13215292D02*
X4378095Y-13262911D01*
X4378095Y-13262911D02*
X4368572Y-13301006D01*
X4368572Y-13301006D02*
X4359048Y-13320053D01*
X4359048Y-13320053D02*
X4349524Y-13329577D01*
X4349524Y-13329577D02*
X4330476Y-13339101D01*
X4330476Y-13339101D02*
X4311429Y-13339101D01*
X4311429Y-13339101D02*
X4292381Y-13329577D01*
X4292381Y-13329577D02*
X4282857Y-13320053D01*
X4282857Y-13320053D02*
X4273333Y-13301006D01*
X4273333Y-13301006D02*
X4263810Y-13262911D01*
X4263810Y-13262911D02*
X4263810Y-13215292D01*
X4263810Y-13215292D02*
X4273333Y-13177196D01*
X4273333Y-13177196D02*
X4282857Y-13158149D01*
X4282857Y-13158149D02*
X4292381Y-13148625D01*
X4292381Y-13148625D02*
X4311429Y-13139101D01*
X4549524Y-13205768D02*
X4549524Y-13339101D01*
X4501905Y-13129577D02*
X4454286Y-13272434D01*
X4454286Y-13272434D02*
X4578095Y-13272434D01*
X4635238Y-13139101D02*
X4768572Y-13139101D01*
X4768572Y-13139101D02*
X4682857Y-13339101D01*
X4835238Y-13158149D02*
X4844762Y-13148625D01*
X4844762Y-13148625D02*
X4863810Y-13139101D01*
X4863810Y-13139101D02*
X4911429Y-13139101D01*
X4911429Y-13139101D02*
X4930476Y-13148625D01*
X4930476Y-13148625D02*
X4940000Y-13158149D01*
X4940000Y-13158149D02*
X4949524Y-13177196D01*
X4949524Y-13177196D02*
X4949524Y-13196244D01*
X4949524Y-13196244D02*
X4940000Y-13224815D01*
X4940000Y-13224815D02*
X4825714Y-13339101D01*
X4825714Y-13339101D02*
X4949524Y-13339101D01*
X5025714Y-13139101D02*
X5025714Y-13177196D01*
X5101905Y-13139101D02*
X5101905Y-13177196D01*
X5364762Y-13415292D02*
X5355238Y-13405768D01*
X5355238Y-13405768D02*
X5336191Y-13377196D01*
X5336191Y-13377196D02*
X5326667Y-13358149D01*
X5326667Y-13358149D02*
X5317143Y-13329577D01*
X5317143Y-13329577D02*
X5307619Y-13281958D01*
X5307619Y-13281958D02*
X5307619Y-13243863D01*
X5307619Y-13243863D02*
X5317143Y-13196244D01*
X5317143Y-13196244D02*
X5326667Y-13167673D01*
X5326667Y-13167673D02*
X5336191Y-13148625D01*
X5336191Y-13148625D02*
X5355238Y-13120053D01*
X5355238Y-13120053D02*
X5364762Y-13110530D01*
X5431429Y-13158149D02*
X5440953Y-13148625D01*
X5440953Y-13148625D02*
X5460000Y-13139101D01*
X5460000Y-13139101D02*
X5507619Y-13139101D01*
X5507619Y-13139101D02*
X5526667Y-13148625D01*
X5526667Y-13148625D02*
X5536191Y-13158149D01*
X5536191Y-13158149D02*
X5545714Y-13177196D01*
X5545714Y-13177196D02*
X5545714Y-13196244D01*
X5545714Y-13196244D02*
X5536191Y-13224815D01*
X5536191Y-13224815D02*
X5421905Y-13339101D01*
X5421905Y-13339101D02*
X5545714Y-13339101D01*
X5751429Y-13339101D02*
X5751429Y-13139101D01*
X5837143Y-13339101D02*
X5837143Y-13234339D01*
X5837143Y-13234339D02*
X5827619Y-13215292D01*
X5827619Y-13215292D02*
X5808572Y-13205768D01*
X5808572Y-13205768D02*
X5780000Y-13205768D01*
X5780000Y-13205768D02*
X5760952Y-13215292D01*
X5760952Y-13215292D02*
X5751429Y-13224815D01*
X5960952Y-13339101D02*
X5941905Y-13329577D01*
X5941905Y-13329577D02*
X5932381Y-13320053D01*
X5932381Y-13320053D02*
X5922857Y-13301006D01*
X5922857Y-13301006D02*
X5922857Y-13243863D01*
X5922857Y-13243863D02*
X5932381Y-13224815D01*
X5932381Y-13224815D02*
X5941905Y-13215292D01*
X5941905Y-13215292D02*
X5960952Y-13205768D01*
X5960952Y-13205768D02*
X5989524Y-13205768D01*
X5989524Y-13205768D02*
X6008572Y-13215292D01*
X6008572Y-13215292D02*
X6018095Y-13224815D01*
X6018095Y-13224815D02*
X6027619Y-13243863D01*
X6027619Y-13243863D02*
X6027619Y-13301006D01*
X6027619Y-13301006D02*
X6018095Y-13320053D01*
X6018095Y-13320053D02*
X6008572Y-13329577D01*
X6008572Y-13329577D02*
X5989524Y-13339101D01*
X5989524Y-13339101D02*
X5960952Y-13339101D01*
X6141905Y-13339101D02*
X6122857Y-13329577D01*
X6122857Y-13329577D02*
X6113333Y-13310530D01*
X6113333Y-13310530D02*
X6113333Y-13139101D01*
X6294286Y-13329577D02*
X6275238Y-13339101D01*
X6275238Y-13339101D02*
X6237143Y-13339101D01*
X6237143Y-13339101D02*
X6218095Y-13329577D01*
X6218095Y-13329577D02*
X6208572Y-13310530D01*
X6208572Y-13310530D02*
X6208572Y-13234339D01*
X6208572Y-13234339D02*
X6218095Y-13215292D01*
X6218095Y-13215292D02*
X6237143Y-13205768D01*
X6237143Y-13205768D02*
X6275238Y-13205768D01*
X6275238Y-13205768D02*
X6294286Y-13215292D01*
X6294286Y-13215292D02*
X6303810Y-13234339D01*
X6303810Y-13234339D02*
X6303810Y-13253387D01*
X6303810Y-13253387D02*
X6208572Y-13272434D01*
X6380000Y-13329577D02*
X6399048Y-13339101D01*
X6399048Y-13339101D02*
X6437143Y-13339101D01*
X6437143Y-13339101D02*
X6456191Y-13329577D01*
X6456191Y-13329577D02*
X6465714Y-13310530D01*
X6465714Y-13310530D02*
X6465714Y-13301006D01*
X6465714Y-13301006D02*
X6456191Y-13281958D01*
X6456191Y-13281958D02*
X6437143Y-13272434D01*
X6437143Y-13272434D02*
X6408572Y-13272434D01*
X6408572Y-13272434D02*
X6389524Y-13262911D01*
X6389524Y-13262911D02*
X6380000Y-13243863D01*
X6380000Y-13243863D02*
X6380000Y-13234339D01*
X6380000Y-13234339D02*
X6389524Y-13215292D01*
X6389524Y-13215292D02*
X6408572Y-13205768D01*
X6408572Y-13205768D02*
X6437143Y-13205768D01*
X6437143Y-13205768D02*
X6456191Y-13215292D01*
X6532381Y-13415292D02*
X6541905Y-13405768D01*
X6541905Y-13405768D02*
X6560953Y-13377196D01*
X6560953Y-13377196D02*
X6570476Y-13358149D01*
X6570476Y-13358149D02*
X6580000Y-13329577D01*
X6580000Y-13329577D02*
X6589524Y-13281958D01*
X6589524Y-13281958D02*
X6589524Y-13243863D01*
X6589524Y-13243863D02*
X6580000Y-13196244D01*
X6580000Y-13196244D02*
X6570476Y-13167673D01*
X6570476Y-13167673D02*
X6560953Y-13148625D01*
X6560953Y-13148625D02*
X6541905Y-13120053D01*
X6541905Y-13120053D02*
X6532381Y-13110530D01*
X6861905Y-13415292D02*
X6852381Y-13405768D01*
X6852381Y-13405768D02*
X6833333Y-13377196D01*
X6833333Y-13377196D02*
X6823810Y-13358149D01*
X6823810Y-13358149D02*
X6814286Y-13329577D01*
X6814286Y-13329577D02*
X6804762Y-13281958D01*
X6804762Y-13281958D02*
X6804762Y-13243863D01*
X6804762Y-13243863D02*
X6814286Y-13196244D01*
X6814286Y-13196244D02*
X6823810Y-13167673D01*
X6823810Y-13167673D02*
X6833333Y-13148625D01*
X6833333Y-13148625D02*
X6852381Y-13120053D01*
X6852381Y-13120053D02*
X6861905Y-13110530D01*
X6938095Y-13205768D02*
X6938095Y-13339101D01*
X6938095Y-13224815D02*
X6947619Y-13215292D01*
X6947619Y-13215292D02*
X6966667Y-13205768D01*
X6966667Y-13205768D02*
X6995238Y-13205768D01*
X6995238Y-13205768D02*
X7014286Y-13215292D01*
X7014286Y-13215292D02*
X7023810Y-13234339D01*
X7023810Y-13234339D02*
X7023810Y-13339101D01*
X7147619Y-13339101D02*
X7128572Y-13329577D01*
X7128572Y-13329577D02*
X7119048Y-13320053D01*
X7119048Y-13320053D02*
X7109524Y-13301006D01*
X7109524Y-13301006D02*
X7109524Y-13243863D01*
X7109524Y-13243863D02*
X7119048Y-13224815D01*
X7119048Y-13224815D02*
X7128572Y-13215292D01*
X7128572Y-13215292D02*
X7147619Y-13205768D01*
X7147619Y-13205768D02*
X7176191Y-13205768D01*
X7176191Y-13205768D02*
X7195238Y-13215292D01*
X7195238Y-13215292D02*
X7204762Y-13224815D01*
X7204762Y-13224815D02*
X7214286Y-13243863D01*
X7214286Y-13243863D02*
X7214286Y-13301006D01*
X7214286Y-13301006D02*
X7204762Y-13320053D01*
X7204762Y-13320053D02*
X7195238Y-13329577D01*
X7195238Y-13329577D02*
X7176191Y-13339101D01*
X7176191Y-13339101D02*
X7147619Y-13339101D01*
X7271429Y-13205768D02*
X7347619Y-13205768D01*
X7300000Y-13139101D02*
X7300000Y-13310530D01*
X7300000Y-13310530D02*
X7309524Y-13329577D01*
X7309524Y-13329577D02*
X7328572Y-13339101D01*
X7328572Y-13339101D02*
X7347619Y-13339101D01*
X7534286Y-13205768D02*
X7534286Y-13405768D01*
X7534286Y-13215292D02*
X7553333Y-13205768D01*
X7553333Y-13205768D02*
X7591429Y-13205768D01*
X7591429Y-13205768D02*
X7610476Y-13215292D01*
X7610476Y-13215292D02*
X7620000Y-13224815D01*
X7620000Y-13224815D02*
X7629524Y-13243863D01*
X7629524Y-13243863D02*
X7629524Y-13301006D01*
X7629524Y-13301006D02*
X7620000Y-13320053D01*
X7620000Y-13320053D02*
X7610476Y-13329577D01*
X7610476Y-13329577D02*
X7591429Y-13339101D01*
X7591429Y-13339101D02*
X7553333Y-13339101D01*
X7553333Y-13339101D02*
X7534286Y-13329577D01*
X7743810Y-13339101D02*
X7724762Y-13329577D01*
X7724762Y-13329577D02*
X7715238Y-13310530D01*
X7715238Y-13310530D02*
X7715238Y-13139101D01*
X7905714Y-13339101D02*
X7905714Y-13234339D01*
X7905714Y-13234339D02*
X7896191Y-13215292D01*
X7896191Y-13215292D02*
X7877143Y-13205768D01*
X7877143Y-13205768D02*
X7839048Y-13205768D01*
X7839048Y-13205768D02*
X7820000Y-13215292D01*
X7905714Y-13329577D02*
X7886667Y-13339101D01*
X7886667Y-13339101D02*
X7839048Y-13339101D01*
X7839048Y-13339101D02*
X7820000Y-13329577D01*
X7820000Y-13329577D02*
X7810476Y-13310530D01*
X7810476Y-13310530D02*
X7810476Y-13291482D01*
X7810476Y-13291482D02*
X7820000Y-13272434D01*
X7820000Y-13272434D02*
X7839048Y-13262911D01*
X7839048Y-13262911D02*
X7886667Y-13262911D01*
X7886667Y-13262911D02*
X7905714Y-13253387D01*
X7972381Y-13205768D02*
X8048572Y-13205768D01*
X8000953Y-13139101D02*
X8000953Y-13310530D01*
X8000953Y-13310530D02*
X8010476Y-13329577D01*
X8010476Y-13329577D02*
X8029524Y-13339101D01*
X8029524Y-13339101D02*
X8048572Y-13339101D01*
X8191429Y-13329577D02*
X8172381Y-13339101D01*
X8172381Y-13339101D02*
X8134286Y-13339101D01*
X8134286Y-13339101D02*
X8115238Y-13329577D01*
X8115238Y-13329577D02*
X8105714Y-13310530D01*
X8105714Y-13310530D02*
X8105714Y-13234339D01*
X8105714Y-13234339D02*
X8115238Y-13215292D01*
X8115238Y-13215292D02*
X8134286Y-13205768D01*
X8134286Y-13205768D02*
X8172381Y-13205768D01*
X8172381Y-13205768D02*
X8191429Y-13215292D01*
X8191429Y-13215292D02*
X8200953Y-13234339D01*
X8200953Y-13234339D02*
X8200953Y-13253387D01*
X8200953Y-13253387D02*
X8105714Y-13272434D01*
X8372381Y-13339101D02*
X8372381Y-13139101D01*
X8372381Y-13329577D02*
X8353334Y-13339101D01*
X8353334Y-13339101D02*
X8315238Y-13339101D01*
X8315238Y-13339101D02*
X8296191Y-13329577D01*
X8296191Y-13329577D02*
X8286667Y-13320053D01*
X8286667Y-13320053D02*
X8277143Y-13301006D01*
X8277143Y-13301006D02*
X8277143Y-13243863D01*
X8277143Y-13243863D02*
X8286667Y-13224815D01*
X8286667Y-13224815D02*
X8296191Y-13215292D01*
X8296191Y-13215292D02*
X8315238Y-13205768D01*
X8315238Y-13205768D02*
X8353334Y-13205768D01*
X8353334Y-13205768D02*
X8372381Y-13215292D01*
X8448572Y-13415292D02*
X8458096Y-13405768D01*
X8458096Y-13405768D02*
X8477143Y-13377196D01*
X8477143Y-13377196D02*
X8486667Y-13358149D01*
X8486667Y-13358149D02*
X8496191Y-13329577D01*
X8496191Y-13329577D02*
X8505715Y-13281958D01*
X8505715Y-13281958D02*
X8505715Y-13243863D01*
X8505715Y-13243863D02*
X8496191Y-13196244D01*
X8496191Y-13196244D02*
X8486667Y-13167673D01*
X8486667Y-13167673D02*
X8477143Y-13148625D01*
X8477143Y-13148625D02*
X8458096Y-13120053D01*
X8458096Y-13120053D02*
X8448572Y-13110530D01*
D13*
X1900000Y-13529625D02*
G75*
G03*
X1900000Y-13529625I-95000J0D01*
G01*
D11*
X2252381Y-13603101D02*
X2138095Y-13603101D01*
X2195238Y-13603101D02*
X2195238Y-13403101D01*
X2195238Y-13403101D02*
X2176190Y-13431673D01*
X2176190Y-13431673D02*
X2157143Y-13450720D01*
X2157143Y-13450720D02*
X2138095Y-13460244D01*
X2338095Y-13584053D02*
X2347619Y-13593577D01*
X2347619Y-13593577D02*
X2338095Y-13603101D01*
X2338095Y-13603101D02*
X2328571Y-13593577D01*
X2328571Y-13593577D02*
X2338095Y-13584053D01*
X2338095Y-13584053D02*
X2338095Y-13603101D01*
X2442857Y-13603101D02*
X2480952Y-13603101D01*
X2480952Y-13603101D02*
X2500000Y-13593577D01*
X2500000Y-13593577D02*
X2509524Y-13584053D01*
X2509524Y-13584053D02*
X2528571Y-13555482D01*
X2528571Y-13555482D02*
X2538095Y-13517387D01*
X2538095Y-13517387D02*
X2538095Y-13441196D01*
X2538095Y-13441196D02*
X2528571Y-13422149D01*
X2528571Y-13422149D02*
X2519048Y-13412625D01*
X2519048Y-13412625D02*
X2500000Y-13403101D01*
X2500000Y-13403101D02*
X2461905Y-13403101D01*
X2461905Y-13403101D02*
X2442857Y-13412625D01*
X2442857Y-13412625D02*
X2433333Y-13422149D01*
X2433333Y-13422149D02*
X2423810Y-13441196D01*
X2423810Y-13441196D02*
X2423810Y-13488815D01*
X2423810Y-13488815D02*
X2433333Y-13507863D01*
X2433333Y-13507863D02*
X2442857Y-13517387D01*
X2442857Y-13517387D02*
X2461905Y-13526911D01*
X2461905Y-13526911D02*
X2500000Y-13526911D01*
X2500000Y-13526911D02*
X2519048Y-13517387D01*
X2519048Y-13517387D02*
X2528571Y-13507863D01*
X2528571Y-13507863D02*
X2538095Y-13488815D01*
X2661905Y-13403101D02*
X2680952Y-13403101D01*
X2680952Y-13403101D02*
X2700000Y-13412625D01*
X2700000Y-13412625D02*
X2709524Y-13422149D01*
X2709524Y-13422149D02*
X2719048Y-13441196D01*
X2719048Y-13441196D02*
X2728571Y-13479292D01*
X2728571Y-13479292D02*
X2728571Y-13526911D01*
X2728571Y-13526911D02*
X2719048Y-13565006D01*
X2719048Y-13565006D02*
X2709524Y-13584053D01*
X2709524Y-13584053D02*
X2700000Y-13593577D01*
X2700000Y-13593577D02*
X2680952Y-13603101D01*
X2680952Y-13603101D02*
X2661905Y-13603101D01*
X2661905Y-13603101D02*
X2642857Y-13593577D01*
X2642857Y-13593577D02*
X2633333Y-13584053D01*
X2633333Y-13584053D02*
X2623810Y-13565006D01*
X2623810Y-13565006D02*
X2614286Y-13526911D01*
X2614286Y-13526911D02*
X2614286Y-13479292D01*
X2614286Y-13479292D02*
X2623810Y-13441196D01*
X2623810Y-13441196D02*
X2633333Y-13422149D01*
X2633333Y-13422149D02*
X2642857Y-13412625D01*
X2642857Y-13412625D02*
X2661905Y-13403101D01*
X2852381Y-13403101D02*
X2871429Y-13403101D01*
X2871429Y-13403101D02*
X2890476Y-13412625D01*
X2890476Y-13412625D02*
X2900000Y-13422149D01*
X2900000Y-13422149D02*
X2909524Y-13441196D01*
X2909524Y-13441196D02*
X2919048Y-13479292D01*
X2919048Y-13479292D02*
X2919048Y-13526911D01*
X2919048Y-13526911D02*
X2909524Y-13565006D01*
X2909524Y-13565006D02*
X2900000Y-13584053D01*
X2900000Y-13584053D02*
X2890476Y-13593577D01*
X2890476Y-13593577D02*
X2871429Y-13603101D01*
X2871429Y-13603101D02*
X2852381Y-13603101D01*
X2852381Y-13603101D02*
X2833333Y-13593577D01*
X2833333Y-13593577D02*
X2823809Y-13584053D01*
X2823809Y-13584053D02*
X2814286Y-13565006D01*
X2814286Y-13565006D02*
X2804762Y-13526911D01*
X2804762Y-13526911D02*
X2804762Y-13479292D01*
X2804762Y-13479292D02*
X2814286Y-13441196D01*
X2814286Y-13441196D02*
X2823809Y-13422149D01*
X2823809Y-13422149D02*
X2833333Y-13412625D01*
X2833333Y-13412625D02*
X2852381Y-13403101D01*
X3004762Y-13603101D02*
X3004762Y-13469768D01*
X3004762Y-13488815D02*
X3014286Y-13479292D01*
X3014286Y-13479292D02*
X3033333Y-13469768D01*
X3033333Y-13469768D02*
X3061905Y-13469768D01*
X3061905Y-13469768D02*
X3080952Y-13479292D01*
X3080952Y-13479292D02*
X3090476Y-13498339D01*
X3090476Y-13498339D02*
X3090476Y-13603101D01*
X3090476Y-13498339D02*
X3100000Y-13479292D01*
X3100000Y-13479292D02*
X3119048Y-13469768D01*
X3119048Y-13469768D02*
X3147619Y-13469768D01*
X3147619Y-13469768D02*
X3166667Y-13479292D01*
X3166667Y-13479292D02*
X3176190Y-13498339D01*
X3176190Y-13498339D02*
X3176190Y-13603101D01*
X3271429Y-13603101D02*
X3271429Y-13469768D01*
X3271429Y-13488815D02*
X3280952Y-13479292D01*
X3280952Y-13479292D02*
X3300000Y-13469768D01*
X3300000Y-13469768D02*
X3328571Y-13469768D01*
X3328571Y-13469768D02*
X3347619Y-13479292D01*
X3347619Y-13479292D02*
X3357143Y-13498339D01*
X3357143Y-13498339D02*
X3357143Y-13603101D01*
X3357143Y-13498339D02*
X3366667Y-13479292D01*
X3366667Y-13479292D02*
X3385714Y-13469768D01*
X3385714Y-13469768D02*
X3414286Y-13469768D01*
X3414286Y-13469768D02*
X3433333Y-13479292D01*
X3433333Y-13479292D02*
X3442857Y-13498339D01*
X3442857Y-13498339D02*
X3442857Y-13603101D01*
X3800952Y-13393577D02*
X3629524Y-13650720D01*
X4025714Y-13403101D02*
X4044762Y-13403101D01*
X4044762Y-13403101D02*
X4063810Y-13412625D01*
X4063810Y-13412625D02*
X4073333Y-13422149D01*
X4073333Y-13422149D02*
X4082857Y-13441196D01*
X4082857Y-13441196D02*
X4092381Y-13479292D01*
X4092381Y-13479292D02*
X4092381Y-13526911D01*
X4092381Y-13526911D02*
X4082857Y-13565006D01*
X4082857Y-13565006D02*
X4073333Y-13584053D01*
X4073333Y-13584053D02*
X4063810Y-13593577D01*
X4063810Y-13593577D02*
X4044762Y-13603101D01*
X4044762Y-13603101D02*
X4025714Y-13603101D01*
X4025714Y-13603101D02*
X4006667Y-13593577D01*
X4006667Y-13593577D02*
X3997143Y-13584053D01*
X3997143Y-13584053D02*
X3987619Y-13565006D01*
X3987619Y-13565006D02*
X3978095Y-13526911D01*
X3978095Y-13526911D02*
X3978095Y-13479292D01*
X3978095Y-13479292D02*
X3987619Y-13441196D01*
X3987619Y-13441196D02*
X3997143Y-13422149D01*
X3997143Y-13422149D02*
X4006667Y-13412625D01*
X4006667Y-13412625D02*
X4025714Y-13403101D01*
X4178095Y-13584053D02*
X4187619Y-13593577D01*
X4187619Y-13593577D02*
X4178095Y-13603101D01*
X4178095Y-13603101D02*
X4168571Y-13593577D01*
X4168571Y-13593577D02*
X4178095Y-13584053D01*
X4178095Y-13584053D02*
X4178095Y-13603101D01*
X4311429Y-13403101D02*
X4330476Y-13403101D01*
X4330476Y-13403101D02*
X4349524Y-13412625D01*
X4349524Y-13412625D02*
X4359048Y-13422149D01*
X4359048Y-13422149D02*
X4368572Y-13441196D01*
X4368572Y-13441196D02*
X4378095Y-13479292D01*
X4378095Y-13479292D02*
X4378095Y-13526911D01*
X4378095Y-13526911D02*
X4368572Y-13565006D01*
X4368572Y-13565006D02*
X4359048Y-13584053D01*
X4359048Y-13584053D02*
X4349524Y-13593577D01*
X4349524Y-13593577D02*
X4330476Y-13603101D01*
X4330476Y-13603101D02*
X4311429Y-13603101D01*
X4311429Y-13603101D02*
X4292381Y-13593577D01*
X4292381Y-13593577D02*
X4282857Y-13584053D01*
X4282857Y-13584053D02*
X4273333Y-13565006D01*
X4273333Y-13565006D02*
X4263810Y-13526911D01*
X4263810Y-13526911D02*
X4263810Y-13479292D01*
X4263810Y-13479292D02*
X4273333Y-13441196D01*
X4273333Y-13441196D02*
X4282857Y-13422149D01*
X4282857Y-13422149D02*
X4292381Y-13412625D01*
X4292381Y-13412625D02*
X4311429Y-13403101D01*
X4444762Y-13403101D02*
X4578095Y-13403101D01*
X4578095Y-13403101D02*
X4492381Y-13603101D01*
X4740000Y-13469768D02*
X4740000Y-13603101D01*
X4692381Y-13393577D02*
X4644762Y-13536434D01*
X4644762Y-13536434D02*
X4768572Y-13536434D01*
X4873333Y-13488815D02*
X4854286Y-13479292D01*
X4854286Y-13479292D02*
X4844762Y-13469768D01*
X4844762Y-13469768D02*
X4835238Y-13450720D01*
X4835238Y-13450720D02*
X4835238Y-13441196D01*
X4835238Y-13441196D02*
X4844762Y-13422149D01*
X4844762Y-13422149D02*
X4854286Y-13412625D01*
X4854286Y-13412625D02*
X4873333Y-13403101D01*
X4873333Y-13403101D02*
X4911429Y-13403101D01*
X4911429Y-13403101D02*
X4930476Y-13412625D01*
X4930476Y-13412625D02*
X4940000Y-13422149D01*
X4940000Y-13422149D02*
X4949524Y-13441196D01*
X4949524Y-13441196D02*
X4949524Y-13450720D01*
X4949524Y-13450720D02*
X4940000Y-13469768D01*
X4940000Y-13469768D02*
X4930476Y-13479292D01*
X4930476Y-13479292D02*
X4911429Y-13488815D01*
X4911429Y-13488815D02*
X4873333Y-13488815D01*
X4873333Y-13488815D02*
X4854286Y-13498339D01*
X4854286Y-13498339D02*
X4844762Y-13507863D01*
X4844762Y-13507863D02*
X4835238Y-13526911D01*
X4835238Y-13526911D02*
X4835238Y-13565006D01*
X4835238Y-13565006D02*
X4844762Y-13584053D01*
X4844762Y-13584053D02*
X4854286Y-13593577D01*
X4854286Y-13593577D02*
X4873333Y-13603101D01*
X4873333Y-13603101D02*
X4911429Y-13603101D01*
X4911429Y-13603101D02*
X4930476Y-13593577D01*
X4930476Y-13593577D02*
X4940000Y-13584053D01*
X4940000Y-13584053D02*
X4949524Y-13565006D01*
X4949524Y-13565006D02*
X4949524Y-13526911D01*
X4949524Y-13526911D02*
X4940000Y-13507863D01*
X4940000Y-13507863D02*
X4930476Y-13498339D01*
X4930476Y-13498339D02*
X4911429Y-13488815D01*
X5025714Y-13403101D02*
X5025714Y-13441196D01*
X5101905Y-13403101D02*
X5101905Y-13441196D01*
X5364762Y-13679292D02*
X5355238Y-13669768D01*
X5355238Y-13669768D02*
X5336191Y-13641196D01*
X5336191Y-13641196D02*
X5326667Y-13622149D01*
X5326667Y-13622149D02*
X5317143Y-13593577D01*
X5317143Y-13593577D02*
X5307619Y-13545958D01*
X5307619Y-13545958D02*
X5307619Y-13507863D01*
X5307619Y-13507863D02*
X5317143Y-13460244D01*
X5317143Y-13460244D02*
X5326667Y-13431673D01*
X5326667Y-13431673D02*
X5336191Y-13412625D01*
X5336191Y-13412625D02*
X5355238Y-13384053D01*
X5355238Y-13384053D02*
X5364762Y-13374530D01*
X5526667Y-13469768D02*
X5526667Y-13603101D01*
X5479048Y-13393577D02*
X5431429Y-13536434D01*
X5431429Y-13536434D02*
X5555238Y-13536434D01*
X5717143Y-13469768D02*
X5717143Y-13603101D01*
X5669524Y-13393577D02*
X5621905Y-13536434D01*
X5621905Y-13536434D02*
X5745714Y-13536434D01*
X5941905Y-13603101D02*
X5941905Y-13403101D01*
X6027619Y-13603101D02*
X6027619Y-13498339D01*
X6027619Y-13498339D02*
X6018095Y-13479292D01*
X6018095Y-13479292D02*
X5999048Y-13469768D01*
X5999048Y-13469768D02*
X5970476Y-13469768D01*
X5970476Y-13469768D02*
X5951429Y-13479292D01*
X5951429Y-13479292D02*
X5941905Y-13488815D01*
X6151429Y-13603101D02*
X6132381Y-13593577D01*
X6132381Y-13593577D02*
X6122857Y-13584053D01*
X6122857Y-13584053D02*
X6113333Y-13565006D01*
X6113333Y-13565006D02*
X6113333Y-13507863D01*
X6113333Y-13507863D02*
X6122857Y-13488815D01*
X6122857Y-13488815D02*
X6132381Y-13479292D01*
X6132381Y-13479292D02*
X6151429Y-13469768D01*
X6151429Y-13469768D02*
X6180000Y-13469768D01*
X6180000Y-13469768D02*
X6199048Y-13479292D01*
X6199048Y-13479292D02*
X6208572Y-13488815D01*
X6208572Y-13488815D02*
X6218095Y-13507863D01*
X6218095Y-13507863D02*
X6218095Y-13565006D01*
X6218095Y-13565006D02*
X6208572Y-13584053D01*
X6208572Y-13584053D02*
X6199048Y-13593577D01*
X6199048Y-13593577D02*
X6180000Y-13603101D01*
X6180000Y-13603101D02*
X6151429Y-13603101D01*
X6332381Y-13603101D02*
X6313333Y-13593577D01*
X6313333Y-13593577D02*
X6303810Y-13574530D01*
X6303810Y-13574530D02*
X6303810Y-13403101D01*
X6484762Y-13593577D02*
X6465714Y-13603101D01*
X6465714Y-13603101D02*
X6427619Y-13603101D01*
X6427619Y-13603101D02*
X6408572Y-13593577D01*
X6408572Y-13593577D02*
X6399048Y-13574530D01*
X6399048Y-13574530D02*
X6399048Y-13498339D01*
X6399048Y-13498339D02*
X6408572Y-13479292D01*
X6408572Y-13479292D02*
X6427619Y-13469768D01*
X6427619Y-13469768D02*
X6465714Y-13469768D01*
X6465714Y-13469768D02*
X6484762Y-13479292D01*
X6484762Y-13479292D02*
X6494286Y-13498339D01*
X6494286Y-13498339D02*
X6494286Y-13517387D01*
X6494286Y-13517387D02*
X6399048Y-13536434D01*
X6570476Y-13593577D02*
X6589524Y-13603101D01*
X6589524Y-13603101D02*
X6627619Y-13603101D01*
X6627619Y-13603101D02*
X6646667Y-13593577D01*
X6646667Y-13593577D02*
X6656191Y-13574530D01*
X6656191Y-13574530D02*
X6656191Y-13565006D01*
X6656191Y-13565006D02*
X6646667Y-13545958D01*
X6646667Y-13545958D02*
X6627619Y-13536434D01*
X6627619Y-13536434D02*
X6599048Y-13536434D01*
X6599048Y-13536434D02*
X6580000Y-13526911D01*
X6580000Y-13526911D02*
X6570476Y-13507863D01*
X6570476Y-13507863D02*
X6570476Y-13498339D01*
X6570476Y-13498339D02*
X6580000Y-13479292D01*
X6580000Y-13479292D02*
X6599048Y-13469768D01*
X6599048Y-13469768D02*
X6627619Y-13469768D01*
X6627619Y-13469768D02*
X6646667Y-13479292D01*
X6722857Y-13679292D02*
X6732381Y-13669768D01*
X6732381Y-13669768D02*
X6751429Y-13641196D01*
X6751429Y-13641196D02*
X6760953Y-13622149D01*
X6760953Y-13622149D02*
X6770476Y-13593577D01*
X6770476Y-13593577D02*
X6780000Y-13545958D01*
X6780000Y-13545958D02*
X6780000Y-13507863D01*
X6780000Y-13507863D02*
X6770476Y-13460244D01*
X6770476Y-13460244D02*
X6760953Y-13431673D01*
X6760953Y-13431673D02*
X6751429Y-13412625D01*
X6751429Y-13412625D02*
X6732381Y-13384053D01*
X6732381Y-13384053D02*
X6722857Y-13374530D01*
X7052381Y-13679292D02*
X7042857Y-13669768D01*
X7042857Y-13669768D02*
X7023810Y-13641196D01*
X7023810Y-13641196D02*
X7014286Y-13622149D01*
X7014286Y-13622149D02*
X7004762Y-13593577D01*
X7004762Y-13593577D02*
X6995238Y-13545958D01*
X6995238Y-13545958D02*
X6995238Y-13507863D01*
X6995238Y-13507863D02*
X7004762Y-13460244D01*
X7004762Y-13460244D02*
X7014286Y-13431673D01*
X7014286Y-13431673D02*
X7023810Y-13412625D01*
X7023810Y-13412625D02*
X7042857Y-13384053D01*
X7042857Y-13384053D02*
X7052381Y-13374530D01*
X7128572Y-13469768D02*
X7128572Y-13603101D01*
X7128572Y-13488815D02*
X7138095Y-13479292D01*
X7138095Y-13479292D02*
X7157143Y-13469768D01*
X7157143Y-13469768D02*
X7185714Y-13469768D01*
X7185714Y-13469768D02*
X7204762Y-13479292D01*
X7204762Y-13479292D02*
X7214286Y-13498339D01*
X7214286Y-13498339D02*
X7214286Y-13603101D01*
X7338095Y-13603101D02*
X7319048Y-13593577D01*
X7319048Y-13593577D02*
X7309524Y-13584053D01*
X7309524Y-13584053D02*
X7300000Y-13565006D01*
X7300000Y-13565006D02*
X7300000Y-13507863D01*
X7300000Y-13507863D02*
X7309524Y-13488815D01*
X7309524Y-13488815D02*
X7319048Y-13479292D01*
X7319048Y-13479292D02*
X7338095Y-13469768D01*
X7338095Y-13469768D02*
X7366667Y-13469768D01*
X7366667Y-13469768D02*
X7385714Y-13479292D01*
X7385714Y-13479292D02*
X7395238Y-13488815D01*
X7395238Y-13488815D02*
X7404762Y-13507863D01*
X7404762Y-13507863D02*
X7404762Y-13565006D01*
X7404762Y-13565006D02*
X7395238Y-13584053D01*
X7395238Y-13584053D02*
X7385714Y-13593577D01*
X7385714Y-13593577D02*
X7366667Y-13603101D01*
X7366667Y-13603101D02*
X7338095Y-13603101D01*
X7461905Y-13469768D02*
X7538095Y-13469768D01*
X7490476Y-13403101D02*
X7490476Y-13574530D01*
X7490476Y-13574530D02*
X7500000Y-13593577D01*
X7500000Y-13593577D02*
X7519048Y-13603101D01*
X7519048Y-13603101D02*
X7538095Y-13603101D01*
X7724762Y-13469768D02*
X7724762Y-13669768D01*
X7724762Y-13479292D02*
X7743810Y-13469768D01*
X7743810Y-13469768D02*
X7781905Y-13469768D01*
X7781905Y-13469768D02*
X7800953Y-13479292D01*
X7800953Y-13479292D02*
X7810476Y-13488815D01*
X7810476Y-13488815D02*
X7820000Y-13507863D01*
X7820000Y-13507863D02*
X7820000Y-13565006D01*
X7820000Y-13565006D02*
X7810476Y-13584053D01*
X7810476Y-13584053D02*
X7800953Y-13593577D01*
X7800953Y-13593577D02*
X7781905Y-13603101D01*
X7781905Y-13603101D02*
X7743810Y-13603101D01*
X7743810Y-13603101D02*
X7724762Y-13593577D01*
X7934286Y-13603101D02*
X7915238Y-13593577D01*
X7915238Y-13593577D02*
X7905714Y-13574530D01*
X7905714Y-13574530D02*
X7905714Y-13403101D01*
X8096191Y-13603101D02*
X8096191Y-13498339D01*
X8096191Y-13498339D02*
X8086667Y-13479292D01*
X8086667Y-13479292D02*
X8067619Y-13469768D01*
X8067619Y-13469768D02*
X8029524Y-13469768D01*
X8029524Y-13469768D02*
X8010476Y-13479292D01*
X8096191Y-13593577D02*
X8077143Y-13603101D01*
X8077143Y-13603101D02*
X8029524Y-13603101D01*
X8029524Y-13603101D02*
X8010476Y-13593577D01*
X8010476Y-13593577D02*
X8000953Y-13574530D01*
X8000953Y-13574530D02*
X8000953Y-13555482D01*
X8000953Y-13555482D02*
X8010476Y-13536434D01*
X8010476Y-13536434D02*
X8029524Y-13526911D01*
X8029524Y-13526911D02*
X8077143Y-13526911D01*
X8077143Y-13526911D02*
X8096191Y-13517387D01*
X8162857Y-13469768D02*
X8239048Y-13469768D01*
X8191429Y-13403101D02*
X8191429Y-13574530D01*
X8191429Y-13574530D02*
X8200953Y-13593577D01*
X8200953Y-13593577D02*
X8220000Y-13603101D01*
X8220000Y-13603101D02*
X8239048Y-13603101D01*
X8381905Y-13593577D02*
X8362857Y-13603101D01*
X8362857Y-13603101D02*
X8324762Y-13603101D01*
X8324762Y-13603101D02*
X8305714Y-13593577D01*
X8305714Y-13593577D02*
X8296191Y-13574530D01*
X8296191Y-13574530D02*
X8296191Y-13498339D01*
X8296191Y-13498339D02*
X8305714Y-13479292D01*
X8305714Y-13479292D02*
X8324762Y-13469768D01*
X8324762Y-13469768D02*
X8362857Y-13469768D01*
X8362857Y-13469768D02*
X8381905Y-13479292D01*
X8381905Y-13479292D02*
X8391429Y-13498339D01*
X8391429Y-13498339D02*
X8391429Y-13517387D01*
X8391429Y-13517387D02*
X8296191Y-13536434D01*
X8562857Y-13603101D02*
X8562857Y-13403101D01*
X8562857Y-13593577D02*
X8543810Y-13603101D01*
X8543810Y-13603101D02*
X8505715Y-13603101D01*
X8505715Y-13603101D02*
X8486667Y-13593577D01*
X8486667Y-13593577D02*
X8477143Y-13584053D01*
X8477143Y-13584053D02*
X8467619Y-13565006D01*
X8467619Y-13565006D02*
X8467619Y-13507863D01*
X8467619Y-13507863D02*
X8477143Y-13488815D01*
X8477143Y-13488815D02*
X8486667Y-13479292D01*
X8486667Y-13479292D02*
X8505715Y-13469768D01*
X8505715Y-13469768D02*
X8543810Y-13469768D01*
X8543810Y-13469768D02*
X8562857Y-13479292D01*
X8639048Y-13679292D02*
X8648572Y-13669768D01*
X8648572Y-13669768D02*
X8667619Y-13641196D01*
X8667619Y-13641196D02*
X8677143Y-13622149D01*
X8677143Y-13622149D02*
X8686667Y-13593577D01*
X8686667Y-13593577D02*
X8696191Y-13545958D01*
X8696191Y-13545958D02*
X8696191Y-13507863D01*
X8696191Y-13507863D02*
X8686667Y-13460244D01*
X8686667Y-13460244D02*
X8677143Y-13431673D01*
X8677143Y-13431673D02*
X8667619Y-13412625D01*
X8667619Y-13412625D02*
X8648572Y-13384053D01*
X8648572Y-13384053D02*
X8639048Y-13374530D01*
X1800000Y-13739625D02*
X1800000Y-13939625D01*
X1700000Y-13839625D02*
X1900000Y-13839625D01*
X2128571Y-13713101D02*
X2252381Y-13713101D01*
X2252381Y-13713101D02*
X2185714Y-13789292D01*
X2185714Y-13789292D02*
X2214286Y-13789292D01*
X2214286Y-13789292D02*
X2233333Y-13798815D01*
X2233333Y-13798815D02*
X2242857Y-13808339D01*
X2242857Y-13808339D02*
X2252381Y-13827387D01*
X2252381Y-13827387D02*
X2252381Y-13875006D01*
X2252381Y-13875006D02*
X2242857Y-13894053D01*
X2242857Y-13894053D02*
X2233333Y-13903577D01*
X2233333Y-13903577D02*
X2214286Y-13913101D01*
X2214286Y-13913101D02*
X2157143Y-13913101D01*
X2157143Y-13913101D02*
X2138095Y-13903577D01*
X2138095Y-13903577D02*
X2128571Y-13894053D01*
X2338095Y-13894053D02*
X2347619Y-13903577D01*
X2347619Y-13903577D02*
X2338095Y-13913101D01*
X2338095Y-13913101D02*
X2328571Y-13903577D01*
X2328571Y-13903577D02*
X2338095Y-13894053D01*
X2338095Y-13894053D02*
X2338095Y-13913101D01*
X2471429Y-13713101D02*
X2490476Y-13713101D01*
X2490476Y-13713101D02*
X2509524Y-13722625D01*
X2509524Y-13722625D02*
X2519048Y-13732149D01*
X2519048Y-13732149D02*
X2528571Y-13751196D01*
X2528571Y-13751196D02*
X2538095Y-13789292D01*
X2538095Y-13789292D02*
X2538095Y-13836911D01*
X2538095Y-13836911D02*
X2528571Y-13875006D01*
X2528571Y-13875006D02*
X2519048Y-13894053D01*
X2519048Y-13894053D02*
X2509524Y-13903577D01*
X2509524Y-13903577D02*
X2490476Y-13913101D01*
X2490476Y-13913101D02*
X2471429Y-13913101D01*
X2471429Y-13913101D02*
X2452381Y-13903577D01*
X2452381Y-13903577D02*
X2442857Y-13894053D01*
X2442857Y-13894053D02*
X2433333Y-13875006D01*
X2433333Y-13875006D02*
X2423810Y-13836911D01*
X2423810Y-13836911D02*
X2423810Y-13789292D01*
X2423810Y-13789292D02*
X2433333Y-13751196D01*
X2433333Y-13751196D02*
X2442857Y-13732149D01*
X2442857Y-13732149D02*
X2452381Y-13722625D01*
X2452381Y-13722625D02*
X2471429Y-13713101D01*
X2661905Y-13713101D02*
X2680952Y-13713101D01*
X2680952Y-13713101D02*
X2700000Y-13722625D01*
X2700000Y-13722625D02*
X2709524Y-13732149D01*
X2709524Y-13732149D02*
X2719048Y-13751196D01*
X2719048Y-13751196D02*
X2728571Y-13789292D01*
X2728571Y-13789292D02*
X2728571Y-13836911D01*
X2728571Y-13836911D02*
X2719048Y-13875006D01*
X2719048Y-13875006D02*
X2709524Y-13894053D01*
X2709524Y-13894053D02*
X2700000Y-13903577D01*
X2700000Y-13903577D02*
X2680952Y-13913101D01*
X2680952Y-13913101D02*
X2661905Y-13913101D01*
X2661905Y-13913101D02*
X2642857Y-13903577D01*
X2642857Y-13903577D02*
X2633333Y-13894053D01*
X2633333Y-13894053D02*
X2623810Y-13875006D01*
X2623810Y-13875006D02*
X2614286Y-13836911D01*
X2614286Y-13836911D02*
X2614286Y-13789292D01*
X2614286Y-13789292D02*
X2623810Y-13751196D01*
X2623810Y-13751196D02*
X2633333Y-13732149D01*
X2633333Y-13732149D02*
X2642857Y-13722625D01*
X2642857Y-13722625D02*
X2661905Y-13713101D01*
X2852381Y-13713101D02*
X2871429Y-13713101D01*
X2871429Y-13713101D02*
X2890476Y-13722625D01*
X2890476Y-13722625D02*
X2900000Y-13732149D01*
X2900000Y-13732149D02*
X2909524Y-13751196D01*
X2909524Y-13751196D02*
X2919048Y-13789292D01*
X2919048Y-13789292D02*
X2919048Y-13836911D01*
X2919048Y-13836911D02*
X2909524Y-13875006D01*
X2909524Y-13875006D02*
X2900000Y-13894053D01*
X2900000Y-13894053D02*
X2890476Y-13903577D01*
X2890476Y-13903577D02*
X2871429Y-13913101D01*
X2871429Y-13913101D02*
X2852381Y-13913101D01*
X2852381Y-13913101D02*
X2833333Y-13903577D01*
X2833333Y-13903577D02*
X2823809Y-13894053D01*
X2823809Y-13894053D02*
X2814286Y-13875006D01*
X2814286Y-13875006D02*
X2804762Y-13836911D01*
X2804762Y-13836911D02*
X2804762Y-13789292D01*
X2804762Y-13789292D02*
X2814286Y-13751196D01*
X2814286Y-13751196D02*
X2823809Y-13732149D01*
X2823809Y-13732149D02*
X2833333Y-13722625D01*
X2833333Y-13722625D02*
X2852381Y-13713101D01*
X3004762Y-13913101D02*
X3004762Y-13779768D01*
X3004762Y-13798815D02*
X3014286Y-13789292D01*
X3014286Y-13789292D02*
X3033333Y-13779768D01*
X3033333Y-13779768D02*
X3061905Y-13779768D01*
X3061905Y-13779768D02*
X3080952Y-13789292D01*
X3080952Y-13789292D02*
X3090476Y-13808339D01*
X3090476Y-13808339D02*
X3090476Y-13913101D01*
X3090476Y-13808339D02*
X3100000Y-13789292D01*
X3100000Y-13789292D02*
X3119048Y-13779768D01*
X3119048Y-13779768D02*
X3147619Y-13779768D01*
X3147619Y-13779768D02*
X3166667Y-13789292D01*
X3166667Y-13789292D02*
X3176190Y-13808339D01*
X3176190Y-13808339D02*
X3176190Y-13913101D01*
X3271429Y-13913101D02*
X3271429Y-13779768D01*
X3271429Y-13798815D02*
X3280952Y-13789292D01*
X3280952Y-13789292D02*
X3300000Y-13779768D01*
X3300000Y-13779768D02*
X3328571Y-13779768D01*
X3328571Y-13779768D02*
X3347619Y-13789292D01*
X3347619Y-13789292D02*
X3357143Y-13808339D01*
X3357143Y-13808339D02*
X3357143Y-13913101D01*
X3357143Y-13808339D02*
X3366667Y-13789292D01*
X3366667Y-13789292D02*
X3385714Y-13779768D01*
X3385714Y-13779768D02*
X3414286Y-13779768D01*
X3414286Y-13779768D02*
X3433333Y-13789292D01*
X3433333Y-13789292D02*
X3442857Y-13808339D01*
X3442857Y-13808339D02*
X3442857Y-13913101D01*
X3800952Y-13703577D02*
X3629524Y-13960720D01*
X4025714Y-13713101D02*
X4044762Y-13713101D01*
X4044762Y-13713101D02*
X4063810Y-13722625D01*
X4063810Y-13722625D02*
X4073333Y-13732149D01*
X4073333Y-13732149D02*
X4082857Y-13751196D01*
X4082857Y-13751196D02*
X4092381Y-13789292D01*
X4092381Y-13789292D02*
X4092381Y-13836911D01*
X4092381Y-13836911D02*
X4082857Y-13875006D01*
X4082857Y-13875006D02*
X4073333Y-13894053D01*
X4073333Y-13894053D02*
X4063810Y-13903577D01*
X4063810Y-13903577D02*
X4044762Y-13913101D01*
X4044762Y-13913101D02*
X4025714Y-13913101D01*
X4025714Y-13913101D02*
X4006667Y-13903577D01*
X4006667Y-13903577D02*
X3997143Y-13894053D01*
X3997143Y-13894053D02*
X3987619Y-13875006D01*
X3987619Y-13875006D02*
X3978095Y-13836911D01*
X3978095Y-13836911D02*
X3978095Y-13789292D01*
X3978095Y-13789292D02*
X3987619Y-13751196D01*
X3987619Y-13751196D02*
X3997143Y-13732149D01*
X3997143Y-13732149D02*
X4006667Y-13722625D01*
X4006667Y-13722625D02*
X4025714Y-13713101D01*
X4178095Y-13894053D02*
X4187619Y-13903577D01*
X4187619Y-13903577D02*
X4178095Y-13913101D01*
X4178095Y-13913101D02*
X4168571Y-13903577D01*
X4168571Y-13903577D02*
X4178095Y-13894053D01*
X4178095Y-13894053D02*
X4178095Y-13913101D01*
X4378095Y-13913101D02*
X4263810Y-13913101D01*
X4320952Y-13913101D02*
X4320952Y-13713101D01*
X4320952Y-13713101D02*
X4301905Y-13741673D01*
X4301905Y-13741673D02*
X4282857Y-13760720D01*
X4282857Y-13760720D02*
X4263810Y-13770244D01*
X4568572Y-13913101D02*
X4454286Y-13913101D01*
X4511429Y-13913101D02*
X4511429Y-13713101D01*
X4511429Y-13713101D02*
X4492381Y-13741673D01*
X4492381Y-13741673D02*
X4473333Y-13760720D01*
X4473333Y-13760720D02*
X4454286Y-13770244D01*
X4682857Y-13798815D02*
X4663810Y-13789292D01*
X4663810Y-13789292D02*
X4654286Y-13779768D01*
X4654286Y-13779768D02*
X4644762Y-13760720D01*
X4644762Y-13760720D02*
X4644762Y-13751196D01*
X4644762Y-13751196D02*
X4654286Y-13732149D01*
X4654286Y-13732149D02*
X4663810Y-13722625D01*
X4663810Y-13722625D02*
X4682857Y-13713101D01*
X4682857Y-13713101D02*
X4720953Y-13713101D01*
X4720953Y-13713101D02*
X4740000Y-13722625D01*
X4740000Y-13722625D02*
X4749524Y-13732149D01*
X4749524Y-13732149D02*
X4759048Y-13751196D01*
X4759048Y-13751196D02*
X4759048Y-13760720D01*
X4759048Y-13760720D02*
X4749524Y-13779768D01*
X4749524Y-13779768D02*
X4740000Y-13789292D01*
X4740000Y-13789292D02*
X4720953Y-13798815D01*
X4720953Y-13798815D02*
X4682857Y-13798815D01*
X4682857Y-13798815D02*
X4663810Y-13808339D01*
X4663810Y-13808339D02*
X4654286Y-13817863D01*
X4654286Y-13817863D02*
X4644762Y-13836911D01*
X4644762Y-13836911D02*
X4644762Y-13875006D01*
X4644762Y-13875006D02*
X4654286Y-13894053D01*
X4654286Y-13894053D02*
X4663810Y-13903577D01*
X4663810Y-13903577D02*
X4682857Y-13913101D01*
X4682857Y-13913101D02*
X4720953Y-13913101D01*
X4720953Y-13913101D02*
X4740000Y-13903577D01*
X4740000Y-13903577D02*
X4749524Y-13894053D01*
X4749524Y-13894053D02*
X4759048Y-13875006D01*
X4759048Y-13875006D02*
X4759048Y-13836911D01*
X4759048Y-13836911D02*
X4749524Y-13817863D01*
X4749524Y-13817863D02*
X4740000Y-13808339D01*
X4740000Y-13808339D02*
X4720953Y-13798815D01*
X4949524Y-13913101D02*
X4835238Y-13913101D01*
X4892381Y-13913101D02*
X4892381Y-13713101D01*
X4892381Y-13713101D02*
X4873333Y-13741673D01*
X4873333Y-13741673D02*
X4854286Y-13760720D01*
X4854286Y-13760720D02*
X4835238Y-13770244D01*
X5025714Y-13713101D02*
X5025714Y-13751196D01*
X5101905Y-13713101D02*
X5101905Y-13751196D01*
X5364762Y-13989292D02*
X5355238Y-13979768D01*
X5355238Y-13979768D02*
X5336191Y-13951196D01*
X5336191Y-13951196D02*
X5326667Y-13932149D01*
X5326667Y-13932149D02*
X5317143Y-13903577D01*
X5317143Y-13903577D02*
X5307619Y-13855958D01*
X5307619Y-13855958D02*
X5307619Y-13817863D01*
X5307619Y-13817863D02*
X5317143Y-13770244D01*
X5317143Y-13770244D02*
X5326667Y-13741673D01*
X5326667Y-13741673D02*
X5336191Y-13722625D01*
X5336191Y-13722625D02*
X5355238Y-13694053D01*
X5355238Y-13694053D02*
X5364762Y-13684530D01*
X5526667Y-13779768D02*
X5526667Y-13913101D01*
X5479048Y-13703577D02*
X5431429Y-13846434D01*
X5431429Y-13846434D02*
X5555238Y-13846434D01*
X5717143Y-13779768D02*
X5717143Y-13913101D01*
X5669524Y-13703577D02*
X5621905Y-13846434D01*
X5621905Y-13846434D02*
X5745714Y-13846434D01*
X5941905Y-13913101D02*
X5941905Y-13713101D01*
X6027619Y-13913101D02*
X6027619Y-13808339D01*
X6027619Y-13808339D02*
X6018095Y-13789292D01*
X6018095Y-13789292D02*
X5999048Y-13779768D01*
X5999048Y-13779768D02*
X5970476Y-13779768D01*
X5970476Y-13779768D02*
X5951429Y-13789292D01*
X5951429Y-13789292D02*
X5941905Y-13798815D01*
X6151429Y-13913101D02*
X6132381Y-13903577D01*
X6132381Y-13903577D02*
X6122857Y-13894053D01*
X6122857Y-13894053D02*
X6113333Y-13875006D01*
X6113333Y-13875006D02*
X6113333Y-13817863D01*
X6113333Y-13817863D02*
X6122857Y-13798815D01*
X6122857Y-13798815D02*
X6132381Y-13789292D01*
X6132381Y-13789292D02*
X6151429Y-13779768D01*
X6151429Y-13779768D02*
X6180000Y-13779768D01*
X6180000Y-13779768D02*
X6199048Y-13789292D01*
X6199048Y-13789292D02*
X6208572Y-13798815D01*
X6208572Y-13798815D02*
X6218095Y-13817863D01*
X6218095Y-13817863D02*
X6218095Y-13875006D01*
X6218095Y-13875006D02*
X6208572Y-13894053D01*
X6208572Y-13894053D02*
X6199048Y-13903577D01*
X6199048Y-13903577D02*
X6180000Y-13913101D01*
X6180000Y-13913101D02*
X6151429Y-13913101D01*
X6332381Y-13913101D02*
X6313333Y-13903577D01*
X6313333Y-13903577D02*
X6303810Y-13884530D01*
X6303810Y-13884530D02*
X6303810Y-13713101D01*
X6484762Y-13903577D02*
X6465714Y-13913101D01*
X6465714Y-13913101D02*
X6427619Y-13913101D01*
X6427619Y-13913101D02*
X6408572Y-13903577D01*
X6408572Y-13903577D02*
X6399048Y-13884530D01*
X6399048Y-13884530D02*
X6399048Y-13808339D01*
X6399048Y-13808339D02*
X6408572Y-13789292D01*
X6408572Y-13789292D02*
X6427619Y-13779768D01*
X6427619Y-13779768D02*
X6465714Y-13779768D01*
X6465714Y-13779768D02*
X6484762Y-13789292D01*
X6484762Y-13789292D02*
X6494286Y-13808339D01*
X6494286Y-13808339D02*
X6494286Y-13827387D01*
X6494286Y-13827387D02*
X6399048Y-13846434D01*
X6570476Y-13903577D02*
X6589524Y-13913101D01*
X6589524Y-13913101D02*
X6627619Y-13913101D01*
X6627619Y-13913101D02*
X6646667Y-13903577D01*
X6646667Y-13903577D02*
X6656191Y-13884530D01*
X6656191Y-13884530D02*
X6656191Y-13875006D01*
X6656191Y-13875006D02*
X6646667Y-13855958D01*
X6646667Y-13855958D02*
X6627619Y-13846434D01*
X6627619Y-13846434D02*
X6599048Y-13846434D01*
X6599048Y-13846434D02*
X6580000Y-13836911D01*
X6580000Y-13836911D02*
X6570476Y-13817863D01*
X6570476Y-13817863D02*
X6570476Y-13808339D01*
X6570476Y-13808339D02*
X6580000Y-13789292D01*
X6580000Y-13789292D02*
X6599048Y-13779768D01*
X6599048Y-13779768D02*
X6627619Y-13779768D01*
X6627619Y-13779768D02*
X6646667Y-13789292D01*
X6722857Y-13989292D02*
X6732381Y-13979768D01*
X6732381Y-13979768D02*
X6751429Y-13951196D01*
X6751429Y-13951196D02*
X6760953Y-13932149D01*
X6760953Y-13932149D02*
X6770476Y-13903577D01*
X6770476Y-13903577D02*
X6780000Y-13855958D01*
X6780000Y-13855958D02*
X6780000Y-13817863D01*
X6780000Y-13817863D02*
X6770476Y-13770244D01*
X6770476Y-13770244D02*
X6760953Y-13741673D01*
X6760953Y-13741673D02*
X6751429Y-13722625D01*
X6751429Y-13722625D02*
X6732381Y-13694053D01*
X6732381Y-13694053D02*
X6722857Y-13684530D01*
X7052381Y-13989292D02*
X7042857Y-13979768D01*
X7042857Y-13979768D02*
X7023810Y-13951196D01*
X7023810Y-13951196D02*
X7014286Y-13932149D01*
X7014286Y-13932149D02*
X7004762Y-13903577D01*
X7004762Y-13903577D02*
X6995238Y-13855958D01*
X6995238Y-13855958D02*
X6995238Y-13817863D01*
X6995238Y-13817863D02*
X7004762Y-13770244D01*
X7004762Y-13770244D02*
X7014286Y-13741673D01*
X7014286Y-13741673D02*
X7023810Y-13722625D01*
X7023810Y-13722625D02*
X7042857Y-13694053D01*
X7042857Y-13694053D02*
X7052381Y-13684530D01*
X7128572Y-13779768D02*
X7128572Y-13913101D01*
X7128572Y-13798815D02*
X7138095Y-13789292D01*
X7138095Y-13789292D02*
X7157143Y-13779768D01*
X7157143Y-13779768D02*
X7185714Y-13779768D01*
X7185714Y-13779768D02*
X7204762Y-13789292D01*
X7204762Y-13789292D02*
X7214286Y-13808339D01*
X7214286Y-13808339D02*
X7214286Y-13913101D01*
X7338095Y-13913101D02*
X7319048Y-13903577D01*
X7319048Y-13903577D02*
X7309524Y-13894053D01*
X7309524Y-13894053D02*
X7300000Y-13875006D01*
X7300000Y-13875006D02*
X7300000Y-13817863D01*
X7300000Y-13817863D02*
X7309524Y-13798815D01*
X7309524Y-13798815D02*
X7319048Y-13789292D01*
X7319048Y-13789292D02*
X7338095Y-13779768D01*
X7338095Y-13779768D02*
X7366667Y-13779768D01*
X7366667Y-13779768D02*
X7385714Y-13789292D01*
X7385714Y-13789292D02*
X7395238Y-13798815D01*
X7395238Y-13798815D02*
X7404762Y-13817863D01*
X7404762Y-13817863D02*
X7404762Y-13875006D01*
X7404762Y-13875006D02*
X7395238Y-13894053D01*
X7395238Y-13894053D02*
X7385714Y-13903577D01*
X7385714Y-13903577D02*
X7366667Y-13913101D01*
X7366667Y-13913101D02*
X7338095Y-13913101D01*
X7461905Y-13779768D02*
X7538095Y-13779768D01*
X7490476Y-13713101D02*
X7490476Y-13884530D01*
X7490476Y-13884530D02*
X7500000Y-13903577D01*
X7500000Y-13903577D02*
X7519048Y-13913101D01*
X7519048Y-13913101D02*
X7538095Y-13913101D01*
X7724762Y-13779768D02*
X7724762Y-13979768D01*
X7724762Y-13789292D02*
X7743810Y-13779768D01*
X7743810Y-13779768D02*
X7781905Y-13779768D01*
X7781905Y-13779768D02*
X7800953Y-13789292D01*
X7800953Y-13789292D02*
X7810476Y-13798815D01*
X7810476Y-13798815D02*
X7820000Y-13817863D01*
X7820000Y-13817863D02*
X7820000Y-13875006D01*
X7820000Y-13875006D02*
X7810476Y-13894053D01*
X7810476Y-13894053D02*
X7800953Y-13903577D01*
X7800953Y-13903577D02*
X7781905Y-13913101D01*
X7781905Y-13913101D02*
X7743810Y-13913101D01*
X7743810Y-13913101D02*
X7724762Y-13903577D01*
X7934286Y-13913101D02*
X7915238Y-13903577D01*
X7915238Y-13903577D02*
X7905714Y-13884530D01*
X7905714Y-13884530D02*
X7905714Y-13713101D01*
X8096191Y-13913101D02*
X8096191Y-13808339D01*
X8096191Y-13808339D02*
X8086667Y-13789292D01*
X8086667Y-13789292D02*
X8067619Y-13779768D01*
X8067619Y-13779768D02*
X8029524Y-13779768D01*
X8029524Y-13779768D02*
X8010476Y-13789292D01*
X8096191Y-13903577D02*
X8077143Y-13913101D01*
X8077143Y-13913101D02*
X8029524Y-13913101D01*
X8029524Y-13913101D02*
X8010476Y-13903577D01*
X8010476Y-13903577D02*
X8000953Y-13884530D01*
X8000953Y-13884530D02*
X8000953Y-13865482D01*
X8000953Y-13865482D02*
X8010476Y-13846434D01*
X8010476Y-13846434D02*
X8029524Y-13836911D01*
X8029524Y-13836911D02*
X8077143Y-13836911D01*
X8077143Y-13836911D02*
X8096191Y-13827387D01*
X8162857Y-13779768D02*
X8239048Y-13779768D01*
X8191429Y-13713101D02*
X8191429Y-13884530D01*
X8191429Y-13884530D02*
X8200953Y-13903577D01*
X8200953Y-13903577D02*
X8220000Y-13913101D01*
X8220000Y-13913101D02*
X8239048Y-13913101D01*
X8381905Y-13903577D02*
X8362857Y-13913101D01*
X8362857Y-13913101D02*
X8324762Y-13913101D01*
X8324762Y-13913101D02*
X8305714Y-13903577D01*
X8305714Y-13903577D02*
X8296191Y-13884530D01*
X8296191Y-13884530D02*
X8296191Y-13808339D01*
X8296191Y-13808339D02*
X8305714Y-13789292D01*
X8305714Y-13789292D02*
X8324762Y-13779768D01*
X8324762Y-13779768D02*
X8362857Y-13779768D01*
X8362857Y-13779768D02*
X8381905Y-13789292D01*
X8381905Y-13789292D02*
X8391429Y-13808339D01*
X8391429Y-13808339D02*
X8391429Y-13827387D01*
X8391429Y-13827387D02*
X8296191Y-13846434D01*
X8562857Y-13913101D02*
X8562857Y-13713101D01*
X8562857Y-13903577D02*
X8543810Y-13913101D01*
X8543810Y-13913101D02*
X8505715Y-13913101D01*
X8505715Y-13913101D02*
X8486667Y-13903577D01*
X8486667Y-13903577D02*
X8477143Y-13894053D01*
X8477143Y-13894053D02*
X8467619Y-13875006D01*
X8467619Y-13875006D02*
X8467619Y-13817863D01*
X8467619Y-13817863D02*
X8477143Y-13798815D01*
X8477143Y-13798815D02*
X8486667Y-13789292D01*
X8486667Y-13789292D02*
X8505715Y-13779768D01*
X8505715Y-13779768D02*
X8543810Y-13779768D01*
X8543810Y-13779768D02*
X8562857Y-13789292D01*
X8639048Y-13989292D02*
X8648572Y-13979768D01*
X8648572Y-13979768D02*
X8667619Y-13951196D01*
X8667619Y-13951196D02*
X8677143Y-13932149D01*
X8677143Y-13932149D02*
X8686667Y-13903577D01*
X8686667Y-13903577D02*
X8696191Y-13855958D01*
X8696191Y-13855958D02*
X8696191Y-13817863D01*
X8696191Y-13817863D02*
X8686667Y-13770244D01*
X8686667Y-13770244D02*
X8677143Y-13741673D01*
X8677143Y-13741673D02*
X8667619Y-13722625D01*
X8667619Y-13722625D02*
X8648572Y-13694053D01*
X8648572Y-13694053D02*
X8639048Y-13684530D01*
X1870711Y-14230336D02*
X1870711Y-14088914D01*
X1729289Y-14088914D01*
X1729289Y-14230336D01*
X1870711Y-14230336D01*
X2233333Y-14099768D02*
X2233333Y-14233101D01*
X2185714Y-14023577D02*
X2138095Y-14166434D01*
X2138095Y-14166434D02*
X2261905Y-14166434D01*
X2338095Y-14214053D02*
X2347619Y-14223577D01*
X2347619Y-14223577D02*
X2338095Y-14233101D01*
X2338095Y-14233101D02*
X2328571Y-14223577D01*
X2328571Y-14223577D02*
X2338095Y-14214053D01*
X2338095Y-14214053D02*
X2338095Y-14233101D01*
X2538095Y-14233101D02*
X2423810Y-14233101D01*
X2480952Y-14233101D02*
X2480952Y-14033101D01*
X2480952Y-14033101D02*
X2461905Y-14061673D01*
X2461905Y-14061673D02*
X2442857Y-14080720D01*
X2442857Y-14080720D02*
X2423810Y-14090244D01*
X2661905Y-14033101D02*
X2680952Y-14033101D01*
X2680952Y-14033101D02*
X2700000Y-14042625D01*
X2700000Y-14042625D02*
X2709524Y-14052149D01*
X2709524Y-14052149D02*
X2719048Y-14071196D01*
X2719048Y-14071196D02*
X2728571Y-14109292D01*
X2728571Y-14109292D02*
X2728571Y-14156911D01*
X2728571Y-14156911D02*
X2719048Y-14195006D01*
X2719048Y-14195006D02*
X2709524Y-14214053D01*
X2709524Y-14214053D02*
X2700000Y-14223577D01*
X2700000Y-14223577D02*
X2680952Y-14233101D01*
X2680952Y-14233101D02*
X2661905Y-14233101D01*
X2661905Y-14233101D02*
X2642857Y-14223577D01*
X2642857Y-14223577D02*
X2633333Y-14214053D01*
X2633333Y-14214053D02*
X2623810Y-14195006D01*
X2623810Y-14195006D02*
X2614286Y-14156911D01*
X2614286Y-14156911D02*
X2614286Y-14109292D01*
X2614286Y-14109292D02*
X2623810Y-14071196D01*
X2623810Y-14071196D02*
X2633333Y-14052149D01*
X2633333Y-14052149D02*
X2642857Y-14042625D01*
X2642857Y-14042625D02*
X2661905Y-14033101D01*
X2852381Y-14033101D02*
X2871429Y-14033101D01*
X2871429Y-14033101D02*
X2890476Y-14042625D01*
X2890476Y-14042625D02*
X2900000Y-14052149D01*
X2900000Y-14052149D02*
X2909524Y-14071196D01*
X2909524Y-14071196D02*
X2919048Y-14109292D01*
X2919048Y-14109292D02*
X2919048Y-14156911D01*
X2919048Y-14156911D02*
X2909524Y-14195006D01*
X2909524Y-14195006D02*
X2900000Y-14214053D01*
X2900000Y-14214053D02*
X2890476Y-14223577D01*
X2890476Y-14223577D02*
X2871429Y-14233101D01*
X2871429Y-14233101D02*
X2852381Y-14233101D01*
X2852381Y-14233101D02*
X2833333Y-14223577D01*
X2833333Y-14223577D02*
X2823809Y-14214053D01*
X2823809Y-14214053D02*
X2814286Y-14195006D01*
X2814286Y-14195006D02*
X2804762Y-14156911D01*
X2804762Y-14156911D02*
X2804762Y-14109292D01*
X2804762Y-14109292D02*
X2814286Y-14071196D01*
X2814286Y-14071196D02*
X2823809Y-14052149D01*
X2823809Y-14052149D02*
X2833333Y-14042625D01*
X2833333Y-14042625D02*
X2852381Y-14033101D01*
X3004762Y-14233101D02*
X3004762Y-14099768D01*
X3004762Y-14118815D02*
X3014286Y-14109292D01*
X3014286Y-14109292D02*
X3033333Y-14099768D01*
X3033333Y-14099768D02*
X3061905Y-14099768D01*
X3061905Y-14099768D02*
X3080952Y-14109292D01*
X3080952Y-14109292D02*
X3090476Y-14128339D01*
X3090476Y-14128339D02*
X3090476Y-14233101D01*
X3090476Y-14128339D02*
X3100000Y-14109292D01*
X3100000Y-14109292D02*
X3119048Y-14099768D01*
X3119048Y-14099768D02*
X3147619Y-14099768D01*
X3147619Y-14099768D02*
X3166667Y-14109292D01*
X3166667Y-14109292D02*
X3176190Y-14128339D01*
X3176190Y-14128339D02*
X3176190Y-14233101D01*
X3271429Y-14233101D02*
X3271429Y-14099768D01*
X3271429Y-14118815D02*
X3280952Y-14109292D01*
X3280952Y-14109292D02*
X3300000Y-14099768D01*
X3300000Y-14099768D02*
X3328571Y-14099768D01*
X3328571Y-14099768D02*
X3347619Y-14109292D01*
X3347619Y-14109292D02*
X3357143Y-14128339D01*
X3357143Y-14128339D02*
X3357143Y-14233101D01*
X3357143Y-14128339D02*
X3366667Y-14109292D01*
X3366667Y-14109292D02*
X3385714Y-14099768D01*
X3385714Y-14099768D02*
X3414286Y-14099768D01*
X3414286Y-14099768D02*
X3433333Y-14109292D01*
X3433333Y-14109292D02*
X3442857Y-14128339D01*
X3442857Y-14128339D02*
X3442857Y-14233101D01*
X3800952Y-14023577D02*
X3629524Y-14280720D01*
X4025714Y-14033101D02*
X4044762Y-14033101D01*
X4044762Y-14033101D02*
X4063810Y-14042625D01*
X4063810Y-14042625D02*
X4073333Y-14052149D01*
X4073333Y-14052149D02*
X4082857Y-14071196D01*
X4082857Y-14071196D02*
X4092381Y-14109292D01*
X4092381Y-14109292D02*
X4092381Y-14156911D01*
X4092381Y-14156911D02*
X4082857Y-14195006D01*
X4082857Y-14195006D02*
X4073333Y-14214053D01*
X4073333Y-14214053D02*
X4063810Y-14223577D01*
X4063810Y-14223577D02*
X4044762Y-14233101D01*
X4044762Y-14233101D02*
X4025714Y-14233101D01*
X4025714Y-14233101D02*
X4006667Y-14223577D01*
X4006667Y-14223577D02*
X3997143Y-14214053D01*
X3997143Y-14214053D02*
X3987619Y-14195006D01*
X3987619Y-14195006D02*
X3978095Y-14156911D01*
X3978095Y-14156911D02*
X3978095Y-14109292D01*
X3978095Y-14109292D02*
X3987619Y-14071196D01*
X3987619Y-14071196D02*
X3997143Y-14052149D01*
X3997143Y-14052149D02*
X4006667Y-14042625D01*
X4006667Y-14042625D02*
X4025714Y-14033101D01*
X4178095Y-14214053D02*
X4187619Y-14223577D01*
X4187619Y-14223577D02*
X4178095Y-14233101D01*
X4178095Y-14233101D02*
X4168571Y-14223577D01*
X4168571Y-14223577D02*
X4178095Y-14214053D01*
X4178095Y-14214053D02*
X4178095Y-14233101D01*
X4378095Y-14233101D02*
X4263810Y-14233101D01*
X4320952Y-14233101D02*
X4320952Y-14033101D01*
X4320952Y-14033101D02*
X4301905Y-14061673D01*
X4301905Y-14061673D02*
X4282857Y-14080720D01*
X4282857Y-14080720D02*
X4263810Y-14090244D01*
X4549524Y-14033101D02*
X4511429Y-14033101D01*
X4511429Y-14033101D02*
X4492381Y-14042625D01*
X4492381Y-14042625D02*
X4482857Y-14052149D01*
X4482857Y-14052149D02*
X4463810Y-14080720D01*
X4463810Y-14080720D02*
X4454286Y-14118815D01*
X4454286Y-14118815D02*
X4454286Y-14195006D01*
X4454286Y-14195006D02*
X4463810Y-14214053D01*
X4463810Y-14214053D02*
X4473333Y-14223577D01*
X4473333Y-14223577D02*
X4492381Y-14233101D01*
X4492381Y-14233101D02*
X4530476Y-14233101D01*
X4530476Y-14233101D02*
X4549524Y-14223577D01*
X4549524Y-14223577D02*
X4559048Y-14214053D01*
X4559048Y-14214053D02*
X4568572Y-14195006D01*
X4568572Y-14195006D02*
X4568572Y-14147387D01*
X4568572Y-14147387D02*
X4559048Y-14128339D01*
X4559048Y-14128339D02*
X4549524Y-14118815D01*
X4549524Y-14118815D02*
X4530476Y-14109292D01*
X4530476Y-14109292D02*
X4492381Y-14109292D01*
X4492381Y-14109292D02*
X4473333Y-14118815D01*
X4473333Y-14118815D02*
X4463810Y-14128339D01*
X4463810Y-14128339D02*
X4454286Y-14147387D01*
X4759048Y-14233101D02*
X4644762Y-14233101D01*
X4701905Y-14233101D02*
X4701905Y-14033101D01*
X4701905Y-14033101D02*
X4682857Y-14061673D01*
X4682857Y-14061673D02*
X4663810Y-14080720D01*
X4663810Y-14080720D02*
X4644762Y-14090244D01*
X4930476Y-14099768D02*
X4930476Y-14233101D01*
X4882857Y-14023577D02*
X4835238Y-14166434D01*
X4835238Y-14166434D02*
X4959048Y-14166434D01*
X5025714Y-14033101D02*
X5025714Y-14071196D01*
X5101905Y-14033101D02*
X5101905Y-14071196D01*
X5364762Y-14309292D02*
X5355238Y-14299768D01*
X5355238Y-14299768D02*
X5336191Y-14271196D01*
X5336191Y-14271196D02*
X5326667Y-14252149D01*
X5326667Y-14252149D02*
X5317143Y-14223577D01*
X5317143Y-14223577D02*
X5307619Y-14175958D01*
X5307619Y-14175958D02*
X5307619Y-14137863D01*
X5307619Y-14137863D02*
X5317143Y-14090244D01*
X5317143Y-14090244D02*
X5326667Y-14061673D01*
X5326667Y-14061673D02*
X5336191Y-14042625D01*
X5336191Y-14042625D02*
X5355238Y-14014053D01*
X5355238Y-14014053D02*
X5364762Y-14004530D01*
X5431429Y-14052149D02*
X5440953Y-14042625D01*
X5440953Y-14042625D02*
X5460000Y-14033101D01*
X5460000Y-14033101D02*
X5507619Y-14033101D01*
X5507619Y-14033101D02*
X5526667Y-14042625D01*
X5526667Y-14042625D02*
X5536191Y-14052149D01*
X5536191Y-14052149D02*
X5545714Y-14071196D01*
X5545714Y-14071196D02*
X5545714Y-14090244D01*
X5545714Y-14090244D02*
X5536191Y-14118815D01*
X5536191Y-14118815D02*
X5421905Y-14233101D01*
X5421905Y-14233101D02*
X5545714Y-14233101D01*
X5621905Y-14052149D02*
X5631429Y-14042625D01*
X5631429Y-14042625D02*
X5650476Y-14033101D01*
X5650476Y-14033101D02*
X5698095Y-14033101D01*
X5698095Y-14033101D02*
X5717143Y-14042625D01*
X5717143Y-14042625D02*
X5726667Y-14052149D01*
X5726667Y-14052149D02*
X5736191Y-14071196D01*
X5736191Y-14071196D02*
X5736191Y-14090244D01*
X5736191Y-14090244D02*
X5726667Y-14118815D01*
X5726667Y-14118815D02*
X5612381Y-14233101D01*
X5612381Y-14233101D02*
X5736191Y-14233101D01*
X5941905Y-14233101D02*
X5941905Y-14033101D01*
X6027619Y-14233101D02*
X6027619Y-14128339D01*
X6027619Y-14128339D02*
X6018095Y-14109292D01*
X6018095Y-14109292D02*
X5999048Y-14099768D01*
X5999048Y-14099768D02*
X5970476Y-14099768D01*
X5970476Y-14099768D02*
X5951429Y-14109292D01*
X5951429Y-14109292D02*
X5941905Y-14118815D01*
X6151429Y-14233101D02*
X6132381Y-14223577D01*
X6132381Y-14223577D02*
X6122857Y-14214053D01*
X6122857Y-14214053D02*
X6113333Y-14195006D01*
X6113333Y-14195006D02*
X6113333Y-14137863D01*
X6113333Y-14137863D02*
X6122857Y-14118815D01*
X6122857Y-14118815D02*
X6132381Y-14109292D01*
X6132381Y-14109292D02*
X6151429Y-14099768D01*
X6151429Y-14099768D02*
X6180000Y-14099768D01*
X6180000Y-14099768D02*
X6199048Y-14109292D01*
X6199048Y-14109292D02*
X6208572Y-14118815D01*
X6208572Y-14118815D02*
X6218095Y-14137863D01*
X6218095Y-14137863D02*
X6218095Y-14195006D01*
X6218095Y-14195006D02*
X6208572Y-14214053D01*
X6208572Y-14214053D02*
X6199048Y-14223577D01*
X6199048Y-14223577D02*
X6180000Y-14233101D01*
X6180000Y-14233101D02*
X6151429Y-14233101D01*
X6332381Y-14233101D02*
X6313333Y-14223577D01*
X6313333Y-14223577D02*
X6303810Y-14204530D01*
X6303810Y-14204530D02*
X6303810Y-14033101D01*
X6484762Y-14223577D02*
X6465714Y-14233101D01*
X6465714Y-14233101D02*
X6427619Y-14233101D01*
X6427619Y-14233101D02*
X6408572Y-14223577D01*
X6408572Y-14223577D02*
X6399048Y-14204530D01*
X6399048Y-14204530D02*
X6399048Y-14128339D01*
X6399048Y-14128339D02*
X6408572Y-14109292D01*
X6408572Y-14109292D02*
X6427619Y-14099768D01*
X6427619Y-14099768D02*
X6465714Y-14099768D01*
X6465714Y-14099768D02*
X6484762Y-14109292D01*
X6484762Y-14109292D02*
X6494286Y-14128339D01*
X6494286Y-14128339D02*
X6494286Y-14147387D01*
X6494286Y-14147387D02*
X6399048Y-14166434D01*
X6570476Y-14223577D02*
X6589524Y-14233101D01*
X6589524Y-14233101D02*
X6627619Y-14233101D01*
X6627619Y-14233101D02*
X6646667Y-14223577D01*
X6646667Y-14223577D02*
X6656191Y-14204530D01*
X6656191Y-14204530D02*
X6656191Y-14195006D01*
X6656191Y-14195006D02*
X6646667Y-14175958D01*
X6646667Y-14175958D02*
X6627619Y-14166434D01*
X6627619Y-14166434D02*
X6599048Y-14166434D01*
X6599048Y-14166434D02*
X6580000Y-14156911D01*
X6580000Y-14156911D02*
X6570476Y-14137863D01*
X6570476Y-14137863D02*
X6570476Y-14128339D01*
X6570476Y-14128339D02*
X6580000Y-14109292D01*
X6580000Y-14109292D02*
X6599048Y-14099768D01*
X6599048Y-14099768D02*
X6627619Y-14099768D01*
X6627619Y-14099768D02*
X6646667Y-14109292D01*
X6722857Y-14309292D02*
X6732381Y-14299768D01*
X6732381Y-14299768D02*
X6751429Y-14271196D01*
X6751429Y-14271196D02*
X6760953Y-14252149D01*
X6760953Y-14252149D02*
X6770476Y-14223577D01*
X6770476Y-14223577D02*
X6780000Y-14175958D01*
X6780000Y-14175958D02*
X6780000Y-14137863D01*
X6780000Y-14137863D02*
X6770476Y-14090244D01*
X6770476Y-14090244D02*
X6760953Y-14061673D01*
X6760953Y-14061673D02*
X6751429Y-14042625D01*
X6751429Y-14042625D02*
X6732381Y-14014053D01*
X6732381Y-14014053D02*
X6722857Y-14004530D01*
X7052381Y-14309292D02*
X7042857Y-14299768D01*
X7042857Y-14299768D02*
X7023810Y-14271196D01*
X7023810Y-14271196D02*
X7014286Y-14252149D01*
X7014286Y-14252149D02*
X7004762Y-14223577D01*
X7004762Y-14223577D02*
X6995238Y-14175958D01*
X6995238Y-14175958D02*
X6995238Y-14137863D01*
X6995238Y-14137863D02*
X7004762Y-14090244D01*
X7004762Y-14090244D02*
X7014286Y-14061673D01*
X7014286Y-14061673D02*
X7023810Y-14042625D01*
X7023810Y-14042625D02*
X7042857Y-14014053D01*
X7042857Y-14014053D02*
X7052381Y-14004530D01*
X7128572Y-14099768D02*
X7128572Y-14233101D01*
X7128572Y-14118815D02*
X7138095Y-14109292D01*
X7138095Y-14109292D02*
X7157143Y-14099768D01*
X7157143Y-14099768D02*
X7185714Y-14099768D01*
X7185714Y-14099768D02*
X7204762Y-14109292D01*
X7204762Y-14109292D02*
X7214286Y-14128339D01*
X7214286Y-14128339D02*
X7214286Y-14233101D01*
X7338095Y-14233101D02*
X7319048Y-14223577D01*
X7319048Y-14223577D02*
X7309524Y-14214053D01*
X7309524Y-14214053D02*
X7300000Y-14195006D01*
X7300000Y-14195006D02*
X7300000Y-14137863D01*
X7300000Y-14137863D02*
X7309524Y-14118815D01*
X7309524Y-14118815D02*
X7319048Y-14109292D01*
X7319048Y-14109292D02*
X7338095Y-14099768D01*
X7338095Y-14099768D02*
X7366667Y-14099768D01*
X7366667Y-14099768D02*
X7385714Y-14109292D01*
X7385714Y-14109292D02*
X7395238Y-14118815D01*
X7395238Y-14118815D02*
X7404762Y-14137863D01*
X7404762Y-14137863D02*
X7404762Y-14195006D01*
X7404762Y-14195006D02*
X7395238Y-14214053D01*
X7395238Y-14214053D02*
X7385714Y-14223577D01*
X7385714Y-14223577D02*
X7366667Y-14233101D01*
X7366667Y-14233101D02*
X7338095Y-14233101D01*
X7461905Y-14099768D02*
X7538095Y-14099768D01*
X7490476Y-14033101D02*
X7490476Y-14204530D01*
X7490476Y-14204530D02*
X7500000Y-14223577D01*
X7500000Y-14223577D02*
X7519048Y-14233101D01*
X7519048Y-14233101D02*
X7538095Y-14233101D01*
X7724762Y-14099768D02*
X7724762Y-14299768D01*
X7724762Y-14109292D02*
X7743810Y-14099768D01*
X7743810Y-14099768D02*
X7781905Y-14099768D01*
X7781905Y-14099768D02*
X7800953Y-14109292D01*
X7800953Y-14109292D02*
X7810476Y-14118815D01*
X7810476Y-14118815D02*
X7820000Y-14137863D01*
X7820000Y-14137863D02*
X7820000Y-14195006D01*
X7820000Y-14195006D02*
X7810476Y-14214053D01*
X7810476Y-14214053D02*
X7800953Y-14223577D01*
X7800953Y-14223577D02*
X7781905Y-14233101D01*
X7781905Y-14233101D02*
X7743810Y-14233101D01*
X7743810Y-14233101D02*
X7724762Y-14223577D01*
X7934286Y-14233101D02*
X7915238Y-14223577D01*
X7915238Y-14223577D02*
X7905714Y-14204530D01*
X7905714Y-14204530D02*
X7905714Y-14033101D01*
X8096191Y-14233101D02*
X8096191Y-14128339D01*
X8096191Y-14128339D02*
X8086667Y-14109292D01*
X8086667Y-14109292D02*
X8067619Y-14099768D01*
X8067619Y-14099768D02*
X8029524Y-14099768D01*
X8029524Y-14099768D02*
X8010476Y-14109292D01*
X8096191Y-14223577D02*
X8077143Y-14233101D01*
X8077143Y-14233101D02*
X8029524Y-14233101D01*
X8029524Y-14233101D02*
X8010476Y-14223577D01*
X8010476Y-14223577D02*
X8000953Y-14204530D01*
X8000953Y-14204530D02*
X8000953Y-14185482D01*
X8000953Y-14185482D02*
X8010476Y-14166434D01*
X8010476Y-14166434D02*
X8029524Y-14156911D01*
X8029524Y-14156911D02*
X8077143Y-14156911D01*
X8077143Y-14156911D02*
X8096191Y-14147387D01*
X8162857Y-14099768D02*
X8239048Y-14099768D01*
X8191429Y-14033101D02*
X8191429Y-14204530D01*
X8191429Y-14204530D02*
X8200953Y-14223577D01*
X8200953Y-14223577D02*
X8220000Y-14233101D01*
X8220000Y-14233101D02*
X8239048Y-14233101D01*
X8381905Y-14223577D02*
X8362857Y-14233101D01*
X8362857Y-14233101D02*
X8324762Y-14233101D01*
X8324762Y-14233101D02*
X8305714Y-14223577D01*
X8305714Y-14223577D02*
X8296191Y-14204530D01*
X8296191Y-14204530D02*
X8296191Y-14128339D01*
X8296191Y-14128339D02*
X8305714Y-14109292D01*
X8305714Y-14109292D02*
X8324762Y-14099768D01*
X8324762Y-14099768D02*
X8362857Y-14099768D01*
X8362857Y-14099768D02*
X8381905Y-14109292D01*
X8381905Y-14109292D02*
X8391429Y-14128339D01*
X8391429Y-14128339D02*
X8391429Y-14147387D01*
X8391429Y-14147387D02*
X8296191Y-14166434D01*
X8562857Y-14233101D02*
X8562857Y-14033101D01*
X8562857Y-14223577D02*
X8543810Y-14233101D01*
X8543810Y-14233101D02*
X8505715Y-14233101D01*
X8505715Y-14233101D02*
X8486667Y-14223577D01*
X8486667Y-14223577D02*
X8477143Y-14214053D01*
X8477143Y-14214053D02*
X8467619Y-14195006D01*
X8467619Y-14195006D02*
X8467619Y-14137863D01*
X8467619Y-14137863D02*
X8477143Y-14118815D01*
X8477143Y-14118815D02*
X8486667Y-14109292D01*
X8486667Y-14109292D02*
X8505715Y-14099768D01*
X8505715Y-14099768D02*
X8543810Y-14099768D01*
X8543810Y-14099768D02*
X8562857Y-14109292D01*
X8639048Y-14309292D02*
X8648572Y-14299768D01*
X8648572Y-14299768D02*
X8667619Y-14271196D01*
X8667619Y-14271196D02*
X8677143Y-14252149D01*
X8677143Y-14252149D02*
X8686667Y-14223577D01*
X8686667Y-14223577D02*
X8696191Y-14175958D01*
X8696191Y-14175958D02*
X8696191Y-14137863D01*
X8696191Y-14137863D02*
X8686667Y-14090244D01*
X8686667Y-14090244D02*
X8677143Y-14061673D01*
X8677143Y-14061673D02*
X8667619Y-14042625D01*
X8667619Y-14042625D02*
X8648572Y-14014053D01*
X8648572Y-14014053D02*
X8639048Y-14004530D01*
X1800000Y-14579625D02*
X1900000Y-14479625D01*
X1800000Y-14379625D01*
X1700000Y-14479625D01*
X1800000Y-14579625D01*
X2233333Y-14419768D02*
X2233333Y-14553101D01*
X2185714Y-14343577D02*
X2138095Y-14486434D01*
X2138095Y-14486434D02*
X2261905Y-14486434D01*
X2338095Y-14534053D02*
X2347619Y-14543577D01*
X2347619Y-14543577D02*
X2338095Y-14553101D01*
X2338095Y-14553101D02*
X2328571Y-14543577D01*
X2328571Y-14543577D02*
X2338095Y-14534053D01*
X2338095Y-14534053D02*
X2338095Y-14553101D01*
X2414286Y-14353101D02*
X2538095Y-14353101D01*
X2538095Y-14353101D02*
X2471429Y-14429292D01*
X2471429Y-14429292D02*
X2500000Y-14429292D01*
X2500000Y-14429292D02*
X2519048Y-14438815D01*
X2519048Y-14438815D02*
X2528571Y-14448339D01*
X2528571Y-14448339D02*
X2538095Y-14467387D01*
X2538095Y-14467387D02*
X2538095Y-14515006D01*
X2538095Y-14515006D02*
X2528571Y-14534053D01*
X2528571Y-14534053D02*
X2519048Y-14543577D01*
X2519048Y-14543577D02*
X2500000Y-14553101D01*
X2500000Y-14553101D02*
X2442857Y-14553101D01*
X2442857Y-14553101D02*
X2423810Y-14543577D01*
X2423810Y-14543577D02*
X2414286Y-14534053D01*
X2661905Y-14353101D02*
X2680952Y-14353101D01*
X2680952Y-14353101D02*
X2700000Y-14362625D01*
X2700000Y-14362625D02*
X2709524Y-14372149D01*
X2709524Y-14372149D02*
X2719048Y-14391196D01*
X2719048Y-14391196D02*
X2728571Y-14429292D01*
X2728571Y-14429292D02*
X2728571Y-14476911D01*
X2728571Y-14476911D02*
X2719048Y-14515006D01*
X2719048Y-14515006D02*
X2709524Y-14534053D01*
X2709524Y-14534053D02*
X2700000Y-14543577D01*
X2700000Y-14543577D02*
X2680952Y-14553101D01*
X2680952Y-14553101D02*
X2661905Y-14553101D01*
X2661905Y-14553101D02*
X2642857Y-14543577D01*
X2642857Y-14543577D02*
X2633333Y-14534053D01*
X2633333Y-14534053D02*
X2623810Y-14515006D01*
X2623810Y-14515006D02*
X2614286Y-14476911D01*
X2614286Y-14476911D02*
X2614286Y-14429292D01*
X2614286Y-14429292D02*
X2623810Y-14391196D01*
X2623810Y-14391196D02*
X2633333Y-14372149D01*
X2633333Y-14372149D02*
X2642857Y-14362625D01*
X2642857Y-14362625D02*
X2661905Y-14353101D01*
X2852381Y-14353101D02*
X2871429Y-14353101D01*
X2871429Y-14353101D02*
X2890476Y-14362625D01*
X2890476Y-14362625D02*
X2900000Y-14372149D01*
X2900000Y-14372149D02*
X2909524Y-14391196D01*
X2909524Y-14391196D02*
X2919048Y-14429292D01*
X2919048Y-14429292D02*
X2919048Y-14476911D01*
X2919048Y-14476911D02*
X2909524Y-14515006D01*
X2909524Y-14515006D02*
X2900000Y-14534053D01*
X2900000Y-14534053D02*
X2890476Y-14543577D01*
X2890476Y-14543577D02*
X2871429Y-14553101D01*
X2871429Y-14553101D02*
X2852381Y-14553101D01*
X2852381Y-14553101D02*
X2833333Y-14543577D01*
X2833333Y-14543577D02*
X2823809Y-14534053D01*
X2823809Y-14534053D02*
X2814286Y-14515006D01*
X2814286Y-14515006D02*
X2804762Y-14476911D01*
X2804762Y-14476911D02*
X2804762Y-14429292D01*
X2804762Y-14429292D02*
X2814286Y-14391196D01*
X2814286Y-14391196D02*
X2823809Y-14372149D01*
X2823809Y-14372149D02*
X2833333Y-14362625D01*
X2833333Y-14362625D02*
X2852381Y-14353101D01*
X3004762Y-14553101D02*
X3004762Y-14419768D01*
X3004762Y-14438815D02*
X3014286Y-14429292D01*
X3014286Y-14429292D02*
X3033333Y-14419768D01*
X3033333Y-14419768D02*
X3061905Y-14419768D01*
X3061905Y-14419768D02*
X3080952Y-14429292D01*
X3080952Y-14429292D02*
X3090476Y-14448339D01*
X3090476Y-14448339D02*
X3090476Y-14553101D01*
X3090476Y-14448339D02*
X3100000Y-14429292D01*
X3100000Y-14429292D02*
X3119048Y-14419768D01*
X3119048Y-14419768D02*
X3147619Y-14419768D01*
X3147619Y-14419768D02*
X3166667Y-14429292D01*
X3166667Y-14429292D02*
X3176190Y-14448339D01*
X3176190Y-14448339D02*
X3176190Y-14553101D01*
X3271429Y-14553101D02*
X3271429Y-14419768D01*
X3271429Y-14438815D02*
X3280952Y-14429292D01*
X3280952Y-14429292D02*
X3300000Y-14419768D01*
X3300000Y-14419768D02*
X3328571Y-14419768D01*
X3328571Y-14419768D02*
X3347619Y-14429292D01*
X3347619Y-14429292D02*
X3357143Y-14448339D01*
X3357143Y-14448339D02*
X3357143Y-14553101D01*
X3357143Y-14448339D02*
X3366667Y-14429292D01*
X3366667Y-14429292D02*
X3385714Y-14419768D01*
X3385714Y-14419768D02*
X3414286Y-14419768D01*
X3414286Y-14419768D02*
X3433333Y-14429292D01*
X3433333Y-14429292D02*
X3442857Y-14448339D01*
X3442857Y-14448339D02*
X3442857Y-14553101D01*
X3800952Y-14343577D02*
X3629524Y-14600720D01*
X4025714Y-14353101D02*
X4044762Y-14353101D01*
X4044762Y-14353101D02*
X4063810Y-14362625D01*
X4063810Y-14362625D02*
X4073333Y-14372149D01*
X4073333Y-14372149D02*
X4082857Y-14391196D01*
X4082857Y-14391196D02*
X4092381Y-14429292D01*
X4092381Y-14429292D02*
X4092381Y-14476911D01*
X4092381Y-14476911D02*
X4082857Y-14515006D01*
X4082857Y-14515006D02*
X4073333Y-14534053D01*
X4073333Y-14534053D02*
X4063810Y-14543577D01*
X4063810Y-14543577D02*
X4044762Y-14553101D01*
X4044762Y-14553101D02*
X4025714Y-14553101D01*
X4025714Y-14553101D02*
X4006667Y-14543577D01*
X4006667Y-14543577D02*
X3997143Y-14534053D01*
X3997143Y-14534053D02*
X3987619Y-14515006D01*
X3987619Y-14515006D02*
X3978095Y-14476911D01*
X3978095Y-14476911D02*
X3978095Y-14429292D01*
X3978095Y-14429292D02*
X3987619Y-14391196D01*
X3987619Y-14391196D02*
X3997143Y-14372149D01*
X3997143Y-14372149D02*
X4006667Y-14362625D01*
X4006667Y-14362625D02*
X4025714Y-14353101D01*
X4178095Y-14534053D02*
X4187619Y-14543577D01*
X4187619Y-14543577D02*
X4178095Y-14553101D01*
X4178095Y-14553101D02*
X4168571Y-14543577D01*
X4168571Y-14543577D02*
X4178095Y-14534053D01*
X4178095Y-14534053D02*
X4178095Y-14553101D01*
X4378095Y-14553101D02*
X4263810Y-14553101D01*
X4320952Y-14553101D02*
X4320952Y-14353101D01*
X4320952Y-14353101D02*
X4301905Y-14381673D01*
X4301905Y-14381673D02*
X4282857Y-14400720D01*
X4282857Y-14400720D02*
X4263810Y-14410244D01*
X4549524Y-14353101D02*
X4511429Y-14353101D01*
X4511429Y-14353101D02*
X4492381Y-14362625D01*
X4492381Y-14362625D02*
X4482857Y-14372149D01*
X4482857Y-14372149D02*
X4463810Y-14400720D01*
X4463810Y-14400720D02*
X4454286Y-14438815D01*
X4454286Y-14438815D02*
X4454286Y-14515006D01*
X4454286Y-14515006D02*
X4463810Y-14534053D01*
X4463810Y-14534053D02*
X4473333Y-14543577D01*
X4473333Y-14543577D02*
X4492381Y-14553101D01*
X4492381Y-14553101D02*
X4530476Y-14553101D01*
X4530476Y-14553101D02*
X4549524Y-14543577D01*
X4549524Y-14543577D02*
X4559048Y-14534053D01*
X4559048Y-14534053D02*
X4568572Y-14515006D01*
X4568572Y-14515006D02*
X4568572Y-14467387D01*
X4568572Y-14467387D02*
X4559048Y-14448339D01*
X4559048Y-14448339D02*
X4549524Y-14438815D01*
X4549524Y-14438815D02*
X4530476Y-14429292D01*
X4530476Y-14429292D02*
X4492381Y-14429292D01*
X4492381Y-14429292D02*
X4473333Y-14438815D01*
X4473333Y-14438815D02*
X4463810Y-14448339D01*
X4463810Y-14448339D02*
X4454286Y-14467387D01*
X4663810Y-14553101D02*
X4701905Y-14553101D01*
X4701905Y-14553101D02*
X4720953Y-14543577D01*
X4720953Y-14543577D02*
X4730476Y-14534053D01*
X4730476Y-14534053D02*
X4749524Y-14505482D01*
X4749524Y-14505482D02*
X4759048Y-14467387D01*
X4759048Y-14467387D02*
X4759048Y-14391196D01*
X4759048Y-14391196D02*
X4749524Y-14372149D01*
X4749524Y-14372149D02*
X4740000Y-14362625D01*
X4740000Y-14362625D02*
X4720953Y-14353101D01*
X4720953Y-14353101D02*
X4682857Y-14353101D01*
X4682857Y-14353101D02*
X4663810Y-14362625D01*
X4663810Y-14362625D02*
X4654286Y-14372149D01*
X4654286Y-14372149D02*
X4644762Y-14391196D01*
X4644762Y-14391196D02*
X4644762Y-14438815D01*
X4644762Y-14438815D02*
X4654286Y-14457863D01*
X4654286Y-14457863D02*
X4663810Y-14467387D01*
X4663810Y-14467387D02*
X4682857Y-14476911D01*
X4682857Y-14476911D02*
X4720953Y-14476911D01*
X4720953Y-14476911D02*
X4740000Y-14467387D01*
X4740000Y-14467387D02*
X4749524Y-14457863D01*
X4749524Y-14457863D02*
X4759048Y-14438815D01*
X4825714Y-14353101D02*
X4949524Y-14353101D01*
X4949524Y-14353101D02*
X4882857Y-14429292D01*
X4882857Y-14429292D02*
X4911429Y-14429292D01*
X4911429Y-14429292D02*
X4930476Y-14438815D01*
X4930476Y-14438815D02*
X4940000Y-14448339D01*
X4940000Y-14448339D02*
X4949524Y-14467387D01*
X4949524Y-14467387D02*
X4949524Y-14515006D01*
X4949524Y-14515006D02*
X4940000Y-14534053D01*
X4940000Y-14534053D02*
X4930476Y-14543577D01*
X4930476Y-14543577D02*
X4911429Y-14553101D01*
X4911429Y-14553101D02*
X4854286Y-14553101D01*
X4854286Y-14553101D02*
X4835238Y-14543577D01*
X4835238Y-14543577D02*
X4825714Y-14534053D01*
X5025714Y-14353101D02*
X5025714Y-14391196D01*
X5101905Y-14353101D02*
X5101905Y-14391196D01*
X5364762Y-14629292D02*
X5355238Y-14619768D01*
X5355238Y-14619768D02*
X5336191Y-14591196D01*
X5336191Y-14591196D02*
X5326667Y-14572149D01*
X5326667Y-14572149D02*
X5317143Y-14543577D01*
X5317143Y-14543577D02*
X5307619Y-14495958D01*
X5307619Y-14495958D02*
X5307619Y-14457863D01*
X5307619Y-14457863D02*
X5317143Y-14410244D01*
X5317143Y-14410244D02*
X5326667Y-14381673D01*
X5326667Y-14381673D02*
X5336191Y-14362625D01*
X5336191Y-14362625D02*
X5355238Y-14334053D01*
X5355238Y-14334053D02*
X5364762Y-14324530D01*
X5526667Y-14353101D02*
X5488572Y-14353101D01*
X5488572Y-14353101D02*
X5469524Y-14362625D01*
X5469524Y-14362625D02*
X5460000Y-14372149D01*
X5460000Y-14372149D02*
X5440953Y-14400720D01*
X5440953Y-14400720D02*
X5431429Y-14438815D01*
X5431429Y-14438815D02*
X5431429Y-14515006D01*
X5431429Y-14515006D02*
X5440953Y-14534053D01*
X5440953Y-14534053D02*
X5450476Y-14543577D01*
X5450476Y-14543577D02*
X5469524Y-14553101D01*
X5469524Y-14553101D02*
X5507619Y-14553101D01*
X5507619Y-14553101D02*
X5526667Y-14543577D01*
X5526667Y-14543577D02*
X5536191Y-14534053D01*
X5536191Y-14534053D02*
X5545714Y-14515006D01*
X5545714Y-14515006D02*
X5545714Y-14467387D01*
X5545714Y-14467387D02*
X5536191Y-14448339D01*
X5536191Y-14448339D02*
X5526667Y-14438815D01*
X5526667Y-14438815D02*
X5507619Y-14429292D01*
X5507619Y-14429292D02*
X5469524Y-14429292D01*
X5469524Y-14429292D02*
X5450476Y-14438815D01*
X5450476Y-14438815D02*
X5440953Y-14448339D01*
X5440953Y-14448339D02*
X5431429Y-14467387D01*
X5751429Y-14553101D02*
X5751429Y-14353101D01*
X5837143Y-14553101D02*
X5837143Y-14448339D01*
X5837143Y-14448339D02*
X5827619Y-14429292D01*
X5827619Y-14429292D02*
X5808572Y-14419768D01*
X5808572Y-14419768D02*
X5780000Y-14419768D01*
X5780000Y-14419768D02*
X5760952Y-14429292D01*
X5760952Y-14429292D02*
X5751429Y-14438815D01*
X5960952Y-14553101D02*
X5941905Y-14543577D01*
X5941905Y-14543577D02*
X5932381Y-14534053D01*
X5932381Y-14534053D02*
X5922857Y-14515006D01*
X5922857Y-14515006D02*
X5922857Y-14457863D01*
X5922857Y-14457863D02*
X5932381Y-14438815D01*
X5932381Y-14438815D02*
X5941905Y-14429292D01*
X5941905Y-14429292D02*
X5960952Y-14419768D01*
X5960952Y-14419768D02*
X5989524Y-14419768D01*
X5989524Y-14419768D02*
X6008572Y-14429292D01*
X6008572Y-14429292D02*
X6018095Y-14438815D01*
X6018095Y-14438815D02*
X6027619Y-14457863D01*
X6027619Y-14457863D02*
X6027619Y-14515006D01*
X6027619Y-14515006D02*
X6018095Y-14534053D01*
X6018095Y-14534053D02*
X6008572Y-14543577D01*
X6008572Y-14543577D02*
X5989524Y-14553101D01*
X5989524Y-14553101D02*
X5960952Y-14553101D01*
X6141905Y-14553101D02*
X6122857Y-14543577D01*
X6122857Y-14543577D02*
X6113333Y-14524530D01*
X6113333Y-14524530D02*
X6113333Y-14353101D01*
X6294286Y-14543577D02*
X6275238Y-14553101D01*
X6275238Y-14553101D02*
X6237143Y-14553101D01*
X6237143Y-14553101D02*
X6218095Y-14543577D01*
X6218095Y-14543577D02*
X6208572Y-14524530D01*
X6208572Y-14524530D02*
X6208572Y-14448339D01*
X6208572Y-14448339D02*
X6218095Y-14429292D01*
X6218095Y-14429292D02*
X6237143Y-14419768D01*
X6237143Y-14419768D02*
X6275238Y-14419768D01*
X6275238Y-14419768D02*
X6294286Y-14429292D01*
X6294286Y-14429292D02*
X6303810Y-14448339D01*
X6303810Y-14448339D02*
X6303810Y-14467387D01*
X6303810Y-14467387D02*
X6208572Y-14486434D01*
X6380000Y-14543577D02*
X6399048Y-14553101D01*
X6399048Y-14553101D02*
X6437143Y-14553101D01*
X6437143Y-14553101D02*
X6456191Y-14543577D01*
X6456191Y-14543577D02*
X6465714Y-14524530D01*
X6465714Y-14524530D02*
X6465714Y-14515006D01*
X6465714Y-14515006D02*
X6456191Y-14495958D01*
X6456191Y-14495958D02*
X6437143Y-14486434D01*
X6437143Y-14486434D02*
X6408572Y-14486434D01*
X6408572Y-14486434D02*
X6389524Y-14476911D01*
X6389524Y-14476911D02*
X6380000Y-14457863D01*
X6380000Y-14457863D02*
X6380000Y-14448339D01*
X6380000Y-14448339D02*
X6389524Y-14429292D01*
X6389524Y-14429292D02*
X6408572Y-14419768D01*
X6408572Y-14419768D02*
X6437143Y-14419768D01*
X6437143Y-14419768D02*
X6456191Y-14429292D01*
X6532381Y-14629292D02*
X6541905Y-14619768D01*
X6541905Y-14619768D02*
X6560953Y-14591196D01*
X6560953Y-14591196D02*
X6570476Y-14572149D01*
X6570476Y-14572149D02*
X6580000Y-14543577D01*
X6580000Y-14543577D02*
X6589524Y-14495958D01*
X6589524Y-14495958D02*
X6589524Y-14457863D01*
X6589524Y-14457863D02*
X6580000Y-14410244D01*
X6580000Y-14410244D02*
X6570476Y-14381673D01*
X6570476Y-14381673D02*
X6560953Y-14362625D01*
X6560953Y-14362625D02*
X6541905Y-14334053D01*
X6541905Y-14334053D02*
X6532381Y-14324530D01*
X6861905Y-14629292D02*
X6852381Y-14619768D01*
X6852381Y-14619768D02*
X6833333Y-14591196D01*
X6833333Y-14591196D02*
X6823810Y-14572149D01*
X6823810Y-14572149D02*
X6814286Y-14543577D01*
X6814286Y-14543577D02*
X6804762Y-14495958D01*
X6804762Y-14495958D02*
X6804762Y-14457863D01*
X6804762Y-14457863D02*
X6814286Y-14410244D01*
X6814286Y-14410244D02*
X6823810Y-14381673D01*
X6823810Y-14381673D02*
X6833333Y-14362625D01*
X6833333Y-14362625D02*
X6852381Y-14334053D01*
X6852381Y-14334053D02*
X6861905Y-14324530D01*
X6938095Y-14419768D02*
X6938095Y-14553101D01*
X6938095Y-14438815D02*
X6947619Y-14429292D01*
X6947619Y-14429292D02*
X6966667Y-14419768D01*
X6966667Y-14419768D02*
X6995238Y-14419768D01*
X6995238Y-14419768D02*
X7014286Y-14429292D01*
X7014286Y-14429292D02*
X7023810Y-14448339D01*
X7023810Y-14448339D02*
X7023810Y-14553101D01*
X7147619Y-14553101D02*
X7128572Y-14543577D01*
X7128572Y-14543577D02*
X7119048Y-14534053D01*
X7119048Y-14534053D02*
X7109524Y-14515006D01*
X7109524Y-14515006D02*
X7109524Y-14457863D01*
X7109524Y-14457863D02*
X7119048Y-14438815D01*
X7119048Y-14438815D02*
X7128572Y-14429292D01*
X7128572Y-14429292D02*
X7147619Y-14419768D01*
X7147619Y-14419768D02*
X7176191Y-14419768D01*
X7176191Y-14419768D02*
X7195238Y-14429292D01*
X7195238Y-14429292D02*
X7204762Y-14438815D01*
X7204762Y-14438815D02*
X7214286Y-14457863D01*
X7214286Y-14457863D02*
X7214286Y-14515006D01*
X7214286Y-14515006D02*
X7204762Y-14534053D01*
X7204762Y-14534053D02*
X7195238Y-14543577D01*
X7195238Y-14543577D02*
X7176191Y-14553101D01*
X7176191Y-14553101D02*
X7147619Y-14553101D01*
X7271429Y-14419768D02*
X7347619Y-14419768D01*
X7300000Y-14353101D02*
X7300000Y-14524530D01*
X7300000Y-14524530D02*
X7309524Y-14543577D01*
X7309524Y-14543577D02*
X7328572Y-14553101D01*
X7328572Y-14553101D02*
X7347619Y-14553101D01*
X7534286Y-14419768D02*
X7534286Y-14619768D01*
X7534286Y-14429292D02*
X7553333Y-14419768D01*
X7553333Y-14419768D02*
X7591429Y-14419768D01*
X7591429Y-14419768D02*
X7610476Y-14429292D01*
X7610476Y-14429292D02*
X7620000Y-14438815D01*
X7620000Y-14438815D02*
X7629524Y-14457863D01*
X7629524Y-14457863D02*
X7629524Y-14515006D01*
X7629524Y-14515006D02*
X7620000Y-14534053D01*
X7620000Y-14534053D02*
X7610476Y-14543577D01*
X7610476Y-14543577D02*
X7591429Y-14553101D01*
X7591429Y-14553101D02*
X7553333Y-14553101D01*
X7553333Y-14553101D02*
X7534286Y-14543577D01*
X7743810Y-14553101D02*
X7724762Y-14543577D01*
X7724762Y-14543577D02*
X7715238Y-14524530D01*
X7715238Y-14524530D02*
X7715238Y-14353101D01*
X7905714Y-14553101D02*
X7905714Y-14448339D01*
X7905714Y-14448339D02*
X7896191Y-14429292D01*
X7896191Y-14429292D02*
X7877143Y-14419768D01*
X7877143Y-14419768D02*
X7839048Y-14419768D01*
X7839048Y-14419768D02*
X7820000Y-14429292D01*
X7905714Y-14543577D02*
X7886667Y-14553101D01*
X7886667Y-14553101D02*
X7839048Y-14553101D01*
X7839048Y-14553101D02*
X7820000Y-14543577D01*
X7820000Y-14543577D02*
X7810476Y-14524530D01*
X7810476Y-14524530D02*
X7810476Y-14505482D01*
X7810476Y-14505482D02*
X7820000Y-14486434D01*
X7820000Y-14486434D02*
X7839048Y-14476911D01*
X7839048Y-14476911D02*
X7886667Y-14476911D01*
X7886667Y-14476911D02*
X7905714Y-14467387D01*
X7972381Y-14419768D02*
X8048572Y-14419768D01*
X8000953Y-14353101D02*
X8000953Y-14524530D01*
X8000953Y-14524530D02*
X8010476Y-14543577D01*
X8010476Y-14543577D02*
X8029524Y-14553101D01*
X8029524Y-14553101D02*
X8048572Y-14553101D01*
X8191429Y-14543577D02*
X8172381Y-14553101D01*
X8172381Y-14553101D02*
X8134286Y-14553101D01*
X8134286Y-14553101D02*
X8115238Y-14543577D01*
X8115238Y-14543577D02*
X8105714Y-14524530D01*
X8105714Y-14524530D02*
X8105714Y-14448339D01*
X8105714Y-14448339D02*
X8115238Y-14429292D01*
X8115238Y-14429292D02*
X8134286Y-14419768D01*
X8134286Y-14419768D02*
X8172381Y-14419768D01*
X8172381Y-14419768D02*
X8191429Y-14429292D01*
X8191429Y-14429292D02*
X8200953Y-14448339D01*
X8200953Y-14448339D02*
X8200953Y-14467387D01*
X8200953Y-14467387D02*
X8105714Y-14486434D01*
X8372381Y-14553101D02*
X8372381Y-14353101D01*
X8372381Y-14543577D02*
X8353334Y-14553101D01*
X8353334Y-14553101D02*
X8315238Y-14553101D01*
X8315238Y-14553101D02*
X8296191Y-14543577D01*
X8296191Y-14543577D02*
X8286667Y-14534053D01*
X8286667Y-14534053D02*
X8277143Y-14515006D01*
X8277143Y-14515006D02*
X8277143Y-14457863D01*
X8277143Y-14457863D02*
X8286667Y-14438815D01*
X8286667Y-14438815D02*
X8296191Y-14429292D01*
X8296191Y-14429292D02*
X8315238Y-14419768D01*
X8315238Y-14419768D02*
X8353334Y-14419768D01*
X8353334Y-14419768D02*
X8372381Y-14429292D01*
X8448572Y-14629292D02*
X8458096Y-14619768D01*
X8458096Y-14619768D02*
X8477143Y-14591196D01*
X8477143Y-14591196D02*
X8486667Y-14572149D01*
X8486667Y-14572149D02*
X8496191Y-14543577D01*
X8496191Y-14543577D02*
X8505715Y-14495958D01*
X8505715Y-14495958D02*
X8505715Y-14457863D01*
X8505715Y-14457863D02*
X8496191Y-14410244D01*
X8496191Y-14410244D02*
X8486667Y-14381673D01*
X8486667Y-14381673D02*
X8477143Y-14362625D01*
X8477143Y-14362625D02*
X8458096Y-14334053D01*
X8458096Y-14334053D02*
X8448572Y-14324530D01*
M02*
