M48
; DRILL file {KiCad (7.0.0)} date Sun Apr 23 18:47:34 2023
; FORMAT={-:-/ absolute / inch / decimal}
; #@! TF.CreationDate,2023-04-23T18:47:34+09:00
; #@! TF.GenerationSoftware,Kicad,Pcbnew,(7.0.0)
; #@! TF.FileFunction,Plated,1,2,PTH
FMAT,2
INCH
; #@! TA.AperFunction,Plated,PTH,ViaDrill
T1C0.0157
; #@! TA.AperFunction,Plated,PTH,ComponentDrill
T2C0.0320
; #@! TA.AperFunction,Plated,PTH,ComponentDrill
T3C0.0394
; #@! TA.AperFunction,Plated,PTH,ComponentDrill
T4C0.0512
%
G90
G05
T1
X0.8438Y-1.2188
X0.8438Y-1.7812
X0.8438Y-1.9688
X0.8438Y-2.5312
X1.4062Y-1.125
X1.4062Y-1.3594
X1.4062Y-1.875
X1.4062Y-2.1094
X1.4062Y-2.625
X1.4062Y-2.8594
X1.5938Y-1.4062
X1.5938Y-1.9688
X1.5938Y-2.1562
X1.5938Y-2.7188
X1.6171Y-1.6813
X2.1562Y-1.3125
X2.1562Y-1.5469
X2.1562Y-2.0625
X2.1562Y-2.2969
X2.1562Y-2.8125
X2.1562Y-3.0469
X2.3438Y-1.4062
X2.3438Y-1.9688
X2.3438Y-2.1562
X2.3438Y-2.7188
X2.3438Y-2.9062
X2.3438Y-3.1875
X2.3652Y-1.7099
X2.8594Y-3.2344
X2.9062Y-1.3125
X2.9062Y-1.5469
X2.9062Y-2.0625
X2.9062Y-2.2969
X2.9062Y-2.8125
X2.9062Y-3.0469
X2.9062Y-3.4688
X3.0938Y-1.4062
X3.0938Y-1.9688
X3.0938Y-2.1562
X3.0938Y-2.7188
X3.0938Y-2.9062
X3.1035Y-3.3378
X3.4688Y-3.5625
X3.4688Y-3.7969
X3.6562Y-1.3125
X3.6562Y-1.5469
X3.6562Y-2.0625
X3.6562Y-2.2969
X3.6562Y-2.8125
X3.6562Y-3.0469
X3.6562Y-3.4219
X3.6562Y-3.6562
X3.8438Y-1.5938
X3.8438Y-1.9195
X3.8438Y-2.1562
X3.8438Y-2.3438
X3.8438Y-2.9062
X3.8438Y-3.0938
X3.8438Y-3.5156
X4.2188Y-3.75
X4.2188Y-3.9844
X4.3125Y-4.125
X4.3594Y-3.6094
X4.3594Y-4.3594
X4.3845Y-1.8477
X4.4062Y-1.5
X4.4062Y-1.7344
X4.4062Y-2.25
X4.4062Y-2.4844
X4.4062Y-3.0
X4.4062Y-3.2344
X4.4062Y-4.0312
X4.4124Y-1.8782
X4.5699Y-1.6321
X4.5938Y-1.9688
X4.5938Y-2.5312
X4.5938Y-2.7188
X4.5938Y-3.2812
X4.5938Y-3.4688
X4.5938Y-3.8906
X4.6388Y-1.6617
X4.9537Y-4.3585
X4.955Y-4.1112
X5.1562Y-1.875
X5.1562Y-2.1094
X5.1562Y-2.625
X5.1562Y-2.8594
X5.1562Y-3.375
X5.1562Y-3.6094
X5.1562Y-3.9844
X5.1562Y-4.4062
X5.7188Y-4.5
X5.7188Y-4.7344
X5.8022Y-2.1715
X5.8337Y-2.1009
T2
X1.0069Y-1.4062
X1.0069Y-2.1562
X1.0069Y-2.9062
X1.2431Y-1.4062
X1.2431Y-2.1562
X1.2431Y-2.9062
X1.7569Y-1.5938
X1.7569Y-2.3438
X1.7569Y-3.0938
X1.9931Y-1.5938
X1.9931Y-2.3438
X1.9931Y-3.0938
X2.5069Y-1.5938
X2.5069Y-2.3438
X2.5069Y-3.0938
X2.7431Y-1.5938
X2.7431Y-2.3438
X2.7431Y-3.0938
X3.0694Y-3.8438
X3.2569Y-1.5938
X3.2569Y-2.3438
X3.2569Y-3.0938
X3.3056Y-3.8438
X3.4931Y-1.5938
X3.4931Y-2.3438
X3.4931Y-3.0938
X3.8194Y-4.0312
X4.0069Y-1.7812
X4.0069Y-2.5312
X4.0069Y-3.2812
X4.0556Y-4.0312
X4.2431Y-1.7812
X4.2431Y-2.5312
X4.2431Y-3.2812
X4.5694Y-4.4062
X4.7569Y-2.1562
X4.7569Y-2.9062
X4.7569Y-3.6562
X4.8056Y-4.4062
X4.9931Y-2.1562
X4.9931Y-2.9062
X4.9931Y-3.6562
X5.3194Y-4.7812
X5.3254Y-1.8675
X5.3254Y-1.9675
X5.3254Y-2.0675
X5.3254Y-2.1675
X5.3254Y-2.2675
X5.3254Y-2.3675
X5.3254Y-2.4675
X5.3254Y-2.5675
X5.3254Y-2.6675
X5.3254Y-2.7675
X5.3254Y-2.8675
X5.3254Y-2.9675
X5.5556Y-4.7812
X5.9247Y-1.8675
X5.9247Y-1.9675
X5.9247Y-2.0675
X5.9247Y-2.1675
X5.9247Y-2.2675
X5.9247Y-2.3675
X5.9247Y-2.4675
X5.9247Y-2.5675
X5.9247Y-2.6675
X5.9247Y-2.7675
X5.9247Y-2.8675
X5.9247Y-2.9675
T4
X5.9062Y-3.1064
X5.9062Y-3.3623
T3
G00X5.516Y-3.4798
M15
G01X5.4963Y-3.4798
M16
G05
G00X5.575Y-3.6452
M15
G01X5.5554Y-3.6452
M16
G05
G00X5.7325Y-3.6452
M15
G01X5.7128Y-3.6452
M16
G05
G00X5.8506Y-3.6452
M15
G01X5.831Y-3.6452
M16
G05
T0
M30
