%TF.GenerationSoftware,KiCad,Pcbnew,(7.0.0)*%
%TF.CreationDate,2023-04-23T18:46:31+09:00*%
%TF.ProjectId,mysplit44_pcb_l,6d797370-6c69-4743-9434-5f7063625f6c,rev?*%
%TF.SameCoordinates,Original*%
%TF.FileFunction,Soldermask,Top*%
%TF.FilePolarity,Negative*%
%FSLAX46Y46*%
G04 Gerber Fmt 4.6, Leading zero omitted, Abs format (unit mm)*
G04 Created by KiCad (PCBNEW (7.0.0)) date 2023-04-23 18:46:31*
%MOMM*%
%LPD*%
G01*
G04 APERTURE LIST*
%ADD10C,1.900000*%
%ADD11C,3.000000*%
%ADD12C,4.100000*%
%ADD13C,4.300000*%
%ADD14C,1.200000*%
%ADD15R,1.778000X1.300000*%
%ADD16O,1.778000X1.300000*%
G04 APERTURE END LIST*
D10*
%TO.C,SW6*%
X118745000Y-50006250D03*
D11*
X120015000Y-47466250D03*
D12*
X123825000Y-50006250D03*
D11*
X126365000Y-44926250D03*
D10*
X128905000Y-50006250D03*
%TD*%
%TO.C,SW8*%
X42545000Y-54768750D03*
D11*
X43815000Y-52228750D03*
D12*
X47625000Y-54768750D03*
D11*
X50165000Y-49688750D03*
D10*
X52705000Y-54768750D03*
%TD*%
%TO.C,SW18*%
X118745000Y-88106250D03*
D11*
X120015000Y-85566250D03*
D12*
X123825000Y-88106250D03*
D11*
X126365000Y-83026250D03*
D10*
X128905000Y-88106250D03*
%TD*%
%TO.C,SW21*%
X113982500Y-107156250D03*
D11*
X115252500Y-104616250D03*
D12*
X119062500Y-107156250D03*
D11*
X121602500Y-102076250D03*
D10*
X124142500Y-107156250D03*
%TD*%
%TO.C,SW22*%
X133032500Y-116681250D03*
D11*
X134302500Y-114141250D03*
D12*
X138112500Y-116681250D03*
D11*
X140652500Y-111601250D03*
D10*
X143192500Y-116681250D03*
%TD*%
%TO.C,SW17*%
X99695000Y-78581250D03*
D11*
X100965000Y-76041250D03*
D12*
X104775000Y-78581250D03*
D11*
X107315000Y-73501250D03*
D10*
X109855000Y-78581250D03*
%TD*%
%TO.C,SW19*%
X75882500Y-92868750D03*
D11*
X77152500Y-90328750D03*
D12*
X80962500Y-92868750D03*
D11*
X83502500Y-87788750D03*
D10*
X86042500Y-92868750D03*
%TD*%
D13*
%TO.C,Ref\u002A\u002A*%
X38100000Y-40481250D03*
%TD*%
%TO.C,Ref\u002A\u002A*%
X76200000Y-83343750D03*
%TD*%
D10*
%TO.C,SW1*%
X23495000Y-30956250D03*
D11*
X24765000Y-28416250D03*
D12*
X28575000Y-30956250D03*
D11*
X31115000Y-25876250D03*
D10*
X33655000Y-30956250D03*
%TD*%
D13*
%TO.C,Ref\u002A\u002A*%
X38100000Y-59531250D03*
%TD*%
D10*
%TO.C,SW3*%
X61595000Y-35718750D03*
D11*
X62865000Y-33178750D03*
D12*
X66675000Y-35718750D03*
D11*
X69215000Y-30638750D03*
D10*
X71755000Y-35718750D03*
%TD*%
%TO.C,SW14*%
X42545000Y-73818750D03*
D11*
X43815000Y-71278750D03*
D12*
X47625000Y-73818750D03*
D11*
X50165000Y-68738750D03*
D10*
X52705000Y-73818750D03*
%TD*%
%TO.C,SW10*%
X80645000Y-54768750D03*
D11*
X81915000Y-52228750D03*
D12*
X85725000Y-54768750D03*
D11*
X88265000Y-49688750D03*
D10*
X90805000Y-54768750D03*
%TD*%
%TO.C,SW16*%
X80645000Y-73818750D03*
D11*
X81915000Y-71278750D03*
D12*
X85725000Y-73818750D03*
D11*
X88265000Y-68738750D03*
D10*
X90805000Y-73818750D03*
%TD*%
%TO.C,SW5*%
X99695000Y-40481250D03*
D11*
X100965000Y-37941250D03*
D12*
X104775000Y-40481250D03*
D11*
X107315000Y-35401250D03*
D10*
X109855000Y-40481250D03*
%TD*%
%TO.C,SW20*%
X94932500Y-97631250D03*
D11*
X96202500Y-95091250D03*
D12*
X100012500Y-97631250D03*
D11*
X102552500Y-92551250D03*
D10*
X105092500Y-97631250D03*
%TD*%
%TO.C,SW11*%
X99695000Y-59531250D03*
D11*
X100965000Y-56991250D03*
D12*
X104775000Y-59531250D03*
D11*
X107315000Y-54451250D03*
D10*
X109855000Y-59531250D03*
%TD*%
D14*
%TO.C,J1*%
X150156250Y-90487500D03*
X143156250Y-90487500D03*
%TD*%
D13*
%TO.C,Ref\u002A\u002A*%
X128587500Y-59531250D03*
%TD*%
D10*
%TO.C,SW9*%
X61595000Y-54768750D03*
D11*
X62865000Y-52228750D03*
D12*
X66675000Y-54768750D03*
D11*
X69215000Y-49688750D03*
D10*
X71755000Y-54768750D03*
%TD*%
%TO.C,SW12*%
X118745000Y-69056250D03*
D11*
X120015000Y-66516250D03*
D12*
X123825000Y-69056250D03*
D11*
X126365000Y-63976250D03*
D10*
X128905000Y-69056250D03*
%TD*%
D13*
%TO.C,Ref\u002A\u002A*%
X128587500Y-108346875D03*
%TD*%
D10*
%TO.C,SW4*%
X80645000Y-35718750D03*
D11*
X81915000Y-33178750D03*
D12*
X85725000Y-35718750D03*
D11*
X88265000Y-30638750D03*
D10*
X90805000Y-35718750D03*
%TD*%
%TO.C,SW13*%
X23495000Y-69056250D03*
D11*
X24765000Y-66516250D03*
D12*
X28575000Y-69056250D03*
D11*
X31115000Y-63976250D03*
D10*
X33655000Y-69056250D03*
%TD*%
D13*
%TO.C,Ref\u002A\u002A*%
X76200000Y-45243750D03*
%TD*%
D10*
%TO.C,SW15*%
X61595000Y-73818750D03*
D11*
X62865000Y-71278750D03*
D12*
X66675000Y-73818750D03*
D11*
X69215000Y-68738750D03*
D10*
X71755000Y-73818750D03*
%TD*%
%TO.C,SW7*%
X23495000Y-50006250D03*
D11*
X24765000Y-47466250D03*
D12*
X28575000Y-50006250D03*
D11*
X31115000Y-44926250D03*
D10*
X33655000Y-50006250D03*
%TD*%
%TO.C,SW2*%
X42545000Y-35718750D03*
D11*
X43815000Y-33178750D03*
D12*
X47625000Y-35718750D03*
D11*
X50165000Y-30638750D03*
D10*
X52705000Y-35718750D03*
%TD*%
D15*
%TO.C,D7*%
X25574999Y-54768749D03*
D16*
X31574999Y-54768749D03*
%TD*%
D15*
%TO.C,D9*%
X63674999Y-59531249D03*
D16*
X69674999Y-59531249D03*
%TD*%
D15*
%TO.C,D4*%
X82724999Y-40481249D03*
D16*
X88724999Y-40481249D03*
%TD*%
D15*
%TO.C,D18*%
X120824999Y-92868749D03*
D16*
X126824999Y-92868749D03*
%TD*%
D15*
%TO.C,D3*%
X63674999Y-40481249D03*
D16*
X69674999Y-40481249D03*
%TD*%
D15*
%TO.C,D15*%
X63674999Y-78581249D03*
D16*
X69674999Y-78581249D03*
%TD*%
D15*
%TO.C,D16*%
X82724999Y-78581249D03*
D16*
X88724999Y-78581249D03*
%TD*%
D15*
%TO.C,D19*%
X77962499Y-97631249D03*
D16*
X83962499Y-97631249D03*
%TD*%
D15*
%TO.C,D14*%
X44624999Y-78581249D03*
D16*
X50624999Y-78581249D03*
%TD*%
D15*
%TO.C,D12*%
X120824999Y-73818749D03*
D16*
X126824999Y-73818749D03*
%TD*%
D15*
%TO.C,D17*%
X101774999Y-83343749D03*
D16*
X107774999Y-83343749D03*
%TD*%
D15*
%TO.C,D13*%
X25574999Y-73818749D03*
D16*
X31574999Y-73818749D03*
%TD*%
D15*
%TO.C,D6*%
X120824999Y-54768749D03*
D16*
X126824999Y-54768749D03*
%TD*%
D15*
%TO.C,D2*%
X44624999Y-40481249D03*
D16*
X50624999Y-40481249D03*
%TD*%
D15*
%TO.C,D20*%
X97012499Y-102393749D03*
D16*
X103012499Y-102393749D03*
%TD*%
D15*
%TO.C,D10*%
X82724999Y-59531249D03*
D16*
X88724999Y-59531249D03*
%TD*%
D15*
%TO.C,D11*%
X101774999Y-64293749D03*
D16*
X107774999Y-64293749D03*
%TD*%
D15*
%TO.C,D5*%
X101774999Y-45243749D03*
D16*
X107774999Y-45243749D03*
%TD*%
D15*
%TO.C,D8*%
X44624999Y-59531249D03*
D16*
X50624999Y-59531249D03*
%TD*%
D15*
%TO.C,D21*%
X116062499Y-111918749D03*
D16*
X122062499Y-111918749D03*
%TD*%
D15*
%TO.C,D1*%
X25574999Y-35718749D03*
D16*
X31574999Y-35718749D03*
%TD*%
D15*
%TO.C,D22*%
X135112499Y-121443749D03*
D16*
X141112499Y-121443749D03*
%TD*%
M02*
