%TF.GenerationSoftware,KiCad,Pcbnew,(7.0.0)*%
%TF.CreationDate,2023-04-23T18:47:40+09:00*%
%TF.ProjectId,mysplit44_pcb_l,6d797370-6c69-4743-9434-5f7063625f6c,rev?*%
%TF.SameCoordinates,Original*%
%TF.FileFunction,Drillmap*%
%TF.FilePolarity,Positive*%
%FSLAX45Y45*%
G04 Gerber Fmt 4.5, Leading zero omitted, Abs format (unit mm)*
G04 Created by KiCad (PCBNEW (7.0.0)) date 2023-04-23 18:47:40*
%MOMM*%
%LPD*%
G01*
G04 APERTURE LIST*
%ADD10C,0.100000*%
%ADD11C,0.200000*%
%ADD12C,0.040000*%
%ADD13C,0.081280*%
%ADD14C,0.130000*%
G04 APERTURE END LIST*
D10*
X1905005Y-7758125D02*
G75*
G03*
X2005000Y-7858125I99995J-5D01*
G01*
X3810000Y-7958125D02*
X3810000Y-8234375D01*
X10953755Y-11568125D02*
G75*
G03*
X11053750Y-11668125I99995J-5D01*
G01*
X11430000Y-3195625D02*
X11430000Y-3948125D01*
X9148750Y-10715625D02*
X10853750Y-10715625D01*
X7143745Y-10139375D02*
G75*
G03*
X7243750Y-10239375I100005J5D01*
G01*
X9048750Y-10339375D02*
X9048750Y-10615625D01*
X2005000Y-7858125D02*
X3710000Y-7858125D01*
X3910000Y-2619375D02*
X9425000Y-2619375D01*
X3710000Y-2143125D02*
X2005000Y-2143125D01*
X10953745Y-10815625D02*
G75*
G03*
X10853750Y-10715625I-99995J5D01*
G01*
X10953750Y-10815625D02*
X10953750Y-11568125D01*
X3810000Y-2243125D02*
X3810000Y-2519375D01*
X3810005Y-2243125D02*
G75*
G03*
X3710000Y-2143125I-100005J-5D01*
G01*
X9525000Y-2719375D02*
X9525000Y-2995625D01*
X15140000Y-12620620D02*
G75*
G03*
X15240000Y-12520625I10J99990D01*
G01*
X3910000Y-8334375D02*
X7043750Y-8334375D01*
X12858750Y-11768125D02*
X12858750Y-12520625D01*
X9048755Y-10615625D02*
G75*
G03*
X9148750Y-10715625I99995J-5D01*
G01*
X9625000Y-3095625D02*
X11330000Y-3095625D01*
X12858745Y-11768125D02*
G75*
G03*
X12758750Y-11668125I-99995J5D01*
G01*
X7243750Y-10239375D02*
X8948750Y-10239375D01*
X3810005Y-8234375D02*
G75*
G03*
X3910000Y-8334375I99995J-5D01*
G01*
X12858755Y-12520625D02*
G75*
G03*
X12958750Y-12620625I99995J-5D01*
G01*
X9048745Y-10339375D02*
G75*
G03*
X8948750Y-10239375I-99995J5D01*
G01*
X11530000Y-4048125D02*
X15140000Y-4048125D01*
X9525005Y-2995625D02*
G75*
G03*
X9625000Y-3095625I99995J-5D01*
G01*
X11053750Y-11668125D02*
X12758750Y-11668125D01*
X15239995Y-4148125D02*
G75*
G03*
X15140000Y-4048125I-99995J5D01*
G01*
X3810005Y-2519375D02*
G75*
G03*
X3910000Y-2619375I99995J-5D01*
G01*
X7143750Y-8434375D02*
X7143750Y-10139375D01*
X2005000Y-2143125D02*
G75*
G03*
X1905000Y-2243125I-8J-99992D01*
G01*
X11429995Y-3948125D02*
G75*
G03*
X11530000Y-4048125I100005J5D01*
G01*
X12958750Y-12620625D02*
X15140000Y-12620625D01*
X1905000Y-2243125D02*
X1905000Y-7758125D01*
X7143745Y-8434375D02*
G75*
G03*
X7043750Y-8334375I-99995J5D01*
G01*
X3810005Y-7958125D02*
G75*
G03*
X3710000Y-7858125I-100005J-5D01*
G01*
X11430005Y-3195625D02*
G75*
G03*
X11330000Y-3095625I-100005J-5D01*
G01*
X9524995Y-2719375D02*
G75*
G03*
X9425000Y-2619375I-99995J5D01*
G01*
X15240000Y-12520625D02*
X15240000Y-4148125D01*
D11*
D12*
X2123125Y-3075625D02*
X2163125Y-3115625D01*
X2163125Y-3075625D02*
X2123125Y-3115625D01*
X2123125Y-4504375D02*
X2163125Y-4544375D01*
X2163125Y-4504375D02*
X2123125Y-4544375D01*
X2123125Y-4980625D02*
X2163125Y-5020625D01*
X2163125Y-4980625D02*
X2123125Y-5020625D01*
X2123125Y-6409375D02*
X2163125Y-6449375D01*
X2163125Y-6409375D02*
X2123125Y-6449375D01*
X3551875Y-2837500D02*
X3591875Y-2877500D01*
X3591875Y-2837500D02*
X3551875Y-2877500D01*
X3551875Y-3432812D02*
X3591875Y-3472812D01*
X3591875Y-3432812D02*
X3551875Y-3472812D01*
X3551875Y-4742500D02*
X3591875Y-4782500D01*
X3591875Y-4742500D02*
X3551875Y-4782500D01*
X3551875Y-5337813D02*
X3591875Y-5377813D01*
X3591875Y-5337813D02*
X3551875Y-5377813D01*
X3551875Y-6647500D02*
X3591875Y-6687500D01*
X3591875Y-6647500D02*
X3551875Y-6687500D01*
X3551875Y-7242812D02*
X3591875Y-7282812D01*
X3591875Y-7242812D02*
X3551875Y-7282812D01*
X4028125Y-3551875D02*
X4068125Y-3591875D01*
X4068125Y-3551875D02*
X4028125Y-3591875D01*
X4028125Y-4980625D02*
X4068125Y-5020625D01*
X4068125Y-4980625D02*
X4028125Y-5020625D01*
X4028125Y-5456875D02*
X4068125Y-5496875D01*
X4068125Y-5456875D02*
X4028125Y-5496875D01*
X4028125Y-6885625D02*
X4068125Y-6925625D01*
X4068125Y-6885625D02*
X4028125Y-6925625D01*
X4087500Y-4250625D02*
X4127500Y-4290625D01*
X4127500Y-4250625D02*
X4087500Y-4290625D01*
X5456875Y-3313750D02*
X5496875Y-3353750D01*
X5496875Y-3313750D02*
X5456875Y-3353750D01*
X5456875Y-3909062D02*
X5496875Y-3949062D01*
X5496875Y-3909062D02*
X5456875Y-3949062D01*
X5456875Y-5218750D02*
X5496875Y-5258750D01*
X5496875Y-5218750D02*
X5456875Y-5258750D01*
X5456875Y-5814062D02*
X5496875Y-5854062D01*
X5496875Y-5814062D02*
X5456875Y-5854062D01*
X5456875Y-7123750D02*
X5496875Y-7163750D01*
X5496875Y-7123750D02*
X5456875Y-7163750D01*
X5456875Y-7719062D02*
X5496875Y-7759062D01*
X5496875Y-7719062D02*
X5456875Y-7759062D01*
X5933125Y-3551875D02*
X5973125Y-3591875D01*
X5973125Y-3551875D02*
X5933125Y-3591875D01*
X5933125Y-4980625D02*
X5973125Y-5020625D01*
X5973125Y-4980625D02*
X5933125Y-5020625D01*
X5933125Y-5456875D02*
X5973125Y-5496875D01*
X5973125Y-5456875D02*
X5933125Y-5496875D01*
X5933125Y-6885625D02*
X5973125Y-6925625D01*
X5973125Y-6885625D02*
X5933125Y-6925625D01*
X5933125Y-7361875D02*
X5973125Y-7401875D01*
X5973125Y-7361875D02*
X5933125Y-7401875D01*
X5933125Y-8076250D02*
X5973125Y-8116250D01*
X5973125Y-8076250D02*
X5933125Y-8116250D01*
X5987500Y-4323075D02*
X6027500Y-4363075D01*
X6027500Y-4323075D02*
X5987500Y-4363075D01*
X7242812Y-8195312D02*
X7282812Y-8235312D01*
X7282812Y-8195312D02*
X7242812Y-8235312D01*
X7361875Y-3313750D02*
X7401875Y-3353750D01*
X7401875Y-3313750D02*
X7361875Y-3353750D01*
X7361875Y-3909062D02*
X7401875Y-3949062D01*
X7401875Y-3909062D02*
X7361875Y-3949062D01*
X7361875Y-5218750D02*
X7401875Y-5258750D01*
X7401875Y-5218750D02*
X7361875Y-5258750D01*
X7361875Y-5814062D02*
X7401875Y-5854062D01*
X7401875Y-5814062D02*
X7361875Y-5854062D01*
X7361875Y-7123750D02*
X7401875Y-7163750D01*
X7401875Y-7123750D02*
X7361875Y-7163750D01*
X7361875Y-7719062D02*
X7401875Y-7759062D01*
X7401875Y-7719062D02*
X7361875Y-7759062D01*
X7361875Y-8790625D02*
X7401875Y-8830625D01*
X7401875Y-8790625D02*
X7361875Y-8830625D01*
X7838125Y-3551875D02*
X7878125Y-3591875D01*
X7878125Y-3551875D02*
X7838125Y-3591875D01*
X7838125Y-4980625D02*
X7878125Y-5020625D01*
X7878125Y-4980625D02*
X7838125Y-5020625D01*
X7838125Y-5456875D02*
X7878125Y-5496875D01*
X7878125Y-5456875D02*
X7838125Y-5496875D01*
X7838125Y-6885625D02*
X7878125Y-6925625D01*
X7878125Y-6885625D02*
X7838125Y-6925625D01*
X7838125Y-7361875D02*
X7878125Y-7401875D01*
X7878125Y-7361875D02*
X7838125Y-7401875D01*
X7862812Y-8458125D02*
X7902812Y-8498125D01*
X7902812Y-8458125D02*
X7862812Y-8498125D01*
X8790625Y-9028750D02*
X8830625Y-9068750D01*
X8830625Y-9028750D02*
X8790625Y-9068750D01*
X8790625Y-9624063D02*
X8830625Y-9664063D01*
X8830625Y-9624063D02*
X8790625Y-9664063D01*
X9266875Y-3313750D02*
X9306875Y-3353750D01*
X9306875Y-3313750D02*
X9266875Y-3353750D01*
X9266875Y-3909062D02*
X9306875Y-3949062D01*
X9306875Y-3909062D02*
X9266875Y-3949062D01*
X9266875Y-5218750D02*
X9306875Y-5258750D01*
X9306875Y-5218750D02*
X9266875Y-5258750D01*
X9266875Y-5814062D02*
X9306875Y-5854062D01*
X9306875Y-5814062D02*
X9266875Y-5854062D01*
X9266875Y-7123750D02*
X9306875Y-7163750D01*
X9306875Y-7123750D02*
X9266875Y-7163750D01*
X9266875Y-7719062D02*
X9306875Y-7759062D01*
X9306875Y-7719062D02*
X9266875Y-7759062D01*
X9266875Y-8671563D02*
X9306875Y-8711563D01*
X9306875Y-8671563D02*
X9266875Y-8711563D01*
X9266875Y-9266875D02*
X9306875Y-9306875D01*
X9306875Y-9266875D02*
X9266875Y-9306875D01*
X9743125Y-4028125D02*
X9783125Y-4068125D01*
X9783125Y-4028125D02*
X9743125Y-4068125D01*
X9743125Y-4855625D02*
X9783125Y-4895625D01*
X9783125Y-4855625D02*
X9743125Y-4895625D01*
X9743125Y-5456875D02*
X9783125Y-5496875D01*
X9783125Y-5456875D02*
X9743125Y-5496875D01*
X9743125Y-5933125D02*
X9783125Y-5973125D01*
X9783125Y-5933125D02*
X9743125Y-5973125D01*
X9743125Y-7361875D02*
X9783125Y-7401875D01*
X9783125Y-7361875D02*
X9743125Y-7401875D01*
X9743125Y-7838125D02*
X9783125Y-7878125D01*
X9783125Y-7838125D02*
X9743125Y-7878125D01*
X9743125Y-8909688D02*
X9783125Y-8949688D01*
X9783125Y-8909688D02*
X9743125Y-8949688D01*
X10695625Y-9505000D02*
X10735625Y-9545000D01*
X10735625Y-9505000D02*
X10695625Y-9545000D01*
X10695625Y-10100313D02*
X10735625Y-10140313D01*
X10735625Y-10100313D02*
X10695625Y-10140313D01*
X10933750Y-10457500D02*
X10973750Y-10497500D01*
X10973750Y-10457500D02*
X10933750Y-10497500D01*
X11052813Y-9147813D02*
X11092813Y-9187813D01*
X11092813Y-9147813D02*
X11052813Y-9187813D01*
X11052813Y-11052813D02*
X11092813Y-11092813D01*
X11092813Y-11052813D02*
X11052813Y-11092813D01*
X11116598Y-4673075D02*
X11156598Y-4713075D01*
X11156598Y-4673075D02*
X11116598Y-4713075D01*
X11171875Y-3790000D02*
X11211875Y-3830000D01*
X11211875Y-3790000D02*
X11171875Y-3830000D01*
X11171875Y-4385313D02*
X11211875Y-4425313D01*
X11211875Y-4385313D02*
X11171875Y-4425313D01*
X11171875Y-5695000D02*
X11211875Y-5735000D01*
X11211875Y-5695000D02*
X11171875Y-5735000D01*
X11171875Y-6290312D02*
X11211875Y-6330312D01*
X11211875Y-6290312D02*
X11171875Y-6330312D01*
X11171875Y-7600000D02*
X11211875Y-7640000D01*
X11211875Y-7600000D02*
X11171875Y-7640000D01*
X11171875Y-8195312D02*
X11211875Y-8235312D01*
X11211875Y-8195312D02*
X11171875Y-8235312D01*
X11171875Y-10219375D02*
X11211875Y-10259375D01*
X11211875Y-10219375D02*
X11171875Y-10259375D01*
X11187500Y-4750625D02*
X11227500Y-4790625D01*
X11227500Y-4750625D02*
X11187500Y-4790625D01*
X11587500Y-4125625D02*
X11627500Y-4165625D01*
X11627500Y-4125625D02*
X11587500Y-4165625D01*
X11648125Y-4980625D02*
X11688125Y-5020625D01*
X11688125Y-4980625D02*
X11648125Y-5020625D01*
X11648125Y-6409375D02*
X11688125Y-6449375D01*
X11688125Y-6409375D02*
X11648125Y-6449375D01*
X11648125Y-6885625D02*
X11688125Y-6925625D01*
X11688125Y-6885625D02*
X11648125Y-6925625D01*
X11648125Y-8314375D02*
X11688125Y-8354375D01*
X11688125Y-8314375D02*
X11648125Y-8354375D01*
X11648125Y-8790625D02*
X11688125Y-8830625D01*
X11688125Y-8790625D02*
X11648125Y-8830625D01*
X11648125Y-9862188D02*
X11688125Y-9902188D01*
X11688125Y-9862188D02*
X11648125Y-9902188D01*
X11762500Y-4200625D02*
X11802500Y-4240625D01*
X11802500Y-4200625D02*
X11762500Y-4240625D01*
X12562500Y-11050625D02*
X12602500Y-11090625D01*
X12602500Y-11050625D02*
X12562500Y-11090625D01*
X12565625Y-10422500D02*
X12605625Y-10462500D01*
X12605625Y-10422500D02*
X12565625Y-10462500D01*
X13076875Y-4742500D02*
X13116875Y-4782500D01*
X13116875Y-4742500D02*
X13076875Y-4782500D01*
X13076875Y-5337813D02*
X13116875Y-5377813D01*
X13116875Y-5337813D02*
X13076875Y-5377813D01*
X13076875Y-6647500D02*
X13116875Y-6687500D01*
X13116875Y-6647500D02*
X13076875Y-6687500D01*
X13076875Y-7242812D02*
X13116875Y-7282812D01*
X13116875Y-7242812D02*
X13076875Y-7282812D01*
X13076875Y-8552500D02*
X13116875Y-8592500D01*
X13116875Y-8552500D02*
X13076875Y-8592500D01*
X13076875Y-9147813D02*
X13116875Y-9187813D01*
X13116875Y-9147813D02*
X13076875Y-9187813D01*
X13076875Y-10100313D02*
X13116875Y-10140313D01*
X13116875Y-10100313D02*
X13076875Y-10140313D01*
X13076875Y-11171875D02*
X13116875Y-11211875D01*
X13116875Y-11171875D02*
X13076875Y-11211875D01*
X14505625Y-11410000D02*
X14545625Y-11450000D01*
X14545625Y-11410000D02*
X14505625Y-11450000D01*
X14505625Y-12005312D02*
X14545625Y-12045312D01*
X14545625Y-12005312D02*
X14505625Y-12045312D01*
X14717500Y-5495625D02*
X14757500Y-5535625D01*
X14757500Y-5495625D02*
X14717500Y-5535625D01*
X14797500Y-5316400D02*
X14837500Y-5356400D01*
X14837500Y-5316400D02*
X14797500Y-5356400D01*
D13*
X2598140Y-3571875D02*
G75*
G03*
X2598140Y-3571875I-40640J0D01*
G01*
X2598140Y-5476875D02*
G75*
G03*
X2598140Y-5476875I-40640J0D01*
G01*
X2598140Y-7381875D02*
G75*
G03*
X2598140Y-7381875I-40640J0D01*
G01*
X3198140Y-3571875D02*
G75*
G03*
X3198140Y-3571875I-40640J0D01*
G01*
X3198140Y-5476875D02*
G75*
G03*
X3198140Y-5476875I-40640J0D01*
G01*
X3198140Y-7381875D02*
G75*
G03*
X3198140Y-7381875I-40640J0D01*
G01*
X4503140Y-4048125D02*
G75*
G03*
X4503140Y-4048125I-40640J0D01*
G01*
X4503140Y-5953125D02*
G75*
G03*
X4503140Y-5953125I-40640J0D01*
G01*
X4503140Y-7858125D02*
G75*
G03*
X4503140Y-7858125I-40640J0D01*
G01*
X5103140Y-4048125D02*
G75*
G03*
X5103140Y-4048125I-40640J0D01*
G01*
X5103140Y-5953125D02*
G75*
G03*
X5103140Y-5953125I-40640J0D01*
G01*
X5103140Y-7858125D02*
G75*
G03*
X5103140Y-7858125I-40640J0D01*
G01*
X6408140Y-4048125D02*
G75*
G03*
X6408140Y-4048125I-40640J0D01*
G01*
X6408140Y-5953125D02*
G75*
G03*
X6408140Y-5953125I-40640J0D01*
G01*
X6408140Y-7858125D02*
G75*
G03*
X6408140Y-7858125I-40640J0D01*
G01*
X7008140Y-4048125D02*
G75*
G03*
X7008140Y-4048125I-40640J0D01*
G01*
X7008140Y-5953125D02*
G75*
G03*
X7008140Y-5953125I-40640J0D01*
G01*
X7008140Y-7858125D02*
G75*
G03*
X7008140Y-7858125I-40640J0D01*
G01*
X7836890Y-9763125D02*
G75*
G03*
X7836890Y-9763125I-40640J0D01*
G01*
X8313140Y-4048125D02*
G75*
G03*
X8313140Y-4048125I-40640J0D01*
G01*
X8313140Y-5953125D02*
G75*
G03*
X8313140Y-5953125I-40640J0D01*
G01*
X8313140Y-7858125D02*
G75*
G03*
X8313140Y-7858125I-40640J0D01*
G01*
X8436890Y-9763125D02*
G75*
G03*
X8436890Y-9763125I-40640J0D01*
G01*
X8913140Y-4048125D02*
G75*
G03*
X8913140Y-4048125I-40640J0D01*
G01*
X8913140Y-5953125D02*
G75*
G03*
X8913140Y-5953125I-40640J0D01*
G01*
X8913140Y-7858125D02*
G75*
G03*
X8913140Y-7858125I-40640J0D01*
G01*
X9741890Y-10239375D02*
G75*
G03*
X9741890Y-10239375I-40640J0D01*
G01*
X10218140Y-4524375D02*
G75*
G03*
X10218140Y-4524375I-40640J0D01*
G01*
X10218140Y-6429375D02*
G75*
G03*
X10218140Y-6429375I-40640J0D01*
G01*
X10218140Y-8334375D02*
G75*
G03*
X10218140Y-8334375I-40640J0D01*
G01*
X10341890Y-10239375D02*
G75*
G03*
X10341890Y-10239375I-40640J0D01*
G01*
X10818140Y-4524375D02*
G75*
G03*
X10818140Y-4524375I-40640J0D01*
G01*
X10818140Y-6429375D02*
G75*
G03*
X10818140Y-6429375I-40640J0D01*
G01*
X10818140Y-8334375D02*
G75*
G03*
X10818140Y-8334375I-40640J0D01*
G01*
X11646890Y-11191875D02*
G75*
G03*
X11646890Y-11191875I-40640J0D01*
G01*
X12123140Y-5476875D02*
G75*
G03*
X12123140Y-5476875I-40640J0D01*
G01*
X12123140Y-7381875D02*
G75*
G03*
X12123140Y-7381875I-40640J0D01*
G01*
X12123140Y-9286875D02*
G75*
G03*
X12123140Y-9286875I-40640J0D01*
G01*
X12246890Y-11191875D02*
G75*
G03*
X12246890Y-11191875I-40640J0D01*
G01*
X12723140Y-5476875D02*
G75*
G03*
X12723140Y-5476875I-40640J0D01*
G01*
X12723140Y-7381875D02*
G75*
G03*
X12723140Y-7381875I-40640J0D01*
G01*
X12723140Y-9286875D02*
G75*
G03*
X12723140Y-9286875I-40640J0D01*
G01*
X13551890Y-12144375D02*
G75*
G03*
X13551890Y-12144375I-40640J0D01*
G01*
X13567280Y-4743450D02*
G75*
G03*
X13567280Y-4743450I-40640J0D01*
G01*
X13567280Y-4997450D02*
G75*
G03*
X13567280Y-4997450I-40640J0D01*
G01*
X13567280Y-5251450D02*
G75*
G03*
X13567280Y-5251450I-40640J0D01*
G01*
X13567280Y-5505450D02*
G75*
G03*
X13567280Y-5505450I-40640J0D01*
G01*
X13567280Y-5759450D02*
G75*
G03*
X13567280Y-5759450I-40640J0D01*
G01*
X13567280Y-6013450D02*
G75*
G03*
X13567280Y-6013450I-40640J0D01*
G01*
X13567280Y-6267450D02*
G75*
G03*
X13567280Y-6267450I-40640J0D01*
G01*
X13567280Y-6521450D02*
G75*
G03*
X13567280Y-6521450I-40640J0D01*
G01*
X13567280Y-6775450D02*
G75*
G03*
X13567280Y-6775450I-40640J0D01*
G01*
X13567280Y-7029450D02*
G75*
G03*
X13567280Y-7029450I-40640J0D01*
G01*
X13567280Y-7283450D02*
G75*
G03*
X13567280Y-7283450I-40640J0D01*
G01*
X13567280Y-7537450D02*
G75*
G03*
X13567280Y-7537450I-40640J0D01*
G01*
X14151890Y-12144375D02*
G75*
G03*
X14151890Y-12144375I-40640J0D01*
G01*
X15089280Y-4743450D02*
G75*
G03*
X15089280Y-4743450I-40640J0D01*
G01*
X15089280Y-4997450D02*
G75*
G03*
X15089280Y-4997450I-40640J0D01*
G01*
X15089280Y-5251450D02*
G75*
G03*
X15089280Y-5251450I-40640J0D01*
G01*
X15089280Y-5505450D02*
G75*
G03*
X15089280Y-5505450I-40640J0D01*
G01*
X15089280Y-5759450D02*
G75*
G03*
X15089280Y-5759450I-40640J0D01*
G01*
X15089280Y-6013450D02*
G75*
G03*
X15089280Y-6013450I-40640J0D01*
G01*
X15089280Y-6267450D02*
G75*
G03*
X15089280Y-6267450I-40640J0D01*
G01*
X15089280Y-6521450D02*
G75*
G03*
X15089280Y-6521450I-40640J0D01*
G01*
X15089280Y-6775450D02*
G75*
G03*
X15089280Y-6775450I-40640J0D01*
G01*
X15089280Y-7029450D02*
G75*
G03*
X15089280Y-7029450I-40640J0D01*
G01*
X15089280Y-7283450D02*
G75*
G03*
X15089280Y-7283450I-40640J0D01*
G01*
X15089280Y-7537450D02*
G75*
G03*
X15089280Y-7537450I-40640J0D01*
G01*
D10*
X13985625Y-8788750D02*
X13985625Y-8888750D01*
X13935625Y-8838750D02*
X14035625Y-8838750D01*
D11*
X14010625Y-8788750D02*
X13960625Y-8788750D01*
X13960625Y-8788750D02*
G75*
G03*
X13960625Y-8888750I0J-50000D01*
G01*
X13960625Y-8888750D02*
X14010625Y-8888750D01*
X14010625Y-8888750D02*
G75*
G03*
X14010625Y-8788750I0J50000D01*
G01*
D10*
X14135625Y-9208750D02*
X14135625Y-9308750D01*
X14085625Y-9258750D02*
X14185625Y-9258750D01*
D11*
X14160625Y-9208750D02*
X14110625Y-9208750D01*
X14110625Y-9208750D02*
G75*
G03*
X14110625Y-9308750I0J-50000D01*
G01*
X14110625Y-9308750D02*
X14160625Y-9308750D01*
X14160625Y-9308750D02*
G75*
G03*
X14160625Y-9208750I0J50000D01*
G01*
D10*
X14535625Y-9208750D02*
X14535625Y-9308750D01*
X14485625Y-9258750D02*
X14585625Y-9258750D01*
D11*
X14560625Y-9208750D02*
X14510625Y-9208750D01*
X14510625Y-9208750D02*
G75*
G03*
X14510625Y-9308750I0J-50000D01*
G01*
X14510625Y-9308750D02*
X14560625Y-9308750D01*
X14560625Y-9308750D02*
G75*
G03*
X14560625Y-9208750I0J50000D01*
G01*
D10*
X14835625Y-9208750D02*
X14835625Y-9308750D01*
X14785625Y-9258750D02*
X14885625Y-9258750D01*
D11*
X14860625Y-9208750D02*
X14810625Y-9208750D01*
X14810625Y-9208750D02*
G75*
G03*
X14810625Y-9308750I0J-50000D01*
G01*
X14810625Y-9308750D02*
X14860625Y-9308750D01*
X14860625Y-9308750D02*
G75*
G03*
X14860625Y-9208750I0J50000D01*
G01*
D14*
X15047837Y-7936275D02*
X15047837Y-7844350D01*
X14955913Y-7844350D01*
X14955913Y-7936275D01*
X15047837Y-7936275D01*
X15047837Y-8586275D02*
X15047837Y-8494350D01*
X14955913Y-8494350D01*
X14955913Y-8586275D01*
X15047837Y-8586275D01*
D11*
X2147619Y-12919101D02*
X2147619Y-12719101D01*
X2147619Y-12719101D02*
X2195238Y-12719101D01*
X2195238Y-12719101D02*
X2223810Y-12728625D01*
X2223810Y-12728625D02*
X2242857Y-12747673D01*
X2242857Y-12747673D02*
X2252381Y-12766720D01*
X2252381Y-12766720D02*
X2261905Y-12804815D01*
X2261905Y-12804815D02*
X2261905Y-12833387D01*
X2261905Y-12833387D02*
X2252381Y-12871482D01*
X2252381Y-12871482D02*
X2242857Y-12890530D01*
X2242857Y-12890530D02*
X2223810Y-12909577D01*
X2223810Y-12909577D02*
X2195238Y-12919101D01*
X2195238Y-12919101D02*
X2147619Y-12919101D01*
X2347619Y-12919101D02*
X2347619Y-12785768D01*
X2347619Y-12823863D02*
X2357143Y-12804815D01*
X2357143Y-12804815D02*
X2366667Y-12795292D01*
X2366667Y-12795292D02*
X2385714Y-12785768D01*
X2385714Y-12785768D02*
X2404762Y-12785768D01*
X2471429Y-12919101D02*
X2471429Y-12785768D01*
X2471429Y-12719101D02*
X2461905Y-12728625D01*
X2461905Y-12728625D02*
X2471429Y-12738149D01*
X2471429Y-12738149D02*
X2480952Y-12728625D01*
X2480952Y-12728625D02*
X2471429Y-12719101D01*
X2471429Y-12719101D02*
X2471429Y-12738149D01*
X2595238Y-12919101D02*
X2576190Y-12909577D01*
X2576190Y-12909577D02*
X2566667Y-12890530D01*
X2566667Y-12890530D02*
X2566667Y-12719101D01*
X2700000Y-12919101D02*
X2680952Y-12909577D01*
X2680952Y-12909577D02*
X2671429Y-12890530D01*
X2671429Y-12890530D02*
X2671429Y-12719101D01*
X2896190Y-12919101D02*
X2896190Y-12719101D01*
X2896190Y-12719101D02*
X2962857Y-12861958D01*
X2962857Y-12861958D02*
X3029524Y-12719101D01*
X3029524Y-12719101D02*
X3029524Y-12919101D01*
X3210476Y-12919101D02*
X3210476Y-12814339D01*
X3210476Y-12814339D02*
X3200952Y-12795292D01*
X3200952Y-12795292D02*
X3181905Y-12785768D01*
X3181905Y-12785768D02*
X3143809Y-12785768D01*
X3143809Y-12785768D02*
X3124762Y-12795292D01*
X3210476Y-12909577D02*
X3191428Y-12919101D01*
X3191428Y-12919101D02*
X3143809Y-12919101D01*
X3143809Y-12919101D02*
X3124762Y-12909577D01*
X3124762Y-12909577D02*
X3115238Y-12890530D01*
X3115238Y-12890530D02*
X3115238Y-12871482D01*
X3115238Y-12871482D02*
X3124762Y-12852434D01*
X3124762Y-12852434D02*
X3143809Y-12842911D01*
X3143809Y-12842911D02*
X3191428Y-12842911D01*
X3191428Y-12842911D02*
X3210476Y-12833387D01*
X3305714Y-12785768D02*
X3305714Y-12985768D01*
X3305714Y-12795292D02*
X3324762Y-12785768D01*
X3324762Y-12785768D02*
X3362857Y-12785768D01*
X3362857Y-12785768D02*
X3381905Y-12795292D01*
X3381905Y-12795292D02*
X3391428Y-12804815D01*
X3391428Y-12804815D02*
X3400952Y-12823863D01*
X3400952Y-12823863D02*
X3400952Y-12881006D01*
X3400952Y-12881006D02*
X3391428Y-12900053D01*
X3391428Y-12900053D02*
X3381905Y-12909577D01*
X3381905Y-12909577D02*
X3362857Y-12919101D01*
X3362857Y-12919101D02*
X3324762Y-12919101D01*
X3324762Y-12919101D02*
X3305714Y-12909577D01*
X3486667Y-12900053D02*
X3496190Y-12909577D01*
X3496190Y-12909577D02*
X3486667Y-12919101D01*
X3486667Y-12919101D02*
X3477143Y-12909577D01*
X3477143Y-12909577D02*
X3486667Y-12900053D01*
X3486667Y-12900053D02*
X3486667Y-12919101D01*
X3486667Y-12795292D02*
X3496190Y-12804815D01*
X3496190Y-12804815D02*
X3486667Y-12814339D01*
X3486667Y-12814339D02*
X3477143Y-12804815D01*
X3477143Y-12804815D02*
X3486667Y-12795292D01*
X3486667Y-12795292D02*
X3486667Y-12814339D01*
D12*
X1860000Y-13245625D02*
X1900000Y-13285625D01*
X1900000Y-13245625D02*
X1860000Y-13285625D01*
D11*
X2185714Y-13139101D02*
X2204762Y-13139101D01*
X2204762Y-13139101D02*
X2223810Y-13148625D01*
X2223810Y-13148625D02*
X2233333Y-13158149D01*
X2233333Y-13158149D02*
X2242857Y-13177196D01*
X2242857Y-13177196D02*
X2252381Y-13215292D01*
X2252381Y-13215292D02*
X2252381Y-13262911D01*
X2252381Y-13262911D02*
X2242857Y-13301006D01*
X2242857Y-13301006D02*
X2233333Y-13320053D01*
X2233333Y-13320053D02*
X2223810Y-13329577D01*
X2223810Y-13329577D02*
X2204762Y-13339101D01*
X2204762Y-13339101D02*
X2185714Y-13339101D01*
X2185714Y-13339101D02*
X2166667Y-13329577D01*
X2166667Y-13329577D02*
X2157143Y-13320053D01*
X2157143Y-13320053D02*
X2147619Y-13301006D01*
X2147619Y-13301006D02*
X2138095Y-13262911D01*
X2138095Y-13262911D02*
X2138095Y-13215292D01*
X2138095Y-13215292D02*
X2147619Y-13177196D01*
X2147619Y-13177196D02*
X2157143Y-13158149D01*
X2157143Y-13158149D02*
X2166667Y-13148625D01*
X2166667Y-13148625D02*
X2185714Y-13139101D01*
X2338095Y-13320053D02*
X2347619Y-13329577D01*
X2347619Y-13329577D02*
X2338095Y-13339101D01*
X2338095Y-13339101D02*
X2328571Y-13329577D01*
X2328571Y-13329577D02*
X2338095Y-13320053D01*
X2338095Y-13320053D02*
X2338095Y-13339101D01*
X2519048Y-13205768D02*
X2519048Y-13339101D01*
X2471429Y-13129577D02*
X2423810Y-13272434D01*
X2423810Y-13272434D02*
X2547619Y-13272434D01*
X2661905Y-13139101D02*
X2680952Y-13139101D01*
X2680952Y-13139101D02*
X2700000Y-13148625D01*
X2700000Y-13148625D02*
X2709524Y-13158149D01*
X2709524Y-13158149D02*
X2719048Y-13177196D01*
X2719048Y-13177196D02*
X2728571Y-13215292D01*
X2728571Y-13215292D02*
X2728571Y-13262911D01*
X2728571Y-13262911D02*
X2719048Y-13301006D01*
X2719048Y-13301006D02*
X2709524Y-13320053D01*
X2709524Y-13320053D02*
X2700000Y-13329577D01*
X2700000Y-13329577D02*
X2680952Y-13339101D01*
X2680952Y-13339101D02*
X2661905Y-13339101D01*
X2661905Y-13339101D02*
X2642857Y-13329577D01*
X2642857Y-13329577D02*
X2633333Y-13320053D01*
X2633333Y-13320053D02*
X2623810Y-13301006D01*
X2623810Y-13301006D02*
X2614286Y-13262911D01*
X2614286Y-13262911D02*
X2614286Y-13215292D01*
X2614286Y-13215292D02*
X2623810Y-13177196D01*
X2623810Y-13177196D02*
X2633333Y-13158149D01*
X2633333Y-13158149D02*
X2642857Y-13148625D01*
X2642857Y-13148625D02*
X2661905Y-13139101D01*
X2852381Y-13139101D02*
X2871429Y-13139101D01*
X2871429Y-13139101D02*
X2890476Y-13148625D01*
X2890476Y-13148625D02*
X2900000Y-13158149D01*
X2900000Y-13158149D02*
X2909524Y-13177196D01*
X2909524Y-13177196D02*
X2919048Y-13215292D01*
X2919048Y-13215292D02*
X2919048Y-13262911D01*
X2919048Y-13262911D02*
X2909524Y-13301006D01*
X2909524Y-13301006D02*
X2900000Y-13320053D01*
X2900000Y-13320053D02*
X2890476Y-13329577D01*
X2890476Y-13329577D02*
X2871429Y-13339101D01*
X2871429Y-13339101D02*
X2852381Y-13339101D01*
X2852381Y-13339101D02*
X2833333Y-13329577D01*
X2833333Y-13329577D02*
X2823809Y-13320053D01*
X2823809Y-13320053D02*
X2814286Y-13301006D01*
X2814286Y-13301006D02*
X2804762Y-13262911D01*
X2804762Y-13262911D02*
X2804762Y-13215292D01*
X2804762Y-13215292D02*
X2814286Y-13177196D01*
X2814286Y-13177196D02*
X2823809Y-13158149D01*
X2823809Y-13158149D02*
X2833333Y-13148625D01*
X2833333Y-13148625D02*
X2852381Y-13139101D01*
X3004762Y-13339101D02*
X3004762Y-13205768D01*
X3004762Y-13224815D02*
X3014286Y-13215292D01*
X3014286Y-13215292D02*
X3033333Y-13205768D01*
X3033333Y-13205768D02*
X3061905Y-13205768D01*
X3061905Y-13205768D02*
X3080952Y-13215292D01*
X3080952Y-13215292D02*
X3090476Y-13234339D01*
X3090476Y-13234339D02*
X3090476Y-13339101D01*
X3090476Y-13234339D02*
X3100000Y-13215292D01*
X3100000Y-13215292D02*
X3119048Y-13205768D01*
X3119048Y-13205768D02*
X3147619Y-13205768D01*
X3147619Y-13205768D02*
X3166667Y-13215292D01*
X3166667Y-13215292D02*
X3176190Y-13234339D01*
X3176190Y-13234339D02*
X3176190Y-13339101D01*
X3271429Y-13339101D02*
X3271429Y-13205768D01*
X3271429Y-13224815D02*
X3280952Y-13215292D01*
X3280952Y-13215292D02*
X3300000Y-13205768D01*
X3300000Y-13205768D02*
X3328571Y-13205768D01*
X3328571Y-13205768D02*
X3347619Y-13215292D01*
X3347619Y-13215292D02*
X3357143Y-13234339D01*
X3357143Y-13234339D02*
X3357143Y-13339101D01*
X3357143Y-13234339D02*
X3366667Y-13215292D01*
X3366667Y-13215292D02*
X3385714Y-13205768D01*
X3385714Y-13205768D02*
X3414286Y-13205768D01*
X3414286Y-13205768D02*
X3433333Y-13215292D01*
X3433333Y-13215292D02*
X3442857Y-13234339D01*
X3442857Y-13234339D02*
X3442857Y-13339101D01*
X3800952Y-13129577D02*
X3629524Y-13386720D01*
X4025714Y-13139101D02*
X4044762Y-13139101D01*
X4044762Y-13139101D02*
X4063810Y-13148625D01*
X4063810Y-13148625D02*
X4073333Y-13158149D01*
X4073333Y-13158149D02*
X4082857Y-13177196D01*
X4082857Y-13177196D02*
X4092381Y-13215292D01*
X4092381Y-13215292D02*
X4092381Y-13262911D01*
X4092381Y-13262911D02*
X4082857Y-13301006D01*
X4082857Y-13301006D02*
X4073333Y-13320053D01*
X4073333Y-13320053D02*
X4063810Y-13329577D01*
X4063810Y-13329577D02*
X4044762Y-13339101D01*
X4044762Y-13339101D02*
X4025714Y-13339101D01*
X4025714Y-13339101D02*
X4006667Y-13329577D01*
X4006667Y-13329577D02*
X3997143Y-13320053D01*
X3997143Y-13320053D02*
X3987619Y-13301006D01*
X3987619Y-13301006D02*
X3978095Y-13262911D01*
X3978095Y-13262911D02*
X3978095Y-13215292D01*
X3978095Y-13215292D02*
X3987619Y-13177196D01*
X3987619Y-13177196D02*
X3997143Y-13158149D01*
X3997143Y-13158149D02*
X4006667Y-13148625D01*
X4006667Y-13148625D02*
X4025714Y-13139101D01*
X4178095Y-13320053D02*
X4187619Y-13329577D01*
X4187619Y-13329577D02*
X4178095Y-13339101D01*
X4178095Y-13339101D02*
X4168571Y-13329577D01*
X4168571Y-13329577D02*
X4178095Y-13320053D01*
X4178095Y-13320053D02*
X4178095Y-13339101D01*
X4311429Y-13139101D02*
X4330476Y-13139101D01*
X4330476Y-13139101D02*
X4349524Y-13148625D01*
X4349524Y-13148625D02*
X4359048Y-13158149D01*
X4359048Y-13158149D02*
X4368572Y-13177196D01*
X4368572Y-13177196D02*
X4378095Y-13215292D01*
X4378095Y-13215292D02*
X4378095Y-13262911D01*
X4378095Y-13262911D02*
X4368572Y-13301006D01*
X4368572Y-13301006D02*
X4359048Y-13320053D01*
X4359048Y-13320053D02*
X4349524Y-13329577D01*
X4349524Y-13329577D02*
X4330476Y-13339101D01*
X4330476Y-13339101D02*
X4311429Y-13339101D01*
X4311429Y-13339101D02*
X4292381Y-13329577D01*
X4292381Y-13329577D02*
X4282857Y-13320053D01*
X4282857Y-13320053D02*
X4273333Y-13301006D01*
X4273333Y-13301006D02*
X4263810Y-13262911D01*
X4263810Y-13262911D02*
X4263810Y-13215292D01*
X4263810Y-13215292D02*
X4273333Y-13177196D01*
X4273333Y-13177196D02*
X4282857Y-13158149D01*
X4282857Y-13158149D02*
X4292381Y-13148625D01*
X4292381Y-13148625D02*
X4311429Y-13139101D01*
X4568572Y-13339101D02*
X4454286Y-13339101D01*
X4511429Y-13339101D02*
X4511429Y-13139101D01*
X4511429Y-13139101D02*
X4492381Y-13167673D01*
X4492381Y-13167673D02*
X4473333Y-13186720D01*
X4473333Y-13186720D02*
X4454286Y-13196244D01*
X4749524Y-13139101D02*
X4654286Y-13139101D01*
X4654286Y-13139101D02*
X4644762Y-13234339D01*
X4644762Y-13234339D02*
X4654286Y-13224815D01*
X4654286Y-13224815D02*
X4673333Y-13215292D01*
X4673333Y-13215292D02*
X4720953Y-13215292D01*
X4720953Y-13215292D02*
X4740000Y-13224815D01*
X4740000Y-13224815D02*
X4749524Y-13234339D01*
X4749524Y-13234339D02*
X4759048Y-13253387D01*
X4759048Y-13253387D02*
X4759048Y-13301006D01*
X4759048Y-13301006D02*
X4749524Y-13320053D01*
X4749524Y-13320053D02*
X4740000Y-13329577D01*
X4740000Y-13329577D02*
X4720953Y-13339101D01*
X4720953Y-13339101D02*
X4673333Y-13339101D01*
X4673333Y-13339101D02*
X4654286Y-13329577D01*
X4654286Y-13329577D02*
X4644762Y-13320053D01*
X4825714Y-13139101D02*
X4959048Y-13139101D01*
X4959048Y-13139101D02*
X4873333Y-13339101D01*
X5025714Y-13139101D02*
X5025714Y-13177196D01*
X5101905Y-13139101D02*
X5101905Y-13177196D01*
X5364762Y-13415292D02*
X5355238Y-13405768D01*
X5355238Y-13405768D02*
X5336191Y-13377196D01*
X5336191Y-13377196D02*
X5326667Y-13358149D01*
X5326667Y-13358149D02*
X5317143Y-13329577D01*
X5317143Y-13329577D02*
X5307619Y-13281958D01*
X5307619Y-13281958D02*
X5307619Y-13243863D01*
X5307619Y-13243863D02*
X5317143Y-13196244D01*
X5317143Y-13196244D02*
X5326667Y-13167673D01*
X5326667Y-13167673D02*
X5336191Y-13148625D01*
X5336191Y-13148625D02*
X5355238Y-13120053D01*
X5355238Y-13120053D02*
X5364762Y-13110530D01*
X5450476Y-13339101D02*
X5488572Y-13339101D01*
X5488572Y-13339101D02*
X5507619Y-13329577D01*
X5507619Y-13329577D02*
X5517143Y-13320053D01*
X5517143Y-13320053D02*
X5536191Y-13291482D01*
X5536191Y-13291482D02*
X5545714Y-13253387D01*
X5545714Y-13253387D02*
X5545714Y-13177196D01*
X5545714Y-13177196D02*
X5536191Y-13158149D01*
X5536191Y-13158149D02*
X5526667Y-13148625D01*
X5526667Y-13148625D02*
X5507619Y-13139101D01*
X5507619Y-13139101D02*
X5469524Y-13139101D01*
X5469524Y-13139101D02*
X5450476Y-13148625D01*
X5450476Y-13148625D02*
X5440953Y-13158149D01*
X5440953Y-13158149D02*
X5431429Y-13177196D01*
X5431429Y-13177196D02*
X5431429Y-13224815D01*
X5431429Y-13224815D02*
X5440953Y-13243863D01*
X5440953Y-13243863D02*
X5450476Y-13253387D01*
X5450476Y-13253387D02*
X5469524Y-13262911D01*
X5469524Y-13262911D02*
X5507619Y-13262911D01*
X5507619Y-13262911D02*
X5526667Y-13253387D01*
X5526667Y-13253387D02*
X5536191Y-13243863D01*
X5536191Y-13243863D02*
X5545714Y-13224815D01*
X5726667Y-13139101D02*
X5631429Y-13139101D01*
X5631429Y-13139101D02*
X5621905Y-13234339D01*
X5621905Y-13234339D02*
X5631429Y-13224815D01*
X5631429Y-13224815D02*
X5650476Y-13215292D01*
X5650476Y-13215292D02*
X5698095Y-13215292D01*
X5698095Y-13215292D02*
X5717143Y-13224815D01*
X5717143Y-13224815D02*
X5726667Y-13234339D01*
X5726667Y-13234339D02*
X5736191Y-13253387D01*
X5736191Y-13253387D02*
X5736191Y-13301006D01*
X5736191Y-13301006D02*
X5726667Y-13320053D01*
X5726667Y-13320053D02*
X5717143Y-13329577D01*
X5717143Y-13329577D02*
X5698095Y-13339101D01*
X5698095Y-13339101D02*
X5650476Y-13339101D01*
X5650476Y-13339101D02*
X5631429Y-13329577D01*
X5631429Y-13329577D02*
X5621905Y-13320053D01*
X5941905Y-13339101D02*
X5941905Y-13139101D01*
X6027619Y-13339101D02*
X6027619Y-13234339D01*
X6027619Y-13234339D02*
X6018095Y-13215292D01*
X6018095Y-13215292D02*
X5999048Y-13205768D01*
X5999048Y-13205768D02*
X5970476Y-13205768D01*
X5970476Y-13205768D02*
X5951429Y-13215292D01*
X5951429Y-13215292D02*
X5941905Y-13224815D01*
X6151429Y-13339101D02*
X6132381Y-13329577D01*
X6132381Y-13329577D02*
X6122857Y-13320053D01*
X6122857Y-13320053D02*
X6113333Y-13301006D01*
X6113333Y-13301006D02*
X6113333Y-13243863D01*
X6113333Y-13243863D02*
X6122857Y-13224815D01*
X6122857Y-13224815D02*
X6132381Y-13215292D01*
X6132381Y-13215292D02*
X6151429Y-13205768D01*
X6151429Y-13205768D02*
X6180000Y-13205768D01*
X6180000Y-13205768D02*
X6199048Y-13215292D01*
X6199048Y-13215292D02*
X6208572Y-13224815D01*
X6208572Y-13224815D02*
X6218095Y-13243863D01*
X6218095Y-13243863D02*
X6218095Y-13301006D01*
X6218095Y-13301006D02*
X6208572Y-13320053D01*
X6208572Y-13320053D02*
X6199048Y-13329577D01*
X6199048Y-13329577D02*
X6180000Y-13339101D01*
X6180000Y-13339101D02*
X6151429Y-13339101D01*
X6332381Y-13339101D02*
X6313333Y-13329577D01*
X6313333Y-13329577D02*
X6303810Y-13310530D01*
X6303810Y-13310530D02*
X6303810Y-13139101D01*
X6484762Y-13329577D02*
X6465714Y-13339101D01*
X6465714Y-13339101D02*
X6427619Y-13339101D01*
X6427619Y-13339101D02*
X6408572Y-13329577D01*
X6408572Y-13329577D02*
X6399048Y-13310530D01*
X6399048Y-13310530D02*
X6399048Y-13234339D01*
X6399048Y-13234339D02*
X6408572Y-13215292D01*
X6408572Y-13215292D02*
X6427619Y-13205768D01*
X6427619Y-13205768D02*
X6465714Y-13205768D01*
X6465714Y-13205768D02*
X6484762Y-13215292D01*
X6484762Y-13215292D02*
X6494286Y-13234339D01*
X6494286Y-13234339D02*
X6494286Y-13253387D01*
X6494286Y-13253387D02*
X6399048Y-13272434D01*
X6570476Y-13329577D02*
X6589524Y-13339101D01*
X6589524Y-13339101D02*
X6627619Y-13339101D01*
X6627619Y-13339101D02*
X6646667Y-13329577D01*
X6646667Y-13329577D02*
X6656191Y-13310530D01*
X6656191Y-13310530D02*
X6656191Y-13301006D01*
X6656191Y-13301006D02*
X6646667Y-13281958D01*
X6646667Y-13281958D02*
X6627619Y-13272434D01*
X6627619Y-13272434D02*
X6599048Y-13272434D01*
X6599048Y-13272434D02*
X6580000Y-13262911D01*
X6580000Y-13262911D02*
X6570476Y-13243863D01*
X6570476Y-13243863D02*
X6570476Y-13234339D01*
X6570476Y-13234339D02*
X6580000Y-13215292D01*
X6580000Y-13215292D02*
X6599048Y-13205768D01*
X6599048Y-13205768D02*
X6627619Y-13205768D01*
X6627619Y-13205768D02*
X6646667Y-13215292D01*
X6722857Y-13415292D02*
X6732381Y-13405768D01*
X6732381Y-13405768D02*
X6751429Y-13377196D01*
X6751429Y-13377196D02*
X6760953Y-13358149D01*
X6760953Y-13358149D02*
X6770476Y-13329577D01*
X6770476Y-13329577D02*
X6780000Y-13281958D01*
X6780000Y-13281958D02*
X6780000Y-13243863D01*
X6780000Y-13243863D02*
X6770476Y-13196244D01*
X6770476Y-13196244D02*
X6760953Y-13167673D01*
X6760953Y-13167673D02*
X6751429Y-13148625D01*
X6751429Y-13148625D02*
X6732381Y-13120053D01*
X6732381Y-13120053D02*
X6722857Y-13110530D01*
D13*
X1900000Y-13529625D02*
G75*
G03*
X1900000Y-13529625I-40640J0D01*
G01*
D11*
X2185714Y-13403101D02*
X2204762Y-13403101D01*
X2204762Y-13403101D02*
X2223810Y-13412625D01*
X2223810Y-13412625D02*
X2233333Y-13422149D01*
X2233333Y-13422149D02*
X2242857Y-13441196D01*
X2242857Y-13441196D02*
X2252381Y-13479292D01*
X2252381Y-13479292D02*
X2252381Y-13526911D01*
X2252381Y-13526911D02*
X2242857Y-13565006D01*
X2242857Y-13565006D02*
X2233333Y-13584053D01*
X2233333Y-13584053D02*
X2223810Y-13593577D01*
X2223810Y-13593577D02*
X2204762Y-13603101D01*
X2204762Y-13603101D02*
X2185714Y-13603101D01*
X2185714Y-13603101D02*
X2166667Y-13593577D01*
X2166667Y-13593577D02*
X2157143Y-13584053D01*
X2157143Y-13584053D02*
X2147619Y-13565006D01*
X2147619Y-13565006D02*
X2138095Y-13526911D01*
X2138095Y-13526911D02*
X2138095Y-13479292D01*
X2138095Y-13479292D02*
X2147619Y-13441196D01*
X2147619Y-13441196D02*
X2157143Y-13422149D01*
X2157143Y-13422149D02*
X2166667Y-13412625D01*
X2166667Y-13412625D02*
X2185714Y-13403101D01*
X2338095Y-13584053D02*
X2347619Y-13593577D01*
X2347619Y-13593577D02*
X2338095Y-13603101D01*
X2338095Y-13603101D02*
X2328571Y-13593577D01*
X2328571Y-13593577D02*
X2338095Y-13584053D01*
X2338095Y-13584053D02*
X2338095Y-13603101D01*
X2461905Y-13488815D02*
X2442857Y-13479292D01*
X2442857Y-13479292D02*
X2433333Y-13469768D01*
X2433333Y-13469768D02*
X2423810Y-13450720D01*
X2423810Y-13450720D02*
X2423810Y-13441196D01*
X2423810Y-13441196D02*
X2433333Y-13422149D01*
X2433333Y-13422149D02*
X2442857Y-13412625D01*
X2442857Y-13412625D02*
X2461905Y-13403101D01*
X2461905Y-13403101D02*
X2500000Y-13403101D01*
X2500000Y-13403101D02*
X2519048Y-13412625D01*
X2519048Y-13412625D02*
X2528571Y-13422149D01*
X2528571Y-13422149D02*
X2538095Y-13441196D01*
X2538095Y-13441196D02*
X2538095Y-13450720D01*
X2538095Y-13450720D02*
X2528571Y-13469768D01*
X2528571Y-13469768D02*
X2519048Y-13479292D01*
X2519048Y-13479292D02*
X2500000Y-13488815D01*
X2500000Y-13488815D02*
X2461905Y-13488815D01*
X2461905Y-13488815D02*
X2442857Y-13498339D01*
X2442857Y-13498339D02*
X2433333Y-13507863D01*
X2433333Y-13507863D02*
X2423810Y-13526911D01*
X2423810Y-13526911D02*
X2423810Y-13565006D01*
X2423810Y-13565006D02*
X2433333Y-13584053D01*
X2433333Y-13584053D02*
X2442857Y-13593577D01*
X2442857Y-13593577D02*
X2461905Y-13603101D01*
X2461905Y-13603101D02*
X2500000Y-13603101D01*
X2500000Y-13603101D02*
X2519048Y-13593577D01*
X2519048Y-13593577D02*
X2528571Y-13584053D01*
X2528571Y-13584053D02*
X2538095Y-13565006D01*
X2538095Y-13565006D02*
X2538095Y-13526911D01*
X2538095Y-13526911D02*
X2528571Y-13507863D01*
X2528571Y-13507863D02*
X2519048Y-13498339D01*
X2519048Y-13498339D02*
X2500000Y-13488815D01*
X2728571Y-13603101D02*
X2614286Y-13603101D01*
X2671429Y-13603101D02*
X2671429Y-13403101D01*
X2671429Y-13403101D02*
X2652381Y-13431673D01*
X2652381Y-13431673D02*
X2633333Y-13450720D01*
X2633333Y-13450720D02*
X2614286Y-13460244D01*
X2795238Y-13403101D02*
X2919048Y-13403101D01*
X2919048Y-13403101D02*
X2852381Y-13479292D01*
X2852381Y-13479292D02*
X2880952Y-13479292D01*
X2880952Y-13479292D02*
X2900000Y-13488815D01*
X2900000Y-13488815D02*
X2909524Y-13498339D01*
X2909524Y-13498339D02*
X2919048Y-13517387D01*
X2919048Y-13517387D02*
X2919048Y-13565006D01*
X2919048Y-13565006D02*
X2909524Y-13584053D01*
X2909524Y-13584053D02*
X2900000Y-13593577D01*
X2900000Y-13593577D02*
X2880952Y-13603101D01*
X2880952Y-13603101D02*
X2823809Y-13603101D01*
X2823809Y-13603101D02*
X2804762Y-13593577D01*
X2804762Y-13593577D02*
X2795238Y-13584053D01*
X3004762Y-13603101D02*
X3004762Y-13469768D01*
X3004762Y-13488815D02*
X3014286Y-13479292D01*
X3014286Y-13479292D02*
X3033333Y-13469768D01*
X3033333Y-13469768D02*
X3061905Y-13469768D01*
X3061905Y-13469768D02*
X3080952Y-13479292D01*
X3080952Y-13479292D02*
X3090476Y-13498339D01*
X3090476Y-13498339D02*
X3090476Y-13603101D01*
X3090476Y-13498339D02*
X3100000Y-13479292D01*
X3100000Y-13479292D02*
X3119048Y-13469768D01*
X3119048Y-13469768D02*
X3147619Y-13469768D01*
X3147619Y-13469768D02*
X3166667Y-13479292D01*
X3166667Y-13479292D02*
X3176190Y-13498339D01*
X3176190Y-13498339D02*
X3176190Y-13603101D01*
X3271429Y-13603101D02*
X3271429Y-13469768D01*
X3271429Y-13488815D02*
X3280952Y-13479292D01*
X3280952Y-13479292D02*
X3300000Y-13469768D01*
X3300000Y-13469768D02*
X3328571Y-13469768D01*
X3328571Y-13469768D02*
X3347619Y-13479292D01*
X3347619Y-13479292D02*
X3357143Y-13498339D01*
X3357143Y-13498339D02*
X3357143Y-13603101D01*
X3357143Y-13498339D02*
X3366667Y-13479292D01*
X3366667Y-13479292D02*
X3385714Y-13469768D01*
X3385714Y-13469768D02*
X3414286Y-13469768D01*
X3414286Y-13469768D02*
X3433333Y-13479292D01*
X3433333Y-13479292D02*
X3442857Y-13498339D01*
X3442857Y-13498339D02*
X3442857Y-13603101D01*
X3800952Y-13393577D02*
X3629524Y-13650720D01*
X4025714Y-13403101D02*
X4044762Y-13403101D01*
X4044762Y-13403101D02*
X4063810Y-13412625D01*
X4063810Y-13412625D02*
X4073333Y-13422149D01*
X4073333Y-13422149D02*
X4082857Y-13441196D01*
X4082857Y-13441196D02*
X4092381Y-13479292D01*
X4092381Y-13479292D02*
X4092381Y-13526911D01*
X4092381Y-13526911D02*
X4082857Y-13565006D01*
X4082857Y-13565006D02*
X4073333Y-13584053D01*
X4073333Y-13584053D02*
X4063810Y-13593577D01*
X4063810Y-13593577D02*
X4044762Y-13603101D01*
X4044762Y-13603101D02*
X4025714Y-13603101D01*
X4025714Y-13603101D02*
X4006667Y-13593577D01*
X4006667Y-13593577D02*
X3997143Y-13584053D01*
X3997143Y-13584053D02*
X3987619Y-13565006D01*
X3987619Y-13565006D02*
X3978095Y-13526911D01*
X3978095Y-13526911D02*
X3978095Y-13479292D01*
X3978095Y-13479292D02*
X3987619Y-13441196D01*
X3987619Y-13441196D02*
X3997143Y-13422149D01*
X3997143Y-13422149D02*
X4006667Y-13412625D01*
X4006667Y-13412625D02*
X4025714Y-13403101D01*
X4178095Y-13584053D02*
X4187619Y-13593577D01*
X4187619Y-13593577D02*
X4178095Y-13603101D01*
X4178095Y-13603101D02*
X4168571Y-13593577D01*
X4168571Y-13593577D02*
X4178095Y-13584053D01*
X4178095Y-13584053D02*
X4178095Y-13603101D01*
X4311429Y-13403101D02*
X4330476Y-13403101D01*
X4330476Y-13403101D02*
X4349524Y-13412625D01*
X4349524Y-13412625D02*
X4359048Y-13422149D01*
X4359048Y-13422149D02*
X4368572Y-13441196D01*
X4368572Y-13441196D02*
X4378095Y-13479292D01*
X4378095Y-13479292D02*
X4378095Y-13526911D01*
X4378095Y-13526911D02*
X4368572Y-13565006D01*
X4368572Y-13565006D02*
X4359048Y-13584053D01*
X4359048Y-13584053D02*
X4349524Y-13593577D01*
X4349524Y-13593577D02*
X4330476Y-13603101D01*
X4330476Y-13603101D02*
X4311429Y-13603101D01*
X4311429Y-13603101D02*
X4292381Y-13593577D01*
X4292381Y-13593577D02*
X4282857Y-13584053D01*
X4282857Y-13584053D02*
X4273333Y-13565006D01*
X4273333Y-13565006D02*
X4263810Y-13526911D01*
X4263810Y-13526911D02*
X4263810Y-13479292D01*
X4263810Y-13479292D02*
X4273333Y-13441196D01*
X4273333Y-13441196D02*
X4282857Y-13422149D01*
X4282857Y-13422149D02*
X4292381Y-13412625D01*
X4292381Y-13412625D02*
X4311429Y-13403101D01*
X4444762Y-13403101D02*
X4568572Y-13403101D01*
X4568572Y-13403101D02*
X4501905Y-13479292D01*
X4501905Y-13479292D02*
X4530476Y-13479292D01*
X4530476Y-13479292D02*
X4549524Y-13488815D01*
X4549524Y-13488815D02*
X4559048Y-13498339D01*
X4559048Y-13498339D02*
X4568572Y-13517387D01*
X4568572Y-13517387D02*
X4568572Y-13565006D01*
X4568572Y-13565006D02*
X4559048Y-13584053D01*
X4559048Y-13584053D02*
X4549524Y-13593577D01*
X4549524Y-13593577D02*
X4530476Y-13603101D01*
X4530476Y-13603101D02*
X4473333Y-13603101D01*
X4473333Y-13603101D02*
X4454286Y-13593577D01*
X4454286Y-13593577D02*
X4444762Y-13584053D01*
X4644762Y-13422149D02*
X4654286Y-13412625D01*
X4654286Y-13412625D02*
X4673333Y-13403101D01*
X4673333Y-13403101D02*
X4720953Y-13403101D01*
X4720953Y-13403101D02*
X4740000Y-13412625D01*
X4740000Y-13412625D02*
X4749524Y-13422149D01*
X4749524Y-13422149D02*
X4759048Y-13441196D01*
X4759048Y-13441196D02*
X4759048Y-13460244D01*
X4759048Y-13460244D02*
X4749524Y-13488815D01*
X4749524Y-13488815D02*
X4635238Y-13603101D01*
X4635238Y-13603101D02*
X4759048Y-13603101D01*
X4882857Y-13403101D02*
X4901905Y-13403101D01*
X4901905Y-13403101D02*
X4920953Y-13412625D01*
X4920953Y-13412625D02*
X4930476Y-13422149D01*
X4930476Y-13422149D02*
X4940000Y-13441196D01*
X4940000Y-13441196D02*
X4949524Y-13479292D01*
X4949524Y-13479292D02*
X4949524Y-13526911D01*
X4949524Y-13526911D02*
X4940000Y-13565006D01*
X4940000Y-13565006D02*
X4930476Y-13584053D01*
X4930476Y-13584053D02*
X4920953Y-13593577D01*
X4920953Y-13593577D02*
X4901905Y-13603101D01*
X4901905Y-13603101D02*
X4882857Y-13603101D01*
X4882857Y-13603101D02*
X4863810Y-13593577D01*
X4863810Y-13593577D02*
X4854286Y-13584053D01*
X4854286Y-13584053D02*
X4844762Y-13565006D01*
X4844762Y-13565006D02*
X4835238Y-13526911D01*
X4835238Y-13526911D02*
X4835238Y-13479292D01*
X4835238Y-13479292D02*
X4844762Y-13441196D01*
X4844762Y-13441196D02*
X4854286Y-13422149D01*
X4854286Y-13422149D02*
X4863810Y-13412625D01*
X4863810Y-13412625D02*
X4882857Y-13403101D01*
X5025714Y-13403101D02*
X5025714Y-13441196D01*
X5101905Y-13403101D02*
X5101905Y-13441196D01*
X5364762Y-13679292D02*
X5355238Y-13669768D01*
X5355238Y-13669768D02*
X5336191Y-13641196D01*
X5336191Y-13641196D02*
X5326667Y-13622149D01*
X5326667Y-13622149D02*
X5317143Y-13593577D01*
X5317143Y-13593577D02*
X5307619Y-13545958D01*
X5307619Y-13545958D02*
X5307619Y-13507863D01*
X5307619Y-13507863D02*
X5317143Y-13460244D01*
X5317143Y-13460244D02*
X5326667Y-13431673D01*
X5326667Y-13431673D02*
X5336191Y-13412625D01*
X5336191Y-13412625D02*
X5355238Y-13384053D01*
X5355238Y-13384053D02*
X5364762Y-13374530D01*
X5526667Y-13403101D02*
X5488572Y-13403101D01*
X5488572Y-13403101D02*
X5469524Y-13412625D01*
X5469524Y-13412625D02*
X5460000Y-13422149D01*
X5460000Y-13422149D02*
X5440953Y-13450720D01*
X5440953Y-13450720D02*
X5431429Y-13488815D01*
X5431429Y-13488815D02*
X5431429Y-13565006D01*
X5431429Y-13565006D02*
X5440953Y-13584053D01*
X5440953Y-13584053D02*
X5450476Y-13593577D01*
X5450476Y-13593577D02*
X5469524Y-13603101D01*
X5469524Y-13603101D02*
X5507619Y-13603101D01*
X5507619Y-13603101D02*
X5526667Y-13593577D01*
X5526667Y-13593577D02*
X5536191Y-13584053D01*
X5536191Y-13584053D02*
X5545714Y-13565006D01*
X5545714Y-13565006D02*
X5545714Y-13517387D01*
X5545714Y-13517387D02*
X5536191Y-13498339D01*
X5536191Y-13498339D02*
X5526667Y-13488815D01*
X5526667Y-13488815D02*
X5507619Y-13479292D01*
X5507619Y-13479292D02*
X5469524Y-13479292D01*
X5469524Y-13479292D02*
X5450476Y-13488815D01*
X5450476Y-13488815D02*
X5440953Y-13498339D01*
X5440953Y-13498339D02*
X5431429Y-13517387D01*
X5660000Y-13488815D02*
X5640952Y-13479292D01*
X5640952Y-13479292D02*
X5631429Y-13469768D01*
X5631429Y-13469768D02*
X5621905Y-13450720D01*
X5621905Y-13450720D02*
X5621905Y-13441196D01*
X5621905Y-13441196D02*
X5631429Y-13422149D01*
X5631429Y-13422149D02*
X5640952Y-13412625D01*
X5640952Y-13412625D02*
X5660000Y-13403101D01*
X5660000Y-13403101D02*
X5698095Y-13403101D01*
X5698095Y-13403101D02*
X5717143Y-13412625D01*
X5717143Y-13412625D02*
X5726667Y-13422149D01*
X5726667Y-13422149D02*
X5736191Y-13441196D01*
X5736191Y-13441196D02*
X5736191Y-13450720D01*
X5736191Y-13450720D02*
X5726667Y-13469768D01*
X5726667Y-13469768D02*
X5717143Y-13479292D01*
X5717143Y-13479292D02*
X5698095Y-13488815D01*
X5698095Y-13488815D02*
X5660000Y-13488815D01*
X5660000Y-13488815D02*
X5640952Y-13498339D01*
X5640952Y-13498339D02*
X5631429Y-13507863D01*
X5631429Y-13507863D02*
X5621905Y-13526911D01*
X5621905Y-13526911D02*
X5621905Y-13565006D01*
X5621905Y-13565006D02*
X5631429Y-13584053D01*
X5631429Y-13584053D02*
X5640952Y-13593577D01*
X5640952Y-13593577D02*
X5660000Y-13603101D01*
X5660000Y-13603101D02*
X5698095Y-13603101D01*
X5698095Y-13603101D02*
X5717143Y-13593577D01*
X5717143Y-13593577D02*
X5726667Y-13584053D01*
X5726667Y-13584053D02*
X5736191Y-13565006D01*
X5736191Y-13565006D02*
X5736191Y-13526911D01*
X5736191Y-13526911D02*
X5726667Y-13507863D01*
X5726667Y-13507863D02*
X5717143Y-13498339D01*
X5717143Y-13498339D02*
X5698095Y-13488815D01*
X5941905Y-13603101D02*
X5941905Y-13403101D01*
X6027619Y-13603101D02*
X6027619Y-13498339D01*
X6027619Y-13498339D02*
X6018095Y-13479292D01*
X6018095Y-13479292D02*
X5999048Y-13469768D01*
X5999048Y-13469768D02*
X5970476Y-13469768D01*
X5970476Y-13469768D02*
X5951429Y-13479292D01*
X5951429Y-13479292D02*
X5941905Y-13488815D01*
X6151429Y-13603101D02*
X6132381Y-13593577D01*
X6132381Y-13593577D02*
X6122857Y-13584053D01*
X6122857Y-13584053D02*
X6113333Y-13565006D01*
X6113333Y-13565006D02*
X6113333Y-13507863D01*
X6113333Y-13507863D02*
X6122857Y-13488815D01*
X6122857Y-13488815D02*
X6132381Y-13479292D01*
X6132381Y-13479292D02*
X6151429Y-13469768D01*
X6151429Y-13469768D02*
X6180000Y-13469768D01*
X6180000Y-13469768D02*
X6199048Y-13479292D01*
X6199048Y-13479292D02*
X6208572Y-13488815D01*
X6208572Y-13488815D02*
X6218095Y-13507863D01*
X6218095Y-13507863D02*
X6218095Y-13565006D01*
X6218095Y-13565006D02*
X6208572Y-13584053D01*
X6208572Y-13584053D02*
X6199048Y-13593577D01*
X6199048Y-13593577D02*
X6180000Y-13603101D01*
X6180000Y-13603101D02*
X6151429Y-13603101D01*
X6332381Y-13603101D02*
X6313333Y-13593577D01*
X6313333Y-13593577D02*
X6303810Y-13574530D01*
X6303810Y-13574530D02*
X6303810Y-13403101D01*
X6484762Y-13593577D02*
X6465714Y-13603101D01*
X6465714Y-13603101D02*
X6427619Y-13603101D01*
X6427619Y-13603101D02*
X6408572Y-13593577D01*
X6408572Y-13593577D02*
X6399048Y-13574530D01*
X6399048Y-13574530D02*
X6399048Y-13498339D01*
X6399048Y-13498339D02*
X6408572Y-13479292D01*
X6408572Y-13479292D02*
X6427619Y-13469768D01*
X6427619Y-13469768D02*
X6465714Y-13469768D01*
X6465714Y-13469768D02*
X6484762Y-13479292D01*
X6484762Y-13479292D02*
X6494286Y-13498339D01*
X6494286Y-13498339D02*
X6494286Y-13517387D01*
X6494286Y-13517387D02*
X6399048Y-13536434D01*
X6570476Y-13593577D02*
X6589524Y-13603101D01*
X6589524Y-13603101D02*
X6627619Y-13603101D01*
X6627619Y-13603101D02*
X6646667Y-13593577D01*
X6646667Y-13593577D02*
X6656191Y-13574530D01*
X6656191Y-13574530D02*
X6656191Y-13565006D01*
X6656191Y-13565006D02*
X6646667Y-13545958D01*
X6646667Y-13545958D02*
X6627619Y-13536434D01*
X6627619Y-13536434D02*
X6599048Y-13536434D01*
X6599048Y-13536434D02*
X6580000Y-13526911D01*
X6580000Y-13526911D02*
X6570476Y-13507863D01*
X6570476Y-13507863D02*
X6570476Y-13498339D01*
X6570476Y-13498339D02*
X6580000Y-13479292D01*
X6580000Y-13479292D02*
X6599048Y-13469768D01*
X6599048Y-13469768D02*
X6627619Y-13469768D01*
X6627619Y-13469768D02*
X6646667Y-13479292D01*
X6722857Y-13679292D02*
X6732381Y-13669768D01*
X6732381Y-13669768D02*
X6751429Y-13641196D01*
X6751429Y-13641196D02*
X6760953Y-13622149D01*
X6760953Y-13622149D02*
X6770476Y-13593577D01*
X6770476Y-13593577D02*
X6780000Y-13545958D01*
X6780000Y-13545958D02*
X6780000Y-13507863D01*
X6780000Y-13507863D02*
X6770476Y-13460244D01*
X6770476Y-13460244D02*
X6760953Y-13431673D01*
X6760953Y-13431673D02*
X6751429Y-13412625D01*
X6751429Y-13412625D02*
X6732381Y-13384053D01*
X6732381Y-13384053D02*
X6722857Y-13374530D01*
D10*
X1850000Y-13743625D02*
X1850000Y-13843625D01*
X1800000Y-13793625D02*
X1900000Y-13793625D01*
D11*
X2252381Y-13867101D02*
X2138095Y-13867101D01*
X2195238Y-13867101D02*
X2195238Y-13667101D01*
X2195238Y-13667101D02*
X2176190Y-13695673D01*
X2176190Y-13695673D02*
X2157143Y-13714720D01*
X2157143Y-13714720D02*
X2138095Y-13724244D01*
X2338095Y-13848053D02*
X2347619Y-13857577D01*
X2347619Y-13857577D02*
X2338095Y-13867101D01*
X2338095Y-13867101D02*
X2328571Y-13857577D01*
X2328571Y-13857577D02*
X2338095Y-13848053D01*
X2338095Y-13848053D02*
X2338095Y-13867101D01*
X2471429Y-13667101D02*
X2490476Y-13667101D01*
X2490476Y-13667101D02*
X2509524Y-13676625D01*
X2509524Y-13676625D02*
X2519048Y-13686149D01*
X2519048Y-13686149D02*
X2528571Y-13705196D01*
X2528571Y-13705196D02*
X2538095Y-13743292D01*
X2538095Y-13743292D02*
X2538095Y-13790911D01*
X2538095Y-13790911D02*
X2528571Y-13829006D01*
X2528571Y-13829006D02*
X2519048Y-13848053D01*
X2519048Y-13848053D02*
X2509524Y-13857577D01*
X2509524Y-13857577D02*
X2490476Y-13867101D01*
X2490476Y-13867101D02*
X2471429Y-13867101D01*
X2471429Y-13867101D02*
X2452381Y-13857577D01*
X2452381Y-13857577D02*
X2442857Y-13848053D01*
X2442857Y-13848053D02*
X2433333Y-13829006D01*
X2433333Y-13829006D02*
X2423810Y-13790911D01*
X2423810Y-13790911D02*
X2423810Y-13743292D01*
X2423810Y-13743292D02*
X2433333Y-13705196D01*
X2433333Y-13705196D02*
X2442857Y-13686149D01*
X2442857Y-13686149D02*
X2452381Y-13676625D01*
X2452381Y-13676625D02*
X2471429Y-13667101D01*
X2661905Y-13667101D02*
X2680952Y-13667101D01*
X2680952Y-13667101D02*
X2700000Y-13676625D01*
X2700000Y-13676625D02*
X2709524Y-13686149D01*
X2709524Y-13686149D02*
X2719048Y-13705196D01*
X2719048Y-13705196D02*
X2728571Y-13743292D01*
X2728571Y-13743292D02*
X2728571Y-13790911D01*
X2728571Y-13790911D02*
X2719048Y-13829006D01*
X2719048Y-13829006D02*
X2709524Y-13848053D01*
X2709524Y-13848053D02*
X2700000Y-13857577D01*
X2700000Y-13857577D02*
X2680952Y-13867101D01*
X2680952Y-13867101D02*
X2661905Y-13867101D01*
X2661905Y-13867101D02*
X2642857Y-13857577D01*
X2642857Y-13857577D02*
X2633333Y-13848053D01*
X2633333Y-13848053D02*
X2623810Y-13829006D01*
X2623810Y-13829006D02*
X2614286Y-13790911D01*
X2614286Y-13790911D02*
X2614286Y-13743292D01*
X2614286Y-13743292D02*
X2623810Y-13705196D01*
X2623810Y-13705196D02*
X2633333Y-13686149D01*
X2633333Y-13686149D02*
X2642857Y-13676625D01*
X2642857Y-13676625D02*
X2661905Y-13667101D01*
X2852381Y-13667101D02*
X2871429Y-13667101D01*
X2871429Y-13667101D02*
X2890476Y-13676625D01*
X2890476Y-13676625D02*
X2900000Y-13686149D01*
X2900000Y-13686149D02*
X2909524Y-13705196D01*
X2909524Y-13705196D02*
X2919048Y-13743292D01*
X2919048Y-13743292D02*
X2919048Y-13790911D01*
X2919048Y-13790911D02*
X2909524Y-13829006D01*
X2909524Y-13829006D02*
X2900000Y-13848053D01*
X2900000Y-13848053D02*
X2890476Y-13857577D01*
X2890476Y-13857577D02*
X2871429Y-13867101D01*
X2871429Y-13867101D02*
X2852381Y-13867101D01*
X2852381Y-13867101D02*
X2833333Y-13857577D01*
X2833333Y-13857577D02*
X2823809Y-13848053D01*
X2823809Y-13848053D02*
X2814286Y-13829006D01*
X2814286Y-13829006D02*
X2804762Y-13790911D01*
X2804762Y-13790911D02*
X2804762Y-13743292D01*
X2804762Y-13743292D02*
X2814286Y-13705196D01*
X2814286Y-13705196D02*
X2823809Y-13686149D01*
X2823809Y-13686149D02*
X2833333Y-13676625D01*
X2833333Y-13676625D02*
X2852381Y-13667101D01*
X3004762Y-13867101D02*
X3004762Y-13733768D01*
X3004762Y-13752815D02*
X3014286Y-13743292D01*
X3014286Y-13743292D02*
X3033333Y-13733768D01*
X3033333Y-13733768D02*
X3061905Y-13733768D01*
X3061905Y-13733768D02*
X3080952Y-13743292D01*
X3080952Y-13743292D02*
X3090476Y-13762339D01*
X3090476Y-13762339D02*
X3090476Y-13867101D01*
X3090476Y-13762339D02*
X3100000Y-13743292D01*
X3100000Y-13743292D02*
X3119048Y-13733768D01*
X3119048Y-13733768D02*
X3147619Y-13733768D01*
X3147619Y-13733768D02*
X3166667Y-13743292D01*
X3166667Y-13743292D02*
X3176190Y-13762339D01*
X3176190Y-13762339D02*
X3176190Y-13867101D01*
X3271429Y-13867101D02*
X3271429Y-13733768D01*
X3271429Y-13752815D02*
X3280952Y-13743292D01*
X3280952Y-13743292D02*
X3300000Y-13733768D01*
X3300000Y-13733768D02*
X3328571Y-13733768D01*
X3328571Y-13733768D02*
X3347619Y-13743292D01*
X3347619Y-13743292D02*
X3357143Y-13762339D01*
X3357143Y-13762339D02*
X3357143Y-13867101D01*
X3357143Y-13762339D02*
X3366667Y-13743292D01*
X3366667Y-13743292D02*
X3385714Y-13733768D01*
X3385714Y-13733768D02*
X3414286Y-13733768D01*
X3414286Y-13733768D02*
X3433333Y-13743292D01*
X3433333Y-13743292D02*
X3442857Y-13762339D01*
X3442857Y-13762339D02*
X3442857Y-13867101D01*
X3800952Y-13657577D02*
X3629524Y-13914720D01*
X4025714Y-13667101D02*
X4044762Y-13667101D01*
X4044762Y-13667101D02*
X4063810Y-13676625D01*
X4063810Y-13676625D02*
X4073333Y-13686149D01*
X4073333Y-13686149D02*
X4082857Y-13705196D01*
X4082857Y-13705196D02*
X4092381Y-13743292D01*
X4092381Y-13743292D02*
X4092381Y-13790911D01*
X4092381Y-13790911D02*
X4082857Y-13829006D01*
X4082857Y-13829006D02*
X4073333Y-13848053D01*
X4073333Y-13848053D02*
X4063810Y-13857577D01*
X4063810Y-13857577D02*
X4044762Y-13867101D01*
X4044762Y-13867101D02*
X4025714Y-13867101D01*
X4025714Y-13867101D02*
X4006667Y-13857577D01*
X4006667Y-13857577D02*
X3997143Y-13848053D01*
X3997143Y-13848053D02*
X3987619Y-13829006D01*
X3987619Y-13829006D02*
X3978095Y-13790911D01*
X3978095Y-13790911D02*
X3978095Y-13743292D01*
X3978095Y-13743292D02*
X3987619Y-13705196D01*
X3987619Y-13705196D02*
X3997143Y-13686149D01*
X3997143Y-13686149D02*
X4006667Y-13676625D01*
X4006667Y-13676625D02*
X4025714Y-13667101D01*
X4178095Y-13848053D02*
X4187619Y-13857577D01*
X4187619Y-13857577D02*
X4178095Y-13867101D01*
X4178095Y-13867101D02*
X4168571Y-13857577D01*
X4168571Y-13857577D02*
X4178095Y-13848053D01*
X4178095Y-13848053D02*
X4178095Y-13867101D01*
X4311429Y-13667101D02*
X4330476Y-13667101D01*
X4330476Y-13667101D02*
X4349524Y-13676625D01*
X4349524Y-13676625D02*
X4359048Y-13686149D01*
X4359048Y-13686149D02*
X4368572Y-13705196D01*
X4368572Y-13705196D02*
X4378095Y-13743292D01*
X4378095Y-13743292D02*
X4378095Y-13790911D01*
X4378095Y-13790911D02*
X4368572Y-13829006D01*
X4368572Y-13829006D02*
X4359048Y-13848053D01*
X4359048Y-13848053D02*
X4349524Y-13857577D01*
X4349524Y-13857577D02*
X4330476Y-13867101D01*
X4330476Y-13867101D02*
X4311429Y-13867101D01*
X4311429Y-13867101D02*
X4292381Y-13857577D01*
X4292381Y-13857577D02*
X4282857Y-13848053D01*
X4282857Y-13848053D02*
X4273333Y-13829006D01*
X4273333Y-13829006D02*
X4263810Y-13790911D01*
X4263810Y-13790911D02*
X4263810Y-13743292D01*
X4263810Y-13743292D02*
X4273333Y-13705196D01*
X4273333Y-13705196D02*
X4282857Y-13686149D01*
X4282857Y-13686149D02*
X4292381Y-13676625D01*
X4292381Y-13676625D02*
X4311429Y-13667101D01*
X4444762Y-13667101D02*
X4568572Y-13667101D01*
X4568572Y-13667101D02*
X4501905Y-13743292D01*
X4501905Y-13743292D02*
X4530476Y-13743292D01*
X4530476Y-13743292D02*
X4549524Y-13752815D01*
X4549524Y-13752815D02*
X4559048Y-13762339D01*
X4559048Y-13762339D02*
X4568572Y-13781387D01*
X4568572Y-13781387D02*
X4568572Y-13829006D01*
X4568572Y-13829006D02*
X4559048Y-13848053D01*
X4559048Y-13848053D02*
X4549524Y-13857577D01*
X4549524Y-13857577D02*
X4530476Y-13867101D01*
X4530476Y-13867101D02*
X4473333Y-13867101D01*
X4473333Y-13867101D02*
X4454286Y-13857577D01*
X4454286Y-13857577D02*
X4444762Y-13848053D01*
X4663810Y-13867101D02*
X4701905Y-13867101D01*
X4701905Y-13867101D02*
X4720953Y-13857577D01*
X4720953Y-13857577D02*
X4730476Y-13848053D01*
X4730476Y-13848053D02*
X4749524Y-13819482D01*
X4749524Y-13819482D02*
X4759048Y-13781387D01*
X4759048Y-13781387D02*
X4759048Y-13705196D01*
X4759048Y-13705196D02*
X4749524Y-13686149D01*
X4749524Y-13686149D02*
X4740000Y-13676625D01*
X4740000Y-13676625D02*
X4720953Y-13667101D01*
X4720953Y-13667101D02*
X4682857Y-13667101D01*
X4682857Y-13667101D02*
X4663810Y-13676625D01*
X4663810Y-13676625D02*
X4654286Y-13686149D01*
X4654286Y-13686149D02*
X4644762Y-13705196D01*
X4644762Y-13705196D02*
X4644762Y-13752815D01*
X4644762Y-13752815D02*
X4654286Y-13771863D01*
X4654286Y-13771863D02*
X4663810Y-13781387D01*
X4663810Y-13781387D02*
X4682857Y-13790911D01*
X4682857Y-13790911D02*
X4720953Y-13790911D01*
X4720953Y-13790911D02*
X4740000Y-13781387D01*
X4740000Y-13781387D02*
X4749524Y-13771863D01*
X4749524Y-13771863D02*
X4759048Y-13752815D01*
X4930476Y-13733768D02*
X4930476Y-13867101D01*
X4882857Y-13657577D02*
X4835238Y-13800434D01*
X4835238Y-13800434D02*
X4959048Y-13800434D01*
X5025714Y-13667101D02*
X5025714Y-13705196D01*
X5101905Y-13667101D02*
X5101905Y-13705196D01*
X5364762Y-13943292D02*
X5355238Y-13933768D01*
X5355238Y-13933768D02*
X5336191Y-13905196D01*
X5336191Y-13905196D02*
X5326667Y-13886149D01*
X5326667Y-13886149D02*
X5317143Y-13857577D01*
X5317143Y-13857577D02*
X5307619Y-13809958D01*
X5307619Y-13809958D02*
X5307619Y-13771863D01*
X5307619Y-13771863D02*
X5317143Y-13724244D01*
X5317143Y-13724244D02*
X5326667Y-13695673D01*
X5326667Y-13695673D02*
X5336191Y-13676625D01*
X5336191Y-13676625D02*
X5355238Y-13648053D01*
X5355238Y-13648053D02*
X5364762Y-13638530D01*
X5479048Y-13667101D02*
X5498095Y-13667101D01*
X5498095Y-13667101D02*
X5517143Y-13676625D01*
X5517143Y-13676625D02*
X5526667Y-13686149D01*
X5526667Y-13686149D02*
X5536191Y-13705196D01*
X5536191Y-13705196D02*
X5545714Y-13743292D01*
X5545714Y-13743292D02*
X5545714Y-13790911D01*
X5545714Y-13790911D02*
X5536191Y-13829006D01*
X5536191Y-13829006D02*
X5526667Y-13848053D01*
X5526667Y-13848053D02*
X5517143Y-13857577D01*
X5517143Y-13857577D02*
X5498095Y-13867101D01*
X5498095Y-13867101D02*
X5479048Y-13867101D01*
X5479048Y-13867101D02*
X5460000Y-13857577D01*
X5460000Y-13857577D02*
X5450476Y-13848053D01*
X5450476Y-13848053D02*
X5440953Y-13829006D01*
X5440953Y-13829006D02*
X5431429Y-13790911D01*
X5431429Y-13790911D02*
X5431429Y-13743292D01*
X5431429Y-13743292D02*
X5440953Y-13705196D01*
X5440953Y-13705196D02*
X5450476Y-13686149D01*
X5450476Y-13686149D02*
X5460000Y-13676625D01*
X5460000Y-13676625D02*
X5479048Y-13667101D01*
X5751429Y-13867101D02*
X5751429Y-13667101D01*
X5837143Y-13867101D02*
X5837143Y-13762339D01*
X5837143Y-13762339D02*
X5827619Y-13743292D01*
X5827619Y-13743292D02*
X5808572Y-13733768D01*
X5808572Y-13733768D02*
X5780000Y-13733768D01*
X5780000Y-13733768D02*
X5760952Y-13743292D01*
X5760952Y-13743292D02*
X5751429Y-13752815D01*
X5960952Y-13867101D02*
X5941905Y-13857577D01*
X5941905Y-13857577D02*
X5932381Y-13848053D01*
X5932381Y-13848053D02*
X5922857Y-13829006D01*
X5922857Y-13829006D02*
X5922857Y-13771863D01*
X5922857Y-13771863D02*
X5932381Y-13752815D01*
X5932381Y-13752815D02*
X5941905Y-13743292D01*
X5941905Y-13743292D02*
X5960952Y-13733768D01*
X5960952Y-13733768D02*
X5989524Y-13733768D01*
X5989524Y-13733768D02*
X6008572Y-13743292D01*
X6008572Y-13743292D02*
X6018095Y-13752815D01*
X6018095Y-13752815D02*
X6027619Y-13771863D01*
X6027619Y-13771863D02*
X6027619Y-13829006D01*
X6027619Y-13829006D02*
X6018095Y-13848053D01*
X6018095Y-13848053D02*
X6008572Y-13857577D01*
X6008572Y-13857577D02*
X5989524Y-13867101D01*
X5989524Y-13867101D02*
X5960952Y-13867101D01*
X6141905Y-13867101D02*
X6122857Y-13857577D01*
X6122857Y-13857577D02*
X6113333Y-13838530D01*
X6113333Y-13838530D02*
X6113333Y-13667101D01*
X6294286Y-13857577D02*
X6275238Y-13867101D01*
X6275238Y-13867101D02*
X6237143Y-13867101D01*
X6237143Y-13867101D02*
X6218095Y-13857577D01*
X6218095Y-13857577D02*
X6208572Y-13838530D01*
X6208572Y-13838530D02*
X6208572Y-13762339D01*
X6208572Y-13762339D02*
X6218095Y-13743292D01*
X6218095Y-13743292D02*
X6237143Y-13733768D01*
X6237143Y-13733768D02*
X6275238Y-13733768D01*
X6275238Y-13733768D02*
X6294286Y-13743292D01*
X6294286Y-13743292D02*
X6303810Y-13762339D01*
X6303810Y-13762339D02*
X6303810Y-13781387D01*
X6303810Y-13781387D02*
X6208572Y-13800434D01*
X6380000Y-13857577D02*
X6399048Y-13867101D01*
X6399048Y-13867101D02*
X6437143Y-13867101D01*
X6437143Y-13867101D02*
X6456191Y-13857577D01*
X6456191Y-13857577D02*
X6465714Y-13838530D01*
X6465714Y-13838530D02*
X6465714Y-13829006D01*
X6465714Y-13829006D02*
X6456191Y-13809958D01*
X6456191Y-13809958D02*
X6437143Y-13800434D01*
X6437143Y-13800434D02*
X6408572Y-13800434D01*
X6408572Y-13800434D02*
X6389524Y-13790911D01*
X6389524Y-13790911D02*
X6380000Y-13771863D01*
X6380000Y-13771863D02*
X6380000Y-13762339D01*
X6380000Y-13762339D02*
X6389524Y-13743292D01*
X6389524Y-13743292D02*
X6408572Y-13733768D01*
X6408572Y-13733768D02*
X6437143Y-13733768D01*
X6437143Y-13733768D02*
X6456191Y-13743292D01*
X6671429Y-13790911D02*
X6823810Y-13790911D01*
X6747619Y-13867101D02*
X6747619Y-13714720D01*
X7124762Y-13733768D02*
X7124762Y-13867101D01*
X7077143Y-13657577D02*
X7029524Y-13800434D01*
X7029524Y-13800434D02*
X7153333Y-13800434D01*
X7340000Y-13857577D02*
X7359048Y-13867101D01*
X7359048Y-13867101D02*
X7397143Y-13867101D01*
X7397143Y-13867101D02*
X7416191Y-13857577D01*
X7416191Y-13857577D02*
X7425714Y-13838530D01*
X7425714Y-13838530D02*
X7425714Y-13829006D01*
X7425714Y-13829006D02*
X7416191Y-13809958D01*
X7416191Y-13809958D02*
X7397143Y-13800434D01*
X7397143Y-13800434D02*
X7368572Y-13800434D01*
X7368572Y-13800434D02*
X7349524Y-13790911D01*
X7349524Y-13790911D02*
X7340000Y-13771863D01*
X7340000Y-13771863D02*
X7340000Y-13762339D01*
X7340000Y-13762339D02*
X7349524Y-13743292D01*
X7349524Y-13743292D02*
X7368572Y-13733768D01*
X7368572Y-13733768D02*
X7397143Y-13733768D01*
X7397143Y-13733768D02*
X7416191Y-13743292D01*
X7540000Y-13867101D02*
X7520953Y-13857577D01*
X7520953Y-13857577D02*
X7511429Y-13838530D01*
X7511429Y-13838530D02*
X7511429Y-13667101D01*
X7644762Y-13867101D02*
X7625714Y-13857577D01*
X7625714Y-13857577D02*
X7616191Y-13848053D01*
X7616191Y-13848053D02*
X7606667Y-13829006D01*
X7606667Y-13829006D02*
X7606667Y-13771863D01*
X7606667Y-13771863D02*
X7616191Y-13752815D01*
X7616191Y-13752815D02*
X7625714Y-13743292D01*
X7625714Y-13743292D02*
X7644762Y-13733768D01*
X7644762Y-13733768D02*
X7673334Y-13733768D01*
X7673334Y-13733768D02*
X7692381Y-13743292D01*
X7692381Y-13743292D02*
X7701905Y-13752815D01*
X7701905Y-13752815D02*
X7711429Y-13771863D01*
X7711429Y-13771863D02*
X7711429Y-13829006D01*
X7711429Y-13829006D02*
X7701905Y-13848053D01*
X7701905Y-13848053D02*
X7692381Y-13857577D01*
X7692381Y-13857577D02*
X7673334Y-13867101D01*
X7673334Y-13867101D02*
X7644762Y-13867101D01*
X7768572Y-13733768D02*
X7844762Y-13733768D01*
X7797143Y-13667101D02*
X7797143Y-13838530D01*
X7797143Y-13838530D02*
X7806667Y-13857577D01*
X7806667Y-13857577D02*
X7825714Y-13867101D01*
X7825714Y-13867101D02*
X7844762Y-13867101D01*
X7901905Y-13857577D02*
X7920953Y-13867101D01*
X7920953Y-13867101D02*
X7959048Y-13867101D01*
X7959048Y-13867101D02*
X7978095Y-13857577D01*
X7978095Y-13857577D02*
X7987619Y-13838530D01*
X7987619Y-13838530D02*
X7987619Y-13829006D01*
X7987619Y-13829006D02*
X7978095Y-13809958D01*
X7978095Y-13809958D02*
X7959048Y-13800434D01*
X7959048Y-13800434D02*
X7930476Y-13800434D01*
X7930476Y-13800434D02*
X7911429Y-13790911D01*
X7911429Y-13790911D02*
X7901905Y-13771863D01*
X7901905Y-13771863D02*
X7901905Y-13762339D01*
X7901905Y-13762339D02*
X7911429Y-13743292D01*
X7911429Y-13743292D02*
X7930476Y-13733768D01*
X7930476Y-13733768D02*
X7959048Y-13733768D01*
X7959048Y-13733768D02*
X7978095Y-13743292D01*
X8054286Y-13943292D02*
X8063810Y-13933768D01*
X8063810Y-13933768D02*
X8082857Y-13905196D01*
X8082857Y-13905196D02*
X8092381Y-13886149D01*
X8092381Y-13886149D02*
X8101905Y-13857577D01*
X8101905Y-13857577D02*
X8111429Y-13809958D01*
X8111429Y-13809958D02*
X8111429Y-13771863D01*
X8111429Y-13771863D02*
X8101905Y-13724244D01*
X8101905Y-13724244D02*
X8092381Y-13695673D01*
X8092381Y-13695673D02*
X8082857Y-13676625D01*
X8082857Y-13676625D02*
X8063810Y-13648053D01*
X8063810Y-13648053D02*
X8054286Y-13638530D01*
D14*
X1880962Y-14103587D02*
X1880962Y-14011663D01*
X1789038Y-14011663D01*
X1789038Y-14103587D01*
X1880962Y-14103587D01*
D11*
X2252381Y-14131101D02*
X2138095Y-14131101D01*
X2195238Y-14131101D02*
X2195238Y-13931101D01*
X2195238Y-13931101D02*
X2176190Y-13959673D01*
X2176190Y-13959673D02*
X2157143Y-13978720D01*
X2157143Y-13978720D02*
X2138095Y-13988244D01*
X2338095Y-14112053D02*
X2347619Y-14121577D01*
X2347619Y-14121577D02*
X2338095Y-14131101D01*
X2338095Y-14131101D02*
X2328571Y-14121577D01*
X2328571Y-14121577D02*
X2338095Y-14112053D01*
X2338095Y-14112053D02*
X2338095Y-14131101D01*
X2414286Y-13931101D02*
X2538095Y-13931101D01*
X2538095Y-13931101D02*
X2471429Y-14007292D01*
X2471429Y-14007292D02*
X2500000Y-14007292D01*
X2500000Y-14007292D02*
X2519048Y-14016815D01*
X2519048Y-14016815D02*
X2528571Y-14026339D01*
X2528571Y-14026339D02*
X2538095Y-14045387D01*
X2538095Y-14045387D02*
X2538095Y-14093006D01*
X2538095Y-14093006D02*
X2528571Y-14112053D01*
X2528571Y-14112053D02*
X2519048Y-14121577D01*
X2519048Y-14121577D02*
X2500000Y-14131101D01*
X2500000Y-14131101D02*
X2442857Y-14131101D01*
X2442857Y-14131101D02*
X2423810Y-14121577D01*
X2423810Y-14121577D02*
X2414286Y-14112053D01*
X2661905Y-13931101D02*
X2680952Y-13931101D01*
X2680952Y-13931101D02*
X2700000Y-13940625D01*
X2700000Y-13940625D02*
X2709524Y-13950149D01*
X2709524Y-13950149D02*
X2719048Y-13969196D01*
X2719048Y-13969196D02*
X2728571Y-14007292D01*
X2728571Y-14007292D02*
X2728571Y-14054911D01*
X2728571Y-14054911D02*
X2719048Y-14093006D01*
X2719048Y-14093006D02*
X2709524Y-14112053D01*
X2709524Y-14112053D02*
X2700000Y-14121577D01*
X2700000Y-14121577D02*
X2680952Y-14131101D01*
X2680952Y-14131101D02*
X2661905Y-14131101D01*
X2661905Y-14131101D02*
X2642857Y-14121577D01*
X2642857Y-14121577D02*
X2633333Y-14112053D01*
X2633333Y-14112053D02*
X2623810Y-14093006D01*
X2623810Y-14093006D02*
X2614286Y-14054911D01*
X2614286Y-14054911D02*
X2614286Y-14007292D01*
X2614286Y-14007292D02*
X2623810Y-13969196D01*
X2623810Y-13969196D02*
X2633333Y-13950149D01*
X2633333Y-13950149D02*
X2642857Y-13940625D01*
X2642857Y-13940625D02*
X2661905Y-13931101D01*
X2852381Y-13931101D02*
X2871429Y-13931101D01*
X2871429Y-13931101D02*
X2890476Y-13940625D01*
X2890476Y-13940625D02*
X2900000Y-13950149D01*
X2900000Y-13950149D02*
X2909524Y-13969196D01*
X2909524Y-13969196D02*
X2919048Y-14007292D01*
X2919048Y-14007292D02*
X2919048Y-14054911D01*
X2919048Y-14054911D02*
X2909524Y-14093006D01*
X2909524Y-14093006D02*
X2900000Y-14112053D01*
X2900000Y-14112053D02*
X2890476Y-14121577D01*
X2890476Y-14121577D02*
X2871429Y-14131101D01*
X2871429Y-14131101D02*
X2852381Y-14131101D01*
X2852381Y-14131101D02*
X2833333Y-14121577D01*
X2833333Y-14121577D02*
X2823809Y-14112053D01*
X2823809Y-14112053D02*
X2814286Y-14093006D01*
X2814286Y-14093006D02*
X2804762Y-14054911D01*
X2804762Y-14054911D02*
X2804762Y-14007292D01*
X2804762Y-14007292D02*
X2814286Y-13969196D01*
X2814286Y-13969196D02*
X2823809Y-13950149D01*
X2823809Y-13950149D02*
X2833333Y-13940625D01*
X2833333Y-13940625D02*
X2852381Y-13931101D01*
X3004762Y-14131101D02*
X3004762Y-13997768D01*
X3004762Y-14016815D02*
X3014286Y-14007292D01*
X3014286Y-14007292D02*
X3033333Y-13997768D01*
X3033333Y-13997768D02*
X3061905Y-13997768D01*
X3061905Y-13997768D02*
X3080952Y-14007292D01*
X3080952Y-14007292D02*
X3090476Y-14026339D01*
X3090476Y-14026339D02*
X3090476Y-14131101D01*
X3090476Y-14026339D02*
X3100000Y-14007292D01*
X3100000Y-14007292D02*
X3119048Y-13997768D01*
X3119048Y-13997768D02*
X3147619Y-13997768D01*
X3147619Y-13997768D02*
X3166667Y-14007292D01*
X3166667Y-14007292D02*
X3176190Y-14026339D01*
X3176190Y-14026339D02*
X3176190Y-14131101D01*
X3271429Y-14131101D02*
X3271429Y-13997768D01*
X3271429Y-14016815D02*
X3280952Y-14007292D01*
X3280952Y-14007292D02*
X3300000Y-13997768D01*
X3300000Y-13997768D02*
X3328571Y-13997768D01*
X3328571Y-13997768D02*
X3347619Y-14007292D01*
X3347619Y-14007292D02*
X3357143Y-14026339D01*
X3357143Y-14026339D02*
X3357143Y-14131101D01*
X3357143Y-14026339D02*
X3366667Y-14007292D01*
X3366667Y-14007292D02*
X3385714Y-13997768D01*
X3385714Y-13997768D02*
X3414286Y-13997768D01*
X3414286Y-13997768D02*
X3433333Y-14007292D01*
X3433333Y-14007292D02*
X3442857Y-14026339D01*
X3442857Y-14026339D02*
X3442857Y-14131101D01*
X3800952Y-13921577D02*
X3629524Y-14178720D01*
X4025714Y-13931101D02*
X4044762Y-13931101D01*
X4044762Y-13931101D02*
X4063810Y-13940625D01*
X4063810Y-13940625D02*
X4073333Y-13950149D01*
X4073333Y-13950149D02*
X4082857Y-13969196D01*
X4082857Y-13969196D02*
X4092381Y-14007292D01*
X4092381Y-14007292D02*
X4092381Y-14054911D01*
X4092381Y-14054911D02*
X4082857Y-14093006D01*
X4082857Y-14093006D02*
X4073333Y-14112053D01*
X4073333Y-14112053D02*
X4063810Y-14121577D01*
X4063810Y-14121577D02*
X4044762Y-14131101D01*
X4044762Y-14131101D02*
X4025714Y-14131101D01*
X4025714Y-14131101D02*
X4006667Y-14121577D01*
X4006667Y-14121577D02*
X3997143Y-14112053D01*
X3997143Y-14112053D02*
X3987619Y-14093006D01*
X3987619Y-14093006D02*
X3978095Y-14054911D01*
X3978095Y-14054911D02*
X3978095Y-14007292D01*
X3978095Y-14007292D02*
X3987619Y-13969196D01*
X3987619Y-13969196D02*
X3997143Y-13950149D01*
X3997143Y-13950149D02*
X4006667Y-13940625D01*
X4006667Y-13940625D02*
X4025714Y-13931101D01*
X4178095Y-14112053D02*
X4187619Y-14121577D01*
X4187619Y-14121577D02*
X4178095Y-14131101D01*
X4178095Y-14131101D02*
X4168571Y-14121577D01*
X4168571Y-14121577D02*
X4178095Y-14112053D01*
X4178095Y-14112053D02*
X4178095Y-14131101D01*
X4311429Y-13931101D02*
X4330476Y-13931101D01*
X4330476Y-13931101D02*
X4349524Y-13940625D01*
X4349524Y-13940625D02*
X4359048Y-13950149D01*
X4359048Y-13950149D02*
X4368572Y-13969196D01*
X4368572Y-13969196D02*
X4378095Y-14007292D01*
X4378095Y-14007292D02*
X4378095Y-14054911D01*
X4378095Y-14054911D02*
X4368572Y-14093006D01*
X4368572Y-14093006D02*
X4359048Y-14112053D01*
X4359048Y-14112053D02*
X4349524Y-14121577D01*
X4349524Y-14121577D02*
X4330476Y-14131101D01*
X4330476Y-14131101D02*
X4311429Y-14131101D01*
X4311429Y-14131101D02*
X4292381Y-14121577D01*
X4292381Y-14121577D02*
X4282857Y-14112053D01*
X4282857Y-14112053D02*
X4273333Y-14093006D01*
X4273333Y-14093006D02*
X4263810Y-14054911D01*
X4263810Y-14054911D02*
X4263810Y-14007292D01*
X4263810Y-14007292D02*
X4273333Y-13969196D01*
X4273333Y-13969196D02*
X4282857Y-13950149D01*
X4282857Y-13950149D02*
X4292381Y-13940625D01*
X4292381Y-13940625D02*
X4311429Y-13931101D01*
X4559048Y-13931101D02*
X4463810Y-13931101D01*
X4463810Y-13931101D02*
X4454286Y-14026339D01*
X4454286Y-14026339D02*
X4463810Y-14016815D01*
X4463810Y-14016815D02*
X4482857Y-14007292D01*
X4482857Y-14007292D02*
X4530476Y-14007292D01*
X4530476Y-14007292D02*
X4549524Y-14016815D01*
X4549524Y-14016815D02*
X4559048Y-14026339D01*
X4559048Y-14026339D02*
X4568572Y-14045387D01*
X4568572Y-14045387D02*
X4568572Y-14093006D01*
X4568572Y-14093006D02*
X4559048Y-14112053D01*
X4559048Y-14112053D02*
X4549524Y-14121577D01*
X4549524Y-14121577D02*
X4530476Y-14131101D01*
X4530476Y-14131101D02*
X4482857Y-14131101D01*
X4482857Y-14131101D02*
X4463810Y-14121577D01*
X4463810Y-14121577D02*
X4454286Y-14112053D01*
X4759048Y-14131101D02*
X4644762Y-14131101D01*
X4701905Y-14131101D02*
X4701905Y-13931101D01*
X4701905Y-13931101D02*
X4682857Y-13959673D01*
X4682857Y-13959673D02*
X4663810Y-13978720D01*
X4663810Y-13978720D02*
X4644762Y-13988244D01*
X4835238Y-13950149D02*
X4844762Y-13940625D01*
X4844762Y-13940625D02*
X4863810Y-13931101D01*
X4863810Y-13931101D02*
X4911429Y-13931101D01*
X4911429Y-13931101D02*
X4930476Y-13940625D01*
X4930476Y-13940625D02*
X4940000Y-13950149D01*
X4940000Y-13950149D02*
X4949524Y-13969196D01*
X4949524Y-13969196D02*
X4949524Y-13988244D01*
X4949524Y-13988244D02*
X4940000Y-14016815D01*
X4940000Y-14016815D02*
X4825714Y-14131101D01*
X4825714Y-14131101D02*
X4949524Y-14131101D01*
X5025714Y-13931101D02*
X5025714Y-13969196D01*
X5101905Y-13931101D02*
X5101905Y-13969196D01*
X5364762Y-14207292D02*
X5355238Y-14197768D01*
X5355238Y-14197768D02*
X5336191Y-14169196D01*
X5336191Y-14169196D02*
X5326667Y-14150149D01*
X5326667Y-14150149D02*
X5317143Y-14121577D01*
X5317143Y-14121577D02*
X5307619Y-14073958D01*
X5307619Y-14073958D02*
X5307619Y-14035863D01*
X5307619Y-14035863D02*
X5317143Y-13988244D01*
X5317143Y-13988244D02*
X5326667Y-13959673D01*
X5326667Y-13959673D02*
X5336191Y-13940625D01*
X5336191Y-13940625D02*
X5355238Y-13912053D01*
X5355238Y-13912053D02*
X5364762Y-13902530D01*
X5431429Y-13950149D02*
X5440953Y-13940625D01*
X5440953Y-13940625D02*
X5460000Y-13931101D01*
X5460000Y-13931101D02*
X5507619Y-13931101D01*
X5507619Y-13931101D02*
X5526667Y-13940625D01*
X5526667Y-13940625D02*
X5536191Y-13950149D01*
X5536191Y-13950149D02*
X5545714Y-13969196D01*
X5545714Y-13969196D02*
X5545714Y-13988244D01*
X5545714Y-13988244D02*
X5536191Y-14016815D01*
X5536191Y-14016815D02*
X5421905Y-14131101D01*
X5421905Y-14131101D02*
X5545714Y-14131101D01*
X5751429Y-14131101D02*
X5751429Y-13931101D01*
X5837143Y-14131101D02*
X5837143Y-14026339D01*
X5837143Y-14026339D02*
X5827619Y-14007292D01*
X5827619Y-14007292D02*
X5808572Y-13997768D01*
X5808572Y-13997768D02*
X5780000Y-13997768D01*
X5780000Y-13997768D02*
X5760952Y-14007292D01*
X5760952Y-14007292D02*
X5751429Y-14016815D01*
X5960952Y-14131101D02*
X5941905Y-14121577D01*
X5941905Y-14121577D02*
X5932381Y-14112053D01*
X5932381Y-14112053D02*
X5922857Y-14093006D01*
X5922857Y-14093006D02*
X5922857Y-14035863D01*
X5922857Y-14035863D02*
X5932381Y-14016815D01*
X5932381Y-14016815D02*
X5941905Y-14007292D01*
X5941905Y-14007292D02*
X5960952Y-13997768D01*
X5960952Y-13997768D02*
X5989524Y-13997768D01*
X5989524Y-13997768D02*
X6008572Y-14007292D01*
X6008572Y-14007292D02*
X6018095Y-14016815D01*
X6018095Y-14016815D02*
X6027619Y-14035863D01*
X6027619Y-14035863D02*
X6027619Y-14093006D01*
X6027619Y-14093006D02*
X6018095Y-14112053D01*
X6018095Y-14112053D02*
X6008572Y-14121577D01*
X6008572Y-14121577D02*
X5989524Y-14131101D01*
X5989524Y-14131101D02*
X5960952Y-14131101D01*
X6141905Y-14131101D02*
X6122857Y-14121577D01*
X6122857Y-14121577D02*
X6113333Y-14102530D01*
X6113333Y-14102530D02*
X6113333Y-13931101D01*
X6294286Y-14121577D02*
X6275238Y-14131101D01*
X6275238Y-14131101D02*
X6237143Y-14131101D01*
X6237143Y-14131101D02*
X6218095Y-14121577D01*
X6218095Y-14121577D02*
X6208572Y-14102530D01*
X6208572Y-14102530D02*
X6208572Y-14026339D01*
X6208572Y-14026339D02*
X6218095Y-14007292D01*
X6218095Y-14007292D02*
X6237143Y-13997768D01*
X6237143Y-13997768D02*
X6275238Y-13997768D01*
X6275238Y-13997768D02*
X6294286Y-14007292D01*
X6294286Y-14007292D02*
X6303810Y-14026339D01*
X6303810Y-14026339D02*
X6303810Y-14045387D01*
X6303810Y-14045387D02*
X6208572Y-14064434D01*
X6380000Y-14121577D02*
X6399048Y-14131101D01*
X6399048Y-14131101D02*
X6437143Y-14131101D01*
X6437143Y-14131101D02*
X6456191Y-14121577D01*
X6456191Y-14121577D02*
X6465714Y-14102530D01*
X6465714Y-14102530D02*
X6465714Y-14093006D01*
X6465714Y-14093006D02*
X6456191Y-14073958D01*
X6456191Y-14073958D02*
X6437143Y-14064434D01*
X6437143Y-14064434D02*
X6408572Y-14064434D01*
X6408572Y-14064434D02*
X6389524Y-14054911D01*
X6389524Y-14054911D02*
X6380000Y-14035863D01*
X6380000Y-14035863D02*
X6380000Y-14026339D01*
X6380000Y-14026339D02*
X6389524Y-14007292D01*
X6389524Y-14007292D02*
X6408572Y-13997768D01*
X6408572Y-13997768D02*
X6437143Y-13997768D01*
X6437143Y-13997768D02*
X6456191Y-14007292D01*
X6532381Y-14207292D02*
X6541905Y-14197768D01*
X6541905Y-14197768D02*
X6560953Y-14169196D01*
X6560953Y-14169196D02*
X6570476Y-14150149D01*
X6570476Y-14150149D02*
X6580000Y-14121577D01*
X6580000Y-14121577D02*
X6589524Y-14073958D01*
X6589524Y-14073958D02*
X6589524Y-14035863D01*
X6589524Y-14035863D02*
X6580000Y-13988244D01*
X6580000Y-13988244D02*
X6570476Y-13959673D01*
X6570476Y-13959673D02*
X6560953Y-13940625D01*
X6560953Y-13940625D02*
X6541905Y-13912053D01*
X6541905Y-13912053D02*
X6532381Y-13902530D01*
M02*
