%TF.GenerationSoftware,KiCad,Pcbnew,(7.0.0)*%
%TF.CreationDate,2023-04-23T18:46:31+09:00*%
%TF.ProjectId,mysplit44_pcb_l,6d797370-6c69-4743-9434-5f7063625f6c,rev?*%
%TF.SameCoordinates,Original*%
%TF.FileFunction,Legend,Top*%
%TF.FilePolarity,Positive*%
%FSLAX46Y46*%
G04 Gerber Fmt 4.6, Leading zero omitted, Abs format (unit mm)*
G04 Created by KiCad (PCBNEW (7.0.0)) date 2023-04-23 18:46:31*
%MOMM*%
%LPD*%
G01*
G04 APERTURE LIST*
%ADD10C,0.150000*%
%ADD11C,0.125000*%
%ADD12C,0.120000*%
G04 APERTURE END LIST*
D10*
X134778720Y-102937380D02*
X134778720Y-101937380D01*
X134778720Y-101937380D02*
X135112053Y-102651666D01*
X135112053Y-102651666D02*
X135445386Y-101937380D01*
X135445386Y-101937380D02*
X135445386Y-102937380D01*
X136350148Y-102937380D02*
X136350148Y-102413571D01*
X136350148Y-102413571D02*
X136302529Y-102318333D01*
X136302529Y-102318333D02*
X136207291Y-102270714D01*
X136207291Y-102270714D02*
X136016815Y-102270714D01*
X136016815Y-102270714D02*
X135921577Y-102318333D01*
X136350148Y-102889761D02*
X136254910Y-102937380D01*
X136254910Y-102937380D02*
X136016815Y-102937380D01*
X136016815Y-102937380D02*
X135921577Y-102889761D01*
X135921577Y-102889761D02*
X135873958Y-102794523D01*
X135873958Y-102794523D02*
X135873958Y-102699285D01*
X135873958Y-102699285D02*
X135921577Y-102604047D01*
X135921577Y-102604047D02*
X136016815Y-102556428D01*
X136016815Y-102556428D02*
X136254910Y-102556428D01*
X136254910Y-102556428D02*
X136350148Y-102508809D01*
X137254910Y-102270714D02*
X137254910Y-103080238D01*
X137254910Y-103080238D02*
X137207291Y-103175476D01*
X137207291Y-103175476D02*
X137159672Y-103223095D01*
X137159672Y-103223095D02*
X137064434Y-103270714D01*
X137064434Y-103270714D02*
X136921577Y-103270714D01*
X136921577Y-103270714D02*
X136826339Y-103223095D01*
X137254910Y-102889761D02*
X137159672Y-102937380D01*
X137159672Y-102937380D02*
X136969196Y-102937380D01*
X136969196Y-102937380D02*
X136873958Y-102889761D01*
X136873958Y-102889761D02*
X136826339Y-102842142D01*
X136826339Y-102842142D02*
X136778720Y-102746904D01*
X136778720Y-102746904D02*
X136778720Y-102461190D01*
X136778720Y-102461190D02*
X136826339Y-102365952D01*
X136826339Y-102365952D02*
X136873958Y-102318333D01*
X136873958Y-102318333D02*
X136969196Y-102270714D01*
X136969196Y-102270714D02*
X137159672Y-102270714D01*
X137159672Y-102270714D02*
X137254910Y-102318333D01*
X138159672Y-102270714D02*
X138159672Y-103080238D01*
X138159672Y-103080238D02*
X138112053Y-103175476D01*
X138112053Y-103175476D02*
X138064434Y-103223095D01*
X138064434Y-103223095D02*
X137969196Y-103270714D01*
X137969196Y-103270714D02*
X137826339Y-103270714D01*
X137826339Y-103270714D02*
X137731101Y-103223095D01*
X138159672Y-102889761D02*
X138064434Y-102937380D01*
X138064434Y-102937380D02*
X137873958Y-102937380D01*
X137873958Y-102937380D02*
X137778720Y-102889761D01*
X137778720Y-102889761D02*
X137731101Y-102842142D01*
X137731101Y-102842142D02*
X137683482Y-102746904D01*
X137683482Y-102746904D02*
X137683482Y-102461190D01*
X137683482Y-102461190D02*
X137731101Y-102365952D01*
X137731101Y-102365952D02*
X137778720Y-102318333D01*
X137778720Y-102318333D02*
X137873958Y-102270714D01*
X137873958Y-102270714D02*
X138064434Y-102270714D01*
X138064434Y-102270714D02*
X138159672Y-102318333D01*
X138635863Y-102937380D02*
X138635863Y-102270714D01*
X138635863Y-101937380D02*
X138588244Y-101985000D01*
X138588244Y-101985000D02*
X138635863Y-102032619D01*
X138635863Y-102032619D02*
X138683482Y-101985000D01*
X138683482Y-101985000D02*
X138635863Y-101937380D01*
X138635863Y-101937380D02*
X138635863Y-102032619D01*
X139493005Y-102889761D02*
X139397767Y-102937380D01*
X139397767Y-102937380D02*
X139207291Y-102937380D01*
X139207291Y-102937380D02*
X139112053Y-102889761D01*
X139112053Y-102889761D02*
X139064434Y-102794523D01*
X139064434Y-102794523D02*
X139064434Y-102413571D01*
X139064434Y-102413571D02*
X139112053Y-102318333D01*
X139112053Y-102318333D02*
X139207291Y-102270714D01*
X139207291Y-102270714D02*
X139397767Y-102270714D01*
X139397767Y-102270714D02*
X139493005Y-102318333D01*
X139493005Y-102318333D02*
X139540624Y-102413571D01*
X139540624Y-102413571D02*
X139540624Y-102508809D01*
X139540624Y-102508809D02*
X139064434Y-102604047D01*
X140397767Y-102270714D02*
X140397767Y-102937380D01*
X140159672Y-101889761D02*
X139921577Y-102604047D01*
X139921577Y-102604047D02*
X140540624Y-102604047D01*
X141350148Y-102270714D02*
X141350148Y-102937380D01*
X141112053Y-101889761D02*
X140873958Y-102604047D01*
X140873958Y-102604047D02*
X141493005Y-102604047D01*
X142473958Y-102937380D02*
X142473958Y-101937380D01*
X142473958Y-102318333D02*
X142569196Y-102270714D01*
X142569196Y-102270714D02*
X142759672Y-102270714D01*
X142759672Y-102270714D02*
X142854910Y-102318333D01*
X142854910Y-102318333D02*
X142902529Y-102365952D01*
X142902529Y-102365952D02*
X142950148Y-102461190D01*
X142950148Y-102461190D02*
X142950148Y-102746904D01*
X142950148Y-102746904D02*
X142902529Y-102842142D01*
X142902529Y-102842142D02*
X142854910Y-102889761D01*
X142854910Y-102889761D02*
X142759672Y-102937380D01*
X142759672Y-102937380D02*
X142569196Y-102937380D01*
X142569196Y-102937380D02*
X142473958Y-102889761D01*
X143283482Y-102270714D02*
X143521577Y-102937380D01*
X143759672Y-102270714D02*
X143521577Y-102937380D01*
X143521577Y-102937380D02*
X143426339Y-103175476D01*
X143426339Y-103175476D02*
X143378720Y-103223095D01*
X143378720Y-103223095D02*
X143283482Y-103270714D01*
X144597768Y-101937380D02*
X145169196Y-101937380D01*
X144883482Y-102937380D02*
X144883482Y-101937380D01*
X145931101Y-102937380D02*
X145931101Y-102413571D01*
X145931101Y-102413571D02*
X145883482Y-102318333D01*
X145883482Y-102318333D02*
X145788244Y-102270714D01*
X145788244Y-102270714D02*
X145597768Y-102270714D01*
X145597768Y-102270714D02*
X145502530Y-102318333D01*
X145931101Y-102889761D02*
X145835863Y-102937380D01*
X145835863Y-102937380D02*
X145597768Y-102937380D01*
X145597768Y-102937380D02*
X145502530Y-102889761D01*
X145502530Y-102889761D02*
X145454911Y-102794523D01*
X145454911Y-102794523D02*
X145454911Y-102699285D01*
X145454911Y-102699285D02*
X145502530Y-102604047D01*
X145502530Y-102604047D02*
X145597768Y-102556428D01*
X145597768Y-102556428D02*
X145835863Y-102556428D01*
X145835863Y-102556428D02*
X145931101Y-102508809D01*
X146407292Y-102937380D02*
X146407292Y-102270714D01*
X146407292Y-102365952D02*
X146454911Y-102318333D01*
X146454911Y-102318333D02*
X146550149Y-102270714D01*
X146550149Y-102270714D02*
X146693006Y-102270714D01*
X146693006Y-102270714D02*
X146788244Y-102318333D01*
X146788244Y-102318333D02*
X146835863Y-102413571D01*
X146835863Y-102413571D02*
X146835863Y-102937380D01*
X146835863Y-102413571D02*
X146883482Y-102318333D01*
X146883482Y-102318333D02*
X146978720Y-102270714D01*
X146978720Y-102270714D02*
X147121577Y-102270714D01*
X147121577Y-102270714D02*
X147216816Y-102318333D01*
X147216816Y-102318333D02*
X147264435Y-102413571D01*
X147264435Y-102413571D02*
X147264435Y-102937380D01*
X148169196Y-102937380D02*
X148169196Y-102413571D01*
X148169196Y-102413571D02*
X148121577Y-102318333D01*
X148121577Y-102318333D02*
X148026339Y-102270714D01*
X148026339Y-102270714D02*
X147835863Y-102270714D01*
X147835863Y-102270714D02*
X147740625Y-102318333D01*
X148169196Y-102889761D02*
X148073958Y-102937380D01*
X148073958Y-102937380D02*
X147835863Y-102937380D01*
X147835863Y-102937380D02*
X147740625Y-102889761D01*
X147740625Y-102889761D02*
X147693006Y-102794523D01*
X147693006Y-102794523D02*
X147693006Y-102699285D01*
X147693006Y-102699285D02*
X147740625Y-102604047D01*
X147740625Y-102604047D02*
X147835863Y-102556428D01*
X147835863Y-102556428D02*
X148073958Y-102556428D01*
X148073958Y-102556428D02*
X148169196Y-102508809D01*
X148645387Y-102937380D02*
X148645387Y-102270714D01*
X148645387Y-102461190D02*
X148693006Y-102365952D01*
X148693006Y-102365952D02*
X148740625Y-102318333D01*
X148740625Y-102318333D02*
X148835863Y-102270714D01*
X148835863Y-102270714D02*
X148931101Y-102270714D01*
X149407292Y-102937380D02*
X149312054Y-102889761D01*
X149312054Y-102889761D02*
X149264435Y-102842142D01*
X149264435Y-102842142D02*
X149216816Y-102746904D01*
X149216816Y-102746904D02*
X149216816Y-102461190D01*
X149216816Y-102461190D02*
X149264435Y-102365952D01*
X149264435Y-102365952D02*
X149312054Y-102318333D01*
X149312054Y-102318333D02*
X149407292Y-102270714D01*
X149407292Y-102270714D02*
X149550149Y-102270714D01*
X149550149Y-102270714D02*
X149645387Y-102318333D01*
X149645387Y-102318333D02*
X149693006Y-102365952D01*
X149693006Y-102365952D02*
X149740625Y-102461190D01*
X149740625Y-102461190D02*
X149740625Y-102746904D01*
X149740625Y-102746904D02*
X149693006Y-102842142D01*
X149693006Y-102842142D02*
X149645387Y-102889761D01*
X149645387Y-102889761D02*
X149550149Y-102937380D01*
X149550149Y-102937380D02*
X149407292Y-102937380D01*
X150169197Y-102937380D02*
X150169197Y-101937380D01*
X150597768Y-102937380D02*
X150597768Y-102413571D01*
X150597768Y-102413571D02*
X150550149Y-102318333D01*
X150550149Y-102318333D02*
X150454911Y-102270714D01*
X150454911Y-102270714D02*
X150312054Y-102270714D01*
X150312054Y-102270714D02*
X150216816Y-102318333D01*
X150216816Y-102318333D02*
X150169197Y-102365952D01*
X134635863Y-103557380D02*
X134969196Y-104557380D01*
X134969196Y-104557380D02*
X135302529Y-103557380D01*
X136016815Y-104509761D02*
X135921577Y-104557380D01*
X135921577Y-104557380D02*
X135731101Y-104557380D01*
X135731101Y-104557380D02*
X135635863Y-104509761D01*
X135635863Y-104509761D02*
X135588244Y-104414523D01*
X135588244Y-104414523D02*
X135588244Y-104033571D01*
X135588244Y-104033571D02*
X135635863Y-103938333D01*
X135635863Y-103938333D02*
X135731101Y-103890714D01*
X135731101Y-103890714D02*
X135921577Y-103890714D01*
X135921577Y-103890714D02*
X136016815Y-103938333D01*
X136016815Y-103938333D02*
X136064434Y-104033571D01*
X136064434Y-104033571D02*
X136064434Y-104128809D01*
X136064434Y-104128809D02*
X135588244Y-104224047D01*
X136493006Y-104557380D02*
X136493006Y-103890714D01*
X136493006Y-104081190D02*
X136540625Y-103985952D01*
X136540625Y-103985952D02*
X136588244Y-103938333D01*
X136588244Y-103938333D02*
X136683482Y-103890714D01*
X136683482Y-103890714D02*
X136778720Y-103890714D01*
X138235863Y-104557380D02*
X137664435Y-104557380D01*
X137950149Y-104557380D02*
X137950149Y-103557380D01*
X137950149Y-103557380D02*
X137854911Y-103700238D01*
X137854911Y-103700238D02*
X137759673Y-103795476D01*
X137759673Y-103795476D02*
X137664435Y-103843095D01*
X138664435Y-104462142D02*
X138712054Y-104509761D01*
X138712054Y-104509761D02*
X138664435Y-104557380D01*
X138664435Y-104557380D02*
X138616816Y-104509761D01*
X138616816Y-104509761D02*
X138664435Y-104462142D01*
X138664435Y-104462142D02*
X138664435Y-104557380D01*
X139331101Y-103557380D02*
X139426339Y-103557380D01*
X139426339Y-103557380D02*
X139521577Y-103605000D01*
X139521577Y-103605000D02*
X139569196Y-103652619D01*
X139569196Y-103652619D02*
X139616815Y-103747857D01*
X139616815Y-103747857D02*
X139664434Y-103938333D01*
X139664434Y-103938333D02*
X139664434Y-104176428D01*
X139664434Y-104176428D02*
X139616815Y-104366904D01*
X139616815Y-104366904D02*
X139569196Y-104462142D01*
X139569196Y-104462142D02*
X139521577Y-104509761D01*
X139521577Y-104509761D02*
X139426339Y-104557380D01*
X139426339Y-104557380D02*
X139331101Y-104557380D01*
X139331101Y-104557380D02*
X139235863Y-104509761D01*
X139235863Y-104509761D02*
X139188244Y-104462142D01*
X139188244Y-104462142D02*
X139140625Y-104366904D01*
X139140625Y-104366904D02*
X139093006Y-104176428D01*
X139093006Y-104176428D02*
X139093006Y-103938333D01*
X139093006Y-103938333D02*
X139140625Y-103747857D01*
X139140625Y-103747857D02*
X139188244Y-103652619D01*
X139188244Y-103652619D02*
X139235863Y-103605000D01*
X139235863Y-103605000D02*
X139331101Y-103557380D01*
D11*
%TO.C,U1*%
X146447381Y-70045178D02*
X146670715Y-70045178D01*
X146766429Y-70438035D02*
X146447381Y-70438035D01*
X146447381Y-70438035D02*
X146447381Y-69688035D01*
X146447381Y-69688035D02*
X146766429Y-69688035D01*
X147340714Y-69688035D02*
X147213095Y-69688035D01*
X147213095Y-69688035D02*
X147149286Y-69723750D01*
X147149286Y-69723750D02*
X147117381Y-69759464D01*
X147117381Y-69759464D02*
X147053571Y-69866607D01*
X147053571Y-69866607D02*
X147021667Y-70009464D01*
X147021667Y-70009464D02*
X147021667Y-70295178D01*
X147021667Y-70295178D02*
X147053571Y-70366607D01*
X147053571Y-70366607D02*
X147085476Y-70402321D01*
X147085476Y-70402321D02*
X147149286Y-70438035D01*
X147149286Y-70438035D02*
X147276905Y-70438035D01*
X147276905Y-70438035D02*
X147340714Y-70402321D01*
X147340714Y-70402321D02*
X147372619Y-70366607D01*
X147372619Y-70366607D02*
X147404524Y-70295178D01*
X147404524Y-70295178D02*
X147404524Y-70116607D01*
X147404524Y-70116607D02*
X147372619Y-70045178D01*
X147372619Y-70045178D02*
X147340714Y-70009464D01*
X147340714Y-70009464D02*
X147276905Y-69973750D01*
X147276905Y-69973750D02*
X147149286Y-69973750D01*
X147149286Y-69973750D02*
X147085476Y-70009464D01*
X147085476Y-70009464D02*
X147053571Y-70045178D01*
X147053571Y-70045178D02*
X147021667Y-70116607D01*
X148170238Y-69652321D02*
X147595952Y-70616607D01*
X148329762Y-69688035D02*
X148776428Y-69688035D01*
X148776428Y-69688035D02*
X148489286Y-70438035D01*
X137044286Y-65273750D02*
X137363333Y-65273750D01*
X136980476Y-65488035D02*
X137203809Y-64738035D01*
X137203809Y-64738035D02*
X137427143Y-65488035D01*
X137778095Y-64738035D02*
X137841905Y-64738035D01*
X137841905Y-64738035D02*
X137905714Y-64773750D01*
X137905714Y-64773750D02*
X137937619Y-64809464D01*
X137937619Y-64809464D02*
X137969524Y-64880892D01*
X137969524Y-64880892D02*
X138001429Y-65023750D01*
X138001429Y-65023750D02*
X138001429Y-65202321D01*
X138001429Y-65202321D02*
X137969524Y-65345178D01*
X137969524Y-65345178D02*
X137937619Y-65416607D01*
X137937619Y-65416607D02*
X137905714Y-65452321D01*
X137905714Y-65452321D02*
X137841905Y-65488035D01*
X137841905Y-65488035D02*
X137778095Y-65488035D01*
X137778095Y-65488035D02*
X137714286Y-65452321D01*
X137714286Y-65452321D02*
X137682381Y-65416607D01*
X137682381Y-65416607D02*
X137650476Y-65345178D01*
X137650476Y-65345178D02*
X137618572Y-65202321D01*
X137618572Y-65202321D02*
X137618572Y-65023750D01*
X137618572Y-65023750D02*
X137650476Y-64880892D01*
X137650476Y-64880892D02*
X137682381Y-64809464D01*
X137682381Y-64809464D02*
X137714286Y-64773750D01*
X137714286Y-64773750D02*
X137778095Y-64738035D01*
X138767143Y-64702321D02*
X138192857Y-65666607D01*
X139213810Y-65095178D02*
X138990476Y-65095178D01*
X138990476Y-65488035D02*
X138990476Y-64738035D01*
X138990476Y-64738035D02*
X139309524Y-64738035D01*
X139500953Y-64738035D02*
X139947619Y-64738035D01*
X139947619Y-64738035D02*
X139660477Y-65488035D01*
X143857381Y-60252321D02*
X143953095Y-60288035D01*
X143953095Y-60288035D02*
X144112619Y-60288035D01*
X144112619Y-60288035D02*
X144176428Y-60252321D01*
X144176428Y-60252321D02*
X144208333Y-60216607D01*
X144208333Y-60216607D02*
X144240238Y-60145178D01*
X144240238Y-60145178D02*
X144240238Y-60073750D01*
X144240238Y-60073750D02*
X144208333Y-60002321D01*
X144208333Y-60002321D02*
X144176428Y-59966607D01*
X144176428Y-59966607D02*
X144112619Y-59930892D01*
X144112619Y-59930892D02*
X143985000Y-59895178D01*
X143985000Y-59895178D02*
X143921190Y-59859464D01*
X143921190Y-59859464D02*
X143889285Y-59823750D01*
X143889285Y-59823750D02*
X143857381Y-59752321D01*
X143857381Y-59752321D02*
X143857381Y-59680892D01*
X143857381Y-59680892D02*
X143889285Y-59609464D01*
X143889285Y-59609464D02*
X143921190Y-59573750D01*
X143921190Y-59573750D02*
X143985000Y-59538035D01*
X143985000Y-59538035D02*
X144144523Y-59538035D01*
X144144523Y-59538035D02*
X144240238Y-59573750D01*
X144910237Y-60216607D02*
X144878333Y-60252321D01*
X144878333Y-60252321D02*
X144782618Y-60288035D01*
X144782618Y-60288035D02*
X144718809Y-60288035D01*
X144718809Y-60288035D02*
X144623095Y-60252321D01*
X144623095Y-60252321D02*
X144559285Y-60180892D01*
X144559285Y-60180892D02*
X144527380Y-60109464D01*
X144527380Y-60109464D02*
X144495476Y-59966607D01*
X144495476Y-59966607D02*
X144495476Y-59859464D01*
X144495476Y-59859464D02*
X144527380Y-59716607D01*
X144527380Y-59716607D02*
X144559285Y-59645178D01*
X144559285Y-59645178D02*
X144623095Y-59573750D01*
X144623095Y-59573750D02*
X144718809Y-59538035D01*
X144718809Y-59538035D02*
X144782618Y-59538035D01*
X144782618Y-59538035D02*
X144878333Y-59573750D01*
X144878333Y-59573750D02*
X144910237Y-59609464D01*
X145516428Y-60288035D02*
X145197380Y-60288035D01*
X145197380Y-60288035D02*
X145197380Y-59538035D01*
X146218333Y-59502321D02*
X145644047Y-60466607D01*
X146441666Y-60288035D02*
X146441666Y-59538035D01*
X146441666Y-59538035D02*
X146601190Y-59538035D01*
X146601190Y-59538035D02*
X146696904Y-59573750D01*
X146696904Y-59573750D02*
X146760714Y-59645178D01*
X146760714Y-59645178D02*
X146792619Y-59716607D01*
X146792619Y-59716607D02*
X146824523Y-59859464D01*
X146824523Y-59859464D02*
X146824523Y-59966607D01*
X146824523Y-59966607D02*
X146792619Y-60109464D01*
X146792619Y-60109464D02*
X146760714Y-60180892D01*
X146760714Y-60180892D02*
X146696904Y-60252321D01*
X146696904Y-60252321D02*
X146601190Y-60288035D01*
X146601190Y-60288035D02*
X146441666Y-60288035D01*
X147239285Y-59538035D02*
X147303095Y-59538035D01*
X147303095Y-59538035D02*
X147366904Y-59573750D01*
X147366904Y-59573750D02*
X147398809Y-59609464D01*
X147398809Y-59609464D02*
X147430714Y-59680892D01*
X147430714Y-59680892D02*
X147462619Y-59823750D01*
X147462619Y-59823750D02*
X147462619Y-60002321D01*
X147462619Y-60002321D02*
X147430714Y-60145178D01*
X147430714Y-60145178D02*
X147398809Y-60216607D01*
X147398809Y-60216607D02*
X147366904Y-60252321D01*
X147366904Y-60252321D02*
X147303095Y-60288035D01*
X147303095Y-60288035D02*
X147239285Y-60288035D01*
X147239285Y-60288035D02*
X147175476Y-60252321D01*
X147175476Y-60252321D02*
X147143571Y-60216607D01*
X147143571Y-60216607D02*
X147111666Y-60145178D01*
X147111666Y-60145178D02*
X147079762Y-60002321D01*
X147079762Y-60002321D02*
X147079762Y-59823750D01*
X147079762Y-59823750D02*
X147111666Y-59680892D01*
X147111666Y-59680892D02*
X147143571Y-59609464D01*
X147143571Y-59609464D02*
X147175476Y-59573750D01*
X147175476Y-59573750D02*
X147239285Y-59538035D01*
X148228333Y-59502321D02*
X147654047Y-60466607D01*
X148387857Y-59538035D02*
X148802619Y-59538035D01*
X148802619Y-59538035D02*
X148579285Y-59823750D01*
X148579285Y-59823750D02*
X148675000Y-59823750D01*
X148675000Y-59823750D02*
X148738809Y-59859464D01*
X148738809Y-59859464D02*
X148770714Y-59895178D01*
X148770714Y-59895178D02*
X148802619Y-59966607D01*
X148802619Y-59966607D02*
X148802619Y-60145178D01*
X148802619Y-60145178D02*
X148770714Y-60216607D01*
X148770714Y-60216607D02*
X148738809Y-60252321D01*
X148738809Y-60252321D02*
X148675000Y-60288035D01*
X148675000Y-60288035D02*
X148483571Y-60288035D01*
X148483571Y-60288035D02*
X148419762Y-60252321D01*
X148419762Y-60252321D02*
X148387857Y-60216607D01*
X146638810Y-75095178D02*
X146734524Y-75130892D01*
X146734524Y-75130892D02*
X146766429Y-75166607D01*
X146766429Y-75166607D02*
X146798333Y-75238035D01*
X146798333Y-75238035D02*
X146798333Y-75345178D01*
X146798333Y-75345178D02*
X146766429Y-75416607D01*
X146766429Y-75416607D02*
X146734524Y-75452321D01*
X146734524Y-75452321D02*
X146670714Y-75488035D01*
X146670714Y-75488035D02*
X146415476Y-75488035D01*
X146415476Y-75488035D02*
X146415476Y-74738035D01*
X146415476Y-74738035D02*
X146638810Y-74738035D01*
X146638810Y-74738035D02*
X146702619Y-74773750D01*
X146702619Y-74773750D02*
X146734524Y-74809464D01*
X146734524Y-74809464D02*
X146766429Y-74880892D01*
X146766429Y-74880892D02*
X146766429Y-74952321D01*
X146766429Y-74952321D02*
X146734524Y-75023750D01*
X146734524Y-75023750D02*
X146702619Y-75059464D01*
X146702619Y-75059464D02*
X146638810Y-75095178D01*
X146638810Y-75095178D02*
X146415476Y-75095178D01*
X147404524Y-74738035D02*
X147085476Y-74738035D01*
X147085476Y-74738035D02*
X147053572Y-75095178D01*
X147053572Y-75095178D02*
X147085476Y-75059464D01*
X147085476Y-75059464D02*
X147149286Y-75023750D01*
X147149286Y-75023750D02*
X147308810Y-75023750D01*
X147308810Y-75023750D02*
X147372619Y-75059464D01*
X147372619Y-75059464D02*
X147404524Y-75095178D01*
X147404524Y-75095178D02*
X147436429Y-75166607D01*
X147436429Y-75166607D02*
X147436429Y-75345178D01*
X147436429Y-75345178D02*
X147404524Y-75416607D01*
X147404524Y-75416607D02*
X147372619Y-75452321D01*
X147372619Y-75452321D02*
X147308810Y-75488035D01*
X147308810Y-75488035D02*
X147149286Y-75488035D01*
X147149286Y-75488035D02*
X147085476Y-75452321D01*
X147085476Y-75452321D02*
X147053572Y-75416607D01*
X148202143Y-74702321D02*
X147627857Y-75666607D01*
X148457381Y-75488035D02*
X148585000Y-75488035D01*
X148585000Y-75488035D02*
X148648810Y-75452321D01*
X148648810Y-75452321D02*
X148680714Y-75416607D01*
X148680714Y-75416607D02*
X148744524Y-75309464D01*
X148744524Y-75309464D02*
X148776429Y-75166607D01*
X148776429Y-75166607D02*
X148776429Y-74880892D01*
X148776429Y-74880892D02*
X148744524Y-74809464D01*
X148744524Y-74809464D02*
X148712619Y-74773750D01*
X148712619Y-74773750D02*
X148648810Y-74738035D01*
X148648810Y-74738035D02*
X148521191Y-74738035D01*
X148521191Y-74738035D02*
X148457381Y-74773750D01*
X148457381Y-74773750D02*
X148425476Y-74809464D01*
X148425476Y-74809464D02*
X148393572Y-74880892D01*
X148393572Y-74880892D02*
X148393572Y-75059464D01*
X148393572Y-75059464D02*
X148425476Y-75130892D01*
X148425476Y-75130892D02*
X148457381Y-75166607D01*
X148457381Y-75166607D02*
X148521191Y-75202321D01*
X148521191Y-75202321D02*
X148648810Y-75202321D01*
X148648810Y-75202321D02*
X148712619Y-75166607D01*
X148712619Y-75166607D02*
X148744524Y-75130892D01*
X148744524Y-75130892D02*
X148776429Y-75059464D01*
X147319524Y-52123750D02*
X147255714Y-52088035D01*
X147255714Y-52088035D02*
X147160000Y-52088035D01*
X147160000Y-52088035D02*
X147064286Y-52123750D01*
X147064286Y-52123750D02*
X147000476Y-52195178D01*
X147000476Y-52195178D02*
X146968571Y-52266607D01*
X146968571Y-52266607D02*
X146936667Y-52409464D01*
X146936667Y-52409464D02*
X146936667Y-52516607D01*
X146936667Y-52516607D02*
X146968571Y-52659464D01*
X146968571Y-52659464D02*
X147000476Y-52730892D01*
X147000476Y-52730892D02*
X147064286Y-52802321D01*
X147064286Y-52802321D02*
X147160000Y-52838035D01*
X147160000Y-52838035D02*
X147223809Y-52838035D01*
X147223809Y-52838035D02*
X147319524Y-52802321D01*
X147319524Y-52802321D02*
X147351428Y-52766607D01*
X147351428Y-52766607D02*
X147351428Y-52516607D01*
X147351428Y-52516607D02*
X147223809Y-52516607D01*
X147638571Y-52838035D02*
X147638571Y-52088035D01*
X147638571Y-52088035D02*
X148021428Y-52838035D01*
X148021428Y-52838035D02*
X148021428Y-52088035D01*
X148340476Y-52838035D02*
X148340476Y-52088035D01*
X148340476Y-52088035D02*
X148500000Y-52088035D01*
X148500000Y-52088035D02*
X148595714Y-52123750D01*
X148595714Y-52123750D02*
X148659524Y-52195178D01*
X148659524Y-52195178D02*
X148691429Y-52266607D01*
X148691429Y-52266607D02*
X148723333Y-52409464D01*
X148723333Y-52409464D02*
X148723333Y-52516607D01*
X148723333Y-52516607D02*
X148691429Y-52659464D01*
X148691429Y-52659464D02*
X148659524Y-52730892D01*
X148659524Y-52730892D02*
X148595714Y-52802321D01*
X148595714Y-52802321D02*
X148500000Y-52838035D01*
X148500000Y-52838035D02*
X148340476Y-52838035D01*
X137513095Y-52788035D02*
X137289762Y-52430892D01*
X137130238Y-52788035D02*
X137130238Y-52038035D01*
X137130238Y-52038035D02*
X137385476Y-52038035D01*
X137385476Y-52038035D02*
X137449286Y-52073750D01*
X137449286Y-52073750D02*
X137481191Y-52109464D01*
X137481191Y-52109464D02*
X137513095Y-52180892D01*
X137513095Y-52180892D02*
X137513095Y-52288035D01*
X137513095Y-52288035D02*
X137481191Y-52359464D01*
X137481191Y-52359464D02*
X137449286Y-52395178D01*
X137449286Y-52395178D02*
X137385476Y-52430892D01*
X137385476Y-52430892D02*
X137130238Y-52430892D01*
X137768334Y-52752321D02*
X137864048Y-52788035D01*
X137864048Y-52788035D02*
X138023572Y-52788035D01*
X138023572Y-52788035D02*
X138087381Y-52752321D01*
X138087381Y-52752321D02*
X138119286Y-52716607D01*
X138119286Y-52716607D02*
X138151191Y-52645178D01*
X138151191Y-52645178D02*
X138151191Y-52573750D01*
X138151191Y-52573750D02*
X138119286Y-52502321D01*
X138119286Y-52502321D02*
X138087381Y-52466607D01*
X138087381Y-52466607D02*
X138023572Y-52430892D01*
X138023572Y-52430892D02*
X137895953Y-52395178D01*
X137895953Y-52395178D02*
X137832143Y-52359464D01*
X137832143Y-52359464D02*
X137800238Y-52323750D01*
X137800238Y-52323750D02*
X137768334Y-52252321D01*
X137768334Y-52252321D02*
X137768334Y-52180892D01*
X137768334Y-52180892D02*
X137800238Y-52109464D01*
X137800238Y-52109464D02*
X137832143Y-52073750D01*
X137832143Y-52073750D02*
X137895953Y-52038035D01*
X137895953Y-52038035D02*
X138055476Y-52038035D01*
X138055476Y-52038035D02*
X138151191Y-52073750D01*
X138342619Y-52038035D02*
X138725476Y-52038035D01*
X138534048Y-52788035D02*
X138534048Y-52038035D01*
X146415476Y-67888035D02*
X146415476Y-67138035D01*
X146415476Y-67138035D02*
X146575000Y-67138035D01*
X146575000Y-67138035D02*
X146670714Y-67173750D01*
X146670714Y-67173750D02*
X146734524Y-67245178D01*
X146734524Y-67245178D02*
X146766429Y-67316607D01*
X146766429Y-67316607D02*
X146798333Y-67459464D01*
X146798333Y-67459464D02*
X146798333Y-67566607D01*
X146798333Y-67566607D02*
X146766429Y-67709464D01*
X146766429Y-67709464D02*
X146734524Y-67780892D01*
X146734524Y-67780892D02*
X146670714Y-67852321D01*
X146670714Y-67852321D02*
X146575000Y-67888035D01*
X146575000Y-67888035D02*
X146415476Y-67888035D01*
X147021667Y-67138035D02*
X147468333Y-67138035D01*
X147468333Y-67138035D02*
X147181191Y-67888035D01*
X148202143Y-67102321D02*
X147627857Y-68066607D01*
X148712619Y-67138035D02*
X148585000Y-67138035D01*
X148585000Y-67138035D02*
X148521191Y-67173750D01*
X148521191Y-67173750D02*
X148489286Y-67209464D01*
X148489286Y-67209464D02*
X148425476Y-67316607D01*
X148425476Y-67316607D02*
X148393572Y-67459464D01*
X148393572Y-67459464D02*
X148393572Y-67745178D01*
X148393572Y-67745178D02*
X148425476Y-67816607D01*
X148425476Y-67816607D02*
X148457381Y-67852321D01*
X148457381Y-67852321D02*
X148521191Y-67888035D01*
X148521191Y-67888035D02*
X148648810Y-67888035D01*
X148648810Y-67888035D02*
X148712619Y-67852321D01*
X148712619Y-67852321D02*
X148744524Y-67816607D01*
X148744524Y-67816607D02*
X148776429Y-67745178D01*
X148776429Y-67745178D02*
X148776429Y-67566607D01*
X148776429Y-67566607D02*
X148744524Y-67495178D01*
X148744524Y-67495178D02*
X148712619Y-67459464D01*
X148712619Y-67459464D02*
X148648810Y-67423750D01*
X148648810Y-67423750D02*
X148521191Y-67423750D01*
X148521191Y-67423750D02*
X148457381Y-67459464D01*
X148457381Y-67459464D02*
X148425476Y-67495178D01*
X148425476Y-67495178D02*
X148393572Y-67566607D01*
X137347381Y-68038035D02*
X136964524Y-68038035D01*
X137155952Y-68038035D02*
X137155952Y-67288035D01*
X137155952Y-67288035D02*
X137092143Y-67395178D01*
X137092143Y-67395178D02*
X137028333Y-67466607D01*
X137028333Y-67466607D02*
X136964524Y-67502321D01*
X137953571Y-67288035D02*
X137634523Y-67288035D01*
X137634523Y-67288035D02*
X137602619Y-67645178D01*
X137602619Y-67645178D02*
X137634523Y-67609464D01*
X137634523Y-67609464D02*
X137698333Y-67573750D01*
X137698333Y-67573750D02*
X137857857Y-67573750D01*
X137857857Y-67573750D02*
X137921666Y-67609464D01*
X137921666Y-67609464D02*
X137953571Y-67645178D01*
X137953571Y-67645178D02*
X137985476Y-67716607D01*
X137985476Y-67716607D02*
X137985476Y-67895178D01*
X137985476Y-67895178D02*
X137953571Y-67966607D01*
X137953571Y-67966607D02*
X137921666Y-68002321D01*
X137921666Y-68002321D02*
X137857857Y-68038035D01*
X137857857Y-68038035D02*
X137698333Y-68038035D01*
X137698333Y-68038035D02*
X137634523Y-68002321D01*
X137634523Y-68002321D02*
X137602619Y-67966607D01*
X138751190Y-67252321D02*
X138176904Y-68216607D01*
X139197857Y-67645178D02*
X139293571Y-67680892D01*
X139293571Y-67680892D02*
X139325476Y-67716607D01*
X139325476Y-67716607D02*
X139357380Y-67788035D01*
X139357380Y-67788035D02*
X139357380Y-67895178D01*
X139357380Y-67895178D02*
X139325476Y-67966607D01*
X139325476Y-67966607D02*
X139293571Y-68002321D01*
X139293571Y-68002321D02*
X139229761Y-68038035D01*
X139229761Y-68038035D02*
X138974523Y-68038035D01*
X138974523Y-68038035D02*
X138974523Y-67288035D01*
X138974523Y-67288035D02*
X139197857Y-67288035D01*
X139197857Y-67288035D02*
X139261666Y-67323750D01*
X139261666Y-67323750D02*
X139293571Y-67359464D01*
X139293571Y-67359464D02*
X139325476Y-67430892D01*
X139325476Y-67430892D02*
X139325476Y-67502321D01*
X139325476Y-67502321D02*
X139293571Y-67573750D01*
X139293571Y-67573750D02*
X139261666Y-67609464D01*
X139261666Y-67609464D02*
X139197857Y-67645178D01*
X139197857Y-67645178D02*
X138974523Y-67645178D01*
X139995476Y-68038035D02*
X139612619Y-68038035D01*
X139804047Y-68038035D02*
X139804047Y-67288035D01*
X139804047Y-67288035D02*
X139740238Y-67395178D01*
X139740238Y-67395178D02*
X139676428Y-67466607D01*
X139676428Y-67466607D02*
X139612619Y-67502321D01*
X146415476Y-62788035D02*
X146415476Y-62038035D01*
X146415476Y-62038035D02*
X146575000Y-62038035D01*
X146575000Y-62038035D02*
X146670714Y-62073750D01*
X146670714Y-62073750D02*
X146734524Y-62145178D01*
X146734524Y-62145178D02*
X146766429Y-62216607D01*
X146766429Y-62216607D02*
X146798333Y-62359464D01*
X146798333Y-62359464D02*
X146798333Y-62466607D01*
X146798333Y-62466607D02*
X146766429Y-62609464D01*
X146766429Y-62609464D02*
X146734524Y-62680892D01*
X146734524Y-62680892D02*
X146670714Y-62752321D01*
X146670714Y-62752321D02*
X146575000Y-62788035D01*
X146575000Y-62788035D02*
X146415476Y-62788035D01*
X147372619Y-62288035D02*
X147372619Y-62788035D01*
X147213095Y-62002321D02*
X147053572Y-62538035D01*
X147053572Y-62538035D02*
X147468333Y-62538035D01*
X148202143Y-62002321D02*
X147627857Y-62966607D01*
X148712619Y-62288035D02*
X148712619Y-62788035D01*
X148553095Y-62002321D02*
X148393572Y-62538035D01*
X148393572Y-62538035D02*
X148808333Y-62538035D01*
X137347381Y-75638035D02*
X136964524Y-75638035D01*
X137155952Y-75638035D02*
X137155952Y-74888035D01*
X137155952Y-74888035D02*
X137092143Y-74995178D01*
X137092143Y-74995178D02*
X137028333Y-75066607D01*
X137028333Y-75066607D02*
X136964524Y-75102321D01*
X137762142Y-74888035D02*
X137825952Y-74888035D01*
X137825952Y-74888035D02*
X137889761Y-74923750D01*
X137889761Y-74923750D02*
X137921666Y-74959464D01*
X137921666Y-74959464D02*
X137953571Y-75030892D01*
X137953571Y-75030892D02*
X137985476Y-75173750D01*
X137985476Y-75173750D02*
X137985476Y-75352321D01*
X137985476Y-75352321D02*
X137953571Y-75495178D01*
X137953571Y-75495178D02*
X137921666Y-75566607D01*
X137921666Y-75566607D02*
X137889761Y-75602321D01*
X137889761Y-75602321D02*
X137825952Y-75638035D01*
X137825952Y-75638035D02*
X137762142Y-75638035D01*
X137762142Y-75638035D02*
X137698333Y-75602321D01*
X137698333Y-75602321D02*
X137666428Y-75566607D01*
X137666428Y-75566607D02*
X137634523Y-75495178D01*
X137634523Y-75495178D02*
X137602619Y-75352321D01*
X137602619Y-75352321D02*
X137602619Y-75173750D01*
X137602619Y-75173750D02*
X137634523Y-75030892D01*
X137634523Y-75030892D02*
X137666428Y-74959464D01*
X137666428Y-74959464D02*
X137698333Y-74923750D01*
X137698333Y-74923750D02*
X137762142Y-74888035D01*
X138751190Y-74852321D02*
X138176904Y-75816607D01*
X139197857Y-75245178D02*
X139293571Y-75280892D01*
X139293571Y-75280892D02*
X139325476Y-75316607D01*
X139325476Y-75316607D02*
X139357380Y-75388035D01*
X139357380Y-75388035D02*
X139357380Y-75495178D01*
X139357380Y-75495178D02*
X139325476Y-75566607D01*
X139325476Y-75566607D02*
X139293571Y-75602321D01*
X139293571Y-75602321D02*
X139229761Y-75638035D01*
X139229761Y-75638035D02*
X138974523Y-75638035D01*
X138974523Y-75638035D02*
X138974523Y-74888035D01*
X138974523Y-74888035D02*
X139197857Y-74888035D01*
X139197857Y-74888035D02*
X139261666Y-74923750D01*
X139261666Y-74923750D02*
X139293571Y-74959464D01*
X139293571Y-74959464D02*
X139325476Y-75030892D01*
X139325476Y-75030892D02*
X139325476Y-75102321D01*
X139325476Y-75102321D02*
X139293571Y-75173750D01*
X139293571Y-75173750D02*
X139261666Y-75209464D01*
X139261666Y-75209464D02*
X139197857Y-75245178D01*
X139197857Y-75245178D02*
X138974523Y-75245178D01*
X139931666Y-74888035D02*
X139804047Y-74888035D01*
X139804047Y-74888035D02*
X139740238Y-74923750D01*
X139740238Y-74923750D02*
X139708333Y-74959464D01*
X139708333Y-74959464D02*
X139644523Y-75066607D01*
X139644523Y-75066607D02*
X139612619Y-75209464D01*
X139612619Y-75209464D02*
X139612619Y-75495178D01*
X139612619Y-75495178D02*
X139644523Y-75566607D01*
X139644523Y-75566607D02*
X139676428Y-75602321D01*
X139676428Y-75602321D02*
X139740238Y-75638035D01*
X139740238Y-75638035D02*
X139867857Y-75638035D01*
X139867857Y-75638035D02*
X139931666Y-75602321D01*
X139931666Y-75602321D02*
X139963571Y-75566607D01*
X139963571Y-75566607D02*
X139995476Y-75495178D01*
X139995476Y-75495178D02*
X139995476Y-75316607D01*
X139995476Y-75316607D02*
X139963571Y-75245178D01*
X139963571Y-75245178D02*
X139931666Y-75209464D01*
X139931666Y-75209464D02*
X139867857Y-75173750D01*
X139867857Y-75173750D02*
X139740238Y-75173750D01*
X139740238Y-75173750D02*
X139676428Y-75209464D01*
X139676428Y-75209464D02*
X139644523Y-75245178D01*
X139644523Y-75245178D02*
X139612619Y-75316607D01*
X137369524Y-49523750D02*
X137305714Y-49488035D01*
X137305714Y-49488035D02*
X137210000Y-49488035D01*
X137210000Y-49488035D02*
X137114286Y-49523750D01*
X137114286Y-49523750D02*
X137050476Y-49595178D01*
X137050476Y-49595178D02*
X137018571Y-49666607D01*
X137018571Y-49666607D02*
X136986667Y-49809464D01*
X136986667Y-49809464D02*
X136986667Y-49916607D01*
X136986667Y-49916607D02*
X137018571Y-50059464D01*
X137018571Y-50059464D02*
X137050476Y-50130892D01*
X137050476Y-50130892D02*
X137114286Y-50202321D01*
X137114286Y-50202321D02*
X137210000Y-50238035D01*
X137210000Y-50238035D02*
X137273809Y-50238035D01*
X137273809Y-50238035D02*
X137369524Y-50202321D01*
X137369524Y-50202321D02*
X137401428Y-50166607D01*
X137401428Y-50166607D02*
X137401428Y-49916607D01*
X137401428Y-49916607D02*
X137273809Y-49916607D01*
X137688571Y-50238035D02*
X137688571Y-49488035D01*
X137688571Y-49488035D02*
X138071428Y-50238035D01*
X138071428Y-50238035D02*
X138071428Y-49488035D01*
X138390476Y-50238035D02*
X138390476Y-49488035D01*
X138390476Y-49488035D02*
X138550000Y-49488035D01*
X138550000Y-49488035D02*
X138645714Y-49523750D01*
X138645714Y-49523750D02*
X138709524Y-49595178D01*
X138709524Y-49595178D02*
X138741429Y-49666607D01*
X138741429Y-49666607D02*
X138773333Y-49809464D01*
X138773333Y-49809464D02*
X138773333Y-49916607D01*
X138773333Y-49916607D02*
X138741429Y-50059464D01*
X138741429Y-50059464D02*
X138709524Y-50130892D01*
X138709524Y-50130892D02*
X138645714Y-50202321D01*
X138645714Y-50202321D02*
X138550000Y-50238035D01*
X138550000Y-50238035D02*
X138390476Y-50238035D01*
X145291190Y-47738035D02*
X145291190Y-46988035D01*
X145291190Y-46988035D02*
X145450714Y-46988035D01*
X145450714Y-46988035D02*
X145546428Y-47023750D01*
X145546428Y-47023750D02*
X145610238Y-47095178D01*
X145610238Y-47095178D02*
X145642143Y-47166607D01*
X145642143Y-47166607D02*
X145674047Y-47309464D01*
X145674047Y-47309464D02*
X145674047Y-47416607D01*
X145674047Y-47416607D02*
X145642143Y-47559464D01*
X145642143Y-47559464D02*
X145610238Y-47630892D01*
X145610238Y-47630892D02*
X145546428Y-47702321D01*
X145546428Y-47702321D02*
X145450714Y-47738035D01*
X145450714Y-47738035D02*
X145291190Y-47738035D01*
X145897381Y-46988035D02*
X146312143Y-46988035D01*
X146312143Y-46988035D02*
X146088809Y-47273750D01*
X146088809Y-47273750D02*
X146184524Y-47273750D01*
X146184524Y-47273750D02*
X146248333Y-47309464D01*
X146248333Y-47309464D02*
X146280238Y-47345178D01*
X146280238Y-47345178D02*
X146312143Y-47416607D01*
X146312143Y-47416607D02*
X146312143Y-47595178D01*
X146312143Y-47595178D02*
X146280238Y-47666607D01*
X146280238Y-47666607D02*
X146248333Y-47702321D01*
X146248333Y-47702321D02*
X146184524Y-47738035D01*
X146184524Y-47738035D02*
X145993095Y-47738035D01*
X145993095Y-47738035D02*
X145929286Y-47702321D01*
X145929286Y-47702321D02*
X145897381Y-47666607D01*
X147077857Y-46952321D02*
X146503571Y-47916607D01*
X147205476Y-46988035D02*
X147588333Y-46988035D01*
X147396905Y-47738035D02*
X147396905Y-46988035D01*
X147747857Y-46988035D02*
X148194523Y-47738035D01*
X148194523Y-46988035D02*
X147747857Y-47738035D01*
X148577380Y-46988035D02*
X148641190Y-46988035D01*
X148641190Y-46988035D02*
X148704999Y-47023750D01*
X148704999Y-47023750D02*
X148736904Y-47059464D01*
X148736904Y-47059464D02*
X148768809Y-47130892D01*
X148768809Y-47130892D02*
X148800714Y-47273750D01*
X148800714Y-47273750D02*
X148800714Y-47452321D01*
X148800714Y-47452321D02*
X148768809Y-47595178D01*
X148768809Y-47595178D02*
X148736904Y-47666607D01*
X148736904Y-47666607D02*
X148704999Y-47702321D01*
X148704999Y-47702321D02*
X148641190Y-47738035D01*
X148641190Y-47738035D02*
X148577380Y-47738035D01*
X148577380Y-47738035D02*
X148513571Y-47702321D01*
X148513571Y-47702321D02*
X148481666Y-47666607D01*
X148481666Y-47666607D02*
X148449761Y-47595178D01*
X148449761Y-47595178D02*
X148417857Y-47452321D01*
X148417857Y-47452321D02*
X148417857Y-47273750D01*
X148417857Y-47273750D02*
X148449761Y-47130892D01*
X148449761Y-47130892D02*
X148481666Y-47059464D01*
X148481666Y-47059464D02*
X148513571Y-47023750D01*
X148513571Y-47023750D02*
X148577380Y-46988035D01*
X137347381Y-73138035D02*
X136964524Y-73138035D01*
X137155952Y-73138035D02*
X137155952Y-72388035D01*
X137155952Y-72388035D02*
X137092143Y-72495178D01*
X137092143Y-72495178D02*
X137028333Y-72566607D01*
X137028333Y-72566607D02*
X136964524Y-72602321D01*
X137921666Y-72388035D02*
X137794047Y-72388035D01*
X137794047Y-72388035D02*
X137730238Y-72423750D01*
X137730238Y-72423750D02*
X137698333Y-72459464D01*
X137698333Y-72459464D02*
X137634523Y-72566607D01*
X137634523Y-72566607D02*
X137602619Y-72709464D01*
X137602619Y-72709464D02*
X137602619Y-72995178D01*
X137602619Y-72995178D02*
X137634523Y-73066607D01*
X137634523Y-73066607D02*
X137666428Y-73102321D01*
X137666428Y-73102321D02*
X137730238Y-73138035D01*
X137730238Y-73138035D02*
X137857857Y-73138035D01*
X137857857Y-73138035D02*
X137921666Y-73102321D01*
X137921666Y-73102321D02*
X137953571Y-73066607D01*
X137953571Y-73066607D02*
X137985476Y-72995178D01*
X137985476Y-72995178D02*
X137985476Y-72816607D01*
X137985476Y-72816607D02*
X137953571Y-72745178D01*
X137953571Y-72745178D02*
X137921666Y-72709464D01*
X137921666Y-72709464D02*
X137857857Y-72673750D01*
X137857857Y-72673750D02*
X137730238Y-72673750D01*
X137730238Y-72673750D02*
X137666428Y-72709464D01*
X137666428Y-72709464D02*
X137634523Y-72745178D01*
X137634523Y-72745178D02*
X137602619Y-72816607D01*
X138751190Y-72352321D02*
X138176904Y-73316607D01*
X139197857Y-72745178D02*
X139293571Y-72780892D01*
X139293571Y-72780892D02*
X139325476Y-72816607D01*
X139325476Y-72816607D02*
X139357380Y-72888035D01*
X139357380Y-72888035D02*
X139357380Y-72995178D01*
X139357380Y-72995178D02*
X139325476Y-73066607D01*
X139325476Y-73066607D02*
X139293571Y-73102321D01*
X139293571Y-73102321D02*
X139229761Y-73138035D01*
X139229761Y-73138035D02*
X138974523Y-73138035D01*
X138974523Y-73138035D02*
X138974523Y-72388035D01*
X138974523Y-72388035D02*
X139197857Y-72388035D01*
X139197857Y-72388035D02*
X139261666Y-72423750D01*
X139261666Y-72423750D02*
X139293571Y-72459464D01*
X139293571Y-72459464D02*
X139325476Y-72530892D01*
X139325476Y-72530892D02*
X139325476Y-72602321D01*
X139325476Y-72602321D02*
X139293571Y-72673750D01*
X139293571Y-72673750D02*
X139261666Y-72709464D01*
X139261666Y-72709464D02*
X139197857Y-72745178D01*
X139197857Y-72745178D02*
X138974523Y-72745178D01*
X139612619Y-72459464D02*
X139644523Y-72423750D01*
X139644523Y-72423750D02*
X139708333Y-72388035D01*
X139708333Y-72388035D02*
X139867857Y-72388035D01*
X139867857Y-72388035D02*
X139931666Y-72423750D01*
X139931666Y-72423750D02*
X139963571Y-72459464D01*
X139963571Y-72459464D02*
X139995476Y-72530892D01*
X139995476Y-72530892D02*
X139995476Y-72602321D01*
X139995476Y-72602321D02*
X139963571Y-72709464D01*
X139963571Y-72709464D02*
X139580714Y-73138035D01*
X139580714Y-73138035D02*
X139995476Y-73138035D01*
X145211428Y-50288035D02*
X145211428Y-49538035D01*
X145211428Y-49538035D02*
X145370952Y-49538035D01*
X145370952Y-49538035D02*
X145466666Y-49573750D01*
X145466666Y-49573750D02*
X145530476Y-49645178D01*
X145530476Y-49645178D02*
X145562381Y-49716607D01*
X145562381Y-49716607D02*
X145594285Y-49859464D01*
X145594285Y-49859464D02*
X145594285Y-49966607D01*
X145594285Y-49966607D02*
X145562381Y-50109464D01*
X145562381Y-50109464D02*
X145530476Y-50180892D01*
X145530476Y-50180892D02*
X145466666Y-50252321D01*
X145466666Y-50252321D02*
X145370952Y-50288035D01*
X145370952Y-50288035D02*
X145211428Y-50288035D01*
X145849524Y-49609464D02*
X145881428Y-49573750D01*
X145881428Y-49573750D02*
X145945238Y-49538035D01*
X145945238Y-49538035D02*
X146104762Y-49538035D01*
X146104762Y-49538035D02*
X146168571Y-49573750D01*
X146168571Y-49573750D02*
X146200476Y-49609464D01*
X146200476Y-49609464D02*
X146232381Y-49680892D01*
X146232381Y-49680892D02*
X146232381Y-49752321D01*
X146232381Y-49752321D02*
X146200476Y-49859464D01*
X146200476Y-49859464D02*
X145817619Y-50288035D01*
X145817619Y-50288035D02*
X146232381Y-50288035D01*
X146998095Y-49502321D02*
X146423809Y-50466607D01*
X147604285Y-50288035D02*
X147380952Y-49930892D01*
X147221428Y-50288035D02*
X147221428Y-49538035D01*
X147221428Y-49538035D02*
X147476666Y-49538035D01*
X147476666Y-49538035D02*
X147540476Y-49573750D01*
X147540476Y-49573750D02*
X147572381Y-49609464D01*
X147572381Y-49609464D02*
X147604285Y-49680892D01*
X147604285Y-49680892D02*
X147604285Y-49788035D01*
X147604285Y-49788035D02*
X147572381Y-49859464D01*
X147572381Y-49859464D02*
X147540476Y-49895178D01*
X147540476Y-49895178D02*
X147476666Y-49930892D01*
X147476666Y-49930892D02*
X147221428Y-49930892D01*
X147827619Y-49538035D02*
X148274285Y-50288035D01*
X148274285Y-49538035D02*
X147827619Y-50288035D01*
X148880476Y-50288035D02*
X148497619Y-50288035D01*
X148689047Y-50288035D02*
X148689047Y-49538035D01*
X148689047Y-49538035D02*
X148625238Y-49645178D01*
X148625238Y-49645178D02*
X148561428Y-49716607D01*
X148561428Y-49716607D02*
X148497619Y-49752321D01*
D12*
X140378571Y-43238035D02*
X140378571Y-42488035D01*
X140378571Y-42488035D02*
X140628571Y-43023750D01*
X140628571Y-43023750D02*
X140878571Y-42488035D01*
X140878571Y-42488035D02*
X140878571Y-43238035D01*
X141235714Y-43238035D02*
X141235714Y-42738035D01*
X141235714Y-42488035D02*
X141200000Y-42523750D01*
X141200000Y-42523750D02*
X141235714Y-42559464D01*
X141235714Y-42559464D02*
X141271428Y-42523750D01*
X141271428Y-42523750D02*
X141235714Y-42488035D01*
X141235714Y-42488035D02*
X141235714Y-42559464D01*
X141914286Y-43202321D02*
X141842857Y-43238035D01*
X141842857Y-43238035D02*
X141700000Y-43238035D01*
X141700000Y-43238035D02*
X141628571Y-43202321D01*
X141628571Y-43202321D02*
X141592857Y-43166607D01*
X141592857Y-43166607D02*
X141557143Y-43095178D01*
X141557143Y-43095178D02*
X141557143Y-42880892D01*
X141557143Y-42880892D02*
X141592857Y-42809464D01*
X141592857Y-42809464D02*
X141628571Y-42773750D01*
X141628571Y-42773750D02*
X141700000Y-42738035D01*
X141700000Y-42738035D02*
X141842857Y-42738035D01*
X141842857Y-42738035D02*
X141914286Y-42773750D01*
X142235714Y-43238035D02*
X142235714Y-42738035D01*
X142235714Y-42880892D02*
X142271428Y-42809464D01*
X142271428Y-42809464D02*
X142307143Y-42773750D01*
X142307143Y-42773750D02*
X142378571Y-42738035D01*
X142378571Y-42738035D02*
X142450000Y-42738035D01*
X142807143Y-43238035D02*
X142735714Y-43202321D01*
X142735714Y-43202321D02*
X142700000Y-43166607D01*
X142700000Y-43166607D02*
X142664286Y-43095178D01*
X142664286Y-43095178D02*
X142664286Y-42880892D01*
X142664286Y-42880892D02*
X142700000Y-42809464D01*
X142700000Y-42809464D02*
X142735714Y-42773750D01*
X142735714Y-42773750D02*
X142807143Y-42738035D01*
X142807143Y-42738035D02*
X142914286Y-42738035D01*
X142914286Y-42738035D02*
X142985714Y-42773750D01*
X142985714Y-42773750D02*
X143021429Y-42809464D01*
X143021429Y-42809464D02*
X143057143Y-42880892D01*
X143057143Y-42880892D02*
X143057143Y-43095178D01*
X143057143Y-43095178D02*
X143021429Y-43166607D01*
X143021429Y-43166607D02*
X142985714Y-43202321D01*
X142985714Y-43202321D02*
X142914286Y-43238035D01*
X142914286Y-43238035D02*
X142807143Y-43238035D01*
X143378571Y-42488035D02*
X143378571Y-43095178D01*
X143378571Y-43095178D02*
X143414285Y-43166607D01*
X143414285Y-43166607D02*
X143450000Y-43202321D01*
X143450000Y-43202321D02*
X143521428Y-43238035D01*
X143521428Y-43238035D02*
X143664285Y-43238035D01*
X143664285Y-43238035D02*
X143735714Y-43202321D01*
X143735714Y-43202321D02*
X143771428Y-43166607D01*
X143771428Y-43166607D02*
X143807142Y-43095178D01*
X143807142Y-43095178D02*
X143807142Y-42488035D01*
X144128571Y-43202321D02*
X144235714Y-43238035D01*
X144235714Y-43238035D02*
X144414285Y-43238035D01*
X144414285Y-43238035D02*
X144485714Y-43202321D01*
X144485714Y-43202321D02*
X144521428Y-43166607D01*
X144521428Y-43166607D02*
X144557142Y-43095178D01*
X144557142Y-43095178D02*
X144557142Y-43023750D01*
X144557142Y-43023750D02*
X144521428Y-42952321D01*
X144521428Y-42952321D02*
X144485714Y-42916607D01*
X144485714Y-42916607D02*
X144414285Y-42880892D01*
X144414285Y-42880892D02*
X144271428Y-42845178D01*
X144271428Y-42845178D02*
X144199999Y-42809464D01*
X144199999Y-42809464D02*
X144164285Y-42773750D01*
X144164285Y-42773750D02*
X144128571Y-42702321D01*
X144128571Y-42702321D02*
X144128571Y-42630892D01*
X144128571Y-42630892D02*
X144164285Y-42559464D01*
X144164285Y-42559464D02*
X144199999Y-42523750D01*
X144199999Y-42523750D02*
X144271428Y-42488035D01*
X144271428Y-42488035D02*
X144449999Y-42488035D01*
X144449999Y-42488035D02*
X144557142Y-42523750D01*
X145128571Y-42845178D02*
X145235714Y-42880892D01*
X145235714Y-42880892D02*
X145271428Y-42916607D01*
X145271428Y-42916607D02*
X145307142Y-42988035D01*
X145307142Y-42988035D02*
X145307142Y-43095178D01*
X145307142Y-43095178D02*
X145271428Y-43166607D01*
X145271428Y-43166607D02*
X145235714Y-43202321D01*
X145235714Y-43202321D02*
X145164285Y-43238035D01*
X145164285Y-43238035D02*
X144878571Y-43238035D01*
X144878571Y-43238035D02*
X144878571Y-42488035D01*
X144878571Y-42488035D02*
X145128571Y-42488035D01*
X145128571Y-42488035D02*
X145200000Y-42523750D01*
X145200000Y-42523750D02*
X145235714Y-42559464D01*
X145235714Y-42559464D02*
X145271428Y-42630892D01*
X145271428Y-42630892D02*
X145271428Y-42702321D01*
X145271428Y-42702321D02*
X145235714Y-42773750D01*
X145235714Y-42773750D02*
X145200000Y-42809464D01*
X145200000Y-42809464D02*
X145128571Y-42845178D01*
X145128571Y-42845178D02*
X144878571Y-42845178D01*
D11*
X143841429Y-57752321D02*
X143937143Y-57788035D01*
X143937143Y-57788035D02*
X144096667Y-57788035D01*
X144096667Y-57788035D02*
X144160476Y-57752321D01*
X144160476Y-57752321D02*
X144192381Y-57716607D01*
X144192381Y-57716607D02*
X144224286Y-57645178D01*
X144224286Y-57645178D02*
X144224286Y-57573750D01*
X144224286Y-57573750D02*
X144192381Y-57502321D01*
X144192381Y-57502321D02*
X144160476Y-57466607D01*
X144160476Y-57466607D02*
X144096667Y-57430892D01*
X144096667Y-57430892D02*
X143969048Y-57395178D01*
X143969048Y-57395178D02*
X143905238Y-57359464D01*
X143905238Y-57359464D02*
X143873333Y-57323750D01*
X143873333Y-57323750D02*
X143841429Y-57252321D01*
X143841429Y-57252321D02*
X143841429Y-57180892D01*
X143841429Y-57180892D02*
X143873333Y-57109464D01*
X143873333Y-57109464D02*
X143905238Y-57073750D01*
X143905238Y-57073750D02*
X143969048Y-57038035D01*
X143969048Y-57038035D02*
X144128571Y-57038035D01*
X144128571Y-57038035D02*
X144224286Y-57073750D01*
X144511428Y-57788035D02*
X144511428Y-57038035D01*
X144511428Y-57038035D02*
X144670952Y-57038035D01*
X144670952Y-57038035D02*
X144766666Y-57073750D01*
X144766666Y-57073750D02*
X144830476Y-57145178D01*
X144830476Y-57145178D02*
X144862381Y-57216607D01*
X144862381Y-57216607D02*
X144894285Y-57359464D01*
X144894285Y-57359464D02*
X144894285Y-57466607D01*
X144894285Y-57466607D02*
X144862381Y-57609464D01*
X144862381Y-57609464D02*
X144830476Y-57680892D01*
X144830476Y-57680892D02*
X144766666Y-57752321D01*
X144766666Y-57752321D02*
X144670952Y-57788035D01*
X144670952Y-57788035D02*
X144511428Y-57788035D01*
X145149524Y-57573750D02*
X145468571Y-57573750D01*
X145085714Y-57788035D02*
X145309047Y-57038035D01*
X145309047Y-57038035D02*
X145532381Y-57788035D01*
X146234286Y-57002321D02*
X145660000Y-57966607D01*
X146457619Y-57788035D02*
X146457619Y-57038035D01*
X146457619Y-57038035D02*
X146617143Y-57038035D01*
X146617143Y-57038035D02*
X146712857Y-57073750D01*
X146712857Y-57073750D02*
X146776667Y-57145178D01*
X146776667Y-57145178D02*
X146808572Y-57216607D01*
X146808572Y-57216607D02*
X146840476Y-57359464D01*
X146840476Y-57359464D02*
X146840476Y-57466607D01*
X146840476Y-57466607D02*
X146808572Y-57609464D01*
X146808572Y-57609464D02*
X146776667Y-57680892D01*
X146776667Y-57680892D02*
X146712857Y-57752321D01*
X146712857Y-57752321D02*
X146617143Y-57788035D01*
X146617143Y-57788035D02*
X146457619Y-57788035D01*
X147478572Y-57788035D02*
X147095715Y-57788035D01*
X147287143Y-57788035D02*
X147287143Y-57038035D01*
X147287143Y-57038035D02*
X147223334Y-57145178D01*
X147223334Y-57145178D02*
X147159524Y-57216607D01*
X147159524Y-57216607D02*
X147095715Y-57252321D01*
X148244286Y-57002321D02*
X147670000Y-57966607D01*
X148435715Y-57109464D02*
X148467619Y-57073750D01*
X148467619Y-57073750D02*
X148531429Y-57038035D01*
X148531429Y-57038035D02*
X148690953Y-57038035D01*
X148690953Y-57038035D02*
X148754762Y-57073750D01*
X148754762Y-57073750D02*
X148786667Y-57109464D01*
X148786667Y-57109464D02*
X148818572Y-57180892D01*
X148818572Y-57180892D02*
X148818572Y-57252321D01*
X148818572Y-57252321D02*
X148786667Y-57359464D01*
X148786667Y-57359464D02*
X148403810Y-57788035D01*
X148403810Y-57788035D02*
X148818572Y-57788035D01*
X137347381Y-70588035D02*
X136964524Y-70588035D01*
X137155952Y-70588035D02*
X137155952Y-69838035D01*
X137155952Y-69838035D02*
X137092143Y-69945178D01*
X137092143Y-69945178D02*
X137028333Y-70016607D01*
X137028333Y-70016607D02*
X136964524Y-70052321D01*
X137921666Y-70088035D02*
X137921666Y-70588035D01*
X137762142Y-69802321D02*
X137602619Y-70338035D01*
X137602619Y-70338035D02*
X138017380Y-70338035D01*
X138751190Y-69802321D02*
X138176904Y-70766607D01*
X139197857Y-70195178D02*
X139293571Y-70230892D01*
X139293571Y-70230892D02*
X139325476Y-70266607D01*
X139325476Y-70266607D02*
X139357380Y-70338035D01*
X139357380Y-70338035D02*
X139357380Y-70445178D01*
X139357380Y-70445178D02*
X139325476Y-70516607D01*
X139325476Y-70516607D02*
X139293571Y-70552321D01*
X139293571Y-70552321D02*
X139229761Y-70588035D01*
X139229761Y-70588035D02*
X138974523Y-70588035D01*
X138974523Y-70588035D02*
X138974523Y-69838035D01*
X138974523Y-69838035D02*
X139197857Y-69838035D01*
X139197857Y-69838035D02*
X139261666Y-69873750D01*
X139261666Y-69873750D02*
X139293571Y-69909464D01*
X139293571Y-69909464D02*
X139325476Y-69980892D01*
X139325476Y-69980892D02*
X139325476Y-70052321D01*
X139325476Y-70052321D02*
X139293571Y-70123750D01*
X139293571Y-70123750D02*
X139261666Y-70159464D01*
X139261666Y-70159464D02*
X139197857Y-70195178D01*
X139197857Y-70195178D02*
X138974523Y-70195178D01*
X139580714Y-69838035D02*
X139995476Y-69838035D01*
X139995476Y-69838035D02*
X139772142Y-70123750D01*
X139772142Y-70123750D02*
X139867857Y-70123750D01*
X139867857Y-70123750D02*
X139931666Y-70159464D01*
X139931666Y-70159464D02*
X139963571Y-70195178D01*
X139963571Y-70195178D02*
X139995476Y-70266607D01*
X139995476Y-70266607D02*
X139995476Y-70445178D01*
X139995476Y-70445178D02*
X139963571Y-70516607D01*
X139963571Y-70516607D02*
X139931666Y-70552321D01*
X139931666Y-70552321D02*
X139867857Y-70588035D01*
X139867857Y-70588035D02*
X139676428Y-70588035D01*
X139676428Y-70588035D02*
X139612619Y-70552321D01*
X139612619Y-70552321D02*
X139580714Y-70516607D01*
X137417380Y-47688035D02*
X137194047Y-47330892D01*
X137034523Y-47688035D02*
X137034523Y-46938035D01*
X137034523Y-46938035D02*
X137289761Y-46938035D01*
X137289761Y-46938035D02*
X137353571Y-46973750D01*
X137353571Y-46973750D02*
X137385476Y-47009464D01*
X137385476Y-47009464D02*
X137417380Y-47080892D01*
X137417380Y-47080892D02*
X137417380Y-47188035D01*
X137417380Y-47188035D02*
X137385476Y-47259464D01*
X137385476Y-47259464D02*
X137353571Y-47295178D01*
X137353571Y-47295178D02*
X137289761Y-47330892D01*
X137289761Y-47330892D02*
X137034523Y-47330892D01*
X137672619Y-47473750D02*
X137991666Y-47473750D01*
X137608809Y-47688035D02*
X137832142Y-46938035D01*
X137832142Y-46938035D02*
X138055476Y-47688035D01*
X138215000Y-46938035D02*
X138374524Y-47688035D01*
X138374524Y-47688035D02*
X138502143Y-47152321D01*
X138502143Y-47152321D02*
X138629762Y-47688035D01*
X138629762Y-47688035D02*
X138789286Y-46938035D01*
X137044286Y-62723750D02*
X137363333Y-62723750D01*
X136980476Y-62938035D02*
X137203809Y-62188035D01*
X137203809Y-62188035D02*
X137427143Y-62938035D01*
X138001429Y-62938035D02*
X137618572Y-62938035D01*
X137810000Y-62938035D02*
X137810000Y-62188035D01*
X137810000Y-62188035D02*
X137746191Y-62295178D01*
X137746191Y-62295178D02*
X137682381Y-62366607D01*
X137682381Y-62366607D02*
X137618572Y-62402321D01*
X138767143Y-62152321D02*
X138192857Y-63116607D01*
X139213810Y-62545178D02*
X138990476Y-62545178D01*
X138990476Y-62938035D02*
X138990476Y-62188035D01*
X138990476Y-62188035D02*
X139309524Y-62188035D01*
X139851905Y-62188035D02*
X139724286Y-62188035D01*
X139724286Y-62188035D02*
X139660477Y-62223750D01*
X139660477Y-62223750D02*
X139628572Y-62259464D01*
X139628572Y-62259464D02*
X139564762Y-62366607D01*
X139564762Y-62366607D02*
X139532858Y-62509464D01*
X139532858Y-62509464D02*
X139532858Y-62795178D01*
X139532858Y-62795178D02*
X139564762Y-62866607D01*
X139564762Y-62866607D02*
X139596667Y-62902321D01*
X139596667Y-62902321D02*
X139660477Y-62938035D01*
X139660477Y-62938035D02*
X139788096Y-62938035D01*
X139788096Y-62938035D02*
X139851905Y-62902321D01*
X139851905Y-62902321D02*
X139883810Y-62866607D01*
X139883810Y-62866607D02*
X139915715Y-62795178D01*
X139915715Y-62795178D02*
X139915715Y-62616607D01*
X139915715Y-62616607D02*
X139883810Y-62545178D01*
X139883810Y-62545178D02*
X139851905Y-62509464D01*
X139851905Y-62509464D02*
X139788096Y-62473750D01*
X139788096Y-62473750D02*
X139660477Y-62473750D01*
X139660477Y-62473750D02*
X139596667Y-62509464D01*
X139596667Y-62509464D02*
X139564762Y-62545178D01*
X139564762Y-62545178D02*
X139532858Y-62616607D01*
X136986666Y-54488035D02*
X137209999Y-55238035D01*
X137209999Y-55238035D02*
X137433333Y-54488035D01*
X138039523Y-55166607D02*
X138007619Y-55202321D01*
X138007619Y-55202321D02*
X137911904Y-55238035D01*
X137911904Y-55238035D02*
X137848095Y-55238035D01*
X137848095Y-55238035D02*
X137752381Y-55202321D01*
X137752381Y-55202321D02*
X137688571Y-55130892D01*
X137688571Y-55130892D02*
X137656666Y-55059464D01*
X137656666Y-55059464D02*
X137624762Y-54916607D01*
X137624762Y-54916607D02*
X137624762Y-54809464D01*
X137624762Y-54809464D02*
X137656666Y-54666607D01*
X137656666Y-54666607D02*
X137688571Y-54595178D01*
X137688571Y-54595178D02*
X137752381Y-54523750D01*
X137752381Y-54523750D02*
X137848095Y-54488035D01*
X137848095Y-54488035D02*
X137911904Y-54488035D01*
X137911904Y-54488035D02*
X138007619Y-54523750D01*
X138007619Y-54523750D02*
X138039523Y-54559464D01*
X138709523Y-55166607D02*
X138677619Y-55202321D01*
X138677619Y-55202321D02*
X138581904Y-55238035D01*
X138581904Y-55238035D02*
X138518095Y-55238035D01*
X138518095Y-55238035D02*
X138422381Y-55202321D01*
X138422381Y-55202321D02*
X138358571Y-55130892D01*
X138358571Y-55130892D02*
X138326666Y-55059464D01*
X138326666Y-55059464D02*
X138294762Y-54916607D01*
X138294762Y-54916607D02*
X138294762Y-54809464D01*
X138294762Y-54809464D02*
X138326666Y-54666607D01*
X138326666Y-54666607D02*
X138358571Y-54595178D01*
X138358571Y-54595178D02*
X138422381Y-54523750D01*
X138422381Y-54523750D02*
X138518095Y-54488035D01*
X138518095Y-54488035D02*
X138581904Y-54488035D01*
X138581904Y-54488035D02*
X138677619Y-54523750D01*
X138677619Y-54523750D02*
X138709523Y-54559464D01*
X137044286Y-60223750D02*
X137363333Y-60223750D01*
X136980476Y-60438035D02*
X137203809Y-59688035D01*
X137203809Y-59688035D02*
X137427143Y-60438035D01*
X137618572Y-59759464D02*
X137650476Y-59723750D01*
X137650476Y-59723750D02*
X137714286Y-59688035D01*
X137714286Y-59688035D02*
X137873810Y-59688035D01*
X137873810Y-59688035D02*
X137937619Y-59723750D01*
X137937619Y-59723750D02*
X137969524Y-59759464D01*
X137969524Y-59759464D02*
X138001429Y-59830892D01*
X138001429Y-59830892D02*
X138001429Y-59902321D01*
X138001429Y-59902321D02*
X137969524Y-60009464D01*
X137969524Y-60009464D02*
X137586667Y-60438035D01*
X137586667Y-60438035D02*
X138001429Y-60438035D01*
X138767143Y-59652321D02*
X138192857Y-60616607D01*
X139213810Y-60045178D02*
X138990476Y-60045178D01*
X138990476Y-60438035D02*
X138990476Y-59688035D01*
X138990476Y-59688035D02*
X139309524Y-59688035D01*
X139883810Y-59688035D02*
X139564762Y-59688035D01*
X139564762Y-59688035D02*
X139532858Y-60045178D01*
X139532858Y-60045178D02*
X139564762Y-60009464D01*
X139564762Y-60009464D02*
X139628572Y-59973750D01*
X139628572Y-59973750D02*
X139788096Y-59973750D01*
X139788096Y-59973750D02*
X139851905Y-60009464D01*
X139851905Y-60009464D02*
X139883810Y-60045178D01*
X139883810Y-60045178D02*
X139915715Y-60116607D01*
X139915715Y-60116607D02*
X139915715Y-60295178D01*
X139915715Y-60295178D02*
X139883810Y-60366607D01*
X139883810Y-60366607D02*
X139851905Y-60402321D01*
X139851905Y-60402321D02*
X139788096Y-60438035D01*
X139788096Y-60438035D02*
X139628572Y-60438035D01*
X139628572Y-60438035D02*
X139564762Y-60402321D01*
X139564762Y-60402321D02*
X139532858Y-60366607D01*
X146638810Y-72595178D02*
X146734524Y-72630892D01*
X146734524Y-72630892D02*
X146766429Y-72666607D01*
X146766429Y-72666607D02*
X146798333Y-72738035D01*
X146798333Y-72738035D02*
X146798333Y-72845178D01*
X146798333Y-72845178D02*
X146766429Y-72916607D01*
X146766429Y-72916607D02*
X146734524Y-72952321D01*
X146734524Y-72952321D02*
X146670714Y-72988035D01*
X146670714Y-72988035D02*
X146415476Y-72988035D01*
X146415476Y-72988035D02*
X146415476Y-72238035D01*
X146415476Y-72238035D02*
X146638810Y-72238035D01*
X146638810Y-72238035D02*
X146702619Y-72273750D01*
X146702619Y-72273750D02*
X146734524Y-72309464D01*
X146734524Y-72309464D02*
X146766429Y-72380892D01*
X146766429Y-72380892D02*
X146766429Y-72452321D01*
X146766429Y-72452321D02*
X146734524Y-72523750D01*
X146734524Y-72523750D02*
X146702619Y-72559464D01*
X146702619Y-72559464D02*
X146638810Y-72595178D01*
X146638810Y-72595178D02*
X146415476Y-72595178D01*
X147372619Y-72488035D02*
X147372619Y-72988035D01*
X147213095Y-72202321D02*
X147053572Y-72738035D01*
X147053572Y-72738035D02*
X147468333Y-72738035D01*
X148202143Y-72202321D02*
X147627857Y-73166607D01*
X148521191Y-72559464D02*
X148457381Y-72523750D01*
X148457381Y-72523750D02*
X148425476Y-72488035D01*
X148425476Y-72488035D02*
X148393572Y-72416607D01*
X148393572Y-72416607D02*
X148393572Y-72380892D01*
X148393572Y-72380892D02*
X148425476Y-72309464D01*
X148425476Y-72309464D02*
X148457381Y-72273750D01*
X148457381Y-72273750D02*
X148521191Y-72238035D01*
X148521191Y-72238035D02*
X148648810Y-72238035D01*
X148648810Y-72238035D02*
X148712619Y-72273750D01*
X148712619Y-72273750D02*
X148744524Y-72309464D01*
X148744524Y-72309464D02*
X148776429Y-72380892D01*
X148776429Y-72380892D02*
X148776429Y-72416607D01*
X148776429Y-72416607D02*
X148744524Y-72488035D01*
X148744524Y-72488035D02*
X148712619Y-72523750D01*
X148712619Y-72523750D02*
X148648810Y-72559464D01*
X148648810Y-72559464D02*
X148521191Y-72559464D01*
X148521191Y-72559464D02*
X148457381Y-72595178D01*
X148457381Y-72595178D02*
X148425476Y-72630892D01*
X148425476Y-72630892D02*
X148393572Y-72702321D01*
X148393572Y-72702321D02*
X148393572Y-72845178D01*
X148393572Y-72845178D02*
X148425476Y-72916607D01*
X148425476Y-72916607D02*
X148457381Y-72952321D01*
X148457381Y-72952321D02*
X148521191Y-72988035D01*
X148521191Y-72988035D02*
X148648810Y-72988035D01*
X148648810Y-72988035D02*
X148712619Y-72952321D01*
X148712619Y-72952321D02*
X148744524Y-72916607D01*
X148744524Y-72916607D02*
X148776429Y-72845178D01*
X148776429Y-72845178D02*
X148776429Y-72702321D01*
X148776429Y-72702321D02*
X148744524Y-72630892D01*
X148744524Y-72630892D02*
X148712619Y-72595178D01*
X148712619Y-72595178D02*
X148648810Y-72559464D01*
X147319524Y-54573750D02*
X147255714Y-54538035D01*
X147255714Y-54538035D02*
X147160000Y-54538035D01*
X147160000Y-54538035D02*
X147064286Y-54573750D01*
X147064286Y-54573750D02*
X147000476Y-54645178D01*
X147000476Y-54645178D02*
X146968571Y-54716607D01*
X146968571Y-54716607D02*
X146936667Y-54859464D01*
X146936667Y-54859464D02*
X146936667Y-54966607D01*
X146936667Y-54966607D02*
X146968571Y-55109464D01*
X146968571Y-55109464D02*
X147000476Y-55180892D01*
X147000476Y-55180892D02*
X147064286Y-55252321D01*
X147064286Y-55252321D02*
X147160000Y-55288035D01*
X147160000Y-55288035D02*
X147223809Y-55288035D01*
X147223809Y-55288035D02*
X147319524Y-55252321D01*
X147319524Y-55252321D02*
X147351428Y-55216607D01*
X147351428Y-55216607D02*
X147351428Y-54966607D01*
X147351428Y-54966607D02*
X147223809Y-54966607D01*
X147638571Y-55288035D02*
X147638571Y-54538035D01*
X147638571Y-54538035D02*
X148021428Y-55288035D01*
X148021428Y-55288035D02*
X148021428Y-54538035D01*
X148340476Y-55288035D02*
X148340476Y-54538035D01*
X148340476Y-54538035D02*
X148500000Y-54538035D01*
X148500000Y-54538035D02*
X148595714Y-54573750D01*
X148595714Y-54573750D02*
X148659524Y-54645178D01*
X148659524Y-54645178D02*
X148691429Y-54716607D01*
X148691429Y-54716607D02*
X148723333Y-54859464D01*
X148723333Y-54859464D02*
X148723333Y-54966607D01*
X148723333Y-54966607D02*
X148691429Y-55109464D01*
X148691429Y-55109464D02*
X148659524Y-55180892D01*
X148659524Y-55180892D02*
X148595714Y-55252321D01*
X148595714Y-55252321D02*
X148500000Y-55288035D01*
X148500000Y-55288035D02*
X148340476Y-55288035D01*
X146798333Y-65266607D02*
X146766429Y-65302321D01*
X146766429Y-65302321D02*
X146670714Y-65338035D01*
X146670714Y-65338035D02*
X146606905Y-65338035D01*
X146606905Y-65338035D02*
X146511191Y-65302321D01*
X146511191Y-65302321D02*
X146447381Y-65230892D01*
X146447381Y-65230892D02*
X146415476Y-65159464D01*
X146415476Y-65159464D02*
X146383572Y-65016607D01*
X146383572Y-65016607D02*
X146383572Y-64909464D01*
X146383572Y-64909464D02*
X146415476Y-64766607D01*
X146415476Y-64766607D02*
X146447381Y-64695178D01*
X146447381Y-64695178D02*
X146511191Y-64623750D01*
X146511191Y-64623750D02*
X146606905Y-64588035D01*
X146606905Y-64588035D02*
X146670714Y-64588035D01*
X146670714Y-64588035D02*
X146766429Y-64623750D01*
X146766429Y-64623750D02*
X146798333Y-64659464D01*
X147372619Y-64588035D02*
X147245000Y-64588035D01*
X147245000Y-64588035D02*
X147181191Y-64623750D01*
X147181191Y-64623750D02*
X147149286Y-64659464D01*
X147149286Y-64659464D02*
X147085476Y-64766607D01*
X147085476Y-64766607D02*
X147053572Y-64909464D01*
X147053572Y-64909464D02*
X147053572Y-65195178D01*
X147053572Y-65195178D02*
X147085476Y-65266607D01*
X147085476Y-65266607D02*
X147117381Y-65302321D01*
X147117381Y-65302321D02*
X147181191Y-65338035D01*
X147181191Y-65338035D02*
X147308810Y-65338035D01*
X147308810Y-65338035D02*
X147372619Y-65302321D01*
X147372619Y-65302321D02*
X147404524Y-65266607D01*
X147404524Y-65266607D02*
X147436429Y-65195178D01*
X147436429Y-65195178D02*
X147436429Y-65016607D01*
X147436429Y-65016607D02*
X147404524Y-64945178D01*
X147404524Y-64945178D02*
X147372619Y-64909464D01*
X147372619Y-64909464D02*
X147308810Y-64873750D01*
X147308810Y-64873750D02*
X147181191Y-64873750D01*
X147181191Y-64873750D02*
X147117381Y-64909464D01*
X147117381Y-64909464D02*
X147085476Y-64945178D01*
X147085476Y-64945178D02*
X147053572Y-65016607D01*
X148202143Y-64552321D02*
X147627857Y-65516607D01*
X148744524Y-64588035D02*
X148425476Y-64588035D01*
X148425476Y-64588035D02*
X148393572Y-64945178D01*
X148393572Y-64945178D02*
X148425476Y-64909464D01*
X148425476Y-64909464D02*
X148489286Y-64873750D01*
X148489286Y-64873750D02*
X148648810Y-64873750D01*
X148648810Y-64873750D02*
X148712619Y-64909464D01*
X148712619Y-64909464D02*
X148744524Y-64945178D01*
X148744524Y-64945178D02*
X148776429Y-65016607D01*
X148776429Y-65016607D02*
X148776429Y-65195178D01*
X148776429Y-65195178D02*
X148744524Y-65266607D01*
X148744524Y-65266607D02*
X148712619Y-65302321D01*
X148712619Y-65302321D02*
X148648810Y-65338035D01*
X148648810Y-65338035D02*
X148489286Y-65338035D01*
X148489286Y-65338035D02*
X148425476Y-65302321D01*
X148425476Y-65302321D02*
X148393572Y-65266607D01*
X137044286Y-57723750D02*
X137363333Y-57723750D01*
X136980476Y-57938035D02*
X137203809Y-57188035D01*
X137203809Y-57188035D02*
X137427143Y-57938035D01*
X137586667Y-57188035D02*
X138001429Y-57188035D01*
X138001429Y-57188035D02*
X137778095Y-57473750D01*
X137778095Y-57473750D02*
X137873810Y-57473750D01*
X137873810Y-57473750D02*
X137937619Y-57509464D01*
X137937619Y-57509464D02*
X137969524Y-57545178D01*
X137969524Y-57545178D02*
X138001429Y-57616607D01*
X138001429Y-57616607D02*
X138001429Y-57795178D01*
X138001429Y-57795178D02*
X137969524Y-57866607D01*
X137969524Y-57866607D02*
X137937619Y-57902321D01*
X137937619Y-57902321D02*
X137873810Y-57938035D01*
X137873810Y-57938035D02*
X137682381Y-57938035D01*
X137682381Y-57938035D02*
X137618572Y-57902321D01*
X137618572Y-57902321D02*
X137586667Y-57866607D01*
X138767143Y-57152321D02*
X138192857Y-58116607D01*
X139213810Y-57545178D02*
X138990476Y-57545178D01*
X138990476Y-57938035D02*
X138990476Y-57188035D01*
X138990476Y-57188035D02*
X139309524Y-57188035D01*
X139851905Y-57438035D02*
X139851905Y-57938035D01*
X139692381Y-57152321D02*
X139532858Y-57688035D01*
X139532858Y-57688035D02*
X139947619Y-57688035D01*
D10*
%TO.C,RESW1*%
X150386130Y-83605506D02*
X149909940Y-83938839D01*
X150386130Y-84176934D02*
X149386130Y-84176934D01*
X149386130Y-84176934D02*
X149386130Y-83795982D01*
X149386130Y-83795982D02*
X149433750Y-83700744D01*
X149433750Y-83700744D02*
X149481369Y-83653125D01*
X149481369Y-83653125D02*
X149576607Y-83605506D01*
X149576607Y-83605506D02*
X149719464Y-83605506D01*
X149719464Y-83605506D02*
X149814702Y-83653125D01*
X149814702Y-83653125D02*
X149862321Y-83700744D01*
X149862321Y-83700744D02*
X149909940Y-83795982D01*
X149909940Y-83795982D02*
X149909940Y-84176934D01*
X149862321Y-83176934D02*
X149862321Y-82843601D01*
X150386130Y-82700744D02*
X150386130Y-83176934D01*
X150386130Y-83176934D02*
X149386130Y-83176934D01*
X149386130Y-83176934D02*
X149386130Y-82700744D01*
X150338511Y-82319791D02*
X150386130Y-82176934D01*
X150386130Y-82176934D02*
X150386130Y-81938839D01*
X150386130Y-81938839D02*
X150338511Y-81843601D01*
X150338511Y-81843601D02*
X150290892Y-81795982D01*
X150290892Y-81795982D02*
X150195654Y-81748363D01*
X150195654Y-81748363D02*
X150100416Y-81748363D01*
X150100416Y-81748363D02*
X150005178Y-81795982D01*
X150005178Y-81795982D02*
X149957559Y-81843601D01*
X149957559Y-81843601D02*
X149909940Y-81938839D01*
X149909940Y-81938839D02*
X149862321Y-82129315D01*
X149862321Y-82129315D02*
X149814702Y-82224553D01*
X149814702Y-82224553D02*
X149767083Y-82272172D01*
X149767083Y-82272172D02*
X149671845Y-82319791D01*
X149671845Y-82319791D02*
X149576607Y-82319791D01*
X149576607Y-82319791D02*
X149481369Y-82272172D01*
X149481369Y-82272172D02*
X149433750Y-82224553D01*
X149433750Y-82224553D02*
X149386130Y-82129315D01*
X149386130Y-82129315D02*
X149386130Y-81891220D01*
X149386130Y-81891220D02*
X149433750Y-81748363D01*
X149862321Y-81319791D02*
X149862321Y-80986458D01*
X150386130Y-80843601D02*
X150386130Y-81319791D01*
X150386130Y-81319791D02*
X149386130Y-81319791D01*
X149386130Y-81319791D02*
X149386130Y-80843601D01*
X149386130Y-80557886D02*
X149386130Y-79986458D01*
X150386130Y-80272172D02*
X149386130Y-80272172D01*
%TO.C,J1*%
X144573630Y-91499404D02*
X144573630Y-90927976D01*
X145573630Y-91213690D02*
X144573630Y-91213690D01*
X145573630Y-90023214D02*
X145097440Y-90356547D01*
X145573630Y-90594642D02*
X144573630Y-90594642D01*
X144573630Y-90594642D02*
X144573630Y-90213690D01*
X144573630Y-90213690D02*
X144621250Y-90118452D01*
X144621250Y-90118452D02*
X144668869Y-90070833D01*
X144668869Y-90070833D02*
X144764107Y-90023214D01*
X144764107Y-90023214D02*
X144906964Y-90023214D01*
X144906964Y-90023214D02*
X145002202Y-90070833D01*
X145002202Y-90070833D02*
X145049821Y-90118452D01*
X145049821Y-90118452D02*
X145097440Y-90213690D01*
X145097440Y-90213690D02*
X145097440Y-90594642D01*
X145573630Y-89023214D02*
X145097440Y-89356547D01*
X145573630Y-89594642D02*
X144573630Y-89594642D01*
X144573630Y-89594642D02*
X144573630Y-89213690D01*
X144573630Y-89213690D02*
X144621250Y-89118452D01*
X144621250Y-89118452D02*
X144668869Y-89070833D01*
X144668869Y-89070833D02*
X144764107Y-89023214D01*
X144764107Y-89023214D02*
X144906964Y-89023214D01*
X144906964Y-89023214D02*
X145002202Y-89070833D01*
X145002202Y-89070833D02*
X145049821Y-89118452D01*
X145049821Y-89118452D02*
X145097440Y-89213690D01*
X145097440Y-89213690D02*
X145097440Y-89594642D01*
X145526011Y-88642261D02*
X145573630Y-88499404D01*
X145573630Y-88499404D02*
X145573630Y-88261309D01*
X145573630Y-88261309D02*
X145526011Y-88166071D01*
X145526011Y-88166071D02*
X145478392Y-88118452D01*
X145478392Y-88118452D02*
X145383154Y-88070833D01*
X145383154Y-88070833D02*
X145287916Y-88070833D01*
X145287916Y-88070833D02*
X145192678Y-88118452D01*
X145192678Y-88118452D02*
X145145059Y-88166071D01*
X145145059Y-88166071D02*
X145097440Y-88261309D01*
X145097440Y-88261309D02*
X145049821Y-88451785D01*
X145049821Y-88451785D02*
X145002202Y-88547023D01*
X145002202Y-88547023D02*
X144954583Y-88594642D01*
X144954583Y-88594642D02*
X144859345Y-88642261D01*
X144859345Y-88642261D02*
X144764107Y-88642261D01*
X144764107Y-88642261D02*
X144668869Y-88594642D01*
X144668869Y-88594642D02*
X144621250Y-88547023D01*
X144621250Y-88547023D02*
X144573630Y-88451785D01*
X144573630Y-88451785D02*
X144573630Y-88213690D01*
X144573630Y-88213690D02*
X144621250Y-88070833D01*
%TO.C,U1*%
X134125000Y-46312500D02*
X134125000Y-47162500D01*
X134125000Y-46312500D02*
X134975000Y-46312500D01*
X134125000Y-75612500D02*
X134125000Y-76512500D01*
X134125000Y-76512500D02*
X134975000Y-76512500D01*
X139125000Y-40712500D02*
X139125000Y-42012500D01*
X139125000Y-42012500D02*
X146625000Y-42012500D01*
X142375000Y-41062500D02*
X143375000Y-41062500D01*
X142525000Y-41212500D02*
X143225000Y-41212500D01*
X142625000Y-41362500D02*
X143125000Y-41362500D01*
X142725000Y-41512500D02*
X143025000Y-41512500D01*
X142875000Y-41712500D02*
X142375000Y-41062500D01*
X143375000Y-41062500D02*
X142875000Y-41712500D01*
X146625000Y-40712500D02*
X139125000Y-40712500D01*
X146625000Y-42012500D02*
X146625000Y-40712500D01*
X151625000Y-46312500D02*
X150825000Y-46312500D01*
X151625000Y-46312500D02*
X151625000Y-47162500D01*
X151625000Y-75662500D02*
X151625000Y-76512500D01*
X151625000Y-76512500D02*
X150765000Y-76512500D01*
%TO.C,RESW1*%
X148418750Y-85003125D02*
X148668750Y-85003125D01*
X148418750Y-85003125D02*
X148418750Y-79303125D01*
X151618750Y-85003125D02*
X151368750Y-85003125D01*
X151618750Y-85003125D02*
X151618750Y-79303125D01*
X148418750Y-79303125D02*
X148668750Y-79303125D01*
X151618750Y-79303125D02*
X151368750Y-79303125D01*
%TO.C,J1*%
X151506250Y-87587500D02*
X151506250Y-93387500D01*
X139756250Y-87587500D02*
X151506250Y-87587500D01*
X151506250Y-93387500D02*
X139756250Y-93387500D01*
X139756250Y-93387500D02*
X139756250Y-87587500D01*
%TD*%
M02*
