M48
; DRILL file {KiCad (7.0.0)} date Sun Apr 23 18:47:34 2023
; FORMAT={-:-/ absolute / inch / decimal}
; #@! TF.CreationDate,2023-04-23T18:47:34+09:00
; #@! TF.GenerationSoftware,Kicad,Pcbnew,(7.0.0)
; #@! TF.FileFunction,NonPlated,1,2,NPTH
FMAT,2
INCH
; #@! TA.AperFunction,NonPlated,NPTH,ComponentDrill
T1C0.0472
; #@! TA.AperFunction,NonPlated,NPTH,ComponentDrill
T2C0.0748
; #@! TA.AperFunction,NonPlated,NPTH,ComponentDrill
T3C0.1181
; #@! TA.AperFunction,NonPlated,NPTH,ComponentDrill
T4C0.1614
; #@! TA.AperFunction,NonPlated,NPTH,ComponentDrill
T5C0.1693
%
G90
G05
T1
X5.6361Y-3.5625
X5.9117Y-3.5625
T2
X0.925Y-1.2188
X0.925Y-1.9688
X0.925Y-2.7188
X1.325Y-1.2188
X1.325Y-1.9688
X1.325Y-2.7188
X1.675Y-1.4062
X1.675Y-2.1562
X1.675Y-2.9062
X2.075Y-1.4062
X2.075Y-2.1562
X2.075Y-2.9062
X2.425Y-1.4062
X2.425Y-2.1562
X2.425Y-2.9062
X2.825Y-1.4062
X2.825Y-2.1562
X2.825Y-2.9062
X2.9875Y-3.6562
X3.175Y-1.4062
X3.175Y-2.1562
X3.175Y-2.9062
X3.3875Y-3.6562
X3.575Y-1.4062
X3.575Y-2.1562
X3.575Y-2.9062
X3.7375Y-3.8438
X3.925Y-1.5938
X3.925Y-2.3438
X3.925Y-3.0938
X4.1375Y-3.8438
X4.325Y-1.5938
X4.325Y-2.3438
X4.325Y-3.0938
X4.4875Y-4.2188
X4.675Y-1.9688
X4.675Y-2.7188
X4.675Y-3.4688
X4.8875Y-4.2188
X5.075Y-1.9688
X5.075Y-2.7188
X5.075Y-3.4688
X5.2375Y-4.5938
X5.6375Y-4.5938
T3
X0.975Y-1.1187
X0.975Y-1.8687
X0.975Y-2.6187
X1.225Y-1.0188
X1.225Y-1.7688
X1.225Y-2.5187
X1.725Y-1.3062
X1.725Y-2.0562
X1.725Y-2.8062
X1.975Y-1.2063
X1.975Y-1.9563
X1.975Y-2.7062
X2.475Y-1.3062
X2.475Y-2.0562
X2.475Y-2.8062
X2.725Y-1.2063
X2.725Y-1.9563
X2.725Y-2.7062
X3.0375Y-3.5562
X3.225Y-1.3062
X3.225Y-2.0562
X3.225Y-2.8062
X3.2875Y-3.4562
X3.475Y-1.2063
X3.475Y-1.9563
X3.475Y-2.7062
X3.7875Y-3.7437
X3.975Y-1.4937
X3.975Y-2.2437
X3.975Y-2.9937
X4.0375Y-3.6437
X4.225Y-1.3938
X4.225Y-2.1437
X4.225Y-2.8937
X4.5375Y-4.1187
X4.725Y-1.8687
X4.725Y-2.6187
X4.725Y-3.3687
X4.7875Y-4.0187
X4.975Y-1.7688
X4.975Y-2.5187
X4.975Y-3.2687
X5.2875Y-4.4937
X5.5375Y-4.3937
T4
X1.125Y-1.2188
X1.125Y-1.9688
X1.125Y-2.7188
X1.875Y-1.4062
X1.875Y-2.1562
X1.875Y-2.9062
X2.625Y-1.4062
X2.625Y-2.1562
X2.625Y-2.9062
X3.1875Y-3.6562
X3.375Y-1.4062
X3.375Y-2.1562
X3.375Y-2.9062
X3.9375Y-3.8438
X4.125Y-1.5938
X4.125Y-2.3438
X4.125Y-3.0938
X4.6875Y-4.2188
X4.875Y-1.9688
X4.875Y-2.7188
X4.875Y-3.4688
X5.4375Y-4.5938
T5
X1.5Y-1.5938
X1.5Y-2.3438
X3.0Y-1.7812
X3.0Y-3.2812
X5.0625Y-2.3438
X5.0625Y-4.2656
T0
M30
