%TF.GenerationSoftware,KiCad,Pcbnew,(7.0.0)*%
%TF.CreationDate,2023-04-27T20:39:39+09:00*%
%TF.ProjectId,topplate_l,746f7070-6c61-4746-955f-6c2e6b696361,rev?*%
%TF.SameCoordinates,Original*%
%TF.FileFunction,Copper,L1,Top*%
%TF.FilePolarity,Positive*%
%FSLAX46Y46*%
G04 Gerber Fmt 4.6, Leading zero omitted, Abs format (unit mm)*
G04 Created by KiCad (PCBNEW (7.0.0)) date 2023-04-27 20:39:39*
%MOMM*%
%LPD*%
G01*
G04 APERTURE LIST*
%TA.AperFunction,ComponentPad*%
%ADD10C,4.200000*%
%TD*%
G04 APERTURE END LIST*
D10*
%TO.P,Ref\u002A\u002A,*%
%TO.N,*%
X76200000Y-45243750D03*
%TD*%
%TO.P,Ref\u002A\u002A,*%
%TO.N,*%
X128587500Y-59531250D03*
%TD*%
%TO.P,Ref\u002A\u002A,*%
%TO.N,*%
X38100000Y-59531250D03*
%TD*%
%TO.P,Ref\u002A\u002A,*%
%TO.N,*%
X38100000Y-40481250D03*
%TD*%
%TO.P,Ref\u002A\u002A,*%
%TO.N,*%
X128587500Y-108346875D03*
%TD*%
%TO.P,Ref\u002A\u002A,*%
%TO.N,*%
X76200000Y-83343750D03*
%TD*%
%TA.AperFunction,NonConductor*%
G36*
X37106922Y-21932529D02*
G01*
X37197273Y-21942709D01*
X37224339Y-21948886D01*
X37303502Y-21976586D01*
X37303554Y-21976604D01*
X37328570Y-21988651D01*
X37399624Y-22033295D01*
X37421333Y-22050607D01*
X37480674Y-22109945D01*
X37497987Y-22131653D01*
X37542638Y-22202710D01*
X37554686Y-22227726D01*
X37582404Y-22306930D01*
X37588584Y-22333998D01*
X37598720Y-22423911D01*
X37599500Y-22437802D01*
X37599500Y-25229549D01*
X37599530Y-25229765D01*
X37599547Y-25230228D01*
X37599545Y-25296608D01*
X37599545Y-25301043D01*
X37600174Y-25305423D01*
X37600175Y-25305429D01*
X37622852Y-25463201D01*
X37630081Y-25513495D01*
X37690542Y-25719439D01*
X37779698Y-25914681D01*
X37895733Y-26095248D01*
X37898627Y-26098588D01*
X37898630Y-26098592D01*
X38033379Y-26254109D01*
X38033384Y-26254114D01*
X38036285Y-26257462D01*
X38039634Y-26260364D01*
X38039636Y-26260366D01*
X38195147Y-26395124D01*
X38195152Y-26395127D01*
X38198492Y-26398022D01*
X38379053Y-26514066D01*
X38574291Y-26603232D01*
X38780232Y-26663703D01*
X38992682Y-26694250D01*
X39064201Y-26694250D01*
X39100000Y-26694250D01*
X39165892Y-26694250D01*
X94184108Y-26694250D01*
X94243039Y-26694250D01*
X94256922Y-26695030D01*
X94268905Y-26696380D01*
X94347259Y-26705208D01*
X94374325Y-26711386D01*
X94453526Y-26739100D01*
X94478539Y-26751147D01*
X94549579Y-26795787D01*
X94571284Y-26813095D01*
X94630619Y-26872433D01*
X94647927Y-26894138D01*
X94680698Y-26946297D01*
X94692564Y-26965183D01*
X94704610Y-26990200D01*
X94732318Y-27069394D01*
X94738496Y-27096467D01*
X94748720Y-27187249D01*
X94749499Y-27201130D01*
X94749497Y-27259588D01*
X94749497Y-27259617D01*
X94749500Y-27259628D01*
X94749500Y-29992049D01*
X94749530Y-29992265D01*
X94749547Y-29992728D01*
X94749545Y-30059108D01*
X94749545Y-30063543D01*
X94750174Y-30067923D01*
X94750175Y-30067929D01*
X94772852Y-30225701D01*
X94780081Y-30275995D01*
X94840542Y-30481939D01*
X94929698Y-30677181D01*
X95045733Y-30857748D01*
X95048627Y-30861088D01*
X95048630Y-30861092D01*
X95183379Y-31016609D01*
X95183384Y-31016614D01*
X95186285Y-31019962D01*
X95189634Y-31022864D01*
X95189636Y-31022866D01*
X95345147Y-31157624D01*
X95345152Y-31157627D01*
X95348492Y-31160522D01*
X95529053Y-31276566D01*
X95724291Y-31365732D01*
X95930232Y-31426203D01*
X96142682Y-31456750D01*
X96214201Y-31456750D01*
X96250000Y-31456750D01*
X96315892Y-31456750D01*
X113234108Y-31456750D01*
X113293040Y-31456750D01*
X113306922Y-31457529D01*
X113397273Y-31467709D01*
X113424341Y-31473887D01*
X113503554Y-31501604D01*
X113528570Y-31513651D01*
X113599624Y-31558295D01*
X113621333Y-31575607D01*
X113680674Y-31634945D01*
X113697987Y-31656653D01*
X113742638Y-31727710D01*
X113754686Y-31752726D01*
X113782404Y-31831930D01*
X113788584Y-31858998D01*
X113798720Y-31948911D01*
X113799500Y-31962802D01*
X113799500Y-39415372D01*
X113799497Y-39415383D01*
X113799497Y-39415410D01*
X113799497Y-39415411D01*
X113799499Y-39481090D01*
X113799475Y-39481275D01*
X113799450Y-39481275D01*
X113799450Y-39481469D01*
X113799450Y-39481470D01*
X113799454Y-39584159D01*
X113799454Y-39584170D01*
X113799455Y-39588593D01*
X113800085Y-39592979D01*
X113800086Y-39592981D01*
X113829379Y-39796655D01*
X113829381Y-39796667D01*
X113830011Y-39801043D01*
X113831257Y-39805288D01*
X113831259Y-39805294D01*
X113879107Y-39968226D01*
X113890489Y-40006982D01*
X113892326Y-40011006D01*
X113892328Y-40011009D01*
X113977818Y-40198190D01*
X113977823Y-40198199D01*
X113979659Y-40202219D01*
X113982051Y-40205942D01*
X113982054Y-40205946D01*
X114093310Y-40379052D01*
X114093314Y-40379057D01*
X114095706Y-40382779D01*
X114098603Y-40386123D01*
X114098606Y-40386126D01*
X114181036Y-40481250D01*
X114236267Y-40544986D01*
X114239614Y-40547886D01*
X114239619Y-40547891D01*
X114276391Y-40579752D01*
X114398482Y-40685539D01*
X114579047Y-40801577D01*
X114774288Y-40890737D01*
X114980230Y-40951205D01*
X115192682Y-40981750D01*
X115264201Y-40981750D01*
X115300000Y-40981750D01*
X115365892Y-40981750D01*
X132284108Y-40981750D01*
X132343039Y-40981750D01*
X132356922Y-40982530D01*
X132368905Y-40983880D01*
X132447259Y-40992708D01*
X132474325Y-40998886D01*
X132553526Y-41026600D01*
X132578539Y-41038647D01*
X132649579Y-41083287D01*
X132671284Y-41100595D01*
X132730619Y-41159933D01*
X132747927Y-41181638D01*
X132780698Y-41233797D01*
X132792564Y-41252683D01*
X132804610Y-41277700D01*
X132832318Y-41356894D01*
X132838496Y-41383967D01*
X132848720Y-41474749D01*
X132849499Y-41488630D01*
X132849497Y-41547088D01*
X132849497Y-41547117D01*
X132849500Y-41547128D01*
X132849500Y-96565372D01*
X132849497Y-96565383D01*
X132849497Y-96565410D01*
X132849497Y-96565411D01*
X132849499Y-96631090D01*
X132849475Y-96631275D01*
X132849450Y-96631275D01*
X132849450Y-96631469D01*
X132849450Y-96631470D01*
X132849454Y-96734159D01*
X132849454Y-96734170D01*
X132849455Y-96738593D01*
X132850085Y-96742979D01*
X132850086Y-96742981D01*
X132879379Y-96946655D01*
X132879381Y-96946667D01*
X132880011Y-96951043D01*
X132881257Y-96955288D01*
X132881259Y-96955294D01*
X132929107Y-97118226D01*
X132940489Y-97156982D01*
X132942326Y-97161006D01*
X132942328Y-97161009D01*
X133027818Y-97348190D01*
X133027823Y-97348199D01*
X133029659Y-97352219D01*
X133032051Y-97355942D01*
X133032054Y-97355946D01*
X133143310Y-97529052D01*
X133143314Y-97529057D01*
X133145706Y-97532779D01*
X133148603Y-97536123D01*
X133148606Y-97536126D01*
X133283362Y-97691634D01*
X133286267Y-97694986D01*
X133289614Y-97697886D01*
X133289619Y-97697891D01*
X133326355Y-97729721D01*
X133448482Y-97835539D01*
X133629047Y-97951577D01*
X133824288Y-98040737D01*
X134030230Y-98101205D01*
X134242682Y-98131750D01*
X134314201Y-98131750D01*
X134350000Y-98131750D01*
X134415892Y-98131750D01*
X151334108Y-98131750D01*
X151393040Y-98131750D01*
X151406922Y-98132529D01*
X151497273Y-98142709D01*
X151524341Y-98148887D01*
X151603554Y-98176604D01*
X151628570Y-98188651D01*
X151699624Y-98233295D01*
X151721333Y-98250607D01*
X151780674Y-98309945D01*
X151797987Y-98331653D01*
X151842638Y-98402710D01*
X151854686Y-98427726D01*
X151882404Y-98506930D01*
X151888584Y-98533998D01*
X151898720Y-98623911D01*
X151899500Y-98637802D01*
X151899500Y-125140372D01*
X151899497Y-125140383D01*
X151899497Y-125140410D01*
X151899497Y-125140411D01*
X151899499Y-125199310D01*
X151898720Y-125213193D01*
X151888545Y-125303529D01*
X151882366Y-125330603D01*
X151854659Y-125409788D01*
X151842611Y-125434806D01*
X151797976Y-125505843D01*
X151780662Y-125527555D01*
X151721337Y-125586878D01*
X151699624Y-125604192D01*
X151628586Y-125648823D01*
X151603565Y-125660870D01*
X151524379Y-125688572D01*
X151497306Y-125694749D01*
X151406524Y-125704970D01*
X151392638Y-125705749D01*
X151334223Y-125705743D01*
X151334158Y-125705743D01*
X151334136Y-125705748D01*
X151334118Y-125705750D01*
X129594461Y-125705750D01*
X129580578Y-125704970D01*
X129546632Y-125701145D01*
X129490241Y-125694791D01*
X129463170Y-125688612D01*
X129383976Y-125660900D01*
X129358958Y-125648851D01*
X129287922Y-125604214D01*
X129266213Y-125586902D01*
X129266189Y-125586878D01*
X129206879Y-125527565D01*
X129189573Y-125505862D01*
X129144934Y-125434815D01*
X129132889Y-125409799D01*
X129105181Y-125330605D01*
X129099003Y-125303532D01*
X129088779Y-125212750D01*
X129088000Y-125198867D01*
X129088003Y-125140383D01*
X129088000Y-125140372D01*
X129088000Y-117645451D01*
X129087967Y-117645228D01*
X129087951Y-117644766D01*
X129087955Y-117573957D01*
X129057419Y-117361505D01*
X128996958Y-117155561D01*
X128907802Y-116960319D01*
X128791767Y-116779752D01*
X128761623Y-116744962D01*
X128654120Y-116620890D01*
X128654115Y-116620885D01*
X128651215Y-116617538D01*
X128647863Y-116614633D01*
X128492352Y-116479875D01*
X128492345Y-116479870D01*
X128489008Y-116476978D01*
X128485285Y-116474585D01*
X128485282Y-116474583D01*
X128312176Y-116363330D01*
X128312170Y-116363326D01*
X128308447Y-116360934D01*
X128113209Y-116271768D01*
X128108962Y-116270521D01*
X128108957Y-116270519D01*
X127911517Y-116212544D01*
X127911508Y-116212542D01*
X127907268Y-116211297D01*
X127902895Y-116210668D01*
X127902885Y-116210666D01*
X127699197Y-116181379D01*
X127699188Y-116181378D01*
X127694818Y-116180750D01*
X127690392Y-116180750D01*
X110544461Y-116180750D01*
X110530578Y-116179970D01*
X110496632Y-116176145D01*
X110440241Y-116169791D01*
X110413170Y-116163612D01*
X110333976Y-116135900D01*
X110308958Y-116123851D01*
X110237922Y-116079214D01*
X110216213Y-116061902D01*
X110156879Y-116002565D01*
X110139573Y-115980862D01*
X110094934Y-115909815D01*
X110082889Y-115884799D01*
X110055181Y-115805605D01*
X110049003Y-115778532D01*
X110038779Y-115687750D01*
X110038000Y-115673867D01*
X110038003Y-115615383D01*
X110038000Y-115615372D01*
X110038000Y-114228211D01*
X111562000Y-114228211D01*
X111564497Y-114236717D01*
X111564498Y-114236721D01*
X111569690Y-114254405D01*
X111573449Y-114271685D01*
X111577335Y-114298707D01*
X111581021Y-114306778D01*
X111588673Y-114323535D01*
X111594854Y-114340106D01*
X111600047Y-114357791D01*
X111600048Y-114357794D01*
X111602547Y-114366303D01*
X111607341Y-114373762D01*
X111607342Y-114373765D01*
X111617307Y-114389272D01*
X111625781Y-114404790D01*
X111630838Y-114415862D01*
X111637123Y-114429623D01*
X111642928Y-114436322D01*
X111642932Y-114436328D01*
X111654995Y-114450250D01*
X111665595Y-114464409D01*
X111675563Y-114479919D01*
X111680357Y-114487378D01*
X111687056Y-114493182D01*
X111687057Y-114493184D01*
X111700987Y-114505255D01*
X111713492Y-114517760D01*
X111725563Y-114531690D01*
X111725565Y-114531692D01*
X111731372Y-114538393D01*
X111754341Y-114553154D01*
X111768494Y-114563748D01*
X111789127Y-114581627D01*
X111812703Y-114592394D01*
X111813951Y-114592964D01*
X111829478Y-114601442D01*
X111844982Y-114611406D01*
X111852447Y-114616203D01*
X111860962Y-114618703D01*
X111878635Y-114623893D01*
X111895212Y-114630076D01*
X111911971Y-114637729D01*
X111911973Y-114637729D01*
X111920043Y-114641415D01*
X111947067Y-114645300D01*
X111964346Y-114649059D01*
X111990539Y-114656750D01*
X112026701Y-114656750D01*
X112134461Y-114656750D01*
X125990539Y-114656750D01*
X126098299Y-114656750D01*
X126125591Y-114656750D01*
X126134461Y-114656750D01*
X126160653Y-114649059D01*
X126177933Y-114645300D01*
X126204957Y-114641415D01*
X126229784Y-114630075D01*
X126246365Y-114623892D01*
X126251851Y-114622281D01*
X126272553Y-114616203D01*
X126295520Y-114601442D01*
X126311041Y-114592967D01*
X126335873Y-114581627D01*
X126356508Y-114563745D01*
X126370650Y-114553158D01*
X126393628Y-114538393D01*
X126411515Y-114517749D01*
X126423999Y-114505265D01*
X126444643Y-114487378D01*
X126459408Y-114464400D01*
X126469995Y-114450258D01*
X126487877Y-114429623D01*
X126499218Y-114404790D01*
X126507692Y-114389270D01*
X126522453Y-114366303D01*
X126530142Y-114340115D01*
X126536328Y-114323529D01*
X126547665Y-114298707D01*
X126551550Y-114271683D01*
X126555309Y-114254403D01*
X126563000Y-114228211D01*
X126563000Y-114084289D01*
X126563000Y-110952119D01*
X126581091Y-110887626D01*
X126630086Y-110841952D01*
X126695688Y-110828424D01*
X126758754Y-110850988D01*
X126935336Y-110976280D01*
X127240124Y-111144730D01*
X127561856Y-111277996D01*
X127896487Y-111374402D01*
X128239807Y-111432734D01*
X128587500Y-111452260D01*
X128935193Y-111432734D01*
X129278513Y-111374402D01*
X129613144Y-111277996D01*
X129934876Y-111144730D01*
X130239664Y-110976280D01*
X130416245Y-110850988D01*
X130479312Y-110828424D01*
X130544914Y-110841952D01*
X130593909Y-110887626D01*
X130612000Y-110952119D01*
X130612000Y-123609289D01*
X130612000Y-123753211D01*
X130614497Y-123761717D01*
X130614498Y-123761721D01*
X130619690Y-123779405D01*
X130623449Y-123796685D01*
X130627335Y-123823707D01*
X130631021Y-123831778D01*
X130638673Y-123848535D01*
X130644854Y-123865106D01*
X130650047Y-123882791D01*
X130650048Y-123882794D01*
X130652547Y-123891303D01*
X130657341Y-123898762D01*
X130657342Y-123898765D01*
X130667307Y-123914272D01*
X130675781Y-123929790D01*
X130680838Y-123940862D01*
X130687123Y-123954623D01*
X130692928Y-123961322D01*
X130692932Y-123961328D01*
X130704995Y-123975250D01*
X130715595Y-123989409D01*
X130725563Y-124004919D01*
X130730357Y-124012378D01*
X130737056Y-124018182D01*
X130737057Y-124018184D01*
X130750987Y-124030255D01*
X130763492Y-124042760D01*
X130775563Y-124056690D01*
X130775565Y-124056692D01*
X130781372Y-124063393D01*
X130804341Y-124078154D01*
X130818494Y-124088748D01*
X130839127Y-124106627D01*
X130862703Y-124117394D01*
X130863951Y-124117964D01*
X130879478Y-124126442D01*
X130894982Y-124136406D01*
X130902447Y-124141203D01*
X130910962Y-124143703D01*
X130928635Y-124148893D01*
X130945212Y-124155076D01*
X130961971Y-124162729D01*
X130961973Y-124162729D01*
X130970043Y-124166415D01*
X130997067Y-124170300D01*
X131014346Y-124174059D01*
X131040539Y-124181750D01*
X131076701Y-124181750D01*
X131184461Y-124181750D01*
X145040539Y-124181750D01*
X145148299Y-124181750D01*
X145175591Y-124181750D01*
X145184461Y-124181750D01*
X145210653Y-124174059D01*
X145227933Y-124170300D01*
X145254957Y-124166415D01*
X145279784Y-124155075D01*
X145296365Y-124148892D01*
X145301851Y-124147281D01*
X145322553Y-124141203D01*
X145345520Y-124126442D01*
X145361041Y-124117967D01*
X145385873Y-124106627D01*
X145406508Y-124088745D01*
X145420650Y-124078158D01*
X145443628Y-124063393D01*
X145461515Y-124042749D01*
X145473999Y-124030265D01*
X145494643Y-124012378D01*
X145509408Y-123989400D01*
X145519995Y-123975258D01*
X145537877Y-123954623D01*
X145549218Y-123929790D01*
X145557692Y-123914270D01*
X145572453Y-123891303D01*
X145580142Y-123865115D01*
X145586328Y-123848529D01*
X145597665Y-123823707D01*
X145601550Y-123796683D01*
X145605309Y-123779403D01*
X145613000Y-123753211D01*
X145613000Y-123609289D01*
X145613000Y-109645451D01*
X145613000Y-109609289D01*
X145605309Y-109583096D01*
X145601550Y-109565815D01*
X145598927Y-109547570D01*
X145598926Y-109547569D01*
X145597665Y-109538793D01*
X145593979Y-109530721D01*
X145586326Y-109513962D01*
X145580143Y-109497385D01*
X145574953Y-109479712D01*
X145572453Y-109471197D01*
X145557692Y-109448228D01*
X145549214Y-109432701D01*
X145548644Y-109431453D01*
X145537877Y-109407877D01*
X145519998Y-109387244D01*
X145509404Y-109373091D01*
X145494643Y-109350122D01*
X145487942Y-109344315D01*
X145487940Y-109344313D01*
X145474010Y-109332242D01*
X145461505Y-109319737D01*
X145449434Y-109305807D01*
X145449432Y-109305806D01*
X145443628Y-109299107D01*
X145436171Y-109294314D01*
X145436169Y-109294313D01*
X145420659Y-109284345D01*
X145406500Y-109273745D01*
X145392578Y-109261682D01*
X145392573Y-109261679D01*
X145385873Y-109255873D01*
X145372112Y-109249588D01*
X145361040Y-109244531D01*
X145345522Y-109236057D01*
X145330015Y-109226092D01*
X145330012Y-109226091D01*
X145322553Y-109221297D01*
X145314044Y-109218798D01*
X145314041Y-109218797D01*
X145296356Y-109213604D01*
X145279785Y-109207423D01*
X145263028Y-109199771D01*
X145254957Y-109196085D01*
X145246175Y-109194822D01*
X145227935Y-109192199D01*
X145210655Y-109188440D01*
X145192971Y-109183248D01*
X145192967Y-109183247D01*
X145184461Y-109180750D01*
X145175594Y-109180750D01*
X131737599Y-109180750D01*
X131685370Y-109169214D01*
X131642858Y-109136751D01*
X131617976Y-109089403D01*
X131615351Y-109035979D01*
X131672777Y-108697992D01*
X131673359Y-108694568D01*
X131692885Y-108346875D01*
X131673359Y-107999182D01*
X131615027Y-107655862D01*
X131518621Y-107321231D01*
X131385355Y-106999499D01*
X131216905Y-106694711D01*
X131015388Y-106410699D01*
X130783339Y-106151036D01*
X130523676Y-105918987D01*
X130239664Y-105717470D01*
X130236633Y-105715795D01*
X130236627Y-105715791D01*
X129937919Y-105550702D01*
X129934876Y-105549020D01*
X129931665Y-105547690D01*
X129931661Y-105547688D01*
X129616361Y-105417086D01*
X129616352Y-105417083D01*
X129613144Y-105415754D01*
X129609809Y-105414793D01*
X129609800Y-105414790D01*
X129281857Y-105320311D01*
X129281850Y-105320309D01*
X129278513Y-105319348D01*
X129275088Y-105318766D01*
X129275079Y-105318764D01*
X128938617Y-105261597D01*
X128938603Y-105261595D01*
X128935193Y-105261016D01*
X128931729Y-105260821D01*
X128931725Y-105260821D01*
X128590972Y-105241685D01*
X128587500Y-105241490D01*
X128584028Y-105241685D01*
X128243274Y-105260821D01*
X128243268Y-105260821D01*
X128239807Y-105261016D01*
X128236398Y-105261595D01*
X128236382Y-105261597D01*
X127899920Y-105318764D01*
X127899907Y-105318766D01*
X127896487Y-105319348D01*
X127893153Y-105320308D01*
X127893142Y-105320311D01*
X127565199Y-105414790D01*
X127565184Y-105414795D01*
X127561856Y-105415754D01*
X127558652Y-105417080D01*
X127558638Y-105417086D01*
X127243338Y-105547688D01*
X127243327Y-105547693D01*
X127240124Y-105549020D01*
X127237085Y-105550699D01*
X127237080Y-105550702D01*
X126938372Y-105715791D01*
X126938357Y-105715799D01*
X126935336Y-105717470D01*
X126932510Y-105719474D01*
X126932507Y-105719477D01*
X126758755Y-105842761D01*
X126695688Y-105865326D01*
X126630086Y-105851798D01*
X126581091Y-105806124D01*
X126563000Y-105741631D01*
X126563000Y-100093160D01*
X126563000Y-100093157D01*
X126563000Y-100084289D01*
X126555309Y-100058094D01*
X126551550Y-100040815D01*
X126548927Y-100022570D01*
X126548926Y-100022569D01*
X126547665Y-100013793D01*
X126543979Y-100005721D01*
X126536326Y-99988962D01*
X126530143Y-99972385D01*
X126524953Y-99954712D01*
X126522453Y-99946197D01*
X126507692Y-99923228D01*
X126499214Y-99907701D01*
X126498644Y-99906453D01*
X126487877Y-99882877D01*
X126469998Y-99862244D01*
X126459404Y-99848091D01*
X126444643Y-99825122D01*
X126437942Y-99819315D01*
X126437940Y-99819313D01*
X126424010Y-99807242D01*
X126411505Y-99794737D01*
X126399434Y-99780807D01*
X126399432Y-99780806D01*
X126393628Y-99774107D01*
X126386171Y-99769314D01*
X126386169Y-99769313D01*
X126370659Y-99759345D01*
X126356500Y-99748745D01*
X126342578Y-99736682D01*
X126342573Y-99736679D01*
X126335873Y-99730873D01*
X126322112Y-99724588D01*
X126311040Y-99719531D01*
X126295522Y-99711057D01*
X126280015Y-99701092D01*
X126280012Y-99701091D01*
X126272553Y-99696297D01*
X126264044Y-99693798D01*
X126264041Y-99693797D01*
X126246356Y-99688604D01*
X126229785Y-99682423D01*
X126213028Y-99674771D01*
X126204957Y-99671085D01*
X126196175Y-99669822D01*
X126177935Y-99667199D01*
X126160655Y-99663440D01*
X126142971Y-99658248D01*
X126142967Y-99658247D01*
X126134461Y-99655750D01*
X126098299Y-99655750D01*
X112134461Y-99655750D01*
X111990539Y-99655750D01*
X111982034Y-99658246D01*
X111982033Y-99658247D01*
X111974740Y-99660388D01*
X111964338Y-99663442D01*
X111947065Y-99667199D01*
X111928819Y-99669822D01*
X111928812Y-99669823D01*
X111920043Y-99671085D01*
X111911979Y-99674767D01*
X111911977Y-99674768D01*
X111895209Y-99682425D01*
X111878643Y-99688603D01*
X111860964Y-99693794D01*
X111860951Y-99693799D01*
X111852447Y-99696297D01*
X111844986Y-99701091D01*
X111844985Y-99701092D01*
X111829480Y-99711056D01*
X111813964Y-99719528D01*
X111797198Y-99727185D01*
X111797188Y-99727191D01*
X111789127Y-99730873D01*
X111782426Y-99736678D01*
X111782423Y-99736681D01*
X111768498Y-99748747D01*
X111754342Y-99759344D01*
X111738831Y-99769312D01*
X111738825Y-99769317D01*
X111731372Y-99774107D01*
X111725569Y-99780802D01*
X111725566Y-99780806D01*
X111713493Y-99794739D01*
X111700989Y-99807243D01*
X111687056Y-99819316D01*
X111687052Y-99819319D01*
X111680357Y-99825122D01*
X111675567Y-99832575D01*
X111675562Y-99832581D01*
X111665594Y-99848092D01*
X111654997Y-99862248D01*
X111642931Y-99876173D01*
X111642928Y-99876176D01*
X111637123Y-99882877D01*
X111633441Y-99890938D01*
X111633435Y-99890948D01*
X111625778Y-99907714D01*
X111617306Y-99923230D01*
X111611771Y-99931844D01*
X111602547Y-99946197D01*
X111600049Y-99954701D01*
X111600044Y-99954714D01*
X111594853Y-99972393D01*
X111588675Y-99988959D01*
X111581021Y-100005721D01*
X111577335Y-100013793D01*
X111576073Y-100022562D01*
X111576072Y-100022569D01*
X111573449Y-100040815D01*
X111569691Y-100058094D01*
X111564499Y-100075778D01*
X111562000Y-100084289D01*
X111562000Y-100120451D01*
X111562000Y-114084289D01*
X111562000Y-114228211D01*
X110038000Y-114228211D01*
X110038000Y-108222128D01*
X110038003Y-108222117D01*
X110038000Y-108156410D01*
X110038024Y-108156225D01*
X110038050Y-108156225D01*
X110038045Y-108048907D01*
X110007489Y-107836457D01*
X109947011Y-107630518D01*
X109857841Y-107435281D01*
X109786689Y-107324574D01*
X109744189Y-107258447D01*
X109744187Y-107258444D01*
X109741794Y-107254721D01*
X109711673Y-107219962D01*
X109604137Y-107095865D01*
X109604135Y-107095863D01*
X109601233Y-107092514D01*
X109597885Y-107089613D01*
X109597880Y-107089608D01*
X109442365Y-106954861D01*
X109442364Y-106954860D01*
X109439018Y-106951961D01*
X109258453Y-106835923D01*
X109254424Y-106834083D01*
X109067240Y-106748602D01*
X109067234Y-106748599D01*
X109063212Y-106746763D01*
X109058966Y-106745516D01*
X109058960Y-106745514D01*
X108861525Y-106687544D01*
X108861520Y-106687543D01*
X108857270Y-106686295D01*
X108852883Y-106685664D01*
X108852882Y-106685664D01*
X108649200Y-106656380D01*
X108649199Y-106656379D01*
X108644818Y-106655750D01*
X108640390Y-106655750D01*
X91494461Y-106655750D01*
X91480578Y-106654970D01*
X91446632Y-106651145D01*
X91390241Y-106644791D01*
X91363170Y-106638612D01*
X91283976Y-106610900D01*
X91258958Y-106598851D01*
X91187922Y-106554214D01*
X91166213Y-106536902D01*
X91106879Y-106477565D01*
X91089573Y-106455862D01*
X91044934Y-106384815D01*
X91032889Y-106359799D01*
X91005181Y-106280605D01*
X90999003Y-106253532D01*
X90988779Y-106162750D01*
X90988000Y-106148867D01*
X90988000Y-106148725D01*
X90988003Y-106090383D01*
X90988000Y-106090372D01*
X90988000Y-104703211D01*
X92512000Y-104703211D01*
X92514497Y-104711717D01*
X92514498Y-104711721D01*
X92519690Y-104729405D01*
X92523449Y-104746685D01*
X92527335Y-104773707D01*
X92531021Y-104781778D01*
X92538673Y-104798535D01*
X92544854Y-104815106D01*
X92550047Y-104832791D01*
X92550048Y-104832794D01*
X92552547Y-104841303D01*
X92557341Y-104848762D01*
X92557342Y-104848765D01*
X92567307Y-104864272D01*
X92575781Y-104879790D01*
X92580838Y-104890862D01*
X92587123Y-104904623D01*
X92592928Y-104911322D01*
X92592932Y-104911328D01*
X92604995Y-104925250D01*
X92615595Y-104939409D01*
X92625563Y-104954919D01*
X92630357Y-104962378D01*
X92637056Y-104968182D01*
X92637057Y-104968184D01*
X92650987Y-104980255D01*
X92663492Y-104992760D01*
X92675563Y-105006690D01*
X92675565Y-105006692D01*
X92681372Y-105013393D01*
X92704341Y-105028154D01*
X92718494Y-105038748D01*
X92739127Y-105056627D01*
X92762703Y-105067394D01*
X92763951Y-105067964D01*
X92779478Y-105076442D01*
X92794982Y-105086406D01*
X92802447Y-105091203D01*
X92810962Y-105093703D01*
X92828635Y-105098893D01*
X92845212Y-105105076D01*
X92861971Y-105112729D01*
X92861973Y-105112729D01*
X92870043Y-105116415D01*
X92897067Y-105120300D01*
X92914346Y-105124059D01*
X92940539Y-105131750D01*
X92976701Y-105131750D01*
X93084461Y-105131750D01*
X106940539Y-105131750D01*
X107048299Y-105131750D01*
X107075591Y-105131750D01*
X107084461Y-105131750D01*
X107110653Y-105124059D01*
X107127933Y-105120300D01*
X107154957Y-105116415D01*
X107179784Y-105105075D01*
X107196365Y-105098892D01*
X107201851Y-105097281D01*
X107222553Y-105091203D01*
X107245520Y-105076442D01*
X107261041Y-105067967D01*
X107285873Y-105056627D01*
X107306508Y-105038745D01*
X107320650Y-105028158D01*
X107343628Y-105013393D01*
X107361515Y-104992749D01*
X107373999Y-104980265D01*
X107394643Y-104962378D01*
X107409408Y-104939400D01*
X107419995Y-104925258D01*
X107437877Y-104904623D01*
X107449218Y-104879790D01*
X107457692Y-104864270D01*
X107472453Y-104841303D01*
X107480142Y-104815115D01*
X107486328Y-104798529D01*
X107497665Y-104773707D01*
X107501550Y-104746683D01*
X107505309Y-104729403D01*
X107513000Y-104703211D01*
X107513000Y-104559289D01*
X107513000Y-95178211D01*
X116324500Y-95178211D01*
X116326997Y-95186717D01*
X116326998Y-95186721D01*
X116332190Y-95204405D01*
X116335949Y-95221685D01*
X116339835Y-95248707D01*
X116343521Y-95256778D01*
X116351173Y-95273535D01*
X116357354Y-95290106D01*
X116362547Y-95307791D01*
X116362548Y-95307794D01*
X116365047Y-95316303D01*
X116369841Y-95323762D01*
X116369842Y-95323765D01*
X116379807Y-95339272D01*
X116388281Y-95354790D01*
X116393338Y-95365862D01*
X116399623Y-95379623D01*
X116405428Y-95386322D01*
X116405432Y-95386328D01*
X116417495Y-95400250D01*
X116428095Y-95414409D01*
X116438063Y-95429919D01*
X116442857Y-95437378D01*
X116449556Y-95443182D01*
X116449557Y-95443184D01*
X116463487Y-95455255D01*
X116475992Y-95467760D01*
X116488063Y-95481690D01*
X116488065Y-95481692D01*
X116493872Y-95488393D01*
X116516841Y-95503154D01*
X116530994Y-95513748D01*
X116551627Y-95531627D01*
X116575203Y-95542394D01*
X116576451Y-95542964D01*
X116591978Y-95551442D01*
X116607482Y-95561406D01*
X116614947Y-95566203D01*
X116623462Y-95568703D01*
X116641135Y-95573893D01*
X116657712Y-95580076D01*
X116674471Y-95587729D01*
X116674473Y-95587729D01*
X116682543Y-95591415D01*
X116709567Y-95595300D01*
X116726846Y-95599059D01*
X116753039Y-95606750D01*
X116789201Y-95606750D01*
X116896961Y-95606750D01*
X130753039Y-95606750D01*
X130860799Y-95606750D01*
X130888091Y-95606750D01*
X130896961Y-95606750D01*
X130923153Y-95599059D01*
X130940433Y-95595300D01*
X130967457Y-95591415D01*
X130992284Y-95580075D01*
X131008865Y-95573892D01*
X131014351Y-95572281D01*
X131035053Y-95566203D01*
X131058020Y-95551442D01*
X131073541Y-95542967D01*
X131098373Y-95531627D01*
X131119008Y-95513745D01*
X131133150Y-95503158D01*
X131156128Y-95488393D01*
X131174015Y-95467749D01*
X131186499Y-95455265D01*
X131207143Y-95437378D01*
X131221908Y-95414400D01*
X131232495Y-95400258D01*
X131250377Y-95379623D01*
X131261718Y-95354790D01*
X131270192Y-95339270D01*
X131284953Y-95316303D01*
X131292642Y-95290115D01*
X131298828Y-95273529D01*
X131310165Y-95248707D01*
X131314050Y-95221683D01*
X131317809Y-95204403D01*
X131325500Y-95178211D01*
X131325500Y-95034289D01*
X131325500Y-81070451D01*
X131325500Y-81034289D01*
X131317809Y-81008094D01*
X131314050Y-80990815D01*
X131311427Y-80972570D01*
X131311426Y-80972569D01*
X131310165Y-80963793D01*
X131306479Y-80955721D01*
X131298826Y-80938962D01*
X131292643Y-80922385D01*
X131287453Y-80904712D01*
X131284953Y-80896197D01*
X131270192Y-80873228D01*
X131261714Y-80857701D01*
X131257591Y-80848673D01*
X131250377Y-80832877D01*
X131232498Y-80812244D01*
X131221904Y-80798091D01*
X131207143Y-80775122D01*
X131200442Y-80769315D01*
X131200440Y-80769313D01*
X131186510Y-80757242D01*
X131174005Y-80744737D01*
X131161934Y-80730807D01*
X131161932Y-80730806D01*
X131156128Y-80724107D01*
X131148671Y-80719314D01*
X131148669Y-80719313D01*
X131133159Y-80709345D01*
X131119000Y-80698745D01*
X131105078Y-80686682D01*
X131105073Y-80686679D01*
X131098373Y-80680873D01*
X131084612Y-80674588D01*
X131073540Y-80669531D01*
X131058022Y-80661057D01*
X131042515Y-80651092D01*
X131042512Y-80651091D01*
X131035053Y-80646297D01*
X131026544Y-80643798D01*
X131026541Y-80643797D01*
X131008856Y-80638604D01*
X130992285Y-80632423D01*
X130975528Y-80624771D01*
X130967457Y-80621085D01*
X130958675Y-80619822D01*
X130940435Y-80617199D01*
X130923155Y-80613440D01*
X130905471Y-80608248D01*
X130905467Y-80608247D01*
X130896961Y-80605750D01*
X130860799Y-80605750D01*
X116896961Y-80605750D01*
X116753039Y-80605750D01*
X116744534Y-80608246D01*
X116744533Y-80608247D01*
X116737240Y-80610388D01*
X116726838Y-80613442D01*
X116709565Y-80617199D01*
X116691319Y-80619822D01*
X116691312Y-80619823D01*
X116682543Y-80621085D01*
X116674479Y-80624767D01*
X116674477Y-80624768D01*
X116657709Y-80632425D01*
X116641143Y-80638603D01*
X116623464Y-80643794D01*
X116623451Y-80643799D01*
X116614947Y-80646297D01*
X116607486Y-80651091D01*
X116607485Y-80651092D01*
X116591980Y-80661056D01*
X116576464Y-80669528D01*
X116559698Y-80677185D01*
X116559688Y-80677191D01*
X116551627Y-80680873D01*
X116544926Y-80686678D01*
X116544923Y-80686681D01*
X116530998Y-80698747D01*
X116516842Y-80709344D01*
X116501331Y-80719312D01*
X116501325Y-80719317D01*
X116493872Y-80724107D01*
X116488069Y-80730802D01*
X116488066Y-80730806D01*
X116475993Y-80744739D01*
X116463489Y-80757243D01*
X116449556Y-80769316D01*
X116449552Y-80769319D01*
X116442857Y-80775122D01*
X116438067Y-80782575D01*
X116438062Y-80782581D01*
X116428094Y-80798092D01*
X116417497Y-80812248D01*
X116405431Y-80826173D01*
X116405428Y-80826176D01*
X116399623Y-80832877D01*
X116395941Y-80840938D01*
X116395935Y-80840948D01*
X116388278Y-80857714D01*
X116379806Y-80873230D01*
X116374271Y-80881844D01*
X116365047Y-80896197D01*
X116362549Y-80904701D01*
X116362544Y-80904714D01*
X116357353Y-80922393D01*
X116351175Y-80938959D01*
X116343521Y-80955721D01*
X116339835Y-80963793D01*
X116338573Y-80972562D01*
X116338572Y-80972569D01*
X116335949Y-80990815D01*
X116332191Y-81008094D01*
X116326999Y-81025778D01*
X116324500Y-81034289D01*
X116324500Y-81070451D01*
X116324500Y-95034289D01*
X116324500Y-95178211D01*
X107513000Y-95178211D01*
X107513000Y-90595451D01*
X107513000Y-90559289D01*
X107505309Y-90533094D01*
X107501550Y-90515815D01*
X107498927Y-90497570D01*
X107498926Y-90497569D01*
X107497665Y-90488793D01*
X107493979Y-90480721D01*
X107486326Y-90463962D01*
X107480143Y-90447385D01*
X107474953Y-90429712D01*
X107472453Y-90421197D01*
X107457692Y-90398228D01*
X107449214Y-90382701D01*
X107448644Y-90381453D01*
X107437877Y-90357877D01*
X107419998Y-90337244D01*
X107409404Y-90323091D01*
X107394643Y-90300122D01*
X107387942Y-90294315D01*
X107387940Y-90294313D01*
X107374010Y-90282242D01*
X107361505Y-90269737D01*
X107349434Y-90255807D01*
X107349432Y-90255806D01*
X107343628Y-90249107D01*
X107336171Y-90244314D01*
X107336169Y-90244313D01*
X107320659Y-90234345D01*
X107306500Y-90223745D01*
X107292578Y-90211682D01*
X107292573Y-90211679D01*
X107285873Y-90205873D01*
X107272112Y-90199588D01*
X107261040Y-90194531D01*
X107245522Y-90186057D01*
X107230015Y-90176092D01*
X107230012Y-90176091D01*
X107222553Y-90171297D01*
X107214044Y-90168798D01*
X107214041Y-90168797D01*
X107196356Y-90163604D01*
X107179785Y-90157423D01*
X107163028Y-90149771D01*
X107154957Y-90146085D01*
X107146175Y-90144822D01*
X107127935Y-90142199D01*
X107110655Y-90138440D01*
X107092971Y-90133248D01*
X107092967Y-90133247D01*
X107084461Y-90130750D01*
X107048299Y-90130750D01*
X93084461Y-90130750D01*
X92940539Y-90130750D01*
X92932034Y-90133246D01*
X92932033Y-90133247D01*
X92924740Y-90135388D01*
X92914338Y-90138442D01*
X92897065Y-90142199D01*
X92878819Y-90144822D01*
X92878812Y-90144823D01*
X92870043Y-90146085D01*
X92861979Y-90149767D01*
X92861977Y-90149768D01*
X92845209Y-90157425D01*
X92828643Y-90163603D01*
X92810964Y-90168794D01*
X92810951Y-90168799D01*
X92802447Y-90171297D01*
X92794986Y-90176091D01*
X92794985Y-90176092D01*
X92779480Y-90186056D01*
X92763964Y-90194528D01*
X92747198Y-90202185D01*
X92747188Y-90202191D01*
X92739127Y-90205873D01*
X92732426Y-90211678D01*
X92732423Y-90211681D01*
X92718498Y-90223747D01*
X92704342Y-90234344D01*
X92688831Y-90244312D01*
X92688825Y-90244317D01*
X92681372Y-90249107D01*
X92675569Y-90255802D01*
X92675566Y-90255806D01*
X92663493Y-90269739D01*
X92650989Y-90282243D01*
X92637056Y-90294316D01*
X92637052Y-90294319D01*
X92630357Y-90300122D01*
X92625567Y-90307575D01*
X92625562Y-90307581D01*
X92615594Y-90323092D01*
X92604997Y-90337248D01*
X92592931Y-90351173D01*
X92592928Y-90351176D01*
X92587123Y-90357877D01*
X92583441Y-90365938D01*
X92583435Y-90365948D01*
X92575778Y-90382714D01*
X92567307Y-90398228D01*
X92552547Y-90421197D01*
X92550049Y-90429701D01*
X92550044Y-90429714D01*
X92544853Y-90447393D01*
X92538675Y-90463959D01*
X92531021Y-90480721D01*
X92527335Y-90488793D01*
X92526073Y-90497562D01*
X92526072Y-90497569D01*
X92523449Y-90515815D01*
X92519691Y-90533094D01*
X92514499Y-90550778D01*
X92512000Y-90559289D01*
X92512000Y-90595451D01*
X92512000Y-104559289D01*
X92512000Y-104703211D01*
X90988000Y-104703211D01*
X90988000Y-103357951D01*
X90987967Y-103357728D01*
X90987951Y-103357266D01*
X90987955Y-103286457D01*
X90957419Y-103074005D01*
X90896958Y-102868061D01*
X90807802Y-102672819D01*
X90691767Y-102492252D01*
X90661644Y-102457486D01*
X90554120Y-102333390D01*
X90554115Y-102333385D01*
X90551215Y-102330038D01*
X90511103Y-102295279D01*
X90392352Y-102192375D01*
X90392345Y-102192370D01*
X90389008Y-102189478D01*
X90385285Y-102187085D01*
X90385282Y-102187083D01*
X90212176Y-102075830D01*
X90212170Y-102075826D01*
X90208447Y-102073434D01*
X90013209Y-101984268D01*
X90008962Y-101983021D01*
X90008957Y-101983019D01*
X89811517Y-101925044D01*
X89811508Y-101925042D01*
X89807268Y-101923797D01*
X89802895Y-101923168D01*
X89802885Y-101923166D01*
X89599197Y-101893879D01*
X89599188Y-101893878D01*
X89594818Y-101893250D01*
X89590392Y-101893250D01*
X72444460Y-101893250D01*
X72430578Y-101892470D01*
X72409890Y-101890139D01*
X72340228Y-101882290D01*
X72313158Y-101876112D01*
X72233945Y-101848395D01*
X72208929Y-101836348D01*
X72137875Y-101791704D01*
X72116166Y-101774392D01*
X72056825Y-101715054D01*
X72039512Y-101693346D01*
X71994861Y-101622289D01*
X71982813Y-101597273D01*
X71955095Y-101518069D01*
X71948915Y-101491000D01*
X71938780Y-101401089D01*
X71938000Y-101387199D01*
X71938000Y-84308623D01*
X71938000Y-84307951D01*
X71937967Y-84307728D01*
X71937951Y-84307266D01*
X71937955Y-84236457D01*
X71907419Y-84024005D01*
X71846958Y-83818061D01*
X71757802Y-83622819D01*
X71641767Y-83442252D01*
X71611623Y-83407462D01*
X71504120Y-83283390D01*
X71504115Y-83283385D01*
X71501215Y-83280038D01*
X71497863Y-83277133D01*
X71342352Y-83142375D01*
X71342345Y-83142370D01*
X71339008Y-83139478D01*
X71335285Y-83137085D01*
X71335282Y-83137083D01*
X71162176Y-83025830D01*
X71162170Y-83025826D01*
X71158447Y-83023434D01*
X70963209Y-82934268D01*
X70958962Y-82933021D01*
X70958957Y-82933019D01*
X70761517Y-82875044D01*
X70761508Y-82875042D01*
X70757268Y-82873797D01*
X70752895Y-82873168D01*
X70752885Y-82873166D01*
X70549197Y-82843879D01*
X70549188Y-82843878D01*
X70544818Y-82843250D01*
X70540392Y-82843250D01*
X39106961Y-82843250D01*
X39093078Y-82842470D01*
X39059132Y-82838645D01*
X39002741Y-82832291D01*
X38975670Y-82826112D01*
X38896476Y-82798400D01*
X38871458Y-82786351D01*
X38800422Y-82741714D01*
X38778713Y-82724402D01*
X38719379Y-82665065D01*
X38702073Y-82643362D01*
X38657434Y-82572315D01*
X38645389Y-82547299D01*
X38617681Y-82468105D01*
X38611503Y-82441032D01*
X38601279Y-82350250D01*
X38600500Y-82336367D01*
X38600501Y-82314888D01*
X38600503Y-82277883D01*
X38600500Y-82277872D01*
X38600500Y-80890711D01*
X40124500Y-80890711D01*
X40126997Y-80899217D01*
X40126998Y-80899221D01*
X40132190Y-80916905D01*
X40135949Y-80934185D01*
X40139835Y-80961207D01*
X40143521Y-80969278D01*
X40151173Y-80986035D01*
X40157354Y-81002606D01*
X40162547Y-81020291D01*
X40162548Y-81020294D01*
X40165047Y-81028803D01*
X40169841Y-81036262D01*
X40169842Y-81036265D01*
X40179807Y-81051772D01*
X40188281Y-81067290D01*
X40189725Y-81070451D01*
X40199623Y-81092123D01*
X40205428Y-81098822D01*
X40205432Y-81098828D01*
X40217495Y-81112750D01*
X40228095Y-81126909D01*
X40238063Y-81142419D01*
X40242857Y-81149878D01*
X40249556Y-81155682D01*
X40249557Y-81155684D01*
X40263487Y-81167755D01*
X40275992Y-81180260D01*
X40288063Y-81194190D01*
X40288065Y-81194192D01*
X40293872Y-81200893D01*
X40316841Y-81215654D01*
X40330994Y-81226248D01*
X40351627Y-81244127D01*
X40375203Y-81254894D01*
X40376451Y-81255464D01*
X40391978Y-81263942D01*
X40407482Y-81273906D01*
X40414947Y-81278703D01*
X40423462Y-81281203D01*
X40441135Y-81286393D01*
X40457712Y-81292576D01*
X40474471Y-81300229D01*
X40474473Y-81300229D01*
X40482543Y-81303915D01*
X40509567Y-81307800D01*
X40526846Y-81311559D01*
X40553039Y-81319250D01*
X40589201Y-81319250D01*
X40696961Y-81319250D01*
X54553039Y-81319250D01*
X54660799Y-81319250D01*
X54688091Y-81319250D01*
X54696961Y-81319250D01*
X54723153Y-81311559D01*
X54740433Y-81307800D01*
X54767457Y-81303915D01*
X54792284Y-81292575D01*
X54808865Y-81286392D01*
X54814351Y-81284781D01*
X54835053Y-81278703D01*
X54858020Y-81263942D01*
X54873541Y-81255467D01*
X54898373Y-81244127D01*
X54919008Y-81226245D01*
X54933150Y-81215658D01*
X54956128Y-81200893D01*
X54974015Y-81180249D01*
X54986499Y-81167765D01*
X55007143Y-81149878D01*
X55021908Y-81126900D01*
X55032495Y-81112758D01*
X55050377Y-81092123D01*
X55061718Y-81067290D01*
X55070192Y-81051770D01*
X55084953Y-81028803D01*
X55092642Y-81002615D01*
X55098828Y-80986029D01*
X55110165Y-80961207D01*
X55114050Y-80934183D01*
X55117809Y-80916903D01*
X55125500Y-80890711D01*
X59174500Y-80890711D01*
X59176997Y-80899217D01*
X59176998Y-80899221D01*
X59182190Y-80916905D01*
X59185949Y-80934185D01*
X59189835Y-80961207D01*
X59193521Y-80969278D01*
X59201173Y-80986035D01*
X59207354Y-81002606D01*
X59212547Y-81020291D01*
X59212548Y-81020294D01*
X59215047Y-81028803D01*
X59219841Y-81036262D01*
X59219842Y-81036265D01*
X59229807Y-81051772D01*
X59238281Y-81067290D01*
X59239725Y-81070451D01*
X59249623Y-81092123D01*
X59255428Y-81098822D01*
X59255432Y-81098828D01*
X59267495Y-81112750D01*
X59278095Y-81126909D01*
X59288063Y-81142419D01*
X59292857Y-81149878D01*
X59299556Y-81155682D01*
X59299557Y-81155684D01*
X59313487Y-81167755D01*
X59325992Y-81180260D01*
X59338063Y-81194190D01*
X59338065Y-81194192D01*
X59343872Y-81200893D01*
X59366841Y-81215654D01*
X59380994Y-81226248D01*
X59401627Y-81244127D01*
X59425203Y-81254894D01*
X59426451Y-81255464D01*
X59441978Y-81263942D01*
X59457482Y-81273906D01*
X59464947Y-81278703D01*
X59473462Y-81281203D01*
X59491135Y-81286393D01*
X59507712Y-81292576D01*
X59524471Y-81300229D01*
X59524473Y-81300229D01*
X59532543Y-81303915D01*
X59559567Y-81307800D01*
X59576846Y-81311559D01*
X59603039Y-81319250D01*
X59611910Y-81319250D01*
X73594756Y-81319250D01*
X73659249Y-81337341D01*
X73704923Y-81386336D01*
X73718451Y-81451938D01*
X73695886Y-81515004D01*
X73570595Y-81691586D01*
X73568924Y-81694607D01*
X73568916Y-81694622D01*
X73403827Y-81993330D01*
X73402145Y-81996374D01*
X73400818Y-81999577D01*
X73400813Y-81999588D01*
X73270211Y-82314888D01*
X73270205Y-82314902D01*
X73268879Y-82318106D01*
X73267920Y-82321434D01*
X73267915Y-82321449D01*
X73173436Y-82649392D01*
X73173433Y-82649403D01*
X73172473Y-82652737D01*
X73171891Y-82656157D01*
X73171889Y-82656170D01*
X73114722Y-82992632D01*
X73114720Y-82992648D01*
X73114141Y-82996057D01*
X73113946Y-82999518D01*
X73113946Y-82999524D01*
X73105924Y-83142375D01*
X73094615Y-83343750D01*
X73094810Y-83347222D01*
X73112603Y-83664066D01*
X73114141Y-83691443D01*
X73114720Y-83694853D01*
X73114722Y-83694867D01*
X73171889Y-84031329D01*
X73171891Y-84031338D01*
X73172473Y-84034763D01*
X73173434Y-84038100D01*
X73173436Y-84038107D01*
X73267915Y-84366050D01*
X73267918Y-84366059D01*
X73268879Y-84369394D01*
X73270208Y-84372602D01*
X73270211Y-84372611D01*
X73285544Y-84409628D01*
X73402145Y-84691126D01*
X73403827Y-84694169D01*
X73568916Y-84992877D01*
X73568920Y-84992883D01*
X73570595Y-84995914D01*
X73695886Y-85172495D01*
X73752637Y-85252478D01*
X73773564Y-85302369D01*
X73771256Y-85356423D01*
X73746150Y-85404349D01*
X73703028Y-85437023D01*
X73697197Y-85439686D01*
X73697190Y-85439690D01*
X73689127Y-85443373D01*
X73682426Y-85449178D01*
X73682423Y-85449181D01*
X73668498Y-85461247D01*
X73654342Y-85471844D01*
X73638831Y-85481812D01*
X73638825Y-85481817D01*
X73631372Y-85486607D01*
X73625569Y-85493302D01*
X73625566Y-85493306D01*
X73613493Y-85507239D01*
X73600989Y-85519743D01*
X73587056Y-85531816D01*
X73587052Y-85531819D01*
X73580357Y-85537622D01*
X73575567Y-85545075D01*
X73575562Y-85545081D01*
X73565594Y-85560592D01*
X73554997Y-85574748D01*
X73542931Y-85588673D01*
X73542928Y-85588676D01*
X73537123Y-85595377D01*
X73533441Y-85603438D01*
X73533435Y-85603448D01*
X73525778Y-85620214D01*
X73517306Y-85635730D01*
X73511771Y-85644344D01*
X73502547Y-85658697D01*
X73500049Y-85667201D01*
X73500044Y-85667214D01*
X73494853Y-85684893D01*
X73488675Y-85701459D01*
X73481021Y-85718221D01*
X73477335Y-85726293D01*
X73476073Y-85735062D01*
X73476072Y-85735069D01*
X73473449Y-85753315D01*
X73469691Y-85770594D01*
X73464499Y-85788278D01*
X73462000Y-85796789D01*
X73462000Y-85832951D01*
X73462000Y-99796789D01*
X73462000Y-99940711D01*
X73464497Y-99949217D01*
X73464498Y-99949221D01*
X73469690Y-99966905D01*
X73473449Y-99984185D01*
X73477335Y-100011207D01*
X73481021Y-100019278D01*
X73488673Y-100036035D01*
X73494854Y-100052606D01*
X73500047Y-100070291D01*
X73500048Y-100070294D01*
X73502547Y-100078803D01*
X73507341Y-100086262D01*
X73507342Y-100086265D01*
X73517307Y-100101772D01*
X73525781Y-100117290D01*
X73527225Y-100120451D01*
X73537123Y-100142123D01*
X73542928Y-100148822D01*
X73542932Y-100148828D01*
X73554995Y-100162750D01*
X73565595Y-100176909D01*
X73575563Y-100192419D01*
X73580357Y-100199878D01*
X73587056Y-100205682D01*
X73587057Y-100205684D01*
X73600987Y-100217755D01*
X73613492Y-100230260D01*
X73625563Y-100244190D01*
X73625565Y-100244192D01*
X73631372Y-100250893D01*
X73654341Y-100265654D01*
X73668494Y-100276248D01*
X73689127Y-100294127D01*
X73712703Y-100304894D01*
X73713951Y-100305464D01*
X73729478Y-100313942D01*
X73744982Y-100323906D01*
X73752447Y-100328703D01*
X73760962Y-100331203D01*
X73778635Y-100336393D01*
X73795212Y-100342576D01*
X73811971Y-100350229D01*
X73811973Y-100350229D01*
X73820043Y-100353915D01*
X73847067Y-100357800D01*
X73864346Y-100361559D01*
X73890539Y-100369250D01*
X73926701Y-100369250D01*
X74034461Y-100369250D01*
X87890539Y-100369250D01*
X87998299Y-100369250D01*
X88025591Y-100369250D01*
X88034461Y-100369250D01*
X88060653Y-100361559D01*
X88077933Y-100357800D01*
X88104957Y-100353915D01*
X88129784Y-100342575D01*
X88146365Y-100336392D01*
X88151851Y-100334781D01*
X88172553Y-100328703D01*
X88195520Y-100313942D01*
X88211041Y-100305467D01*
X88235873Y-100294127D01*
X88256508Y-100276245D01*
X88270650Y-100265658D01*
X88293628Y-100250893D01*
X88311515Y-100230249D01*
X88323999Y-100217765D01*
X88344643Y-100199878D01*
X88359408Y-100176900D01*
X88369995Y-100162758D01*
X88387877Y-100142123D01*
X88399218Y-100117290D01*
X88407692Y-100101770D01*
X88422453Y-100078803D01*
X88430142Y-100052615D01*
X88436328Y-100036029D01*
X88447665Y-100011207D01*
X88451550Y-99984183D01*
X88455309Y-99966903D01*
X88463000Y-99940711D01*
X88463000Y-99796789D01*
X88463000Y-85832951D01*
X88463000Y-85796789D01*
X88455309Y-85770594D01*
X88451550Y-85753315D01*
X88448927Y-85735070D01*
X88448926Y-85735069D01*
X88447665Y-85726293D01*
X88443979Y-85718221D01*
X88436326Y-85701462D01*
X88430143Y-85684885D01*
X88424953Y-85667212D01*
X88422453Y-85658697D01*
X88418927Y-85653211D01*
X97274500Y-85653211D01*
X97276997Y-85661717D01*
X97276998Y-85661721D01*
X97282190Y-85679405D01*
X97285949Y-85696685D01*
X97289835Y-85723707D01*
X97293521Y-85731778D01*
X97301173Y-85748535D01*
X97307354Y-85765106D01*
X97312547Y-85782791D01*
X97312548Y-85782794D01*
X97315047Y-85791303D01*
X97319841Y-85798762D01*
X97319842Y-85798765D01*
X97329807Y-85814272D01*
X97338281Y-85829790D01*
X97339725Y-85832951D01*
X97349623Y-85854623D01*
X97355428Y-85861322D01*
X97355432Y-85861328D01*
X97367495Y-85875250D01*
X97378095Y-85889409D01*
X97388063Y-85904919D01*
X97392857Y-85912378D01*
X97399556Y-85918182D01*
X97399557Y-85918184D01*
X97413487Y-85930255D01*
X97425992Y-85942760D01*
X97438063Y-85956690D01*
X97438065Y-85956692D01*
X97443872Y-85963393D01*
X97466841Y-85978154D01*
X97480994Y-85988748D01*
X97501627Y-86006627D01*
X97525203Y-86017394D01*
X97526451Y-86017964D01*
X97541978Y-86026442D01*
X97557482Y-86036406D01*
X97564947Y-86041203D01*
X97573462Y-86043703D01*
X97591135Y-86048893D01*
X97607712Y-86055076D01*
X97624471Y-86062729D01*
X97624473Y-86062729D01*
X97632543Y-86066415D01*
X97659567Y-86070300D01*
X97676846Y-86074059D01*
X97703039Y-86081750D01*
X97739201Y-86081750D01*
X97846961Y-86081750D01*
X111703039Y-86081750D01*
X111810799Y-86081750D01*
X111838091Y-86081750D01*
X111846961Y-86081750D01*
X111873153Y-86074059D01*
X111890433Y-86070300D01*
X111917457Y-86066415D01*
X111942284Y-86055075D01*
X111958865Y-86048892D01*
X111964351Y-86047281D01*
X111985053Y-86041203D01*
X112008020Y-86026442D01*
X112023541Y-86017967D01*
X112048373Y-86006627D01*
X112069008Y-85988745D01*
X112083150Y-85978158D01*
X112106128Y-85963393D01*
X112124015Y-85942749D01*
X112136499Y-85930265D01*
X112157143Y-85912378D01*
X112171908Y-85889400D01*
X112182495Y-85875258D01*
X112200377Y-85854623D01*
X112211718Y-85829790D01*
X112220192Y-85814270D01*
X112234953Y-85791303D01*
X112242642Y-85765115D01*
X112248828Y-85748529D01*
X112260165Y-85723707D01*
X112264050Y-85696683D01*
X112267809Y-85679403D01*
X112275500Y-85653211D01*
X112275500Y-85509289D01*
X112275500Y-76128211D01*
X116324500Y-76128211D01*
X116326997Y-76136717D01*
X116326998Y-76136721D01*
X116332190Y-76154405D01*
X116335949Y-76171685D01*
X116339835Y-76198707D01*
X116343521Y-76206778D01*
X116351173Y-76223535D01*
X116357354Y-76240106D01*
X116362547Y-76257791D01*
X116362548Y-76257794D01*
X116365047Y-76266303D01*
X116369841Y-76273762D01*
X116369842Y-76273765D01*
X116379807Y-76289272D01*
X116388281Y-76304790D01*
X116393338Y-76315862D01*
X116399623Y-76329623D01*
X116405428Y-76336322D01*
X116405432Y-76336328D01*
X116417495Y-76350250D01*
X116428095Y-76364409D01*
X116438063Y-76379919D01*
X116442857Y-76387378D01*
X116449556Y-76393182D01*
X116449557Y-76393184D01*
X116463487Y-76405255D01*
X116475992Y-76417760D01*
X116488063Y-76431690D01*
X116488065Y-76431692D01*
X116493872Y-76438393D01*
X116516841Y-76453154D01*
X116530994Y-76463748D01*
X116551627Y-76481627D01*
X116575203Y-76492394D01*
X116576451Y-76492964D01*
X116591978Y-76501442D01*
X116607482Y-76511406D01*
X116614947Y-76516203D01*
X116623462Y-76518703D01*
X116641135Y-76523893D01*
X116657712Y-76530076D01*
X116674471Y-76537729D01*
X116674473Y-76537729D01*
X116682543Y-76541415D01*
X116709567Y-76545300D01*
X116726846Y-76549059D01*
X116753039Y-76556750D01*
X116789201Y-76556750D01*
X116896961Y-76556750D01*
X130753039Y-76556750D01*
X130860799Y-76556750D01*
X130888091Y-76556750D01*
X130896961Y-76556750D01*
X130923153Y-76549059D01*
X130940433Y-76545300D01*
X130967457Y-76541415D01*
X130992284Y-76530075D01*
X131008865Y-76523892D01*
X131014351Y-76522281D01*
X131035053Y-76516203D01*
X131058020Y-76501442D01*
X131073541Y-76492967D01*
X131098373Y-76481627D01*
X131119008Y-76463745D01*
X131133150Y-76453158D01*
X131156128Y-76438393D01*
X131174015Y-76417749D01*
X131186499Y-76405265D01*
X131207143Y-76387378D01*
X131221908Y-76364400D01*
X131232495Y-76350258D01*
X131250377Y-76329623D01*
X131261718Y-76304790D01*
X131270192Y-76289270D01*
X131284953Y-76266303D01*
X131292642Y-76240115D01*
X131298828Y-76223529D01*
X131310165Y-76198707D01*
X131314050Y-76171683D01*
X131317809Y-76154403D01*
X131325500Y-76128211D01*
X131325500Y-75984289D01*
X131325500Y-62020451D01*
X131325500Y-61984289D01*
X131317809Y-61958094D01*
X131314050Y-61940815D01*
X131311427Y-61922570D01*
X131311426Y-61922569D01*
X131310165Y-61913793D01*
X131306479Y-61905721D01*
X131298826Y-61888962D01*
X131292643Y-61872385D01*
X131287453Y-61854712D01*
X131284953Y-61846197D01*
X131270192Y-61823228D01*
X131261714Y-61807701D01*
X131261144Y-61806453D01*
X131250377Y-61782877D01*
X131232498Y-61762244D01*
X131221904Y-61748091D01*
X131207143Y-61725122D01*
X131200442Y-61719315D01*
X131200440Y-61719313D01*
X131186510Y-61707242D01*
X131174005Y-61694737D01*
X131161934Y-61680807D01*
X131161932Y-61680806D01*
X131156128Y-61674107D01*
X131148671Y-61669314D01*
X131148669Y-61669313D01*
X131133159Y-61659345D01*
X131119000Y-61648745D01*
X131105078Y-61636682D01*
X131105073Y-61636679D01*
X131098373Y-61630873D01*
X131090309Y-61627190D01*
X131090306Y-61627188D01*
X131084478Y-61624527D01*
X131041352Y-61591854D01*
X131016244Y-61543928D01*
X131013934Y-61489872D01*
X131034863Y-61439979D01*
X131214890Y-61186255D01*
X131214898Y-61186242D01*
X131216905Y-61183414D01*
X131385355Y-60878626D01*
X131518621Y-60556894D01*
X131615027Y-60222263D01*
X131673359Y-59878943D01*
X131692885Y-59531250D01*
X131673359Y-59183557D01*
X131615027Y-58840237D01*
X131518621Y-58505606D01*
X131385355Y-58183874D01*
X131216905Y-57879086D01*
X131034862Y-57622520D01*
X131013934Y-57572624D01*
X131016246Y-57518565D01*
X131041358Y-57470638D01*
X131084487Y-57437968D01*
X131098373Y-57431627D01*
X131119008Y-57413745D01*
X131133150Y-57403158D01*
X131156128Y-57388393D01*
X131174015Y-57367749D01*
X131186499Y-57355265D01*
X131207143Y-57337378D01*
X131221908Y-57314400D01*
X131232495Y-57300258D01*
X131250377Y-57279623D01*
X131261718Y-57254790D01*
X131270192Y-57239270D01*
X131284953Y-57216303D01*
X131292642Y-57190115D01*
X131298828Y-57173529D01*
X131310165Y-57148707D01*
X131314050Y-57121683D01*
X131317809Y-57104403D01*
X131325500Y-57078211D01*
X131325500Y-56934289D01*
X131325500Y-42970451D01*
X131325500Y-42934289D01*
X131317809Y-42908094D01*
X131314050Y-42890815D01*
X131311427Y-42872570D01*
X131311426Y-42872569D01*
X131310165Y-42863793D01*
X131306479Y-42855721D01*
X131298826Y-42838962D01*
X131292643Y-42822385D01*
X131287453Y-42804712D01*
X131284953Y-42796197D01*
X131270192Y-42773228D01*
X131261714Y-42757701D01*
X131257591Y-42748673D01*
X131250377Y-42732877D01*
X131232498Y-42712244D01*
X131221904Y-42698091D01*
X131207143Y-42675122D01*
X131200442Y-42669315D01*
X131200440Y-42669313D01*
X131186510Y-42657242D01*
X131174005Y-42644737D01*
X131161934Y-42630807D01*
X131161932Y-42630806D01*
X131156128Y-42624107D01*
X131148671Y-42619314D01*
X131148669Y-42619313D01*
X131133159Y-42609345D01*
X131119000Y-42598745D01*
X131105078Y-42586682D01*
X131105073Y-42586679D01*
X131098373Y-42580873D01*
X131084612Y-42574588D01*
X131073540Y-42569531D01*
X131058022Y-42561057D01*
X131042515Y-42551092D01*
X131042512Y-42551091D01*
X131035053Y-42546297D01*
X131026544Y-42543798D01*
X131026541Y-42543797D01*
X131008856Y-42538604D01*
X130992285Y-42532423D01*
X130975528Y-42524771D01*
X130967457Y-42521085D01*
X130958675Y-42519822D01*
X130940435Y-42517199D01*
X130923155Y-42513440D01*
X130905471Y-42508248D01*
X130905467Y-42508247D01*
X130896961Y-42505750D01*
X130860799Y-42505750D01*
X116896961Y-42505750D01*
X116753039Y-42505750D01*
X116744534Y-42508246D01*
X116744533Y-42508247D01*
X116737240Y-42510388D01*
X116726838Y-42513442D01*
X116709565Y-42517199D01*
X116691319Y-42519822D01*
X116691312Y-42519823D01*
X116682543Y-42521085D01*
X116674479Y-42524767D01*
X116674477Y-42524768D01*
X116657709Y-42532425D01*
X116641143Y-42538603D01*
X116623464Y-42543794D01*
X116623451Y-42543799D01*
X116614947Y-42546297D01*
X116607486Y-42551091D01*
X116607485Y-42551092D01*
X116591980Y-42561056D01*
X116576464Y-42569528D01*
X116559698Y-42577185D01*
X116559688Y-42577191D01*
X116551627Y-42580873D01*
X116544926Y-42586678D01*
X116544923Y-42586681D01*
X116530998Y-42598747D01*
X116516842Y-42609344D01*
X116501331Y-42619312D01*
X116501325Y-42619317D01*
X116493872Y-42624107D01*
X116488069Y-42630802D01*
X116488066Y-42630806D01*
X116475993Y-42644739D01*
X116463489Y-42657243D01*
X116449556Y-42669316D01*
X116449552Y-42669319D01*
X116442857Y-42675122D01*
X116438067Y-42682575D01*
X116438062Y-42682581D01*
X116428094Y-42698092D01*
X116417497Y-42712248D01*
X116405431Y-42726173D01*
X116405428Y-42726176D01*
X116399623Y-42732877D01*
X116395941Y-42740938D01*
X116395935Y-42740948D01*
X116388278Y-42757714D01*
X116379806Y-42773230D01*
X116374271Y-42781844D01*
X116365047Y-42796197D01*
X116362549Y-42804701D01*
X116362544Y-42804714D01*
X116357353Y-42822393D01*
X116351175Y-42838959D01*
X116343521Y-42855721D01*
X116339835Y-42863793D01*
X116338573Y-42872562D01*
X116338572Y-42872569D01*
X116335949Y-42890815D01*
X116332191Y-42908094D01*
X116326999Y-42925778D01*
X116324500Y-42934289D01*
X116324500Y-42970451D01*
X116324500Y-56934289D01*
X116324500Y-57078211D01*
X116326997Y-57086717D01*
X116326998Y-57086721D01*
X116332190Y-57104405D01*
X116335949Y-57121685D01*
X116339835Y-57148707D01*
X116343521Y-57156778D01*
X116351173Y-57173535D01*
X116357354Y-57190106D01*
X116362547Y-57207791D01*
X116362548Y-57207794D01*
X116365047Y-57216303D01*
X116369841Y-57223762D01*
X116369842Y-57223765D01*
X116379807Y-57239272D01*
X116388281Y-57254790D01*
X116393338Y-57265862D01*
X116399623Y-57279623D01*
X116405428Y-57286322D01*
X116405432Y-57286328D01*
X116417495Y-57300250D01*
X116428095Y-57314409D01*
X116438063Y-57329919D01*
X116442857Y-57337378D01*
X116449556Y-57343182D01*
X116449557Y-57343184D01*
X116463487Y-57355255D01*
X116475992Y-57367760D01*
X116488063Y-57381690D01*
X116488065Y-57381692D01*
X116493872Y-57388393D01*
X116516841Y-57403154D01*
X116530994Y-57413748D01*
X116551627Y-57431627D01*
X116575203Y-57442394D01*
X116576451Y-57442964D01*
X116591978Y-57451442D01*
X116614947Y-57466203D01*
X116623462Y-57468703D01*
X116641135Y-57473893D01*
X116657712Y-57480076D01*
X116674471Y-57487729D01*
X116674473Y-57487729D01*
X116682543Y-57491415D01*
X116709567Y-57495300D01*
X116726846Y-57499059D01*
X116753039Y-57506750D01*
X116789201Y-57506750D01*
X116896961Y-57506750D01*
X125982256Y-57506750D01*
X126046749Y-57524841D01*
X126092423Y-57573836D01*
X126105951Y-57639438D01*
X126083386Y-57702504D01*
X125958095Y-57879086D01*
X125956424Y-57882107D01*
X125956416Y-57882122D01*
X125791327Y-58180830D01*
X125789645Y-58183874D01*
X125788318Y-58187077D01*
X125788313Y-58187088D01*
X125657711Y-58502388D01*
X125657705Y-58502402D01*
X125656379Y-58505606D01*
X125655420Y-58508934D01*
X125655415Y-58508949D01*
X125560936Y-58836892D01*
X125560933Y-58836903D01*
X125559973Y-58840237D01*
X125559391Y-58843657D01*
X125559389Y-58843670D01*
X125502222Y-59180132D01*
X125502220Y-59180148D01*
X125501641Y-59183557D01*
X125482115Y-59531250D01*
X125501641Y-59878943D01*
X125502220Y-59882353D01*
X125502222Y-59882367D01*
X125559389Y-60218829D01*
X125559391Y-60218838D01*
X125559973Y-60222263D01*
X125560934Y-60225600D01*
X125560936Y-60225607D01*
X125655415Y-60553550D01*
X125655418Y-60553559D01*
X125656379Y-60556894D01*
X125657708Y-60560102D01*
X125657711Y-60560111D01*
X125788313Y-60875411D01*
X125789645Y-60878626D01*
X125791327Y-60881669D01*
X125956416Y-61180377D01*
X125956420Y-61180383D01*
X125958095Y-61183414D01*
X126083386Y-61359995D01*
X126105951Y-61423062D01*
X126092423Y-61488664D01*
X126046749Y-61537659D01*
X125982256Y-61555750D01*
X116896961Y-61555750D01*
X116753039Y-61555750D01*
X116744534Y-61558246D01*
X116744533Y-61558247D01*
X116737240Y-61560388D01*
X116726838Y-61563442D01*
X116709565Y-61567199D01*
X116691319Y-61569822D01*
X116691312Y-61569823D01*
X116682543Y-61571085D01*
X116674479Y-61574767D01*
X116674477Y-61574768D01*
X116657709Y-61582425D01*
X116641143Y-61588603D01*
X116623464Y-61593794D01*
X116623451Y-61593799D01*
X116614947Y-61596297D01*
X116607486Y-61601091D01*
X116607485Y-61601092D01*
X116591980Y-61611056D01*
X116576464Y-61619528D01*
X116559698Y-61627185D01*
X116559688Y-61627191D01*
X116551627Y-61630873D01*
X116544926Y-61636678D01*
X116544923Y-61636681D01*
X116530998Y-61648747D01*
X116516842Y-61659344D01*
X116501331Y-61669312D01*
X116501325Y-61669317D01*
X116493872Y-61674107D01*
X116488069Y-61680802D01*
X116488066Y-61680806D01*
X116475993Y-61694739D01*
X116463489Y-61707243D01*
X116449556Y-61719316D01*
X116449552Y-61719319D01*
X116442857Y-61725122D01*
X116438067Y-61732575D01*
X116438062Y-61732581D01*
X116428094Y-61748092D01*
X116417497Y-61762248D01*
X116405431Y-61776173D01*
X116405428Y-61776176D01*
X116399623Y-61782877D01*
X116395941Y-61790938D01*
X116395935Y-61790948D01*
X116388278Y-61807714D01*
X116379806Y-61823230D01*
X116374271Y-61831844D01*
X116365047Y-61846197D01*
X116362549Y-61854701D01*
X116362544Y-61854714D01*
X116357353Y-61872393D01*
X116351175Y-61888959D01*
X116343521Y-61905721D01*
X116339835Y-61913793D01*
X116338573Y-61922562D01*
X116338572Y-61922569D01*
X116335949Y-61940815D01*
X116332191Y-61958094D01*
X116326999Y-61975778D01*
X116324500Y-61984289D01*
X116324500Y-62020451D01*
X116324500Y-75984289D01*
X116324500Y-76128211D01*
X112275500Y-76128211D01*
X112275500Y-71545451D01*
X112275500Y-71509289D01*
X112267809Y-71483094D01*
X112264050Y-71465815D01*
X112261427Y-71447570D01*
X112261426Y-71447569D01*
X112260165Y-71438793D01*
X112256479Y-71430721D01*
X112248826Y-71413962D01*
X112242643Y-71397385D01*
X112237453Y-71379712D01*
X112234953Y-71371197D01*
X112220192Y-71348228D01*
X112211714Y-71332701D01*
X112211144Y-71331453D01*
X112200377Y-71307877D01*
X112182498Y-71287244D01*
X112171904Y-71273091D01*
X112157143Y-71250122D01*
X112150442Y-71244315D01*
X112150440Y-71244313D01*
X112136510Y-71232242D01*
X112124005Y-71219737D01*
X112111934Y-71205807D01*
X112111932Y-71205806D01*
X112106128Y-71199107D01*
X112098671Y-71194314D01*
X112098669Y-71194313D01*
X112083159Y-71184345D01*
X112069000Y-71173745D01*
X112055078Y-71161682D01*
X112055073Y-71161679D01*
X112048373Y-71155873D01*
X112034612Y-71149588D01*
X112023540Y-71144531D01*
X112008022Y-71136057D01*
X111992515Y-71126092D01*
X111992512Y-71126091D01*
X111985053Y-71121297D01*
X111976544Y-71118798D01*
X111976541Y-71118797D01*
X111958856Y-71113604D01*
X111942285Y-71107423D01*
X111925528Y-71099771D01*
X111917457Y-71096085D01*
X111908675Y-71094822D01*
X111890435Y-71092199D01*
X111873155Y-71088440D01*
X111855471Y-71083248D01*
X111855467Y-71083247D01*
X111846961Y-71080750D01*
X111810799Y-71080750D01*
X97846961Y-71080750D01*
X97703039Y-71080750D01*
X97694534Y-71083246D01*
X97694533Y-71083247D01*
X97687240Y-71085388D01*
X97676838Y-71088442D01*
X97659565Y-71092199D01*
X97641319Y-71094822D01*
X97641312Y-71094823D01*
X97632543Y-71096085D01*
X97624479Y-71099767D01*
X97624477Y-71099768D01*
X97607709Y-71107425D01*
X97591143Y-71113603D01*
X97573464Y-71118794D01*
X97573451Y-71118799D01*
X97564947Y-71121297D01*
X97557486Y-71126091D01*
X97557485Y-71126092D01*
X97541980Y-71136056D01*
X97526464Y-71144528D01*
X97509698Y-71152185D01*
X97509688Y-71152191D01*
X97501627Y-71155873D01*
X97494926Y-71161678D01*
X97494923Y-71161681D01*
X97480998Y-71173747D01*
X97466842Y-71184344D01*
X97451331Y-71194312D01*
X97451325Y-71194317D01*
X97443872Y-71199107D01*
X97438069Y-71205802D01*
X97438066Y-71205806D01*
X97425993Y-71219739D01*
X97413489Y-71232243D01*
X97399556Y-71244316D01*
X97399552Y-71244319D01*
X97392857Y-71250122D01*
X97388067Y-71257575D01*
X97388062Y-71257581D01*
X97378094Y-71273092D01*
X97367497Y-71287248D01*
X97355431Y-71301173D01*
X97355428Y-71301176D01*
X97349623Y-71307877D01*
X97345941Y-71315938D01*
X97345935Y-71315948D01*
X97338278Y-71332714D01*
X97329807Y-71348228D01*
X97315047Y-71371197D01*
X97312549Y-71379701D01*
X97312544Y-71379714D01*
X97307353Y-71397393D01*
X97301175Y-71413959D01*
X97293521Y-71430721D01*
X97289835Y-71438793D01*
X97288573Y-71447562D01*
X97288572Y-71447569D01*
X97285949Y-71465815D01*
X97282191Y-71483094D01*
X97276999Y-71500778D01*
X97274500Y-71509289D01*
X97274500Y-71545451D01*
X97274500Y-85509289D01*
X97274500Y-85653211D01*
X88418927Y-85653211D01*
X88407692Y-85635728D01*
X88399214Y-85620201D01*
X88398644Y-85618953D01*
X88387877Y-85595377D01*
X88369998Y-85574744D01*
X88359404Y-85560591D01*
X88344643Y-85537622D01*
X88337942Y-85531815D01*
X88337940Y-85531813D01*
X88324010Y-85519742D01*
X88311505Y-85507237D01*
X88299434Y-85493307D01*
X88299432Y-85493306D01*
X88293628Y-85486607D01*
X88286171Y-85481814D01*
X88286169Y-85481813D01*
X88270659Y-85471845D01*
X88256500Y-85461245D01*
X88242578Y-85449182D01*
X88242573Y-85449179D01*
X88235873Y-85443373D01*
X88221969Y-85437023D01*
X88211040Y-85432031D01*
X88195522Y-85423557D01*
X88180015Y-85413592D01*
X88180012Y-85413591D01*
X88172553Y-85408797D01*
X88164044Y-85406298D01*
X88164041Y-85406297D01*
X88146356Y-85401104D01*
X88129785Y-85394923D01*
X88113028Y-85387271D01*
X88104957Y-85383585D01*
X88096175Y-85382322D01*
X88077935Y-85379699D01*
X88060655Y-85375940D01*
X88042971Y-85370748D01*
X88042967Y-85370747D01*
X88034461Y-85368250D01*
X88025594Y-85368250D01*
X78805244Y-85368250D01*
X78740751Y-85350159D01*
X78695077Y-85301164D01*
X78681549Y-85235562D01*
X78704114Y-85172495D01*
X78829405Y-84995914D01*
X78997855Y-84691126D01*
X79131121Y-84369394D01*
X79227527Y-84034763D01*
X79285859Y-83691443D01*
X79305385Y-83343750D01*
X79285859Y-82996057D01*
X79227527Y-82652737D01*
X79131121Y-82318106D01*
X78997855Y-81996374D01*
X78829405Y-81691586D01*
X78704113Y-81515004D01*
X78681549Y-81451938D01*
X78695077Y-81386336D01*
X78740751Y-81337341D01*
X78805244Y-81319250D01*
X92788091Y-81319250D01*
X92796961Y-81319250D01*
X92823153Y-81311559D01*
X92840433Y-81307800D01*
X92867457Y-81303915D01*
X92892284Y-81292575D01*
X92908865Y-81286392D01*
X92914351Y-81284781D01*
X92935053Y-81278703D01*
X92958020Y-81263942D01*
X92973541Y-81255467D01*
X92998373Y-81244127D01*
X93019008Y-81226245D01*
X93033150Y-81215658D01*
X93056128Y-81200893D01*
X93074015Y-81180249D01*
X93086499Y-81167765D01*
X93107143Y-81149878D01*
X93121908Y-81126900D01*
X93132495Y-81112758D01*
X93150377Y-81092123D01*
X93161718Y-81067290D01*
X93170192Y-81051770D01*
X93184953Y-81028803D01*
X93192642Y-81002615D01*
X93198828Y-80986029D01*
X93210165Y-80961207D01*
X93214050Y-80934183D01*
X93217809Y-80916903D01*
X93225500Y-80890711D01*
X93225500Y-80746789D01*
X93225500Y-66782951D01*
X93225500Y-66746789D01*
X93217809Y-66720594D01*
X93214050Y-66703315D01*
X93211427Y-66685070D01*
X93211426Y-66685069D01*
X93210165Y-66676293D01*
X93206479Y-66668221D01*
X93198826Y-66651462D01*
X93192643Y-66634885D01*
X93187453Y-66617212D01*
X93184953Y-66608697D01*
X93181427Y-66603211D01*
X97274500Y-66603211D01*
X97276997Y-66611717D01*
X97276998Y-66611721D01*
X97282190Y-66629405D01*
X97285949Y-66646685D01*
X97289835Y-66673707D01*
X97293521Y-66681778D01*
X97301173Y-66698535D01*
X97307354Y-66715106D01*
X97312547Y-66732791D01*
X97312548Y-66732794D01*
X97315047Y-66741303D01*
X97319841Y-66748762D01*
X97319842Y-66748765D01*
X97329807Y-66764272D01*
X97338281Y-66779790D01*
X97339725Y-66782951D01*
X97349623Y-66804623D01*
X97355428Y-66811322D01*
X97355432Y-66811328D01*
X97367495Y-66825250D01*
X97378095Y-66839409D01*
X97388063Y-66854919D01*
X97392857Y-66862378D01*
X97399556Y-66868182D01*
X97399557Y-66868184D01*
X97413487Y-66880255D01*
X97425992Y-66892760D01*
X97438063Y-66906690D01*
X97438065Y-66906692D01*
X97443872Y-66913393D01*
X97466841Y-66928154D01*
X97480994Y-66938748D01*
X97501627Y-66956627D01*
X97525203Y-66967394D01*
X97526451Y-66967964D01*
X97541978Y-66976442D01*
X97557482Y-66986406D01*
X97564947Y-66991203D01*
X97573462Y-66993703D01*
X97591135Y-66998893D01*
X97607712Y-67005076D01*
X97624471Y-67012729D01*
X97624473Y-67012729D01*
X97632543Y-67016415D01*
X97659567Y-67020300D01*
X97676846Y-67024059D01*
X97703039Y-67031750D01*
X97739201Y-67031750D01*
X97846961Y-67031750D01*
X111703039Y-67031750D01*
X111810799Y-67031750D01*
X111838091Y-67031750D01*
X111846961Y-67031750D01*
X111873153Y-67024059D01*
X111890433Y-67020300D01*
X111917457Y-67016415D01*
X111942284Y-67005075D01*
X111958865Y-66998892D01*
X111964351Y-66997281D01*
X111985053Y-66991203D01*
X112008020Y-66976442D01*
X112023541Y-66967967D01*
X112048373Y-66956627D01*
X112069008Y-66938745D01*
X112083150Y-66928158D01*
X112106128Y-66913393D01*
X112124015Y-66892749D01*
X112136499Y-66880265D01*
X112157143Y-66862378D01*
X112171908Y-66839400D01*
X112182495Y-66825258D01*
X112200377Y-66804623D01*
X112211718Y-66779790D01*
X112220192Y-66764270D01*
X112234953Y-66741303D01*
X112242642Y-66715115D01*
X112248828Y-66698529D01*
X112260165Y-66673707D01*
X112264050Y-66646683D01*
X112267809Y-66629403D01*
X112275500Y-66603211D01*
X112275500Y-66459289D01*
X112275500Y-52495451D01*
X112275500Y-52459289D01*
X112267809Y-52433094D01*
X112264050Y-52415815D01*
X112261427Y-52397570D01*
X112261426Y-52397569D01*
X112260165Y-52388793D01*
X112256479Y-52380721D01*
X112248826Y-52363962D01*
X112242643Y-52347385D01*
X112237453Y-52329712D01*
X112234953Y-52321197D01*
X112220192Y-52298228D01*
X112211714Y-52282701D01*
X112211144Y-52281453D01*
X112200377Y-52257877D01*
X112182498Y-52237244D01*
X112171904Y-52223091D01*
X112157143Y-52200122D01*
X112150442Y-52194315D01*
X112150440Y-52194313D01*
X112136510Y-52182242D01*
X112124005Y-52169737D01*
X112111934Y-52155807D01*
X112111932Y-52155806D01*
X112106128Y-52149107D01*
X112098671Y-52144314D01*
X112098669Y-52144313D01*
X112083159Y-52134345D01*
X112069000Y-52123745D01*
X112055078Y-52111682D01*
X112055073Y-52111679D01*
X112048373Y-52105873D01*
X112034612Y-52099588D01*
X112023540Y-52094531D01*
X112008022Y-52086057D01*
X111992515Y-52076092D01*
X111992512Y-52076091D01*
X111985053Y-52071297D01*
X111976544Y-52068798D01*
X111976541Y-52068797D01*
X111958856Y-52063604D01*
X111942285Y-52057423D01*
X111925528Y-52049771D01*
X111917457Y-52046085D01*
X111908675Y-52044822D01*
X111890435Y-52042199D01*
X111873155Y-52038440D01*
X111855471Y-52033248D01*
X111855467Y-52033247D01*
X111846961Y-52030750D01*
X111810799Y-52030750D01*
X97846961Y-52030750D01*
X97703039Y-52030750D01*
X97694534Y-52033246D01*
X97694533Y-52033247D01*
X97687240Y-52035388D01*
X97676838Y-52038442D01*
X97659565Y-52042199D01*
X97641319Y-52044822D01*
X97641312Y-52044823D01*
X97632543Y-52046085D01*
X97624479Y-52049767D01*
X97624477Y-52049768D01*
X97607709Y-52057425D01*
X97591143Y-52063603D01*
X97573464Y-52068794D01*
X97573451Y-52068799D01*
X97564947Y-52071297D01*
X97557486Y-52076091D01*
X97557485Y-52076092D01*
X97541980Y-52086056D01*
X97526464Y-52094528D01*
X97509698Y-52102185D01*
X97509688Y-52102191D01*
X97501627Y-52105873D01*
X97494926Y-52111678D01*
X97494923Y-52111681D01*
X97480998Y-52123747D01*
X97466842Y-52134344D01*
X97451331Y-52144312D01*
X97451325Y-52144317D01*
X97443872Y-52149107D01*
X97438069Y-52155802D01*
X97438066Y-52155806D01*
X97425993Y-52169739D01*
X97413489Y-52182243D01*
X97399556Y-52194316D01*
X97399552Y-52194319D01*
X97392857Y-52200122D01*
X97388067Y-52207575D01*
X97388062Y-52207581D01*
X97378094Y-52223092D01*
X97367497Y-52237248D01*
X97355431Y-52251173D01*
X97355428Y-52251176D01*
X97349623Y-52257877D01*
X97345941Y-52265938D01*
X97345935Y-52265948D01*
X97338278Y-52282714D01*
X97329807Y-52298228D01*
X97315047Y-52321197D01*
X97312549Y-52329701D01*
X97312544Y-52329714D01*
X97307353Y-52347393D01*
X97301175Y-52363959D01*
X97293521Y-52380721D01*
X97289835Y-52388793D01*
X97288573Y-52397562D01*
X97288572Y-52397569D01*
X97285949Y-52415815D01*
X97282191Y-52433094D01*
X97276999Y-52450778D01*
X97274500Y-52459289D01*
X97274500Y-52495451D01*
X97274500Y-66459289D01*
X97274500Y-66603211D01*
X93181427Y-66603211D01*
X93170192Y-66585728D01*
X93161714Y-66570201D01*
X93161144Y-66568953D01*
X93150377Y-66545377D01*
X93132498Y-66524744D01*
X93121904Y-66510591D01*
X93107143Y-66487622D01*
X93100442Y-66481815D01*
X93100440Y-66481813D01*
X93086510Y-66469742D01*
X93074005Y-66457237D01*
X93061934Y-66443307D01*
X93061932Y-66443306D01*
X93056128Y-66436607D01*
X93048671Y-66431814D01*
X93048669Y-66431813D01*
X93033159Y-66421845D01*
X93019000Y-66411245D01*
X93005078Y-66399182D01*
X93005073Y-66399179D01*
X92998373Y-66393373D01*
X92984612Y-66387088D01*
X92973540Y-66382031D01*
X92958022Y-66373557D01*
X92942515Y-66363592D01*
X92942512Y-66363591D01*
X92935053Y-66358797D01*
X92926544Y-66356298D01*
X92926541Y-66356297D01*
X92908856Y-66351104D01*
X92892285Y-66344923D01*
X92875528Y-66337271D01*
X92867457Y-66333585D01*
X92858675Y-66332322D01*
X92840435Y-66329699D01*
X92823155Y-66325940D01*
X92805471Y-66320748D01*
X92805467Y-66320747D01*
X92796961Y-66318250D01*
X92760799Y-66318250D01*
X78796961Y-66318250D01*
X78653039Y-66318250D01*
X78644534Y-66320746D01*
X78644533Y-66320747D01*
X78637240Y-66322888D01*
X78626838Y-66325942D01*
X78609565Y-66329699D01*
X78591319Y-66332322D01*
X78591312Y-66332323D01*
X78582543Y-66333585D01*
X78574479Y-66337267D01*
X78574477Y-66337268D01*
X78557709Y-66344925D01*
X78541143Y-66351103D01*
X78523464Y-66356294D01*
X78523451Y-66356299D01*
X78514947Y-66358797D01*
X78507486Y-66363591D01*
X78507485Y-66363592D01*
X78491980Y-66373556D01*
X78476464Y-66382028D01*
X78459698Y-66389685D01*
X78459688Y-66389691D01*
X78451627Y-66393373D01*
X78444926Y-66399178D01*
X78444923Y-66399181D01*
X78430998Y-66411247D01*
X78416842Y-66421844D01*
X78401331Y-66431812D01*
X78401325Y-66431817D01*
X78393872Y-66436607D01*
X78388069Y-66443302D01*
X78388066Y-66443306D01*
X78375993Y-66457239D01*
X78363489Y-66469743D01*
X78349556Y-66481816D01*
X78349552Y-66481819D01*
X78342857Y-66487622D01*
X78338067Y-66495075D01*
X78338062Y-66495081D01*
X78328094Y-66510592D01*
X78317497Y-66524748D01*
X78305431Y-66538673D01*
X78305428Y-66538676D01*
X78299623Y-66545377D01*
X78295941Y-66553438D01*
X78295935Y-66553448D01*
X78288278Y-66570214D01*
X78279806Y-66585730D01*
X78274271Y-66594344D01*
X78265047Y-66608697D01*
X78262549Y-66617201D01*
X78262544Y-66617214D01*
X78257353Y-66634893D01*
X78251175Y-66651459D01*
X78243521Y-66668221D01*
X78239835Y-66676293D01*
X78238573Y-66685062D01*
X78238572Y-66685069D01*
X78235949Y-66703315D01*
X78232191Y-66720594D01*
X78226999Y-66738278D01*
X78224500Y-66746789D01*
X78224500Y-66755657D01*
X78224500Y-80738506D01*
X78206409Y-80802999D01*
X78157414Y-80848673D01*
X78091812Y-80862201D01*
X78028745Y-80839636D01*
X78009771Y-80826173D01*
X77852164Y-80714345D01*
X77849133Y-80712670D01*
X77849127Y-80712666D01*
X77550419Y-80547577D01*
X77547376Y-80545895D01*
X77544165Y-80544565D01*
X77544161Y-80544563D01*
X77228861Y-80413961D01*
X77228852Y-80413958D01*
X77225644Y-80412629D01*
X77222309Y-80411668D01*
X77222300Y-80411665D01*
X76894357Y-80317186D01*
X76894350Y-80317184D01*
X76891013Y-80316223D01*
X76887588Y-80315641D01*
X76887579Y-80315639D01*
X76551117Y-80258472D01*
X76551103Y-80258470D01*
X76547693Y-80257891D01*
X76544229Y-80257696D01*
X76544225Y-80257696D01*
X76203472Y-80238560D01*
X76200000Y-80238365D01*
X76196528Y-80238560D01*
X75855774Y-80257696D01*
X75855768Y-80257696D01*
X75852307Y-80257891D01*
X75848898Y-80258470D01*
X75848882Y-80258472D01*
X75512420Y-80315639D01*
X75512407Y-80315641D01*
X75508987Y-80316223D01*
X75505653Y-80317183D01*
X75505642Y-80317186D01*
X75177699Y-80411665D01*
X75177684Y-80411670D01*
X75174356Y-80412629D01*
X75171152Y-80413955D01*
X75171138Y-80413961D01*
X74855838Y-80544563D01*
X74855827Y-80544568D01*
X74852624Y-80545895D01*
X74849585Y-80547574D01*
X74849580Y-80547577D01*
X74550872Y-80712666D01*
X74550857Y-80712674D01*
X74547836Y-80714345D01*
X74545010Y-80716349D01*
X74545007Y-80716352D01*
X74462179Y-80775122D01*
X74409848Y-80812253D01*
X74371255Y-80839636D01*
X74308188Y-80862201D01*
X74242586Y-80848673D01*
X74193591Y-80802999D01*
X74175500Y-80738506D01*
X74175500Y-66755660D01*
X74175500Y-66755657D01*
X74175500Y-66746789D01*
X74167809Y-66720594D01*
X74164050Y-66703315D01*
X74161427Y-66685070D01*
X74161426Y-66685069D01*
X74160165Y-66676293D01*
X74156479Y-66668221D01*
X74148826Y-66651462D01*
X74142643Y-66634885D01*
X74137453Y-66617212D01*
X74134953Y-66608697D01*
X74120192Y-66585728D01*
X74111714Y-66570201D01*
X74111144Y-66568953D01*
X74100377Y-66545377D01*
X74082498Y-66524744D01*
X74071904Y-66510591D01*
X74057143Y-66487622D01*
X74050442Y-66481815D01*
X74050440Y-66481813D01*
X74036510Y-66469742D01*
X74024005Y-66457237D01*
X74011934Y-66443307D01*
X74011932Y-66443306D01*
X74006128Y-66436607D01*
X73998671Y-66431814D01*
X73998669Y-66431813D01*
X73983159Y-66421845D01*
X73969000Y-66411245D01*
X73955078Y-66399182D01*
X73955073Y-66399179D01*
X73948373Y-66393373D01*
X73934612Y-66387088D01*
X73923540Y-66382031D01*
X73908022Y-66373557D01*
X73892515Y-66363592D01*
X73892512Y-66363591D01*
X73885053Y-66358797D01*
X73876544Y-66356298D01*
X73876541Y-66356297D01*
X73858856Y-66351104D01*
X73842285Y-66344923D01*
X73825528Y-66337271D01*
X73817457Y-66333585D01*
X73808675Y-66332322D01*
X73790435Y-66329699D01*
X73773155Y-66325940D01*
X73755471Y-66320748D01*
X73755467Y-66320747D01*
X73746961Y-66318250D01*
X73710799Y-66318250D01*
X59746961Y-66318250D01*
X59603039Y-66318250D01*
X59594534Y-66320746D01*
X59594533Y-66320747D01*
X59587240Y-66322888D01*
X59576838Y-66325942D01*
X59559565Y-66329699D01*
X59541319Y-66332322D01*
X59541312Y-66332323D01*
X59532543Y-66333585D01*
X59524479Y-66337267D01*
X59524477Y-66337268D01*
X59507709Y-66344925D01*
X59491143Y-66351103D01*
X59473464Y-66356294D01*
X59473451Y-66356299D01*
X59464947Y-66358797D01*
X59457486Y-66363591D01*
X59457485Y-66363592D01*
X59441980Y-66373556D01*
X59426464Y-66382028D01*
X59409698Y-66389685D01*
X59409688Y-66389691D01*
X59401627Y-66393373D01*
X59394926Y-66399178D01*
X59394923Y-66399181D01*
X59380998Y-66411247D01*
X59366842Y-66421844D01*
X59351331Y-66431812D01*
X59351325Y-66431817D01*
X59343872Y-66436607D01*
X59338069Y-66443302D01*
X59338066Y-66443306D01*
X59325993Y-66457239D01*
X59313489Y-66469743D01*
X59299556Y-66481816D01*
X59299552Y-66481819D01*
X59292857Y-66487622D01*
X59288067Y-66495075D01*
X59288062Y-66495081D01*
X59278094Y-66510592D01*
X59267497Y-66524748D01*
X59255431Y-66538673D01*
X59255428Y-66538676D01*
X59249623Y-66545377D01*
X59245941Y-66553438D01*
X59245935Y-66553448D01*
X59238278Y-66570214D01*
X59229806Y-66585730D01*
X59224271Y-66594344D01*
X59215047Y-66608697D01*
X59212549Y-66617201D01*
X59212544Y-66617214D01*
X59207353Y-66634893D01*
X59201175Y-66651459D01*
X59193521Y-66668221D01*
X59189835Y-66676293D01*
X59188573Y-66685062D01*
X59188572Y-66685069D01*
X59185949Y-66703315D01*
X59182191Y-66720594D01*
X59176999Y-66738278D01*
X59174500Y-66746789D01*
X59174500Y-66782951D01*
X59174500Y-80746789D01*
X59174500Y-80890711D01*
X55125500Y-80890711D01*
X55125500Y-80746789D01*
X55125500Y-66782951D01*
X55125500Y-66746789D01*
X55117809Y-66720594D01*
X55114050Y-66703315D01*
X55111427Y-66685070D01*
X55111426Y-66685069D01*
X55110165Y-66676293D01*
X55106479Y-66668221D01*
X55098826Y-66651462D01*
X55092643Y-66634885D01*
X55087453Y-66617212D01*
X55084953Y-66608697D01*
X55070192Y-66585728D01*
X55061714Y-66570201D01*
X55061144Y-66568953D01*
X55050377Y-66545377D01*
X55032498Y-66524744D01*
X55021904Y-66510591D01*
X55007143Y-66487622D01*
X55000442Y-66481815D01*
X55000440Y-66481813D01*
X54986510Y-66469742D01*
X54974005Y-66457237D01*
X54961934Y-66443307D01*
X54961932Y-66443306D01*
X54956128Y-66436607D01*
X54948671Y-66431814D01*
X54948669Y-66431813D01*
X54933159Y-66421845D01*
X54919000Y-66411245D01*
X54905078Y-66399182D01*
X54905073Y-66399179D01*
X54898373Y-66393373D01*
X54884612Y-66387088D01*
X54873540Y-66382031D01*
X54858022Y-66373557D01*
X54842515Y-66363592D01*
X54842512Y-66363591D01*
X54835053Y-66358797D01*
X54826544Y-66356298D01*
X54826541Y-66356297D01*
X54808856Y-66351104D01*
X54792285Y-66344923D01*
X54775528Y-66337271D01*
X54767457Y-66333585D01*
X54758675Y-66332322D01*
X54740435Y-66329699D01*
X54723155Y-66325940D01*
X54705471Y-66320748D01*
X54705467Y-66320747D01*
X54696961Y-66318250D01*
X54660799Y-66318250D01*
X40696961Y-66318250D01*
X40553039Y-66318250D01*
X40544534Y-66320746D01*
X40544533Y-66320747D01*
X40537240Y-66322888D01*
X40526838Y-66325942D01*
X40509565Y-66329699D01*
X40491319Y-66332322D01*
X40491312Y-66332323D01*
X40482543Y-66333585D01*
X40474479Y-66337267D01*
X40474477Y-66337268D01*
X40457709Y-66344925D01*
X40441143Y-66351103D01*
X40423464Y-66356294D01*
X40423451Y-66356299D01*
X40414947Y-66358797D01*
X40407486Y-66363591D01*
X40407485Y-66363592D01*
X40391980Y-66373556D01*
X40376464Y-66382028D01*
X40359698Y-66389685D01*
X40359688Y-66389691D01*
X40351627Y-66393373D01*
X40344926Y-66399178D01*
X40344923Y-66399181D01*
X40330998Y-66411247D01*
X40316842Y-66421844D01*
X40301331Y-66431812D01*
X40301325Y-66431817D01*
X40293872Y-66436607D01*
X40288069Y-66443302D01*
X40288066Y-66443306D01*
X40275993Y-66457239D01*
X40263489Y-66469743D01*
X40249556Y-66481816D01*
X40249552Y-66481819D01*
X40242857Y-66487622D01*
X40238067Y-66495075D01*
X40238062Y-66495081D01*
X40228094Y-66510592D01*
X40217497Y-66524748D01*
X40205431Y-66538673D01*
X40205428Y-66538676D01*
X40199623Y-66545377D01*
X40195941Y-66553438D01*
X40195935Y-66553448D01*
X40188278Y-66570214D01*
X40179806Y-66585730D01*
X40174271Y-66594344D01*
X40165047Y-66608697D01*
X40162549Y-66617201D01*
X40162544Y-66617214D01*
X40157353Y-66634893D01*
X40151175Y-66651459D01*
X40143521Y-66668221D01*
X40139835Y-66676293D01*
X40138573Y-66685062D01*
X40138572Y-66685069D01*
X40135949Y-66703315D01*
X40132191Y-66720594D01*
X40126999Y-66738278D01*
X40124500Y-66746789D01*
X40124500Y-66782951D01*
X40124500Y-80746789D01*
X40124500Y-80890711D01*
X38600500Y-80890711D01*
X38600500Y-79545451D01*
X38600467Y-79545228D01*
X38600451Y-79544766D01*
X38600455Y-79473957D01*
X38569919Y-79261505D01*
X38509458Y-79055561D01*
X38420302Y-78860319D01*
X38304267Y-78679752D01*
X38274123Y-78644962D01*
X38166620Y-78520890D01*
X38166615Y-78520885D01*
X38163715Y-78517538D01*
X38160363Y-78514633D01*
X38004852Y-78379875D01*
X38004845Y-78379870D01*
X38001508Y-78376978D01*
X37997785Y-78374585D01*
X37997782Y-78374583D01*
X37824676Y-78263330D01*
X37824670Y-78263326D01*
X37820947Y-78260934D01*
X37625709Y-78171768D01*
X37621462Y-78170521D01*
X37621457Y-78170519D01*
X37424017Y-78112544D01*
X37424008Y-78112542D01*
X37419768Y-78111297D01*
X37415395Y-78110668D01*
X37415385Y-78110666D01*
X37211697Y-78081379D01*
X37211688Y-78081378D01*
X37207318Y-78080750D01*
X37202892Y-78080750D01*
X20056961Y-78080750D01*
X20043078Y-78079970D01*
X20009132Y-78076145D01*
X19952741Y-78069791D01*
X19925670Y-78063612D01*
X19846476Y-78035900D01*
X19821458Y-78023851D01*
X19750422Y-77979214D01*
X19728713Y-77961902D01*
X19669379Y-77902565D01*
X19652073Y-77880862D01*
X19607434Y-77809815D01*
X19595389Y-77784799D01*
X19567681Y-77705605D01*
X19561503Y-77678532D01*
X19551279Y-77587750D01*
X19550500Y-77573867D01*
X19550503Y-77515383D01*
X19550500Y-77515372D01*
X19550500Y-76128211D01*
X21074500Y-76128211D01*
X21076997Y-76136717D01*
X21076998Y-76136721D01*
X21082190Y-76154405D01*
X21085949Y-76171685D01*
X21089835Y-76198707D01*
X21093521Y-76206778D01*
X21101173Y-76223535D01*
X21107354Y-76240106D01*
X21112547Y-76257791D01*
X21112548Y-76257794D01*
X21115047Y-76266303D01*
X21119841Y-76273762D01*
X21119842Y-76273765D01*
X21129807Y-76289272D01*
X21138281Y-76304790D01*
X21143338Y-76315862D01*
X21149623Y-76329623D01*
X21155428Y-76336322D01*
X21155432Y-76336328D01*
X21167495Y-76350250D01*
X21178095Y-76364409D01*
X21188063Y-76379919D01*
X21192857Y-76387378D01*
X21199556Y-76393182D01*
X21199557Y-76393184D01*
X21213487Y-76405255D01*
X21225992Y-76417760D01*
X21238063Y-76431690D01*
X21238065Y-76431692D01*
X21243872Y-76438393D01*
X21266841Y-76453154D01*
X21280994Y-76463748D01*
X21301627Y-76481627D01*
X21325203Y-76492394D01*
X21326451Y-76492964D01*
X21341978Y-76501442D01*
X21357482Y-76511406D01*
X21364947Y-76516203D01*
X21373462Y-76518703D01*
X21391135Y-76523893D01*
X21407712Y-76530076D01*
X21424471Y-76537729D01*
X21424473Y-76537729D01*
X21432543Y-76541415D01*
X21459567Y-76545300D01*
X21476846Y-76549059D01*
X21503039Y-76556750D01*
X21539201Y-76556750D01*
X21646961Y-76556750D01*
X35503039Y-76556750D01*
X35610799Y-76556750D01*
X35638091Y-76556750D01*
X35646961Y-76556750D01*
X35673153Y-76549059D01*
X35690433Y-76545300D01*
X35717457Y-76541415D01*
X35742284Y-76530075D01*
X35758865Y-76523892D01*
X35764351Y-76522281D01*
X35785053Y-76516203D01*
X35808020Y-76501442D01*
X35823541Y-76492967D01*
X35848373Y-76481627D01*
X35869008Y-76463745D01*
X35883150Y-76453158D01*
X35906128Y-76438393D01*
X35924015Y-76417749D01*
X35936499Y-76405265D01*
X35957143Y-76387378D01*
X35971908Y-76364400D01*
X35982495Y-76350258D01*
X36000377Y-76329623D01*
X36011718Y-76304790D01*
X36020192Y-76289270D01*
X36034953Y-76266303D01*
X36042642Y-76240115D01*
X36048828Y-76223529D01*
X36060165Y-76198707D01*
X36064050Y-76171683D01*
X36067809Y-76154403D01*
X36075500Y-76128211D01*
X36075500Y-75984289D01*
X36075500Y-62136494D01*
X36093591Y-62072001D01*
X36142586Y-62026327D01*
X36208188Y-62012799D01*
X36271254Y-62035363D01*
X36447836Y-62160655D01*
X36450871Y-62162332D01*
X36450872Y-62162333D01*
X36476060Y-62176254D01*
X36752624Y-62329105D01*
X37074356Y-62462371D01*
X37408987Y-62558777D01*
X37752307Y-62617109D01*
X38100000Y-62636635D01*
X38447693Y-62617109D01*
X38791013Y-62558777D01*
X39125644Y-62462371D01*
X39447376Y-62329105D01*
X39752164Y-62160655D01*
X39754995Y-62158646D01*
X39755005Y-62158640D01*
X40008729Y-61978613D01*
X40058622Y-61957684D01*
X40112678Y-61959994D01*
X40160604Y-61985102D01*
X40193277Y-62028228D01*
X40195938Y-62034056D01*
X40195940Y-62034059D01*
X40199623Y-62042123D01*
X40205428Y-62048822D01*
X40205432Y-62048828D01*
X40217495Y-62062750D01*
X40228095Y-62076909D01*
X40238063Y-62092419D01*
X40242857Y-62099878D01*
X40249556Y-62105682D01*
X40249557Y-62105684D01*
X40263487Y-62117755D01*
X40275992Y-62130260D01*
X40288063Y-62144190D01*
X40288065Y-62144192D01*
X40293872Y-62150893D01*
X40316841Y-62165654D01*
X40330994Y-62176248D01*
X40351627Y-62194127D01*
X40375203Y-62204894D01*
X40376451Y-62205464D01*
X40391978Y-62213942D01*
X40407482Y-62223906D01*
X40414947Y-62228703D01*
X40423462Y-62231203D01*
X40441135Y-62236393D01*
X40457712Y-62242576D01*
X40474471Y-62250229D01*
X40474473Y-62250229D01*
X40482543Y-62253915D01*
X40509567Y-62257800D01*
X40526846Y-62261559D01*
X40553039Y-62269250D01*
X40589201Y-62269250D01*
X40696961Y-62269250D01*
X54553039Y-62269250D01*
X54660799Y-62269250D01*
X54688091Y-62269250D01*
X54696961Y-62269250D01*
X54723153Y-62261559D01*
X54740433Y-62257800D01*
X54767457Y-62253915D01*
X54792284Y-62242575D01*
X54808865Y-62236392D01*
X54814351Y-62234781D01*
X54835053Y-62228703D01*
X54858020Y-62213942D01*
X54873541Y-62205467D01*
X54898373Y-62194127D01*
X54919008Y-62176245D01*
X54933150Y-62165658D01*
X54956128Y-62150893D01*
X54974015Y-62130249D01*
X54986499Y-62117765D01*
X55007143Y-62099878D01*
X55021908Y-62076900D01*
X55032495Y-62062758D01*
X55050377Y-62042123D01*
X55061718Y-62017290D01*
X55070192Y-62001770D01*
X55084953Y-61978803D01*
X55092642Y-61952615D01*
X55098828Y-61936029D01*
X55110165Y-61911207D01*
X55114050Y-61884183D01*
X55117809Y-61866903D01*
X55125500Y-61840711D01*
X59174500Y-61840711D01*
X59176997Y-61849217D01*
X59176998Y-61849221D01*
X59182190Y-61866905D01*
X59185949Y-61884185D01*
X59189835Y-61911207D01*
X59193521Y-61919278D01*
X59201173Y-61936035D01*
X59207354Y-61952606D01*
X59212547Y-61970291D01*
X59212548Y-61970294D01*
X59215047Y-61978803D01*
X59219841Y-61986262D01*
X59219842Y-61986265D01*
X59229807Y-62001772D01*
X59238281Y-62017290D01*
X59239725Y-62020451D01*
X59249623Y-62042123D01*
X59255428Y-62048822D01*
X59255432Y-62048828D01*
X59267495Y-62062750D01*
X59278095Y-62076909D01*
X59288063Y-62092419D01*
X59292857Y-62099878D01*
X59299556Y-62105682D01*
X59299557Y-62105684D01*
X59313487Y-62117755D01*
X59325992Y-62130260D01*
X59338063Y-62144190D01*
X59338065Y-62144192D01*
X59343872Y-62150893D01*
X59366841Y-62165654D01*
X59380994Y-62176248D01*
X59401627Y-62194127D01*
X59425203Y-62204894D01*
X59426451Y-62205464D01*
X59441978Y-62213942D01*
X59457482Y-62223906D01*
X59464947Y-62228703D01*
X59473462Y-62231203D01*
X59491135Y-62236393D01*
X59507712Y-62242576D01*
X59524471Y-62250229D01*
X59524473Y-62250229D01*
X59532543Y-62253915D01*
X59559567Y-62257800D01*
X59576846Y-62261559D01*
X59603039Y-62269250D01*
X59639201Y-62269250D01*
X59746961Y-62269250D01*
X73603039Y-62269250D01*
X73710799Y-62269250D01*
X73738091Y-62269250D01*
X73746961Y-62269250D01*
X73773153Y-62261559D01*
X73790433Y-62257800D01*
X73817457Y-62253915D01*
X73842284Y-62242575D01*
X73858865Y-62236392D01*
X73864351Y-62234781D01*
X73885053Y-62228703D01*
X73908020Y-62213942D01*
X73923541Y-62205467D01*
X73948373Y-62194127D01*
X73969008Y-62176245D01*
X73983150Y-62165658D01*
X74006128Y-62150893D01*
X74024015Y-62130249D01*
X74036499Y-62117765D01*
X74057143Y-62099878D01*
X74071908Y-62076900D01*
X74082495Y-62062758D01*
X74100377Y-62042123D01*
X74111718Y-62017290D01*
X74120192Y-62001770D01*
X74134953Y-61978803D01*
X74142642Y-61952615D01*
X74148828Y-61936029D01*
X74160165Y-61911207D01*
X74164050Y-61884183D01*
X74167809Y-61866903D01*
X74175500Y-61840711D01*
X74175500Y-61696789D01*
X74175500Y-47848994D01*
X74193591Y-47784501D01*
X74242586Y-47738827D01*
X74308188Y-47725299D01*
X74371254Y-47747863D01*
X74547836Y-47873155D01*
X74550871Y-47874832D01*
X74550872Y-47874833D01*
X74576060Y-47888754D01*
X74852624Y-48041605D01*
X75174356Y-48174871D01*
X75508987Y-48271277D01*
X75852307Y-48329609D01*
X76200000Y-48349135D01*
X76547693Y-48329609D01*
X76891013Y-48271277D01*
X77225644Y-48174871D01*
X77547376Y-48041605D01*
X77852164Y-47873155D01*
X78028745Y-47747863D01*
X78091812Y-47725299D01*
X78157414Y-47738827D01*
X78206409Y-47784501D01*
X78224500Y-47848994D01*
X78224500Y-61696789D01*
X78224500Y-61840711D01*
X78226997Y-61849217D01*
X78226998Y-61849221D01*
X78232190Y-61866905D01*
X78235949Y-61884185D01*
X78239835Y-61911207D01*
X78243521Y-61919278D01*
X78251173Y-61936035D01*
X78257354Y-61952606D01*
X78262547Y-61970291D01*
X78262548Y-61970294D01*
X78265047Y-61978803D01*
X78269841Y-61986262D01*
X78269842Y-61986265D01*
X78279807Y-62001772D01*
X78288281Y-62017290D01*
X78289725Y-62020451D01*
X78299623Y-62042123D01*
X78305428Y-62048822D01*
X78305432Y-62048828D01*
X78317495Y-62062750D01*
X78328095Y-62076909D01*
X78338063Y-62092419D01*
X78342857Y-62099878D01*
X78349556Y-62105682D01*
X78349557Y-62105684D01*
X78363487Y-62117755D01*
X78375992Y-62130260D01*
X78388063Y-62144190D01*
X78388065Y-62144192D01*
X78393872Y-62150893D01*
X78416841Y-62165654D01*
X78430994Y-62176248D01*
X78451627Y-62194127D01*
X78475203Y-62204894D01*
X78476451Y-62205464D01*
X78491978Y-62213942D01*
X78507482Y-62223906D01*
X78514947Y-62228703D01*
X78523462Y-62231203D01*
X78541135Y-62236393D01*
X78557712Y-62242576D01*
X78574471Y-62250229D01*
X78574473Y-62250229D01*
X78582543Y-62253915D01*
X78609567Y-62257800D01*
X78626846Y-62261559D01*
X78653039Y-62269250D01*
X78689201Y-62269250D01*
X78796961Y-62269250D01*
X92653039Y-62269250D01*
X92760799Y-62269250D01*
X92788091Y-62269250D01*
X92796961Y-62269250D01*
X92823153Y-62261559D01*
X92840433Y-62257800D01*
X92867457Y-62253915D01*
X92892284Y-62242575D01*
X92908865Y-62236392D01*
X92914351Y-62234781D01*
X92935053Y-62228703D01*
X92958020Y-62213942D01*
X92973541Y-62205467D01*
X92998373Y-62194127D01*
X93019008Y-62176245D01*
X93033150Y-62165658D01*
X93056128Y-62150893D01*
X93074015Y-62130249D01*
X93086499Y-62117765D01*
X93107143Y-62099878D01*
X93121908Y-62076900D01*
X93132495Y-62062758D01*
X93150377Y-62042123D01*
X93161718Y-62017290D01*
X93170192Y-62001770D01*
X93184953Y-61978803D01*
X93192642Y-61952615D01*
X93198828Y-61936029D01*
X93210165Y-61911207D01*
X93214050Y-61884183D01*
X93217809Y-61866903D01*
X93225500Y-61840711D01*
X93225500Y-61696789D01*
X93225500Y-47732951D01*
X93225500Y-47696789D01*
X93217809Y-47670594D01*
X93214050Y-47653315D01*
X93211427Y-47635070D01*
X93211426Y-47635069D01*
X93210165Y-47626293D01*
X93206479Y-47618221D01*
X93198826Y-47601462D01*
X93192643Y-47584885D01*
X93187453Y-47567212D01*
X93184953Y-47558697D01*
X93181427Y-47553211D01*
X97274500Y-47553211D01*
X97276997Y-47561717D01*
X97276998Y-47561721D01*
X97282190Y-47579405D01*
X97285949Y-47596685D01*
X97289835Y-47623707D01*
X97293521Y-47631778D01*
X97301173Y-47648535D01*
X97307354Y-47665106D01*
X97312547Y-47682791D01*
X97312548Y-47682794D01*
X97315047Y-47691303D01*
X97319841Y-47698762D01*
X97319842Y-47698765D01*
X97329807Y-47714272D01*
X97338281Y-47729790D01*
X97339725Y-47732951D01*
X97349623Y-47754623D01*
X97355428Y-47761322D01*
X97355432Y-47761328D01*
X97367495Y-47775250D01*
X97378095Y-47789409D01*
X97388063Y-47804919D01*
X97392857Y-47812378D01*
X97399556Y-47818182D01*
X97399557Y-47818184D01*
X97413487Y-47830255D01*
X97425992Y-47842760D01*
X97438063Y-47856690D01*
X97438065Y-47856692D01*
X97443872Y-47863393D01*
X97466841Y-47878154D01*
X97480994Y-47888748D01*
X97501627Y-47906627D01*
X97525203Y-47917394D01*
X97526451Y-47917964D01*
X97541978Y-47926442D01*
X97557482Y-47936406D01*
X97564947Y-47941203D01*
X97573462Y-47943703D01*
X97591135Y-47948893D01*
X97607712Y-47955076D01*
X97624471Y-47962729D01*
X97624473Y-47962729D01*
X97632543Y-47966415D01*
X97659567Y-47970300D01*
X97676846Y-47974059D01*
X97703039Y-47981750D01*
X97739201Y-47981750D01*
X97846961Y-47981750D01*
X111703039Y-47981750D01*
X111810799Y-47981750D01*
X111838091Y-47981750D01*
X111846961Y-47981750D01*
X111873153Y-47974059D01*
X111890433Y-47970300D01*
X111917457Y-47966415D01*
X111942284Y-47955075D01*
X111958865Y-47948892D01*
X111964351Y-47947281D01*
X111985053Y-47941203D01*
X112008020Y-47926442D01*
X112023541Y-47917967D01*
X112048373Y-47906627D01*
X112069008Y-47888745D01*
X112083150Y-47878158D01*
X112106128Y-47863393D01*
X112124015Y-47842749D01*
X112136499Y-47830265D01*
X112157143Y-47812378D01*
X112171908Y-47789400D01*
X112182495Y-47775258D01*
X112200377Y-47754623D01*
X112211718Y-47729790D01*
X112220192Y-47714270D01*
X112234953Y-47691303D01*
X112242642Y-47665115D01*
X112248828Y-47648529D01*
X112260165Y-47623707D01*
X112264050Y-47596683D01*
X112267809Y-47579403D01*
X112275500Y-47553211D01*
X112275500Y-47409289D01*
X112275500Y-33445451D01*
X112275500Y-33409289D01*
X112267809Y-33383094D01*
X112264050Y-33365815D01*
X112261427Y-33347570D01*
X112261426Y-33347569D01*
X112260165Y-33338793D01*
X112256479Y-33330721D01*
X112248826Y-33313962D01*
X112242643Y-33297385D01*
X112237453Y-33279712D01*
X112234953Y-33271197D01*
X112220192Y-33248228D01*
X112211714Y-33232701D01*
X112211144Y-33231453D01*
X112200377Y-33207877D01*
X112182498Y-33187244D01*
X112171904Y-33173091D01*
X112157143Y-33150122D01*
X112150442Y-33144315D01*
X112150440Y-33144313D01*
X112136510Y-33132242D01*
X112124005Y-33119737D01*
X112111934Y-33105807D01*
X112111932Y-33105806D01*
X112106128Y-33099107D01*
X112098671Y-33094314D01*
X112098669Y-33094313D01*
X112083159Y-33084345D01*
X112069000Y-33073745D01*
X112055078Y-33061682D01*
X112055073Y-33061679D01*
X112048373Y-33055873D01*
X112034612Y-33049588D01*
X112023540Y-33044531D01*
X112008022Y-33036057D01*
X111992515Y-33026092D01*
X111992512Y-33026091D01*
X111985053Y-33021297D01*
X111976544Y-33018798D01*
X111976541Y-33018797D01*
X111958856Y-33013604D01*
X111942285Y-33007423D01*
X111925528Y-32999771D01*
X111917457Y-32996085D01*
X111908675Y-32994822D01*
X111890435Y-32992199D01*
X111873155Y-32988440D01*
X111855471Y-32983248D01*
X111855467Y-32983247D01*
X111846961Y-32980750D01*
X111810799Y-32980750D01*
X97846961Y-32980750D01*
X97703039Y-32980750D01*
X97694534Y-32983246D01*
X97694533Y-32983247D01*
X97687240Y-32985388D01*
X97676838Y-32988442D01*
X97659565Y-32992199D01*
X97641319Y-32994822D01*
X97641312Y-32994823D01*
X97632543Y-32996085D01*
X97624479Y-32999767D01*
X97624477Y-32999768D01*
X97607709Y-33007425D01*
X97591143Y-33013603D01*
X97573464Y-33018794D01*
X97573451Y-33018799D01*
X97564947Y-33021297D01*
X97557486Y-33026091D01*
X97557485Y-33026092D01*
X97541980Y-33036056D01*
X97526464Y-33044528D01*
X97509698Y-33052185D01*
X97509688Y-33052191D01*
X97501627Y-33055873D01*
X97494926Y-33061678D01*
X97494923Y-33061681D01*
X97480998Y-33073747D01*
X97466842Y-33084344D01*
X97451331Y-33094312D01*
X97451325Y-33094317D01*
X97443872Y-33099107D01*
X97438069Y-33105802D01*
X97438066Y-33105806D01*
X97425993Y-33119739D01*
X97413489Y-33132243D01*
X97399556Y-33144316D01*
X97399552Y-33144319D01*
X97392857Y-33150122D01*
X97388067Y-33157575D01*
X97388062Y-33157581D01*
X97378094Y-33173092D01*
X97367497Y-33187248D01*
X97355431Y-33201173D01*
X97355428Y-33201176D01*
X97349623Y-33207877D01*
X97345941Y-33215938D01*
X97345935Y-33215948D01*
X97338278Y-33232714D01*
X97329807Y-33248228D01*
X97315047Y-33271197D01*
X97312549Y-33279701D01*
X97312544Y-33279714D01*
X97307353Y-33297393D01*
X97301175Y-33313959D01*
X97293521Y-33330721D01*
X97289835Y-33338793D01*
X97288573Y-33347562D01*
X97288572Y-33347569D01*
X97285949Y-33365815D01*
X97282191Y-33383094D01*
X97276999Y-33400778D01*
X97274500Y-33409289D01*
X97274500Y-33445451D01*
X97274500Y-47409289D01*
X97274500Y-47553211D01*
X93181427Y-47553211D01*
X93170192Y-47535728D01*
X93161714Y-47520201D01*
X93161144Y-47518953D01*
X93150377Y-47495377D01*
X93132498Y-47474744D01*
X93121904Y-47460591D01*
X93107143Y-47437622D01*
X93100442Y-47431815D01*
X93100440Y-47431813D01*
X93086510Y-47419742D01*
X93074005Y-47407237D01*
X93061934Y-47393307D01*
X93061932Y-47393306D01*
X93056128Y-47386607D01*
X93048671Y-47381814D01*
X93048669Y-47381813D01*
X93033159Y-47371845D01*
X93019000Y-47361245D01*
X93005078Y-47349182D01*
X93005073Y-47349179D01*
X92998373Y-47343373D01*
X92984612Y-47337088D01*
X92973540Y-47332031D01*
X92958022Y-47323557D01*
X92942515Y-47313592D01*
X92942512Y-47313591D01*
X92935053Y-47308797D01*
X92926544Y-47306298D01*
X92926541Y-47306297D01*
X92908856Y-47301104D01*
X92892285Y-47294923D01*
X92875528Y-47287271D01*
X92867457Y-47283585D01*
X92858675Y-47282322D01*
X92840435Y-47279699D01*
X92823155Y-47275940D01*
X92805471Y-47270748D01*
X92805467Y-47270747D01*
X92796961Y-47268250D01*
X92760799Y-47268250D01*
X78805244Y-47268250D01*
X78740751Y-47250159D01*
X78695077Y-47201164D01*
X78681549Y-47135562D01*
X78704114Y-47072495D01*
X78829405Y-46895914D01*
X78997855Y-46591126D01*
X79131121Y-46269394D01*
X79227527Y-45934763D01*
X79285859Y-45591443D01*
X79305385Y-45243750D01*
X79285859Y-44896057D01*
X79227527Y-44552737D01*
X79131121Y-44218106D01*
X78997855Y-43896374D01*
X78829405Y-43591586D01*
X78704113Y-43415004D01*
X78681549Y-43351938D01*
X78695077Y-43286336D01*
X78740751Y-43237341D01*
X78805244Y-43219250D01*
X92788091Y-43219250D01*
X92796961Y-43219250D01*
X92823153Y-43211559D01*
X92840433Y-43207800D01*
X92867457Y-43203915D01*
X92892284Y-43192575D01*
X92908865Y-43186392D01*
X92914351Y-43184781D01*
X92935053Y-43178703D01*
X92958020Y-43163942D01*
X92973541Y-43155467D01*
X92998373Y-43144127D01*
X93019008Y-43126245D01*
X93033150Y-43115658D01*
X93056128Y-43100893D01*
X93074015Y-43080249D01*
X93086499Y-43067765D01*
X93107143Y-43049878D01*
X93121908Y-43026900D01*
X93132495Y-43012758D01*
X93150377Y-42992123D01*
X93161718Y-42967290D01*
X93170192Y-42951770D01*
X93184953Y-42928803D01*
X93192642Y-42902615D01*
X93198828Y-42886029D01*
X93210165Y-42861207D01*
X93214050Y-42834183D01*
X93217809Y-42816903D01*
X93225500Y-42790711D01*
X93225500Y-42646789D01*
X93225500Y-28682951D01*
X93225500Y-28646789D01*
X93217809Y-28620594D01*
X93214050Y-28603315D01*
X93211427Y-28585070D01*
X93211426Y-28585069D01*
X93210165Y-28576293D01*
X93206479Y-28568221D01*
X93198826Y-28551462D01*
X93192643Y-28534885D01*
X93187453Y-28517212D01*
X93184953Y-28508697D01*
X93170192Y-28485728D01*
X93161714Y-28470201D01*
X93161144Y-28468953D01*
X93150377Y-28445377D01*
X93132498Y-28424744D01*
X93121904Y-28410591D01*
X93107143Y-28387622D01*
X93100442Y-28381815D01*
X93100440Y-28381813D01*
X93086510Y-28369742D01*
X93074005Y-28357237D01*
X93061934Y-28343307D01*
X93061932Y-28343306D01*
X93056128Y-28336607D01*
X93048671Y-28331814D01*
X93048669Y-28331813D01*
X93033159Y-28321845D01*
X93019000Y-28311245D01*
X93005078Y-28299182D01*
X93005073Y-28299179D01*
X92998373Y-28293373D01*
X92984612Y-28287088D01*
X92973540Y-28282031D01*
X92958022Y-28273557D01*
X92942515Y-28263592D01*
X92942512Y-28263591D01*
X92935053Y-28258797D01*
X92926544Y-28256298D01*
X92926541Y-28256297D01*
X92908856Y-28251104D01*
X92892285Y-28244923D01*
X92875528Y-28237271D01*
X92867457Y-28233585D01*
X92858675Y-28232322D01*
X92840435Y-28229699D01*
X92823155Y-28225940D01*
X92805471Y-28220748D01*
X92805467Y-28220747D01*
X92796961Y-28218250D01*
X92760799Y-28218250D01*
X78796961Y-28218250D01*
X78653039Y-28218250D01*
X78644534Y-28220746D01*
X78644533Y-28220747D01*
X78637240Y-28222888D01*
X78626838Y-28225942D01*
X78609565Y-28229699D01*
X78591319Y-28232322D01*
X78591312Y-28232323D01*
X78582543Y-28233585D01*
X78574479Y-28237267D01*
X78574477Y-28237268D01*
X78557709Y-28244925D01*
X78541143Y-28251103D01*
X78523464Y-28256294D01*
X78523451Y-28256299D01*
X78514947Y-28258797D01*
X78507486Y-28263591D01*
X78507485Y-28263592D01*
X78491980Y-28273556D01*
X78476464Y-28282028D01*
X78459698Y-28289685D01*
X78459688Y-28289691D01*
X78451627Y-28293373D01*
X78444926Y-28299178D01*
X78444923Y-28299181D01*
X78430998Y-28311247D01*
X78416842Y-28321844D01*
X78401331Y-28331812D01*
X78401325Y-28331817D01*
X78393872Y-28336607D01*
X78388069Y-28343302D01*
X78388066Y-28343306D01*
X78375993Y-28357239D01*
X78363489Y-28369743D01*
X78349556Y-28381816D01*
X78349552Y-28381819D01*
X78342857Y-28387622D01*
X78338067Y-28395075D01*
X78338062Y-28395081D01*
X78328094Y-28410592D01*
X78317497Y-28424748D01*
X78305431Y-28438673D01*
X78305428Y-28438676D01*
X78299623Y-28445377D01*
X78295941Y-28453438D01*
X78295935Y-28453448D01*
X78288278Y-28470214D01*
X78279807Y-28485728D01*
X78265047Y-28508697D01*
X78262549Y-28517201D01*
X78262544Y-28517214D01*
X78257353Y-28534893D01*
X78251175Y-28551459D01*
X78243521Y-28568221D01*
X78239835Y-28576293D01*
X78238573Y-28585062D01*
X78238572Y-28585069D01*
X78235949Y-28603315D01*
X78232191Y-28620594D01*
X78226999Y-28638278D01*
X78224500Y-28646789D01*
X78224500Y-28655657D01*
X78224500Y-42638506D01*
X78206409Y-42702999D01*
X78157414Y-42748673D01*
X78091812Y-42762201D01*
X78028745Y-42739636D01*
X78009771Y-42726173D01*
X77852164Y-42614345D01*
X77849133Y-42612670D01*
X77849127Y-42612666D01*
X77550419Y-42447577D01*
X77547376Y-42445895D01*
X77544165Y-42444565D01*
X77544161Y-42444563D01*
X77228861Y-42313961D01*
X77228852Y-42313958D01*
X77225644Y-42312629D01*
X77222309Y-42311668D01*
X77222300Y-42311665D01*
X76894357Y-42217186D01*
X76894350Y-42217184D01*
X76891013Y-42216223D01*
X76887588Y-42215641D01*
X76887579Y-42215639D01*
X76551117Y-42158472D01*
X76551103Y-42158470D01*
X76547693Y-42157891D01*
X76544229Y-42157696D01*
X76544225Y-42157696D01*
X76203472Y-42138560D01*
X76200000Y-42138365D01*
X76196528Y-42138560D01*
X75855774Y-42157696D01*
X75855768Y-42157696D01*
X75852307Y-42157891D01*
X75848898Y-42158470D01*
X75848882Y-42158472D01*
X75512420Y-42215639D01*
X75512407Y-42215641D01*
X75508987Y-42216223D01*
X75505653Y-42217183D01*
X75505642Y-42217186D01*
X75177699Y-42311665D01*
X75177684Y-42311670D01*
X75174356Y-42312629D01*
X75171152Y-42313955D01*
X75171138Y-42313961D01*
X74855838Y-42444563D01*
X74855827Y-42444568D01*
X74852624Y-42445895D01*
X74849585Y-42447574D01*
X74849580Y-42447577D01*
X74550872Y-42612666D01*
X74550857Y-42612674D01*
X74547836Y-42614345D01*
X74545010Y-42616349D01*
X74545007Y-42616352D01*
X74462179Y-42675122D01*
X74409848Y-42712253D01*
X74371255Y-42739636D01*
X74308188Y-42762201D01*
X74242586Y-42748673D01*
X74193591Y-42702999D01*
X74175500Y-42638506D01*
X74175500Y-28655660D01*
X74175500Y-28655657D01*
X74175500Y-28646789D01*
X74167809Y-28620594D01*
X74164050Y-28603315D01*
X74161427Y-28585070D01*
X74161426Y-28585069D01*
X74160165Y-28576293D01*
X74156479Y-28568221D01*
X74148826Y-28551462D01*
X74142643Y-28534885D01*
X74137453Y-28517212D01*
X74134953Y-28508697D01*
X74120192Y-28485728D01*
X74111714Y-28470201D01*
X74111144Y-28468953D01*
X74100377Y-28445377D01*
X74082498Y-28424744D01*
X74071904Y-28410591D01*
X74057143Y-28387622D01*
X74050442Y-28381815D01*
X74050440Y-28381813D01*
X74036510Y-28369742D01*
X74024005Y-28357237D01*
X74011934Y-28343307D01*
X74011932Y-28343306D01*
X74006128Y-28336607D01*
X73998671Y-28331814D01*
X73998669Y-28331813D01*
X73983159Y-28321845D01*
X73969000Y-28311245D01*
X73955078Y-28299182D01*
X73955073Y-28299179D01*
X73948373Y-28293373D01*
X73934612Y-28287088D01*
X73923540Y-28282031D01*
X73908022Y-28273557D01*
X73892515Y-28263592D01*
X73892512Y-28263591D01*
X73885053Y-28258797D01*
X73876544Y-28256298D01*
X73876541Y-28256297D01*
X73858856Y-28251104D01*
X73842285Y-28244923D01*
X73825528Y-28237271D01*
X73817457Y-28233585D01*
X73808675Y-28232322D01*
X73790435Y-28229699D01*
X73773155Y-28225940D01*
X73755471Y-28220748D01*
X73755467Y-28220747D01*
X73746961Y-28218250D01*
X73710799Y-28218250D01*
X59746961Y-28218250D01*
X59603039Y-28218250D01*
X59594534Y-28220746D01*
X59594533Y-28220747D01*
X59587240Y-28222888D01*
X59576838Y-28225942D01*
X59559565Y-28229699D01*
X59541319Y-28232322D01*
X59541312Y-28232323D01*
X59532543Y-28233585D01*
X59524479Y-28237267D01*
X59524477Y-28237268D01*
X59507709Y-28244925D01*
X59491143Y-28251103D01*
X59473464Y-28256294D01*
X59473451Y-28256299D01*
X59464947Y-28258797D01*
X59457486Y-28263591D01*
X59457485Y-28263592D01*
X59441980Y-28273556D01*
X59426464Y-28282028D01*
X59409698Y-28289685D01*
X59409688Y-28289691D01*
X59401627Y-28293373D01*
X59394926Y-28299178D01*
X59394923Y-28299181D01*
X59380998Y-28311247D01*
X59366842Y-28321844D01*
X59351331Y-28331812D01*
X59351325Y-28331817D01*
X59343872Y-28336607D01*
X59338069Y-28343302D01*
X59338066Y-28343306D01*
X59325993Y-28357239D01*
X59313489Y-28369743D01*
X59299556Y-28381816D01*
X59299552Y-28381819D01*
X59292857Y-28387622D01*
X59288067Y-28395075D01*
X59288062Y-28395081D01*
X59278094Y-28410592D01*
X59267497Y-28424748D01*
X59255431Y-28438673D01*
X59255428Y-28438676D01*
X59249623Y-28445377D01*
X59245941Y-28453438D01*
X59245935Y-28453448D01*
X59238278Y-28470214D01*
X59229807Y-28485728D01*
X59215047Y-28508697D01*
X59212549Y-28517201D01*
X59212544Y-28517214D01*
X59207353Y-28534893D01*
X59201175Y-28551459D01*
X59193521Y-28568221D01*
X59189835Y-28576293D01*
X59188573Y-28585062D01*
X59188572Y-28585069D01*
X59185949Y-28603315D01*
X59182191Y-28620594D01*
X59176999Y-28638278D01*
X59174500Y-28646789D01*
X59174500Y-28682951D01*
X59174500Y-42646789D01*
X59174500Y-42790711D01*
X59176997Y-42799217D01*
X59176998Y-42799221D01*
X59182190Y-42816905D01*
X59185949Y-42834185D01*
X59189835Y-42861207D01*
X59193521Y-42869278D01*
X59201173Y-42886035D01*
X59207354Y-42902606D01*
X59212547Y-42920291D01*
X59212548Y-42920294D01*
X59215047Y-42928803D01*
X59219841Y-42936262D01*
X59219842Y-42936265D01*
X59229807Y-42951772D01*
X59238281Y-42967290D01*
X59239725Y-42970451D01*
X59249623Y-42992123D01*
X59255428Y-42998822D01*
X59255432Y-42998828D01*
X59267495Y-43012750D01*
X59278095Y-43026909D01*
X59288063Y-43042419D01*
X59292857Y-43049878D01*
X59299556Y-43055682D01*
X59299557Y-43055684D01*
X59313487Y-43067755D01*
X59325992Y-43080260D01*
X59338063Y-43094190D01*
X59338065Y-43094192D01*
X59343872Y-43100893D01*
X59366841Y-43115654D01*
X59380994Y-43126248D01*
X59401627Y-43144127D01*
X59425203Y-43154894D01*
X59426451Y-43155464D01*
X59441978Y-43163942D01*
X59457482Y-43173906D01*
X59464947Y-43178703D01*
X59473462Y-43181203D01*
X59491135Y-43186393D01*
X59507712Y-43192576D01*
X59524471Y-43200229D01*
X59524473Y-43200229D01*
X59532543Y-43203915D01*
X59559567Y-43207800D01*
X59576846Y-43211559D01*
X59603039Y-43219250D01*
X59611910Y-43219250D01*
X73594756Y-43219250D01*
X73659249Y-43237341D01*
X73704923Y-43286336D01*
X73718451Y-43351938D01*
X73695886Y-43415005D01*
X73587825Y-43567303D01*
X73570595Y-43591586D01*
X73568924Y-43594607D01*
X73568916Y-43594622D01*
X73403827Y-43893330D01*
X73402145Y-43896374D01*
X73400818Y-43899577D01*
X73400813Y-43899588D01*
X73270211Y-44214888D01*
X73270205Y-44214902D01*
X73268879Y-44218106D01*
X73267920Y-44221434D01*
X73267915Y-44221449D01*
X73173436Y-44549392D01*
X73173433Y-44549403D01*
X73172473Y-44552737D01*
X73171891Y-44556157D01*
X73171889Y-44556170D01*
X73114722Y-44892632D01*
X73114720Y-44892648D01*
X73114141Y-44896057D01*
X73094615Y-45243750D01*
X73114141Y-45591443D01*
X73114720Y-45594853D01*
X73114722Y-45594867D01*
X73171889Y-45931329D01*
X73171891Y-45931338D01*
X73172473Y-45934763D01*
X73173434Y-45938100D01*
X73173436Y-45938107D01*
X73267915Y-46266050D01*
X73267918Y-46266059D01*
X73268879Y-46269394D01*
X73270208Y-46272602D01*
X73270211Y-46272611D01*
X73400813Y-46587911D01*
X73402145Y-46591126D01*
X73403827Y-46594169D01*
X73568916Y-46892877D01*
X73568920Y-46892883D01*
X73570595Y-46895914D01*
X73695886Y-47072495D01*
X73718451Y-47135562D01*
X73704923Y-47201164D01*
X73659249Y-47250159D01*
X73594756Y-47268250D01*
X59746961Y-47268250D01*
X59603039Y-47268250D01*
X59594534Y-47270746D01*
X59594533Y-47270747D01*
X59587240Y-47272888D01*
X59576838Y-47275942D01*
X59559565Y-47279699D01*
X59541319Y-47282322D01*
X59541312Y-47282323D01*
X59532543Y-47283585D01*
X59524479Y-47287267D01*
X59524477Y-47287268D01*
X59507709Y-47294925D01*
X59491143Y-47301103D01*
X59473464Y-47306294D01*
X59473451Y-47306299D01*
X59464947Y-47308797D01*
X59457486Y-47313591D01*
X59457485Y-47313592D01*
X59441980Y-47323556D01*
X59426464Y-47332028D01*
X59409698Y-47339685D01*
X59409688Y-47339691D01*
X59401627Y-47343373D01*
X59394926Y-47349178D01*
X59394923Y-47349181D01*
X59380998Y-47361247D01*
X59366842Y-47371844D01*
X59351331Y-47381812D01*
X59351325Y-47381817D01*
X59343872Y-47386607D01*
X59338069Y-47393302D01*
X59338066Y-47393306D01*
X59325993Y-47407239D01*
X59313489Y-47419743D01*
X59299556Y-47431816D01*
X59299552Y-47431819D01*
X59292857Y-47437622D01*
X59288067Y-47445075D01*
X59288062Y-47445081D01*
X59278094Y-47460592D01*
X59267497Y-47474748D01*
X59255431Y-47488673D01*
X59255428Y-47488676D01*
X59249623Y-47495377D01*
X59245941Y-47503438D01*
X59245935Y-47503448D01*
X59238278Y-47520214D01*
X59229806Y-47535730D01*
X59224271Y-47544344D01*
X59215047Y-47558697D01*
X59212549Y-47567201D01*
X59212544Y-47567214D01*
X59207353Y-47584893D01*
X59201175Y-47601459D01*
X59193521Y-47618221D01*
X59189835Y-47626293D01*
X59188573Y-47635062D01*
X59188572Y-47635069D01*
X59185949Y-47653315D01*
X59182191Y-47670594D01*
X59176999Y-47688278D01*
X59174500Y-47696789D01*
X59174500Y-47732951D01*
X59174500Y-61696789D01*
X59174500Y-61840711D01*
X55125500Y-61840711D01*
X55125500Y-61696789D01*
X55125500Y-47732951D01*
X55125500Y-47696789D01*
X55117809Y-47670594D01*
X55114050Y-47653315D01*
X55111427Y-47635070D01*
X55111426Y-47635069D01*
X55110165Y-47626293D01*
X55106479Y-47618221D01*
X55098826Y-47601462D01*
X55092643Y-47584885D01*
X55087453Y-47567212D01*
X55084953Y-47558697D01*
X55070192Y-47535728D01*
X55061714Y-47520201D01*
X55061144Y-47518953D01*
X55050377Y-47495377D01*
X55032498Y-47474744D01*
X55021904Y-47460591D01*
X55007143Y-47437622D01*
X55000442Y-47431815D01*
X55000440Y-47431813D01*
X54986510Y-47419742D01*
X54974005Y-47407237D01*
X54961934Y-47393307D01*
X54961932Y-47393306D01*
X54956128Y-47386607D01*
X54948671Y-47381814D01*
X54948669Y-47381813D01*
X54933159Y-47371845D01*
X54919000Y-47361245D01*
X54905078Y-47349182D01*
X54905073Y-47349179D01*
X54898373Y-47343373D01*
X54884612Y-47337088D01*
X54873540Y-47332031D01*
X54858022Y-47323557D01*
X54842515Y-47313592D01*
X54842512Y-47313591D01*
X54835053Y-47308797D01*
X54826544Y-47306298D01*
X54826541Y-47306297D01*
X54808856Y-47301104D01*
X54792285Y-47294923D01*
X54775528Y-47287271D01*
X54767457Y-47283585D01*
X54758675Y-47282322D01*
X54740435Y-47279699D01*
X54723155Y-47275940D01*
X54705471Y-47270748D01*
X54705467Y-47270747D01*
X54696961Y-47268250D01*
X54660799Y-47268250D01*
X40696961Y-47268250D01*
X40553039Y-47268250D01*
X40544534Y-47270746D01*
X40544533Y-47270747D01*
X40537240Y-47272888D01*
X40526838Y-47275942D01*
X40509565Y-47279699D01*
X40491319Y-47282322D01*
X40491312Y-47282323D01*
X40482543Y-47283585D01*
X40474479Y-47287267D01*
X40474477Y-47287268D01*
X40457709Y-47294925D01*
X40441143Y-47301103D01*
X40423464Y-47306294D01*
X40423451Y-47306299D01*
X40414947Y-47308797D01*
X40407486Y-47313591D01*
X40407485Y-47313592D01*
X40391980Y-47323556D01*
X40376464Y-47332028D01*
X40359698Y-47339685D01*
X40359688Y-47339691D01*
X40351627Y-47343373D01*
X40344926Y-47349178D01*
X40344923Y-47349181D01*
X40330998Y-47361247D01*
X40316842Y-47371844D01*
X40301331Y-47381812D01*
X40301325Y-47381817D01*
X40293872Y-47386607D01*
X40288069Y-47393302D01*
X40288066Y-47393306D01*
X40275993Y-47407239D01*
X40263489Y-47419743D01*
X40249556Y-47431816D01*
X40249552Y-47431819D01*
X40242857Y-47437622D01*
X40238067Y-47445075D01*
X40238062Y-47445081D01*
X40228094Y-47460592D01*
X40217497Y-47474748D01*
X40205431Y-47488673D01*
X40205428Y-47488676D01*
X40199623Y-47495377D01*
X40195941Y-47503438D01*
X40195935Y-47503448D01*
X40188278Y-47520214D01*
X40179806Y-47535730D01*
X40174271Y-47544344D01*
X40165047Y-47558697D01*
X40162549Y-47567201D01*
X40162544Y-47567214D01*
X40157353Y-47584893D01*
X40151175Y-47601459D01*
X40143521Y-47618221D01*
X40139835Y-47626293D01*
X40138573Y-47635062D01*
X40138572Y-47635069D01*
X40135949Y-47653315D01*
X40132191Y-47670594D01*
X40126999Y-47688278D01*
X40124500Y-47696789D01*
X40124500Y-47705657D01*
X40124500Y-56926006D01*
X40106409Y-56990499D01*
X40057414Y-57036173D01*
X39991812Y-57049701D01*
X39928745Y-57027136D01*
X39877110Y-56990499D01*
X39752164Y-56901845D01*
X39749133Y-56900170D01*
X39749127Y-56900166D01*
X39450419Y-56735077D01*
X39447376Y-56733395D01*
X39444165Y-56732065D01*
X39444161Y-56732063D01*
X39128861Y-56601461D01*
X39128852Y-56601458D01*
X39125644Y-56600129D01*
X39122309Y-56599168D01*
X39122300Y-56599165D01*
X38794357Y-56504686D01*
X38794350Y-56504684D01*
X38791013Y-56503723D01*
X38787588Y-56503141D01*
X38787579Y-56503139D01*
X38451117Y-56445972D01*
X38451103Y-56445970D01*
X38447693Y-56445391D01*
X38444229Y-56445196D01*
X38444225Y-56445196D01*
X38103472Y-56426060D01*
X38100000Y-56425865D01*
X38096528Y-56426060D01*
X37755774Y-56445196D01*
X37755768Y-56445196D01*
X37752307Y-56445391D01*
X37748898Y-56445970D01*
X37748882Y-56445972D01*
X37412420Y-56503139D01*
X37412407Y-56503141D01*
X37408987Y-56503723D01*
X37405653Y-56504683D01*
X37405642Y-56504686D01*
X37077699Y-56599165D01*
X37077684Y-56599170D01*
X37074356Y-56600129D01*
X37071152Y-56601455D01*
X37071138Y-56601461D01*
X36755838Y-56732063D01*
X36755827Y-56732068D01*
X36752624Y-56733395D01*
X36749585Y-56735074D01*
X36749580Y-56735077D01*
X36450872Y-56900166D01*
X36450857Y-56900174D01*
X36447836Y-56901845D01*
X36445010Y-56903849D01*
X36445007Y-56903852D01*
X36271255Y-57027136D01*
X36208188Y-57049701D01*
X36142586Y-57036173D01*
X36093591Y-56990499D01*
X36075500Y-56926006D01*
X36075500Y-43086494D01*
X36093591Y-43022001D01*
X36142586Y-42976327D01*
X36208188Y-42962799D01*
X36271254Y-42985363D01*
X36447836Y-43110655D01*
X36450871Y-43112332D01*
X36450872Y-43112333D01*
X36476060Y-43126254D01*
X36752624Y-43279105D01*
X37074356Y-43412371D01*
X37408987Y-43508777D01*
X37752307Y-43567109D01*
X38100000Y-43586635D01*
X38447693Y-43567109D01*
X38791013Y-43508777D01*
X39125644Y-43412371D01*
X39447376Y-43279105D01*
X39752164Y-43110655D01*
X39754995Y-43108646D01*
X39755005Y-43108640D01*
X40008729Y-42928613D01*
X40058622Y-42907684D01*
X40112678Y-42909994D01*
X40160604Y-42935102D01*
X40193277Y-42978228D01*
X40195938Y-42984056D01*
X40195940Y-42984059D01*
X40199623Y-42992123D01*
X40205428Y-42998822D01*
X40205432Y-42998828D01*
X40217495Y-43012750D01*
X40228095Y-43026909D01*
X40238063Y-43042419D01*
X40242857Y-43049878D01*
X40249556Y-43055682D01*
X40249557Y-43055684D01*
X40263487Y-43067755D01*
X40275992Y-43080260D01*
X40288063Y-43094190D01*
X40288065Y-43094192D01*
X40293872Y-43100893D01*
X40316841Y-43115654D01*
X40330994Y-43126248D01*
X40351627Y-43144127D01*
X40375203Y-43154894D01*
X40376451Y-43155464D01*
X40391978Y-43163942D01*
X40407482Y-43173906D01*
X40414947Y-43178703D01*
X40423462Y-43181203D01*
X40441135Y-43186393D01*
X40457712Y-43192576D01*
X40474471Y-43200229D01*
X40474473Y-43200229D01*
X40482543Y-43203915D01*
X40509567Y-43207800D01*
X40526846Y-43211559D01*
X40553039Y-43219250D01*
X40589201Y-43219250D01*
X40696961Y-43219250D01*
X54553039Y-43219250D01*
X54660799Y-43219250D01*
X54688091Y-43219250D01*
X54696961Y-43219250D01*
X54723153Y-43211559D01*
X54740433Y-43207800D01*
X54767457Y-43203915D01*
X54792284Y-43192575D01*
X54808865Y-43186392D01*
X54814351Y-43184781D01*
X54835053Y-43178703D01*
X54858020Y-43163942D01*
X54873541Y-43155467D01*
X54898373Y-43144127D01*
X54919008Y-43126245D01*
X54933150Y-43115658D01*
X54956128Y-43100893D01*
X54974015Y-43080249D01*
X54986499Y-43067765D01*
X55007143Y-43049878D01*
X55021908Y-43026900D01*
X55032495Y-43012758D01*
X55050377Y-42992123D01*
X55061718Y-42967290D01*
X55070192Y-42951770D01*
X55084953Y-42928803D01*
X55092642Y-42902615D01*
X55098828Y-42886029D01*
X55110165Y-42861207D01*
X55114050Y-42834183D01*
X55117809Y-42816903D01*
X55125500Y-42790711D01*
X55125500Y-42646789D01*
X55125500Y-28682951D01*
X55125500Y-28646789D01*
X55117809Y-28620594D01*
X55114050Y-28603315D01*
X55111427Y-28585070D01*
X55111426Y-28585069D01*
X55110165Y-28576293D01*
X55106479Y-28568221D01*
X55098826Y-28551462D01*
X55092643Y-28534885D01*
X55087453Y-28517212D01*
X55084953Y-28508697D01*
X55070192Y-28485728D01*
X55061714Y-28470201D01*
X55061144Y-28468953D01*
X55050377Y-28445377D01*
X55032498Y-28424744D01*
X55021904Y-28410591D01*
X55007143Y-28387622D01*
X55000442Y-28381815D01*
X55000440Y-28381813D01*
X54986510Y-28369742D01*
X54974005Y-28357237D01*
X54961934Y-28343307D01*
X54961932Y-28343306D01*
X54956128Y-28336607D01*
X54948671Y-28331814D01*
X54948669Y-28331813D01*
X54933159Y-28321845D01*
X54919000Y-28311245D01*
X54905078Y-28299182D01*
X54905073Y-28299179D01*
X54898373Y-28293373D01*
X54884612Y-28287088D01*
X54873540Y-28282031D01*
X54858022Y-28273557D01*
X54842515Y-28263592D01*
X54842512Y-28263591D01*
X54835053Y-28258797D01*
X54826544Y-28256298D01*
X54826541Y-28256297D01*
X54808856Y-28251104D01*
X54792285Y-28244923D01*
X54775528Y-28237271D01*
X54767457Y-28233585D01*
X54758675Y-28232322D01*
X54740435Y-28229699D01*
X54723155Y-28225940D01*
X54705471Y-28220748D01*
X54705467Y-28220747D01*
X54696961Y-28218250D01*
X54660799Y-28218250D01*
X40696961Y-28218250D01*
X40553039Y-28218250D01*
X40544534Y-28220746D01*
X40544533Y-28220747D01*
X40537240Y-28222888D01*
X40526838Y-28225942D01*
X40509565Y-28229699D01*
X40491319Y-28232322D01*
X40491312Y-28232323D01*
X40482543Y-28233585D01*
X40474479Y-28237267D01*
X40474477Y-28237268D01*
X40457709Y-28244925D01*
X40441143Y-28251103D01*
X40423464Y-28256294D01*
X40423451Y-28256299D01*
X40414947Y-28258797D01*
X40407486Y-28263591D01*
X40407485Y-28263592D01*
X40391980Y-28273556D01*
X40376464Y-28282028D01*
X40359698Y-28289685D01*
X40359688Y-28289691D01*
X40351627Y-28293373D01*
X40344926Y-28299178D01*
X40344923Y-28299181D01*
X40330998Y-28311247D01*
X40316842Y-28321844D01*
X40301331Y-28331812D01*
X40301325Y-28331817D01*
X40293872Y-28336607D01*
X40288069Y-28343302D01*
X40288066Y-28343306D01*
X40275993Y-28357239D01*
X40263489Y-28369743D01*
X40249556Y-28381816D01*
X40249552Y-28381819D01*
X40242857Y-28387622D01*
X40238067Y-28395075D01*
X40238062Y-28395081D01*
X40228094Y-28410592D01*
X40217497Y-28424748D01*
X40205431Y-28438673D01*
X40205428Y-28438676D01*
X40199623Y-28445377D01*
X40195941Y-28453438D01*
X40195935Y-28453448D01*
X40188278Y-28470214D01*
X40179807Y-28485728D01*
X40165047Y-28508697D01*
X40162549Y-28517201D01*
X40162544Y-28517214D01*
X40157353Y-28534893D01*
X40151175Y-28551459D01*
X40143521Y-28568221D01*
X40139835Y-28576293D01*
X40138573Y-28585062D01*
X40138572Y-28585069D01*
X40135949Y-28603315D01*
X40132191Y-28620594D01*
X40126999Y-28638278D01*
X40124500Y-28646789D01*
X40124500Y-28655657D01*
X40124500Y-37876006D01*
X40106409Y-37940499D01*
X40057414Y-37986173D01*
X39991812Y-37999701D01*
X39928745Y-37977136D01*
X39877110Y-37940499D01*
X39752164Y-37851845D01*
X39749133Y-37850170D01*
X39749127Y-37850166D01*
X39450419Y-37685077D01*
X39447376Y-37683395D01*
X39444165Y-37682065D01*
X39444161Y-37682063D01*
X39128861Y-37551461D01*
X39128852Y-37551458D01*
X39125644Y-37550129D01*
X39122309Y-37549168D01*
X39122300Y-37549165D01*
X38794357Y-37454686D01*
X38794350Y-37454684D01*
X38791013Y-37453723D01*
X38787588Y-37453141D01*
X38787579Y-37453139D01*
X38451117Y-37395972D01*
X38451103Y-37395970D01*
X38447693Y-37395391D01*
X38444229Y-37395196D01*
X38444225Y-37395196D01*
X38103472Y-37376060D01*
X38100000Y-37375865D01*
X38096528Y-37376060D01*
X37755774Y-37395196D01*
X37755768Y-37395196D01*
X37752307Y-37395391D01*
X37748898Y-37395970D01*
X37748882Y-37395972D01*
X37412420Y-37453139D01*
X37412407Y-37453141D01*
X37408987Y-37453723D01*
X37405653Y-37454683D01*
X37405642Y-37454686D01*
X37077699Y-37549165D01*
X37077684Y-37549170D01*
X37074356Y-37550129D01*
X37071152Y-37551455D01*
X37071138Y-37551461D01*
X36755838Y-37682063D01*
X36755827Y-37682068D01*
X36752624Y-37683395D01*
X36749585Y-37685074D01*
X36749580Y-37685077D01*
X36450872Y-37850166D01*
X36450857Y-37850174D01*
X36447836Y-37851845D01*
X36445010Y-37853849D01*
X36445007Y-37853852D01*
X36271255Y-37977136D01*
X36208188Y-37999701D01*
X36142586Y-37986173D01*
X36093591Y-37940499D01*
X36075500Y-37876006D01*
X36075500Y-23893160D01*
X36075500Y-23893157D01*
X36075500Y-23884289D01*
X36067809Y-23858094D01*
X36064050Y-23840815D01*
X36061427Y-23822570D01*
X36061426Y-23822569D01*
X36060165Y-23813793D01*
X36056479Y-23805721D01*
X36048826Y-23788962D01*
X36042643Y-23772385D01*
X36037453Y-23754712D01*
X36034953Y-23746197D01*
X36020192Y-23723228D01*
X36011714Y-23707701D01*
X36011144Y-23706453D01*
X36000377Y-23682877D01*
X35982498Y-23662244D01*
X35971904Y-23648091D01*
X35957143Y-23625122D01*
X35950442Y-23619315D01*
X35950440Y-23619313D01*
X35936510Y-23607242D01*
X35924005Y-23594737D01*
X35911934Y-23580807D01*
X35911932Y-23580806D01*
X35906128Y-23574107D01*
X35898671Y-23569314D01*
X35898669Y-23569313D01*
X35883159Y-23559345D01*
X35869000Y-23548745D01*
X35855078Y-23536682D01*
X35855073Y-23536679D01*
X35848373Y-23530873D01*
X35834612Y-23524588D01*
X35823540Y-23519531D01*
X35808022Y-23511057D01*
X35792515Y-23501092D01*
X35792512Y-23501091D01*
X35785053Y-23496297D01*
X35776544Y-23493798D01*
X35776541Y-23493797D01*
X35758856Y-23488604D01*
X35742285Y-23482423D01*
X35725528Y-23474771D01*
X35717457Y-23471085D01*
X35708675Y-23469822D01*
X35690435Y-23467199D01*
X35673155Y-23463440D01*
X35655471Y-23458248D01*
X35655467Y-23458247D01*
X35646961Y-23455750D01*
X35610799Y-23455750D01*
X21646961Y-23455750D01*
X21503039Y-23455750D01*
X21494534Y-23458246D01*
X21494533Y-23458247D01*
X21487240Y-23460388D01*
X21476838Y-23463442D01*
X21459565Y-23467199D01*
X21441319Y-23469822D01*
X21441312Y-23469823D01*
X21432543Y-23471085D01*
X21424479Y-23474767D01*
X21424477Y-23474768D01*
X21407709Y-23482425D01*
X21391143Y-23488603D01*
X21373464Y-23493794D01*
X21373451Y-23493799D01*
X21364947Y-23496297D01*
X21357486Y-23501091D01*
X21357485Y-23501092D01*
X21341980Y-23511056D01*
X21326464Y-23519528D01*
X21309698Y-23527185D01*
X21309688Y-23527191D01*
X21301627Y-23530873D01*
X21294926Y-23536678D01*
X21294923Y-23536681D01*
X21280998Y-23548747D01*
X21266842Y-23559344D01*
X21251331Y-23569312D01*
X21251325Y-23569317D01*
X21243872Y-23574107D01*
X21238069Y-23580802D01*
X21238066Y-23580806D01*
X21225993Y-23594739D01*
X21213489Y-23607243D01*
X21199556Y-23619316D01*
X21199552Y-23619319D01*
X21192857Y-23625122D01*
X21188067Y-23632575D01*
X21188062Y-23632581D01*
X21178094Y-23648092D01*
X21167497Y-23662248D01*
X21155431Y-23676173D01*
X21155428Y-23676176D01*
X21149623Y-23682877D01*
X21145941Y-23690938D01*
X21145935Y-23690948D01*
X21138278Y-23707714D01*
X21129807Y-23723228D01*
X21115047Y-23746197D01*
X21112549Y-23754701D01*
X21112544Y-23754714D01*
X21107353Y-23772393D01*
X21101175Y-23788959D01*
X21093521Y-23805721D01*
X21089835Y-23813793D01*
X21088573Y-23822562D01*
X21088572Y-23822569D01*
X21085949Y-23840815D01*
X21082191Y-23858094D01*
X21076999Y-23875778D01*
X21074500Y-23884289D01*
X21074500Y-23920451D01*
X21074500Y-37884289D01*
X21074500Y-38028211D01*
X21076997Y-38036717D01*
X21076998Y-38036721D01*
X21082190Y-38054405D01*
X21085949Y-38071685D01*
X21089835Y-38098707D01*
X21093521Y-38106778D01*
X21101173Y-38123535D01*
X21107354Y-38140106D01*
X21112547Y-38157791D01*
X21112548Y-38157794D01*
X21115047Y-38166303D01*
X21119841Y-38173762D01*
X21119842Y-38173765D01*
X21129807Y-38189272D01*
X21138281Y-38204790D01*
X21143338Y-38215862D01*
X21149623Y-38229623D01*
X21155429Y-38236323D01*
X21155432Y-38236328D01*
X21167495Y-38250250D01*
X21178095Y-38264409D01*
X21188063Y-38279919D01*
X21192857Y-38287378D01*
X21199556Y-38293182D01*
X21199557Y-38293184D01*
X21213487Y-38305255D01*
X21225992Y-38317760D01*
X21238063Y-38331690D01*
X21238065Y-38331692D01*
X21243872Y-38338393D01*
X21266841Y-38353154D01*
X21280994Y-38363748D01*
X21301627Y-38381627D01*
X21325203Y-38392394D01*
X21326451Y-38392964D01*
X21341978Y-38401442D01*
X21364947Y-38416203D01*
X21373462Y-38418703D01*
X21391135Y-38423893D01*
X21407712Y-38430076D01*
X21424471Y-38437729D01*
X21424473Y-38437729D01*
X21432543Y-38441415D01*
X21459567Y-38445300D01*
X21476846Y-38449059D01*
X21503039Y-38456750D01*
X21511910Y-38456750D01*
X35494756Y-38456750D01*
X35559249Y-38474841D01*
X35604923Y-38523836D01*
X35618451Y-38589438D01*
X35595886Y-38652504D01*
X35470595Y-38829086D01*
X35468924Y-38832107D01*
X35468916Y-38832122D01*
X35303827Y-39130830D01*
X35302145Y-39133874D01*
X35300818Y-39137077D01*
X35300813Y-39137088D01*
X35170211Y-39452388D01*
X35170205Y-39452402D01*
X35168879Y-39455606D01*
X35167920Y-39458934D01*
X35167915Y-39458949D01*
X35073436Y-39786892D01*
X35073433Y-39786903D01*
X35072473Y-39790237D01*
X35071891Y-39793657D01*
X35071889Y-39793670D01*
X35014722Y-40130132D01*
X35014720Y-40130148D01*
X35014141Y-40133557D01*
X35013946Y-40137018D01*
X35013946Y-40137024D01*
X35000354Y-40379052D01*
X34994615Y-40481250D01*
X34994810Y-40484722D01*
X35006087Y-40685539D01*
X35014141Y-40828943D01*
X35014720Y-40832353D01*
X35014722Y-40832367D01*
X35071889Y-41168829D01*
X35071891Y-41168838D01*
X35072473Y-41172263D01*
X35073434Y-41175600D01*
X35073436Y-41175607D01*
X35167915Y-41503550D01*
X35167918Y-41503559D01*
X35168879Y-41506894D01*
X35170208Y-41510102D01*
X35170211Y-41510111D01*
X35300813Y-41825411D01*
X35302145Y-41828626D01*
X35303827Y-41831669D01*
X35468916Y-42130377D01*
X35468920Y-42130383D01*
X35470595Y-42133414D01*
X35595886Y-42309995D01*
X35618451Y-42373062D01*
X35604923Y-42438664D01*
X35559249Y-42487659D01*
X35494756Y-42505750D01*
X21646961Y-42505750D01*
X21503039Y-42505750D01*
X21494534Y-42508246D01*
X21494533Y-42508247D01*
X21487240Y-42510388D01*
X21476838Y-42513442D01*
X21459565Y-42517199D01*
X21441319Y-42519822D01*
X21441312Y-42519823D01*
X21432543Y-42521085D01*
X21424479Y-42524767D01*
X21424477Y-42524768D01*
X21407709Y-42532425D01*
X21391143Y-42538603D01*
X21373464Y-42543794D01*
X21373451Y-42543799D01*
X21364947Y-42546297D01*
X21357486Y-42551091D01*
X21357485Y-42551092D01*
X21341980Y-42561056D01*
X21326464Y-42569528D01*
X21309698Y-42577185D01*
X21309688Y-42577191D01*
X21301627Y-42580873D01*
X21294926Y-42586678D01*
X21294923Y-42586681D01*
X21280998Y-42598747D01*
X21266842Y-42609344D01*
X21251331Y-42619312D01*
X21251325Y-42619317D01*
X21243872Y-42624107D01*
X21238069Y-42630802D01*
X21238066Y-42630806D01*
X21225993Y-42644739D01*
X21213489Y-42657243D01*
X21199556Y-42669316D01*
X21199552Y-42669319D01*
X21192857Y-42675122D01*
X21188067Y-42682575D01*
X21188062Y-42682581D01*
X21178094Y-42698092D01*
X21167497Y-42712248D01*
X21155431Y-42726173D01*
X21155428Y-42726176D01*
X21149623Y-42732877D01*
X21145941Y-42740938D01*
X21145935Y-42740948D01*
X21138278Y-42757714D01*
X21129806Y-42773230D01*
X21124271Y-42781844D01*
X21115047Y-42796197D01*
X21112549Y-42804701D01*
X21112544Y-42804714D01*
X21107353Y-42822393D01*
X21101175Y-42838959D01*
X21093521Y-42855721D01*
X21089835Y-42863793D01*
X21088573Y-42872562D01*
X21088572Y-42872569D01*
X21085949Y-42890815D01*
X21082191Y-42908094D01*
X21076999Y-42925778D01*
X21074500Y-42934289D01*
X21074500Y-42970451D01*
X21074500Y-56934289D01*
X21074500Y-57078211D01*
X21076997Y-57086717D01*
X21076998Y-57086721D01*
X21082190Y-57104405D01*
X21085949Y-57121685D01*
X21089835Y-57148707D01*
X21093521Y-57156778D01*
X21101173Y-57173535D01*
X21107354Y-57190106D01*
X21112547Y-57207791D01*
X21112548Y-57207794D01*
X21115047Y-57216303D01*
X21119841Y-57223762D01*
X21119842Y-57223765D01*
X21129807Y-57239272D01*
X21138281Y-57254790D01*
X21143338Y-57265862D01*
X21149623Y-57279623D01*
X21155428Y-57286322D01*
X21155432Y-57286328D01*
X21167495Y-57300250D01*
X21178095Y-57314409D01*
X21188063Y-57329919D01*
X21192857Y-57337378D01*
X21199556Y-57343182D01*
X21199557Y-57343184D01*
X21213487Y-57355255D01*
X21225992Y-57367760D01*
X21238063Y-57381690D01*
X21238065Y-57381692D01*
X21243872Y-57388393D01*
X21266841Y-57403154D01*
X21280994Y-57413748D01*
X21301627Y-57431627D01*
X21325203Y-57442394D01*
X21326451Y-57442964D01*
X21341978Y-57451442D01*
X21364947Y-57466203D01*
X21373462Y-57468703D01*
X21391135Y-57473893D01*
X21407712Y-57480076D01*
X21424471Y-57487729D01*
X21424473Y-57487729D01*
X21432543Y-57491415D01*
X21459567Y-57495300D01*
X21476846Y-57499059D01*
X21503039Y-57506750D01*
X21511910Y-57506750D01*
X35494756Y-57506750D01*
X35559249Y-57524841D01*
X35604923Y-57573836D01*
X35618451Y-57639438D01*
X35595886Y-57702504D01*
X35470595Y-57879086D01*
X35468924Y-57882107D01*
X35468916Y-57882122D01*
X35303827Y-58180830D01*
X35302145Y-58183874D01*
X35300818Y-58187077D01*
X35300813Y-58187088D01*
X35170211Y-58502388D01*
X35170205Y-58502402D01*
X35168879Y-58505606D01*
X35167920Y-58508934D01*
X35167915Y-58508949D01*
X35073436Y-58836892D01*
X35073433Y-58836903D01*
X35072473Y-58840237D01*
X35071891Y-58843657D01*
X35071889Y-58843670D01*
X35014722Y-59180132D01*
X35014720Y-59180148D01*
X35014141Y-59183557D01*
X34994615Y-59531250D01*
X35014141Y-59878943D01*
X35014720Y-59882353D01*
X35014722Y-59882367D01*
X35071889Y-60218829D01*
X35071891Y-60218838D01*
X35072473Y-60222263D01*
X35073434Y-60225600D01*
X35073436Y-60225607D01*
X35167915Y-60553550D01*
X35167918Y-60553559D01*
X35168879Y-60556894D01*
X35170208Y-60560102D01*
X35170211Y-60560111D01*
X35300813Y-60875411D01*
X35302145Y-60878626D01*
X35303827Y-60881669D01*
X35468916Y-61180377D01*
X35468920Y-61180383D01*
X35470595Y-61183414D01*
X35595886Y-61359995D01*
X35618451Y-61423062D01*
X35604923Y-61488664D01*
X35559249Y-61537659D01*
X35494756Y-61555750D01*
X21646961Y-61555750D01*
X21503039Y-61555750D01*
X21494534Y-61558246D01*
X21494533Y-61558247D01*
X21487240Y-61560388D01*
X21476838Y-61563442D01*
X21459565Y-61567199D01*
X21441319Y-61569822D01*
X21441312Y-61569823D01*
X21432543Y-61571085D01*
X21424479Y-61574767D01*
X21424477Y-61574768D01*
X21407709Y-61582425D01*
X21391143Y-61588603D01*
X21373464Y-61593794D01*
X21373451Y-61593799D01*
X21364947Y-61596297D01*
X21357486Y-61601091D01*
X21357485Y-61601092D01*
X21341980Y-61611056D01*
X21326464Y-61619528D01*
X21309698Y-61627185D01*
X21309688Y-61627191D01*
X21301627Y-61630873D01*
X21294926Y-61636678D01*
X21294923Y-61636681D01*
X21280998Y-61648747D01*
X21266842Y-61659344D01*
X21251331Y-61669312D01*
X21251325Y-61669317D01*
X21243872Y-61674107D01*
X21238069Y-61680802D01*
X21238066Y-61680806D01*
X21225993Y-61694739D01*
X21213489Y-61707243D01*
X21199556Y-61719316D01*
X21199552Y-61719319D01*
X21192857Y-61725122D01*
X21188067Y-61732575D01*
X21188062Y-61732581D01*
X21178094Y-61748092D01*
X21167497Y-61762248D01*
X21155431Y-61776173D01*
X21155428Y-61776176D01*
X21149623Y-61782877D01*
X21145941Y-61790938D01*
X21145935Y-61790948D01*
X21138278Y-61807714D01*
X21129806Y-61823230D01*
X21124271Y-61831844D01*
X21115047Y-61846197D01*
X21112549Y-61854701D01*
X21112544Y-61854714D01*
X21107353Y-61872393D01*
X21101175Y-61888959D01*
X21093521Y-61905721D01*
X21089835Y-61913793D01*
X21088573Y-61922562D01*
X21088572Y-61922569D01*
X21085949Y-61940815D01*
X21082191Y-61958094D01*
X21076999Y-61975778D01*
X21074500Y-61984289D01*
X21074500Y-62020451D01*
X21074500Y-75984289D01*
X21074500Y-76128211D01*
X19550500Y-76128211D01*
X19550500Y-22497128D01*
X19550501Y-22497117D01*
X19550505Y-22497102D01*
X19550500Y-22438163D01*
X19551278Y-22424296D01*
X19561451Y-22333948D01*
X19567629Y-22306877D01*
X19595338Y-22227679D01*
X19607384Y-22202665D01*
X19652022Y-22131620D01*
X19669332Y-22109912D01*
X19728662Y-22050582D01*
X19750370Y-22033272D01*
X19821415Y-21988634D01*
X19846429Y-21976588D01*
X19925630Y-21948878D01*
X19952698Y-21942701D01*
X20043046Y-21932528D01*
X20056913Y-21931750D01*
X20115852Y-21931755D01*
X20115868Y-21931750D01*
X20115882Y-21931750D01*
X37034108Y-21931750D01*
X37093040Y-21931750D01*
X37106922Y-21932529D01*
G37*
%TD.AperFunction*%
M02*
