%TF.GenerationSoftware,KiCad,Pcbnew,(7.0.0)*%
%TF.CreationDate,2023-04-23T19:10:36+09:00*%
%TF.ProjectId,topplate_l,746f7070-6c61-4746-955f-6c2e6b696361,rev?*%
%TF.SameCoordinates,Original*%
%TF.FileFunction,Profile,NP*%
%FSLAX46Y46*%
G04 Gerber Fmt 4.6, Leading zero omitted, Abs format (unit mm)*
G04 Created by KiCad (PCBNEW (7.0.0)) date 2023-04-23 19:10:36*
%MOMM*%
%LPD*%
G01*
G04 APERTURE LIST*
%TA.AperFunction,Profile*%
%ADD10C,0.100000*%
%TD*%
%TA.AperFunction,Profile*%
%ADD11C,0.120000*%
%TD*%
G04 APERTURE END LIST*
D10*
X19050050Y-77581250D02*
G75*
G03*
X20050000Y-78581250I999950J-50D01*
G01*
X38100000Y-79581250D02*
X38100000Y-82343750D01*
X109537550Y-115681250D02*
G75*
G03*
X110537500Y-116681250I999950J-50D01*
G01*
X133349950Y-96631250D02*
G75*
G03*
X134350000Y-97631250I1000050J50D01*
G01*
X38100000Y-22431250D02*
X38100000Y-25193750D01*
X114300000Y-31956250D02*
X114300000Y-39481250D01*
X90487500Y-103393750D02*
X90487500Y-106156250D01*
X134350000Y-97631250D02*
X151400000Y-97631250D01*
X71437450Y-101393750D02*
G75*
G03*
X72437500Y-102393750I1000050J50D01*
G01*
X38099950Y-79581250D02*
G75*
G03*
X37100000Y-78581250I-999950J50D01*
G01*
X109537550Y-108156250D02*
G75*
G03*
X108537500Y-107156250I-1000050J-50D01*
G01*
X20050000Y-78581250D02*
X37100000Y-78581250D01*
X39100000Y-26193750D02*
X94250000Y-26193750D01*
X37100000Y-21431250D02*
X20050000Y-21431250D01*
X109537500Y-108156250D02*
X109537500Y-115681250D01*
X91487500Y-107156250D02*
X108537500Y-107156250D01*
X38100050Y-22431250D02*
G75*
G03*
X37100000Y-21431250I-1000050J-50D01*
G01*
X152400050Y-98631250D02*
G75*
G03*
X151400000Y-97631250I-1000050J-50D01*
G01*
X95250000Y-27193750D02*
X95250000Y-29956250D01*
X151400000Y-126206200D02*
G75*
G03*
X152400000Y-125206250I100J999900D01*
G01*
X133350000Y-41481250D02*
X133350000Y-96631250D01*
X39100000Y-83343750D02*
X70437500Y-83343750D01*
X128587500Y-117681250D02*
X128587500Y-125206250D01*
X96250000Y-30956250D02*
X113300000Y-30956250D01*
X128587450Y-117681250D02*
G75*
G03*
X127587500Y-116681250I-999950J50D01*
G01*
X72437500Y-102393750D02*
X89487500Y-102393750D01*
X38100050Y-82343750D02*
G75*
G03*
X39100000Y-83343750I999950J-50D01*
G01*
X128587550Y-125206250D02*
G75*
G03*
X129587500Y-126206250I999950J-50D01*
G01*
X115300000Y-40481250D02*
X132350000Y-40481250D01*
X95250050Y-29956250D02*
G75*
G03*
X96250000Y-30956250I999950J-50D01*
G01*
X90487450Y-103393750D02*
G75*
G03*
X89487500Y-102393750I-999950J50D01*
G01*
X110537500Y-116681250D02*
X127587500Y-116681250D01*
X90487550Y-106156250D02*
G75*
G03*
X91487500Y-107156250I999950J-50D01*
G01*
X38100050Y-25193750D02*
G75*
G03*
X39100000Y-26193750I999950J-50D01*
G01*
X71437500Y-84343750D02*
X71437500Y-101393750D01*
X20050000Y-21431250D02*
G75*
G03*
X19050000Y-22431250I-80J-999920D01*
G01*
X114299950Y-39481250D02*
G75*
G03*
X115300000Y-40481250I1000050J50D01*
G01*
X129587500Y-126206250D02*
X151400000Y-126206250D01*
X19050000Y-22431250D02*
X19050000Y-77581250D01*
X71437450Y-84343750D02*
G75*
G03*
X70437500Y-83343750I-999950J50D01*
G01*
X114300050Y-31956250D02*
G75*
G03*
X113300000Y-30956250I-1000050J-50D01*
G01*
X95249950Y-27193750D02*
G75*
G03*
X94250000Y-26193750I-999950J50D01*
G01*
X152400000Y-125206250D02*
X152400000Y-98631250D01*
X133349950Y-41481250D02*
G75*
G03*
X132350000Y-40481250I-999950J50D01*
G01*
D11*
%TO.C,SW6*%
X116825000Y-43006250D02*
X116825000Y-57006250D01*
X116825000Y-57006250D02*
X130825000Y-57006250D01*
X130825000Y-43006250D02*
X116825000Y-43006250D01*
X130825000Y-57006250D02*
X130825000Y-43006250D01*
%TO.C,SW8*%
X40625000Y-47768750D02*
X40625000Y-61768750D01*
X40625000Y-61768750D02*
X54625000Y-61768750D01*
X54625000Y-47768750D02*
X40625000Y-47768750D01*
X54625000Y-61768750D02*
X54625000Y-47768750D01*
%TO.C,SW18*%
X116825000Y-81106250D02*
X116825000Y-95106250D01*
X116825000Y-95106250D02*
X130825000Y-95106250D01*
X130825000Y-81106250D02*
X116825000Y-81106250D01*
X130825000Y-95106250D02*
X130825000Y-81106250D01*
%TO.C,SW21*%
X112062500Y-100156250D02*
X112062500Y-114156250D01*
X112062500Y-114156250D02*
X126062500Y-114156250D01*
X126062500Y-100156250D02*
X112062500Y-100156250D01*
X126062500Y-114156250D02*
X126062500Y-100156250D01*
%TO.C,SW22*%
X131112500Y-109681250D02*
X131112500Y-123681250D01*
X131112500Y-123681250D02*
X145112500Y-123681250D01*
X145112500Y-109681250D02*
X131112500Y-109681250D01*
X145112500Y-123681250D02*
X145112500Y-109681250D01*
%TO.C,SW17*%
X97775000Y-71581250D02*
X97775000Y-85581250D01*
X97775000Y-85581250D02*
X111775000Y-85581250D01*
X111775000Y-71581250D02*
X97775000Y-71581250D01*
X111775000Y-85581250D02*
X111775000Y-71581250D01*
%TO.C,SW19*%
X73962500Y-85868750D02*
X73962500Y-99868750D01*
X73962500Y-99868750D02*
X87962500Y-99868750D01*
X87962500Y-85868750D02*
X73962500Y-85868750D01*
X87962500Y-99868750D02*
X87962500Y-85868750D01*
%TO.C,SW1*%
X21575000Y-23956250D02*
X21575000Y-37956250D01*
X21575000Y-37956250D02*
X35575000Y-37956250D01*
X35575000Y-23956250D02*
X21575000Y-23956250D01*
X35575000Y-37956250D02*
X35575000Y-23956250D01*
%TO.C,SW3*%
X59675000Y-28718750D02*
X59675000Y-42718750D01*
X59675000Y-42718750D02*
X73675000Y-42718750D01*
X73675000Y-28718750D02*
X59675000Y-28718750D01*
X73675000Y-42718750D02*
X73675000Y-28718750D01*
%TO.C,SW14*%
X40625000Y-66818750D02*
X40625000Y-80818750D01*
X40625000Y-80818750D02*
X54625000Y-80818750D01*
X54625000Y-66818750D02*
X40625000Y-66818750D01*
X54625000Y-80818750D02*
X54625000Y-66818750D01*
%TO.C,SW10*%
X78725000Y-47768750D02*
X78725000Y-61768750D01*
X78725000Y-61768750D02*
X92725000Y-61768750D01*
X92725000Y-47768750D02*
X78725000Y-47768750D01*
X92725000Y-61768750D02*
X92725000Y-47768750D01*
%TO.C,SW16*%
X78725000Y-66818750D02*
X78725000Y-80818750D01*
X78725000Y-80818750D02*
X92725000Y-80818750D01*
X92725000Y-66818750D02*
X78725000Y-66818750D01*
X92725000Y-80818750D02*
X92725000Y-66818750D01*
%TO.C,SW5*%
X97775000Y-33481250D02*
X97775000Y-47481250D01*
X97775000Y-47481250D02*
X111775000Y-47481250D01*
X111775000Y-33481250D02*
X97775000Y-33481250D01*
X111775000Y-47481250D02*
X111775000Y-33481250D01*
%TO.C,SW20*%
X93012500Y-90631250D02*
X93012500Y-104631250D01*
X93012500Y-104631250D02*
X107012500Y-104631250D01*
X107012500Y-90631250D02*
X93012500Y-90631250D01*
X107012500Y-104631250D02*
X107012500Y-90631250D01*
%TO.C,SW11*%
X97775000Y-52531250D02*
X97775000Y-66531250D01*
X97775000Y-66531250D02*
X111775000Y-66531250D01*
X111775000Y-52531250D02*
X97775000Y-52531250D01*
X111775000Y-66531250D02*
X111775000Y-52531250D01*
%TO.C,SW9*%
X59675000Y-47768750D02*
X59675000Y-61768750D01*
X59675000Y-61768750D02*
X73675000Y-61768750D01*
X73675000Y-47768750D02*
X59675000Y-47768750D01*
X73675000Y-61768750D02*
X73675000Y-47768750D01*
%TO.C,SW12*%
X116825000Y-62056250D02*
X116825000Y-76056250D01*
X116825000Y-76056250D02*
X130825000Y-76056250D01*
X130825000Y-62056250D02*
X116825000Y-62056250D01*
X130825000Y-76056250D02*
X130825000Y-62056250D01*
%TO.C,SW4*%
X78725000Y-28718750D02*
X78725000Y-42718750D01*
X78725000Y-42718750D02*
X92725000Y-42718750D01*
X92725000Y-28718750D02*
X78725000Y-28718750D01*
X92725000Y-42718750D02*
X92725000Y-28718750D01*
%TO.C,SW13*%
X21575000Y-62056250D02*
X21575000Y-76056250D01*
X21575000Y-76056250D02*
X35575000Y-76056250D01*
X35575000Y-62056250D02*
X21575000Y-62056250D01*
X35575000Y-76056250D02*
X35575000Y-62056250D01*
%TO.C,SW15*%
X59675000Y-66818750D02*
X59675000Y-80818750D01*
X59675000Y-80818750D02*
X73675000Y-80818750D01*
X73675000Y-66818750D02*
X59675000Y-66818750D01*
X73675000Y-80818750D02*
X73675000Y-66818750D01*
%TO.C,SW7*%
X21575000Y-43006250D02*
X21575000Y-57006250D01*
X21575000Y-57006250D02*
X35575000Y-57006250D01*
X35575000Y-43006250D02*
X21575000Y-43006250D01*
X35575000Y-57006250D02*
X35575000Y-43006250D01*
%TO.C,SW2*%
X40625000Y-28718750D02*
X40625000Y-42718750D01*
X40625000Y-42718750D02*
X54625000Y-42718750D01*
X54625000Y-28718750D02*
X40625000Y-28718750D01*
X54625000Y-42718750D02*
X54625000Y-28718750D01*
%TD*%
M02*
